<?xml version="1.0" encoding="utf-8" standalone="no"?>
<!DOCTYPE svg PUBLIC "-//W3C//DTD SVG 1.1//EN"
  "http://www.w3.org/Graphics/SVG/1.1/DTD/svg11.dtd">
<!-- Created with matplotlib (https://matplotlib.org/) -->
<svg height="153.422254pt" version="1.1" viewBox="0 0 272.424272 153.422254" width="272.424272pt" xmlns="http://www.w3.org/2000/svg" xmlns:xlink="http://www.w3.org/1999/xlink">
 <defs>
  <style type="text/css">
*{stroke-linecap:butt;stroke-linejoin:round;}
  </style>
 </defs>
 <g id="figure_1">
  <g id="patch_1">
   <path d="M 0 153.422254 
L 272.424272 153.422254 
L 272.424272 0 
L 0 0 
z
" style="fill:#ffffff;"/>
  </g>
  <g id="axes_1">
   <g id="patch_2">
    <path d="M 23.008594 134.398973 
L 136.464714 134.398973 
L 136.464714 20.410469 
L 23.008594 20.410469 
z
" style="fill:#ffffff;"/>
   </g>
   <g id="matplotlib.axis_1">
    <g id="xtick_1">
     <g id="line2d_1">
      <path clip-path="url(#p076ed1b92b)" d="M 23.008594 134.398973 
L 23.008594 20.410469 
" style="fill:none;stroke:#000000;stroke-linecap:square;stroke-opacity:0.1;stroke-width:0.6;"/>
     </g>
     <g id="line2d_2">
      <defs>
       <path d="M 0 0 
L 0 4 
" id="m0a749d40ef" style="stroke:#000000;stroke-width:0.6;"/>
      </defs>
      <g>
       <use style="stroke:#000000;stroke-width:0.6;" x="23.008594" xlink:href="#m0a749d40ef" y="134.398973"/>
      </g>
     </g>
     <g id="text_1">
      <!-- 0 -->
      <defs>
       <path d="M 50.703125 34.09375 
Q 50.703125 16.703125 44.75 7.59375 
Q 38.796875 -1.5 27.5 -1.5 
Q 16.09375 -1.5 10.1875 7.640625 
Q 4.296875 16.796875 4.296875 34.6875 
Q 4.296875 52.59375 10.140625 61.75 
Q 16 70.90625 27.5 70.90625 
Q 50.703125 70.90625 50.703125 34.09375 
z
M 41.703125 34.90625 
Q 41.703125 63.09375 27.5 63.09375 
Q 13.296875 63.09375 13.296875 34.59375 
Q 13.296875 5.796875 27.296875 5.796875 
Q 34.703125 5.796875 38.203125 12.84375 
Q 41.703125 19.90625 41.703125 34.90625 
z
" id="TeXGyreHeros-Regular-48"/>
      </defs>
      <g transform="translate(20.506875 146.960536)scale(0.09 -0.09)">
       <use xlink:href="#TeXGyreHeros-Regular-48"/>
      </g>
     </g>
    </g>
    <g id="xtick_2">
     <g id="line2d_3">
      <path clip-path="url(#p076ed1b92b)" d="M 51.372624 134.398973 
L 51.372624 20.410469 
" style="fill:none;stroke:#000000;stroke-linecap:square;stroke-opacity:0.1;stroke-width:0.6;"/>
     </g>
     <g id="line2d_4">
      <g>
       <use style="stroke:#000000;stroke-width:0.6;" x="51.372624" xlink:href="#m0a749d40ef" y="134.398973"/>
      </g>
     </g>
     <g id="text_2">
      <!-- 0.25 -->
      <defs>
       <path d="M 19.09375 0 
L 8.703125 0 
L 8.703125 10.40625 
L 19.09375 10.40625 
z
" id="TeXGyreHeros-Regular-46"/>
       <path d="M 51.09375 50.09375 
Q 51.09375 36.703125 36.09375 28.703125 
L 26.09375 23.296875 
Q 19.59375 19.5 16.796875 16.296875 
Q 14 13.09375 13.296875 8.703125 
L 50.59375 8.703125 
L 50.59375 0 
L 3.40625 0 
Q 4 11.703125 8.09375 18.046875 
Q 12.203125 24.40625 23.296875 30.703125 
L 32.5 35.90625 
Q 42.09375 41.40625 42.09375 49.90625 
Q 42.09375 55.59375 38.09375 59.390625 
Q 34.09375 63.203125 28.09375 63.203125 
Q 21.40625 63.203125 17.84375 59.140625 
Q 14.296875 55.09375 13.796875 46.296875 
L 5 46.296875 
Q 5.703125 70.90625 28.40625 70.90625 
Q 38.40625 70.90625 44.75 65 
Q 51.09375 59.09375 51.09375 50.09375 
z
" id="TeXGyreHeros-Regular-50"/>
       <path d="M 51.296875 23.5 
Q 51.296875 12.296875 44.546875 5.390625 
Q 37.796875 -1.5 27 -1.5 
Q 17.296875 -1.5 11.4375 3.203125 
Q 5.59375 7.90625 3.5 18.203125 
L 12.296875 18.203125 
Q 15.40625 6.296875 26.796875 6.296875 
Q 34.09375 6.296875 38.1875 10.5 
Q 42.296875 14.703125 42.296875 22.296875 
Q 42.296875 30.09375 38.140625 34.5 
Q 34 38.90625 26.796875 38.90625 
Q 22.703125 38.90625 19.796875 37.453125 
Q 16.90625 36 13.796875 32.296875 
L 5.703125 32.296875 
L 11 69.40625 
L 47.59375 69.40625 
L 47.59375 60.703125 
L 18.09375 60.703125 
L 15.296875 42.40625 
Q 21.203125 46.703125 28.40625 46.703125 
Q 38.59375 46.703125 44.9375 40.34375 
Q 51.296875 34 51.296875 23.5 
z
" id="TeXGyreHeros-Regular-53"/>
      </defs>
      <g transform="translate(42.616608 146.960536)scale(0.09 -0.09)">
       <use xlink:href="#TeXGyreHeros-Regular-48"/>
       <use x="55.599991" xlink:href="#TeXGyreHeros-Regular-46"/>
       <use x="83.399979" xlink:href="#TeXGyreHeros-Regular-50"/>
       <use x="138.999969" xlink:href="#TeXGyreHeros-Regular-53"/>
      </g>
     </g>
    </g>
    <g id="xtick_3">
     <g id="line2d_5">
      <path clip-path="url(#p076ed1b92b)" d="M 79.736654 134.398973 
L 79.736654 20.410469 
" style="fill:none;stroke:#000000;stroke-linecap:square;stroke-opacity:0.1;stroke-width:0.6;"/>
     </g>
     <g id="line2d_6">
      <g>
       <use style="stroke:#000000;stroke-width:0.6;" x="79.736654" xlink:href="#m0a749d40ef" y="134.398973"/>
      </g>
     </g>
     <g id="text_3">
      <!-- 0.5 -->
      <g transform="translate(73.482357 146.960536)scale(0.09 -0.09)">
       <use xlink:href="#TeXGyreHeros-Regular-48"/>
       <use x="55.599991" xlink:href="#TeXGyreHeros-Regular-46"/>
       <use x="83.399979" xlink:href="#TeXGyreHeros-Regular-53"/>
      </g>
     </g>
    </g>
    <g id="xtick_4">
     <g id="line2d_7">
      <path clip-path="url(#p076ed1b92b)" d="M 108.100684 134.398973 
L 108.100684 20.410469 
" style="fill:none;stroke:#000000;stroke-linecap:square;stroke-opacity:0.1;stroke-width:0.6;"/>
     </g>
     <g id="line2d_8">
      <g>
       <use style="stroke:#000000;stroke-width:0.6;" x="108.100684" xlink:href="#m0a749d40ef" y="134.398973"/>
      </g>
     </g>
     <g id="text_4">
      <!-- 0.75 -->
      <defs>
       <path d="M 52 62 
Q 29.09375 34.796875 23.203125 0 
L 13.796875 0 
Q 21.296875 33.5 42.90625 60.703125 
L 4.59375 60.703125 
L 4.59375 69.40625 
L 52 69.40625 
z
" id="TeXGyreHeros-Regular-55"/>
      </defs>
      <g transform="translate(99.344669 146.960536)scale(0.09 -0.09)">
       <use xlink:href="#TeXGyreHeros-Regular-48"/>
       <use x="55.599991" xlink:href="#TeXGyreHeros-Regular-46"/>
       <use x="83.399979" xlink:href="#TeXGyreHeros-Regular-55"/>
       <use x="138.999969" xlink:href="#TeXGyreHeros-Regular-53"/>
      </g>
     </g>
    </g>
    <g id="xtick_5">
     <g id="line2d_9">
      <path clip-path="url(#p076ed1b92b)" d="M 136.464714 134.398973 
L 136.464714 20.410469 
" style="fill:none;stroke:#000000;stroke-linecap:square;stroke-opacity:0.1;stroke-width:0.6;"/>
     </g>
     <g id="line2d_10">
      <g>
       <use style="stroke:#000000;stroke-width:0.6;" x="136.464714" xlink:href="#m0a749d40ef" y="134.398973"/>
      </g>
     </g>
     <g id="text_5">
      <!-- 1 -->
      <defs>
       <path d="M 34.703125 0 
L 25.90625 0 
L 25.90625 50.5 
L 10.203125 50.5 
L 10.203125 56.796875 
Q 20.40625 58.09375 23.5 60.390625 
Q 26.59375 62.703125 28.90625 70.90625 
L 34.703125 70.90625 
z
" id="TeXGyreHeros-Regular-49"/>
      </defs>
      <g transform="translate(133.962996 146.960536)scale(0.09 -0.09)">
       <use xlink:href="#TeXGyreHeros-Regular-49"/>
      </g>
     </g>
    </g>
    <g id="xtick_6">
     <g id="line2d_11">
      <defs>
       <path d="M 0 0 
L 0 2 
" id="m64f7dbc70a" style="stroke:#000000;stroke-width:0.48;"/>
      </defs>
      <g>
       <use style="stroke:#000000;stroke-width:0.48;" x="28.6814" xlink:href="#m64f7dbc70a" y="134.398973"/>
      </g>
     </g>
    </g>
    <g id="xtick_7">
     <g id="line2d_12">
      <g>
       <use style="stroke:#000000;stroke-width:0.48;" x="34.354206" xlink:href="#m64f7dbc70a" y="134.398973"/>
      </g>
     </g>
    </g>
    <g id="xtick_8">
     <g id="line2d_13">
      <g>
       <use style="stroke:#000000;stroke-width:0.48;" x="40.027012" xlink:href="#m64f7dbc70a" y="134.398973"/>
      </g>
     </g>
    </g>
    <g id="xtick_9">
     <g id="line2d_14">
      <g>
       <use style="stroke:#000000;stroke-width:0.48;" x="45.699818" xlink:href="#m64f7dbc70a" y="134.398973"/>
      </g>
     </g>
    </g>
    <g id="xtick_10">
     <g id="line2d_15">
      <g>
       <use style="stroke:#000000;stroke-width:0.48;" x="57.04543" xlink:href="#m64f7dbc70a" y="134.398973"/>
      </g>
     </g>
    </g>
    <g id="xtick_11">
     <g id="line2d_16">
      <g>
       <use style="stroke:#000000;stroke-width:0.48;" x="62.718236" xlink:href="#m64f7dbc70a" y="134.398973"/>
      </g>
     </g>
    </g>
    <g id="xtick_12">
     <g id="line2d_17">
      <g>
       <use style="stroke:#000000;stroke-width:0.48;" x="68.391042" xlink:href="#m64f7dbc70a" y="134.398973"/>
      </g>
     </g>
    </g>
    <g id="xtick_13">
     <g id="line2d_18">
      <g>
       <use style="stroke:#000000;stroke-width:0.48;" x="74.063848" xlink:href="#m64f7dbc70a" y="134.398973"/>
      </g>
     </g>
    </g>
    <g id="xtick_14">
     <g id="line2d_19">
      <g>
       <use style="stroke:#000000;stroke-width:0.48;" x="85.40946" xlink:href="#m64f7dbc70a" y="134.398973"/>
      </g>
     </g>
    </g>
    <g id="xtick_15">
     <g id="line2d_20">
      <g>
       <use style="stroke:#000000;stroke-width:0.48;" x="91.082266" xlink:href="#m64f7dbc70a" y="134.398973"/>
      </g>
     </g>
    </g>
    <g id="xtick_16">
     <g id="line2d_21">
      <g>
       <use style="stroke:#000000;stroke-width:0.48;" x="96.755072" xlink:href="#m64f7dbc70a" y="134.398973"/>
      </g>
     </g>
    </g>
    <g id="xtick_17">
     <g id="line2d_22">
      <g>
       <use style="stroke:#000000;stroke-width:0.48;" x="102.427878" xlink:href="#m64f7dbc70a" y="134.398973"/>
      </g>
     </g>
    </g>
    <g id="xtick_18">
     <g id="line2d_23">
      <g>
       <use style="stroke:#000000;stroke-width:0.48;" x="113.77349" xlink:href="#m64f7dbc70a" y="134.398973"/>
      </g>
     </g>
    </g>
    <g id="xtick_19">
     <g id="line2d_24">
      <g>
       <use style="stroke:#000000;stroke-width:0.48;" x="119.446296" xlink:href="#m64f7dbc70a" y="134.398973"/>
      </g>
     </g>
    </g>
    <g id="xtick_20">
     <g id="line2d_25">
      <g>
       <use style="stroke:#000000;stroke-width:0.48;" x="125.119102" xlink:href="#m64f7dbc70a" y="134.398973"/>
      </g>
     </g>
    </g>
    <g id="xtick_21">
     <g id="line2d_26">
      <g>
       <use style="stroke:#000000;stroke-width:0.48;" x="130.791908" xlink:href="#m64f7dbc70a" y="134.398973"/>
      </g>
     </g>
    </g>
   </g>
   <g id="matplotlib.axis_2">
    <g id="ytick_1">
     <g id="line2d_27">
      <path clip-path="url(#p076ed1b92b)" d="M 23.008594 134.398973 
L 136.464714 134.398973 
" style="fill:none;stroke:#000000;stroke-linecap:square;stroke-opacity:0.1;stroke-width:0.6;"/>
     </g>
     <g id="line2d_28">
      <defs>
       <path d="M 0 0 
L -4 0 
" id="me7b4dfe131" style="stroke:#000000;stroke-width:0.6;"/>
      </defs>
      <g>
       <use style="stroke:#000000;stroke-width:0.6;" x="23.008594" xlink:href="#me7b4dfe131" y="134.398973"/>
      </g>
     </g>
     <g id="text_6">
      <!-- 0 -->
      <g transform="translate(12.005156 137.679754)scale(0.09 -0.09)">
       <use xlink:href="#TeXGyreHeros-Regular-48"/>
      </g>
     </g>
    </g>
    <g id="ytick_2">
     <g id="line2d_29">
      <path clip-path="url(#p076ed1b92b)" d="M 23.008594 111.601272 
L 136.464714 111.601272 
" style="fill:none;stroke:#000000;stroke-linecap:square;stroke-opacity:0.1;stroke-width:0.6;"/>
     </g>
     <g id="line2d_30">
      <g>
       <use style="stroke:#000000;stroke-width:0.6;" x="23.008594" xlink:href="#me7b4dfe131" y="111.601272"/>
      </g>
     </g>
     <g id="text_7">
      <!-- 0.2 -->
      <g transform="translate(4.5 114.882053)scale(0.09 -0.09)">
       <use xlink:href="#TeXGyreHeros-Regular-48"/>
       <use x="55.599991" xlink:href="#TeXGyreHeros-Regular-46"/>
       <use x="83.399979" xlink:href="#TeXGyreHeros-Regular-50"/>
      </g>
     </g>
    </g>
    <g id="ytick_3">
     <g id="line2d_31">
      <path clip-path="url(#p076ed1b92b)" d="M 23.008594 88.803571 
L 136.464714 88.803571 
" style="fill:none;stroke:#000000;stroke-linecap:square;stroke-opacity:0.1;stroke-width:0.6;"/>
     </g>
     <g id="line2d_32">
      <g>
       <use style="stroke:#000000;stroke-width:0.6;" x="23.008594" xlink:href="#me7b4dfe131" y="88.803571"/>
      </g>
     </g>
     <g id="text_8">
      <!-- 0.4 -->
      <defs>
       <path d="M 52 17 
L 41.5 17 
L 41.5 0 
L 32.703125 0 
L 32.703125 17 
L 2.796875 17 
L 2.796875 26.296875 
L 35 70.90625 
L 41.5 70.90625 
L 41.5 24.90625 
L 52 24.90625 
z
M 32.703125 24.90625 
L 32.703125 55.90625 
L 10.5 24.90625 
z
" id="TeXGyreHeros-Regular-52"/>
      </defs>
      <g transform="translate(4.5 92.084353)scale(0.09 -0.09)">
       <use xlink:href="#TeXGyreHeros-Regular-48"/>
       <use x="55.599991" xlink:href="#TeXGyreHeros-Regular-46"/>
       <use x="83.399979" xlink:href="#TeXGyreHeros-Regular-52"/>
      </g>
     </g>
    </g>
    <g id="ytick_4">
     <g id="line2d_33">
      <path clip-path="url(#p076ed1b92b)" d="M 23.008594 66.00587 
L 136.464714 66.00587 
" style="fill:none;stroke:#000000;stroke-linecap:square;stroke-opacity:0.1;stroke-width:0.6;"/>
     </g>
     <g id="line2d_34">
      <g>
       <use style="stroke:#000000;stroke-width:0.6;" x="23.008594" xlink:href="#me7b4dfe131" y="66.00587"/>
      </g>
     </g>
     <g id="text_9">
      <!-- 0.6 -->
      <defs>
       <path d="M 51.296875 22 
Q 51.296875 11.59375 44.796875 5.046875 
Q 38.296875 -1.5 28.09375 -1.5 
Q 4.296875 -1.5 4.296875 32.296875 
Q 4.296875 50.90625 10.84375 60.90625 
Q 17.40625 70.90625 29.703125 70.90625 
Q 37.796875 70.90625 43.140625 66 
Q 48.5 61.09375 49.796875 52.40625 
L 41 52.40625 
Q 39.90625 57.5 36.796875 60.296875 
Q 33.703125 63.09375 29.09375 63.09375 
Q 21.5 63.09375 17.453125 56.140625 
Q 13.40625 49.203125 13.296875 36.203125 
Q 19.09375 44.09375 29.59375 44.09375 
Q 39.203125 44.09375 45.25 38 
Q 51.296875 31.90625 51.296875 22 
z
M 42.296875 21.296875 
Q 42.296875 28.40625 38.59375 32.34375 
Q 34.90625 36.296875 28.5 36.296875 
Q 21.90625 36.296875 17.84375 32.34375 
Q 13.796875 28.40625 13.796875 21.796875 
Q 13.796875 15 17.890625 10.640625 
Q 22 6.296875 28.203125 6.296875 
Q 34.296875 6.296875 38.296875 10.5 
Q 42.296875 14.703125 42.296875 21.296875 
z
" id="TeXGyreHeros-Regular-54"/>
      </defs>
      <g transform="translate(4.5 69.286652)scale(0.09 -0.09)">
       <use xlink:href="#TeXGyreHeros-Regular-48"/>
       <use x="55.599991" xlink:href="#TeXGyreHeros-Regular-46"/>
       <use x="83.399979" xlink:href="#TeXGyreHeros-Regular-54"/>
      </g>
     </g>
    </g>
    <g id="ytick_5">
     <g id="line2d_35">
      <path clip-path="url(#p076ed1b92b)" d="M 23.008594 43.20817 
L 136.464714 43.20817 
" style="fill:none;stroke:#000000;stroke-linecap:square;stroke-opacity:0.1;stroke-width:0.6;"/>
     </g>
     <g id="line2d_36">
      <g>
       <use style="stroke:#000000;stroke-width:0.6;" x="23.008594" xlink:href="#me7b4dfe131" y="43.20817"/>
      </g>
     </g>
     <g id="text_10">
      <!-- 0.8 -->
      <defs>
       <path d="M 51.296875 20 
Q 51.296875 10.40625 44.640625 4.453125 
Q 38 -1.5 27.5 -1.5 
Q 16.90625 -1.5 10.296875 4.453125 
Q 3.703125 10.40625 3.703125 20.09375 
Q 3.703125 31.5 15.796875 37.296875 
Q 10.40625 40.703125 8.296875 43.890625 
Q 6.203125 47.09375 6.203125 52 
Q 6.203125 60.296875 12.140625 65.59375 
Q 18.09375 70.90625 27.5 70.90625 
Q 36.90625 70.90625 42.84375 65.59375 
Q 48.796875 60.296875 48.796875 52 
Q 48.796875 47 46.6875 43.796875 
Q 44.59375 40.59375 39.09375 37.296875 
Q 51.296875 31.5 51.296875 20 
z
M 39.796875 51.796875 
Q 39.796875 57 36.4375 60.046875 
Q 33.09375 63.09375 27.5 63.09375 
Q 21.90625 63.09375 18.546875 60.046875 
Q 15.203125 57 15.203125 51.90625 
Q 15.203125 46.90625 18.546875 43.84375 
Q 21.90625 40.796875 27.5 40.796875 
Q 33 40.796875 36.390625 43.796875 
Q 39.796875 46.796875 39.796875 51.796875 
z
M 42.296875 19.90625 
Q 42.296875 26.09375 38.25 29.75 
Q 34.203125 33.40625 27.5 33.40625 
Q 20.796875 33.40625 16.75 29.75 
Q 12.703125 26.09375 12.703125 19.890625 
Q 12.703125 13.703125 16.75 10 
Q 20.796875 6.296875 27.296875 6.296875 
Q 34.09375 6.296875 38.1875 9.9375 
Q 42.296875 13.59375 42.296875 19.90625 
z
" id="TeXGyreHeros-Regular-56"/>
      </defs>
      <g transform="translate(4.5 46.488951)scale(0.09 -0.09)">
       <use xlink:href="#TeXGyreHeros-Regular-48"/>
       <use x="55.599991" xlink:href="#TeXGyreHeros-Regular-46"/>
       <use x="83.399979" xlink:href="#TeXGyreHeros-Regular-56"/>
      </g>
     </g>
    </g>
    <g id="ytick_6">
     <g id="line2d_37">
      <path clip-path="url(#p076ed1b92b)" d="M 23.008594 20.410469 
L 136.464714 20.410469 
" style="fill:none;stroke:#000000;stroke-linecap:square;stroke-opacity:0.1;stroke-width:0.6;"/>
     </g>
     <g id="line2d_38">
      <g>
       <use style="stroke:#000000;stroke-width:0.6;" x="23.008594" xlink:href="#me7b4dfe131" y="20.410469"/>
      </g>
     </g>
     <g id="text_11">
      <!-- 1 -->
      <g transform="translate(12.005156 23.69125)scale(0.09 -0.09)">
       <use xlink:href="#TeXGyreHeros-Regular-49"/>
      </g>
     </g>
    </g>
    <g id="ytick_7">
     <g id="line2d_39">
      <defs>
       <path d="M 0 0 
L -2 0 
" id="m7a523e26af" style="stroke:#000000;stroke-width:0.48;"/>
      </defs>
      <g>
       <use style="stroke:#000000;stroke-width:0.48;" x="23.008594" xlink:href="#m7a523e26af" y="128.699548"/>
      </g>
     </g>
    </g>
    <g id="ytick_8">
     <g id="line2d_40">
      <g>
       <use style="stroke:#000000;stroke-width:0.48;" x="23.008594" xlink:href="#m7a523e26af" y="123.000123"/>
      </g>
     </g>
    </g>
    <g id="ytick_9">
     <g id="line2d_41">
      <g>
       <use style="stroke:#000000;stroke-width:0.48;" x="23.008594" xlink:href="#m7a523e26af" y="117.300697"/>
      </g>
     </g>
    </g>
    <g id="ytick_10">
     <g id="line2d_42">
      <g>
       <use style="stroke:#000000;stroke-width:0.48;" x="23.008594" xlink:href="#m7a523e26af" y="105.901847"/>
      </g>
     </g>
    </g>
    <g id="ytick_11">
     <g id="line2d_43">
      <g>
       <use style="stroke:#000000;stroke-width:0.48;" x="23.008594" xlink:href="#m7a523e26af" y="100.202422"/>
      </g>
     </g>
    </g>
    <g id="ytick_12">
     <g id="line2d_44">
      <g>
       <use style="stroke:#000000;stroke-width:0.48;" x="23.008594" xlink:href="#m7a523e26af" y="94.502997"/>
      </g>
     </g>
    </g>
    <g id="ytick_13">
     <g id="line2d_45">
      <g>
       <use style="stroke:#000000;stroke-width:0.48;" x="23.008594" xlink:href="#m7a523e26af" y="83.104146"/>
      </g>
     </g>
    </g>
    <g id="ytick_14">
     <g id="line2d_46">
      <g>
       <use style="stroke:#000000;stroke-width:0.48;" x="23.008594" xlink:href="#m7a523e26af" y="77.404721"/>
      </g>
     </g>
    </g>
    <g id="ytick_15">
     <g id="line2d_47">
      <g>
       <use style="stroke:#000000;stroke-width:0.48;" x="23.008594" xlink:href="#m7a523e26af" y="71.705296"/>
      </g>
     </g>
    </g>
    <g id="ytick_16">
     <g id="line2d_48">
      <g>
       <use style="stroke:#000000;stroke-width:0.48;" x="23.008594" xlink:href="#m7a523e26af" y="60.306445"/>
      </g>
     </g>
    </g>
    <g id="ytick_17">
     <g id="line2d_49">
      <g>
       <use style="stroke:#000000;stroke-width:0.48;" x="23.008594" xlink:href="#m7a523e26af" y="54.60702"/>
      </g>
     </g>
    </g>
    <g id="ytick_18">
     <g id="line2d_50">
      <g>
       <use style="stroke:#000000;stroke-width:0.48;" x="23.008594" xlink:href="#m7a523e26af" y="48.907595"/>
      </g>
     </g>
    </g>
    <g id="ytick_19">
     <g id="line2d_51">
      <g>
       <use style="stroke:#000000;stroke-width:0.48;" x="23.008594" xlink:href="#m7a523e26af" y="37.508744"/>
      </g>
     </g>
    </g>
    <g id="ytick_20">
     <g id="line2d_52">
      <g>
       <use style="stroke:#000000;stroke-width:0.48;" x="23.008594" xlink:href="#m7a523e26af" y="31.809319"/>
      </g>
     </g>
    </g>
    <g id="ytick_21">
     <g id="line2d_53">
      <g>
       <use style="stroke:#000000;stroke-width:0.48;" x="23.008594" xlink:href="#m7a523e26af" y="26.109894"/>
      </g>
     </g>
    </g>
   </g>
   <g id="patch_3">
    <path d="M 23.008594 134.398973 
L 23.008594 20.410469 
" style="fill:none;stroke:#000000;stroke-linecap:square;stroke-linejoin:miter;stroke-width:0.6;"/>
   </g>
   <g id="patch_4">
    <path d="M 136.464714 134.398973 
L 136.464714 20.410469 
" style="fill:none;stroke:#000000;stroke-linecap:square;stroke-linejoin:miter;stroke-width:0.6;"/>
   </g>
   <g id="patch_5">
    <path d="M 23.008594 134.398973 
L 136.464714 134.398973 
" style="fill:none;stroke:#000000;stroke-linecap:square;stroke-linejoin:miter;stroke-width:0.6;"/>
   </g>
   <g id="patch_6">
    <path d="M 23.008594 20.410469 
L 136.464714 20.410469 
" style="fill:none;stroke:#000000;stroke-linecap:square;stroke-linejoin:miter;stroke-width:0.6;"/>
   </g>
   <g id="text_12">
    <path d="M 50.65931 32.201094 
L 49.138998 32.201094 
Q 48.97806 32.001094 48.97806 31.521406 
Q 48.238998 32.291719 47.338998 32.291719 
Q 46.62806 32.291719 46.162435 31.891719 
Q 45.698373 31.491719 45.698373 30.741719 
Q 45.698373 30.021406 46.082748 29.641719 
Q 46.468685 29.260469 47.288998 29.110469 
L 47.848373 29.010469 
Q 47.968685 28.991719 48.168685 28.962031 
Q 48.368685 28.930781 48.45306 28.916719 
Q 48.538998 28.901094 48.663998 28.862031 
Q 48.788998 28.821406 48.838998 28.766719 
Q 48.888998 28.710469 48.92806 28.616719 
Q 48.968685 28.521406 48.968685 28.380781 
Q 48.968685 27.841719 48.15931 27.841719 
Q 47.638998 27.841719 47.42806 28.001094 
Q 47.218685 28.160469 47.168685 28.580781 
L 45.818685 28.580781 
Q 45.948373 26.710469 48.12806 26.710469 
Q 50.338998 26.710469 50.338998 28.371406 
L 50.338998 31.371406 
Q 50.338998 31.741719 50.65931 32.030781 
z
M 48.968685 29.891719 
L 48.968685 29.651094 
Q 48.77806 29.741719 48.37806 29.821406 
L 47.898373 29.910469 
Q 47.448373 29.991719 47.273373 30.137031 
Q 47.098373 30.280781 47.098373 30.580781 
Q 47.098373 31.160469 47.85931 31.160469 
Q 48.388998 31.160469 48.67806 30.830781 
Q 48.968685 30.501094 48.968685 29.891719 
z
M 56.328684 32.201094 
L 54.648997 32.201094 
L 53.738059 30.521406 
L 52.819309 32.201094 
L 51.138059 32.201094 
L 52.938059 29.480781 
L 51.178684 26.801094 
L 52.858372 26.801094 
L 53.738059 28.430781 
L 54.608372 26.801094 
L 56.288059 26.801094 
L 54.528684 29.480781 
z
M 64.198058 26.801094 
L 62.668371 32.201094 
L 61.218371 32.201094 
L 60.408996 28.391719 
L 59.548058 32.201094 
L 58.108996 32.201094 
L 56.588683 26.801094 
L 58.038683 26.801094 
L 58.898058 30.580781 
L 59.718371 26.801094 
L 61.118371 26.801094 
L 61.929308 30.580781 
L 62.748058 26.801094 
z
M 66.388995 32.201094 
L 64.988995 32.201094 
L 64.988995 26.801094 
L 66.388995 26.801094 
z
M 66.409307 26.151094 
L 65.009307 26.151094 
L 65.009307 24.751094 
L 66.409307 24.751094 
z
M 72.548681 32.201094 
L 71.148681 32.201094 
L 71.148681 31.580781 
Q 70.608056 32.291719 69.658056 32.291719 
Q 68.618994 32.291719 68.003369 31.496406 
Q 67.389306 30.701094 67.389306 29.510469 
Q 67.389306 28.291719 68.039306 27.501094 
Q 68.689306 26.710469 69.658056 26.710469 
Q 70.639306 26.710469 71.148681 27.501094 
L 71.148681 24.910469 
L 72.548681 24.910469 
z
M 71.148681 29.530781 
Q 71.148681 28.760469 70.828369 28.321406 
Q 70.508056 27.880781 69.968994 27.880781 
Q 69.439306 27.880781 69.114306 28.326094 
Q 68.789306 28.771406 68.789306 29.512031 
Q 68.789306 30.251094 69.114306 30.687031 
Q 69.439306 31.121406 69.968994 31.121406 
Q 70.498681 31.121406 70.823681 30.691719 
Q 71.148681 30.260469 71.148681 29.530781 
z
M 76.218055 32.201094 
Q 76.15868 32.201094 75.872743 32.221406 
Q 75.588368 32.241719 75.40868 32.241719 
Q 74.70868 32.241719 74.372743 31.957344 
Q 74.038368 31.671406 74.038368 31.041719 
L 74.038368 27.841719 
L 73.349305 27.841719 
L 73.349305 26.910469 
L 74.038368 26.910469 
L 74.038368 25.460469 
L 75.438368 25.460469 
L 75.438368 26.910469 
L 76.218055 26.910469 
L 76.218055 27.841719 
L 75.438368 27.841719 
L 75.438368 30.660469 
Q 75.438368 31.021406 75.52743 31.137031 
Q 75.618055 31.251094 75.899305 31.251094 
Q 76.00868 31.251094 76.218055 31.221406 
z
M 81.948054 32.201094 
L 80.548054 32.201094 
L 80.548054 28.901094 
Q 80.548054 27.901094 79.688679 27.901094 
Q 79.218366 27.901094 78.913679 28.201094 
Q 78.608991 28.501094 78.608991 28.960469 
L 78.608991 32.201094 
L 77.208991 32.201094 
L 77.208991 24.910469 
L 78.608991 24.910469 
L 78.608991 27.580781 
Q 79.188679 26.710469 80.188679 26.710469 
Q 80.988679 26.710469 81.468366 27.191719 
Q 81.948054 27.671406 81.948054 28.580781 
z
M 90.669302 29.291719 
L 86.028677 29.291719 
L 86.028677 28.291719 
L 90.669302 28.291719 
z
M 90.669302 31.110469 
L 86.028677 31.110469 
L 86.028677 30.110469 
L 90.669302 30.110469 
z
M 99.268987 30.630781 
L 98.528362 30.630781 
L 98.528362 32.201094 
L 97.128362 32.201094 
L 97.128362 30.630781 
L 94.2893 30.630781 
L 94.2893 29.451094 
L 96.878362 25.110469 
L 98.528362 25.110469 
L 98.528362 29.471406 
L 99.268987 29.471406 
z
M 97.128362 29.471406 
L 97.128362 26.441719 
L 95.278362 29.471406 
z
M 104.828987 30.330781 
Q 104.728987 31.201094 104.088362 31.746406 
Q 103.449299 32.291719 102.478987 32.291719 
Q 101.268049 32.291719 100.608674 31.582344 
Q 99.949299 30.871406 99.949299 29.541719 
Q 99.949299 28.171406 100.613362 27.441719 
Q 101.278987 26.710469 102.499299 26.710469 
Q 103.508674 26.710469 104.133674 27.271406 
Q 104.758674 27.830781 104.828987 28.821406 
L 103.488362 28.821406 
Q 103.368049 28.291719 103.143049 28.066719 
Q 102.918049 27.841719 102.488362 27.841719 
Q 101.349299 27.841719 101.349299 29.541719 
Q 101.349299 30.321406 101.649299 30.741719 
Q 101.949299 31.160469 102.488362 31.160469 
Q 102.888362 31.160469 103.118049 30.960469 
Q 103.349299 30.760469 103.488362 30.330781 
z
M 113.409298 32.201094 
L 112.009298 32.201094 
L 112.009298 28.601094 
Q 112.009298 28.280781 111.803048 28.091719 
Q 111.598361 27.901094 111.248361 27.901094 
Q 110.798361 27.901094 110.543673 28.180781 
Q 110.288986 28.460469 110.288986 28.960469 
L 110.288986 32.201094 
L 108.888986 32.201094 
L 108.888986 28.601094 
Q 108.888986 28.280781 108.682736 28.091719 
Q 108.478048 27.901094 108.128048 27.901094 
Q 107.678048 27.901094 107.423361 28.180781 
Q 107.168673 28.460469 107.168673 28.960469 
L 107.168673 32.201094 
L 105.768673 32.201094 
L 105.768673 26.801094 
L 107.159298 26.801094 
L 107.159298 27.471406 
Q 107.509298 27.060469 107.843673 26.885469 
Q 108.178048 26.710469 108.638986 26.710469 
Q 109.698361 26.710469 110.109298 27.510469 
Q 110.709298 26.710469 111.688986 26.710469 
Q 112.498361 26.710469 112.953048 27.151094 
Q 113.409298 27.591719 113.409298 28.380781 
z
" style="fill:#c92a2a;stroke:#ffffff;stroke-linejoin:miter;stroke-width:1.5;"/>
    <path d="M 50.65931 32.201094 
L 49.138998 32.201094 
Q 48.97806 32.001094 48.97806 31.521406 
Q 48.238998 32.291719 47.338998 32.291719 
Q 46.62806 32.291719 46.162435 31.891719 
Q 45.698373 31.491719 45.698373 30.741719 
Q 45.698373 30.021406 46.082748 29.641719 
Q 46.468685 29.260469 47.288998 29.110469 
L 47.848373 29.010469 
Q 47.968685 28.991719 48.168685 28.962031 
Q 48.368685 28.930781 48.45306 28.916719 
Q 48.538998 28.901094 48.663998 28.862031 
Q 48.788998 28.821406 48.838998 28.766719 
Q 48.888998 28.710469 48.92806 28.616719 
Q 48.968685 28.521406 48.968685 28.380781 
Q 48.968685 27.841719 48.15931 27.841719 
Q 47.638998 27.841719 47.42806 28.001094 
Q 47.218685 28.160469 47.168685 28.580781 
L 45.818685 28.580781 
Q 45.948373 26.710469 48.12806 26.710469 
Q 50.338998 26.710469 50.338998 28.371406 
L 50.338998 31.371406 
Q 50.338998 31.741719 50.65931 32.030781 
z
M 48.968685 29.891719 
L 48.968685 29.651094 
Q 48.77806 29.741719 48.37806 29.821406 
L 47.898373 29.910469 
Q 47.448373 29.991719 47.273373 30.137031 
Q 47.098373 30.280781 47.098373 30.580781 
Q 47.098373 31.160469 47.85931 31.160469 
Q 48.388998 31.160469 48.67806 30.830781 
Q 48.968685 30.501094 48.968685 29.891719 
z
M 56.328684 32.201094 
L 54.648997 32.201094 
L 53.738059 30.521406 
L 52.819309 32.201094 
L 51.138059 32.201094 
L 52.938059 29.480781 
L 51.178684 26.801094 
L 52.858372 26.801094 
L 53.738059 28.430781 
L 54.608372 26.801094 
L 56.288059 26.801094 
L 54.528684 29.480781 
z
M 64.198058 26.801094 
L 62.668371 32.201094 
L 61.218371 32.201094 
L 60.408996 28.391719 
L 59.548058 32.201094 
L 58.108996 32.201094 
L 56.588683 26.801094 
L 58.038683 26.801094 
L 58.898058 30.580781 
L 59.718371 26.801094 
L 61.118371 26.801094 
L 61.929308 30.580781 
L 62.748058 26.801094 
z
M 66.388995 32.201094 
L 64.988995 32.201094 
L 64.988995 26.801094 
L 66.388995 26.801094 
z
M 66.409307 26.151094 
L 65.009307 26.151094 
L 65.009307 24.751094 
L 66.409307 24.751094 
z
M 72.548681 32.201094 
L 71.148681 32.201094 
L 71.148681 31.580781 
Q 70.608056 32.291719 69.658056 32.291719 
Q 68.618994 32.291719 68.003369 31.496406 
Q 67.389306 30.701094 67.389306 29.510469 
Q 67.389306 28.291719 68.039306 27.501094 
Q 68.689306 26.710469 69.658056 26.710469 
Q 70.639306 26.710469 71.148681 27.501094 
L 71.148681 24.910469 
L 72.548681 24.910469 
z
M 71.148681 29.530781 
Q 71.148681 28.760469 70.828369 28.321406 
Q 70.508056 27.880781 69.968994 27.880781 
Q 69.439306 27.880781 69.114306 28.326094 
Q 68.789306 28.771406 68.789306 29.512031 
Q 68.789306 30.251094 69.114306 30.687031 
Q 69.439306 31.121406 69.968994 31.121406 
Q 70.498681 31.121406 70.823681 30.691719 
Q 71.148681 30.260469 71.148681 29.530781 
z
M 76.218055 32.201094 
Q 76.15868 32.201094 75.872743 32.221406 
Q 75.588368 32.241719 75.40868 32.241719 
Q 74.70868 32.241719 74.372743 31.957344 
Q 74.038368 31.671406 74.038368 31.041719 
L 74.038368 27.841719 
L 73.349305 27.841719 
L 73.349305 26.910469 
L 74.038368 26.910469 
L 74.038368 25.460469 
L 75.438368 25.460469 
L 75.438368 26.910469 
L 76.218055 26.910469 
L 76.218055 27.841719 
L 75.438368 27.841719 
L 75.438368 30.660469 
Q 75.438368 31.021406 75.52743 31.137031 
Q 75.618055 31.251094 75.899305 31.251094 
Q 76.00868 31.251094 76.218055 31.221406 
z
M 81.948054 32.201094 
L 80.548054 32.201094 
L 80.548054 28.901094 
Q 80.548054 27.901094 79.688679 27.901094 
Q 79.218366 27.901094 78.913679 28.201094 
Q 78.608991 28.501094 78.608991 28.960469 
L 78.608991 32.201094 
L 77.208991 32.201094 
L 77.208991 24.910469 
L 78.608991 24.910469 
L 78.608991 27.580781 
Q 79.188679 26.710469 80.188679 26.710469 
Q 80.988679 26.710469 81.468366 27.191719 
Q 81.948054 27.671406 81.948054 28.580781 
z
M 90.669302 29.291719 
L 86.028677 29.291719 
L 86.028677 28.291719 
L 90.669302 28.291719 
z
M 90.669302 31.110469 
L 86.028677 31.110469 
L 86.028677 30.110469 
L 90.669302 30.110469 
z
M 99.268987 30.630781 
L 98.528362 30.630781 
L 98.528362 32.201094 
L 97.128362 32.201094 
L 97.128362 30.630781 
L 94.2893 30.630781 
L 94.2893 29.451094 
L 96.878362 25.110469 
L 98.528362 25.110469 
L 98.528362 29.471406 
L 99.268987 29.471406 
z
M 97.128362 29.471406 
L 97.128362 26.441719 
L 95.278362 29.471406 
z
M 104.828987 30.330781 
Q 104.728987 31.201094 104.088362 31.746406 
Q 103.449299 32.291719 102.478987 32.291719 
Q 101.268049 32.291719 100.608674 31.582344 
Q 99.949299 30.871406 99.949299 29.541719 
Q 99.949299 28.171406 100.613362 27.441719 
Q 101.278987 26.710469 102.499299 26.710469 
Q 103.508674 26.710469 104.133674 27.271406 
Q 104.758674 27.830781 104.828987 28.821406 
L 103.488362 28.821406 
Q 103.368049 28.291719 103.143049 28.066719 
Q 102.918049 27.841719 102.488362 27.841719 
Q 101.349299 27.841719 101.349299 29.541719 
Q 101.349299 30.321406 101.649299 30.741719 
Q 101.949299 31.160469 102.488362 31.160469 
Q 102.888362 31.160469 103.118049 30.960469 
Q 103.349299 30.760469 103.488362 30.330781 
z
M 113.409298 32.201094 
L 112.009298 32.201094 
L 112.009298 28.601094 
Q 112.009298 28.280781 111.803048 28.091719 
Q 111.598361 27.901094 111.248361 27.901094 
Q 110.798361 27.901094 110.543673 28.180781 
Q 110.288986 28.460469 110.288986 28.960469 
L 110.288986 32.201094 
L 108.888986 32.201094 
L 108.888986 28.601094 
Q 108.888986 28.280781 108.682736 28.091719 
Q 108.478048 27.901094 108.128048 27.901094 
Q 107.678048 27.901094 107.423361 28.180781 
Q 107.168673 28.460469 107.168673 28.960469 
L 107.168673 32.201094 
L 105.768673 32.201094 
L 105.768673 26.801094 
L 107.159298 26.801094 
L 107.159298 27.471406 
Q 107.509298 27.060469 107.843673 26.885469 
Q 108.178048 26.710469 108.638986 26.710469 
Q 109.698361 26.710469 110.109298 27.510469 
Q 110.709298 26.710469 111.688986 26.710469 
Q 112.498361 26.710469 112.953048 27.151094 
Q 113.409298 27.591719 113.409298 28.380781 
z
" style="fill:#c92a2a;"/>
   </g>
  </g>
  <g id="axes_2">
   <g id="patch_7">
    <path d="M 151.966433 134.398973 
L 265.422554 134.398973 
L 265.422554 20.410469 
L 151.966433 20.410469 
z
" style="fill:#ffffff;"/>
   </g>
   <g id="matplotlib.axis_3">
    <g id="xtick_22">
     <g id="line2d_54">
      <path clip-path="url(#p4a3f21624f)" d="M 151.966433 134.398973 
L 151.966433 20.410469 
" style="fill:none;stroke:#000000;stroke-linecap:square;stroke-opacity:0.1;stroke-width:0.6;"/>
     </g>
     <g id="line2d_55">
      <g>
       <use style="stroke:#000000;stroke-width:0.6;" x="151.966433" xlink:href="#m0a749d40ef" y="134.398973"/>
      </g>
     </g>
     <g id="text_13">
      <!-- 0 -->
      <g transform="translate(149.464714 146.960536)scale(0.09 -0.09)">
       <use xlink:href="#TeXGyreHeros-Regular-48"/>
      </g>
     </g>
    </g>
    <g id="xtick_23">
     <g id="line2d_56">
      <path clip-path="url(#p4a3f21624f)" d="M 180.330463 134.398973 
L 180.330463 20.410469 
" style="fill:none;stroke:#000000;stroke-linecap:square;stroke-opacity:0.1;stroke-width:0.6;"/>
     </g>
     <g id="line2d_57">
      <g>
       <use style="stroke:#000000;stroke-width:0.6;" x="180.330463" xlink:href="#m0a749d40ef" y="134.398973"/>
      </g>
     </g>
     <g id="text_14">
      <!-- 0.25 -->
      <g transform="translate(171.574448 146.960536)scale(0.09 -0.09)">
       <use xlink:href="#TeXGyreHeros-Regular-48"/>
       <use x="55.599991" xlink:href="#TeXGyreHeros-Regular-46"/>
       <use x="83.399979" xlink:href="#TeXGyreHeros-Regular-50"/>
       <use x="138.999969" xlink:href="#TeXGyreHeros-Regular-53"/>
      </g>
     </g>
    </g>
    <g id="xtick_24">
     <g id="line2d_58">
      <path clip-path="url(#p4a3f21624f)" d="M 208.694493 134.398973 
L 208.694493 20.410469 
" style="fill:none;stroke:#000000;stroke-linecap:square;stroke-opacity:0.1;stroke-width:0.6;"/>
     </g>
     <g id="line2d_59">
      <g>
       <use style="stroke:#000000;stroke-width:0.6;" x="208.694493" xlink:href="#m0a749d40ef" y="134.398973"/>
      </g>
     </g>
     <g id="text_15">
      <!-- 0.5 -->
      <g transform="translate(202.440197 146.960536)scale(0.09 -0.09)">
       <use xlink:href="#TeXGyreHeros-Regular-48"/>
       <use x="55.599991" xlink:href="#TeXGyreHeros-Regular-46"/>
       <use x="83.399979" xlink:href="#TeXGyreHeros-Regular-53"/>
      </g>
     </g>
    </g>
    <g id="xtick_25">
     <g id="line2d_60">
      <path clip-path="url(#p4a3f21624f)" d="M 237.058524 134.398973 
L 237.058524 20.410469 
" style="fill:none;stroke:#000000;stroke-linecap:square;stroke-opacity:0.1;stroke-width:0.6;"/>
     </g>
     <g id="line2d_61">
      <g>
       <use style="stroke:#000000;stroke-width:0.6;" x="237.058524" xlink:href="#m0a749d40ef" y="134.398973"/>
      </g>
     </g>
     <g id="text_16">
      <!-- 0.75 -->
      <g transform="translate(228.302508 146.960536)scale(0.09 -0.09)">
       <use xlink:href="#TeXGyreHeros-Regular-48"/>
       <use x="55.599991" xlink:href="#TeXGyreHeros-Regular-46"/>
       <use x="83.399979" xlink:href="#TeXGyreHeros-Regular-55"/>
       <use x="138.999969" xlink:href="#TeXGyreHeros-Regular-53"/>
      </g>
     </g>
    </g>
    <g id="xtick_26">
     <g id="line2d_62">
      <path clip-path="url(#p4a3f21624f)" d="M 265.422554 134.398973 
L 265.422554 20.410469 
" style="fill:none;stroke:#000000;stroke-linecap:square;stroke-opacity:0.1;stroke-width:0.6;"/>
     </g>
     <g id="line2d_63">
      <g>
       <use style="stroke:#000000;stroke-width:0.6;" x="265.422554" xlink:href="#m0a749d40ef" y="134.398973"/>
      </g>
     </g>
     <g id="text_17">
      <!-- 1 -->
      <g transform="translate(262.920835 146.960536)scale(0.09 -0.09)">
       <use xlink:href="#TeXGyreHeros-Regular-49"/>
      </g>
     </g>
    </g>
    <g id="xtick_27">
     <g id="line2d_64">
      <g>
       <use style="stroke:#000000;stroke-width:0.48;" x="157.639239" xlink:href="#m64f7dbc70a" y="134.398973"/>
      </g>
     </g>
    </g>
    <g id="xtick_28">
     <g id="line2d_65">
      <g>
       <use style="stroke:#000000;stroke-width:0.48;" x="163.312045" xlink:href="#m64f7dbc70a" y="134.398973"/>
      </g>
     </g>
    </g>
    <g id="xtick_29">
     <g id="line2d_66">
      <g>
       <use style="stroke:#000000;stroke-width:0.48;" x="168.984851" xlink:href="#m64f7dbc70a" y="134.398973"/>
      </g>
     </g>
    </g>
    <g id="xtick_30">
     <g id="line2d_67">
      <g>
       <use style="stroke:#000000;stroke-width:0.48;" x="174.657657" xlink:href="#m64f7dbc70a" y="134.398973"/>
      </g>
     </g>
    </g>
    <g id="xtick_31">
     <g id="line2d_68">
      <g>
       <use style="stroke:#000000;stroke-width:0.48;" x="186.003269" xlink:href="#m64f7dbc70a" y="134.398973"/>
      </g>
     </g>
    </g>
    <g id="xtick_32">
     <g id="line2d_69">
      <g>
       <use style="stroke:#000000;stroke-width:0.48;" x="191.676075" xlink:href="#m64f7dbc70a" y="134.398973"/>
      </g>
     </g>
    </g>
    <g id="xtick_33">
     <g id="line2d_70">
      <g>
       <use style="stroke:#000000;stroke-width:0.48;" x="197.348881" xlink:href="#m64f7dbc70a" y="134.398973"/>
      </g>
     </g>
    </g>
    <g id="xtick_34">
     <g id="line2d_71">
      <g>
       <use style="stroke:#000000;stroke-width:0.48;" x="203.021687" xlink:href="#m64f7dbc70a" y="134.398973"/>
      </g>
     </g>
    </g>
    <g id="xtick_35">
     <g id="line2d_72">
      <g>
       <use style="stroke:#000000;stroke-width:0.48;" x="214.367299" xlink:href="#m64f7dbc70a" y="134.398973"/>
      </g>
     </g>
    </g>
    <g id="xtick_36">
     <g id="line2d_73">
      <g>
       <use style="stroke:#000000;stroke-width:0.48;" x="220.040105" xlink:href="#m64f7dbc70a" y="134.398973"/>
      </g>
     </g>
    </g>
    <g id="xtick_37">
     <g id="line2d_74">
      <g>
       <use style="stroke:#000000;stroke-width:0.48;" x="225.712912" xlink:href="#m64f7dbc70a" y="134.398973"/>
      </g>
     </g>
    </g>
    <g id="xtick_38">
     <g id="line2d_75">
      <g>
       <use style="stroke:#000000;stroke-width:0.48;" x="231.385718" xlink:href="#m64f7dbc70a" y="134.398973"/>
      </g>
     </g>
    </g>
    <g id="xtick_39">
     <g id="line2d_76">
      <g>
       <use style="stroke:#000000;stroke-width:0.48;" x="242.73133" xlink:href="#m64f7dbc70a" y="134.398973"/>
      </g>
     </g>
    </g>
    <g id="xtick_40">
     <g id="line2d_77">
      <g>
       <use style="stroke:#000000;stroke-width:0.48;" x="248.404136" xlink:href="#m64f7dbc70a" y="134.398973"/>
      </g>
     </g>
    </g>
    <g id="xtick_41">
     <g id="line2d_78">
      <g>
       <use style="stroke:#000000;stroke-width:0.48;" x="254.076942" xlink:href="#m64f7dbc70a" y="134.398973"/>
      </g>
     </g>
    </g>
    <g id="xtick_42">
     <g id="line2d_79">
      <g>
       <use style="stroke:#000000;stroke-width:0.48;" x="259.749748" xlink:href="#m64f7dbc70a" y="134.398973"/>
      </g>
     </g>
    </g>
   </g>
   <g id="matplotlib.axis_4">
    <g id="ytick_22">
     <g id="line2d_80">
      <path clip-path="url(#p4a3f21624f)" d="M 151.966433 134.398973 
L 265.422554 134.398973 
" style="fill:none;stroke:#000000;stroke-linecap:square;stroke-opacity:0.1;stroke-width:0.6;"/>
     </g>
     <g id="line2d_81">
      <g>
       <use style="stroke:#000000;stroke-width:0.6;" x="151.966433" xlink:href="#me7b4dfe131" y="134.398973"/>
      </g>
     </g>
    </g>
    <g id="ytick_23">
     <g id="line2d_82">
      <path clip-path="url(#p4a3f21624f)" d="M 151.966433 111.601272 
L 265.422554 111.601272 
" style="fill:none;stroke:#000000;stroke-linecap:square;stroke-opacity:0.1;stroke-width:0.6;"/>
     </g>
     <g id="line2d_83">
      <g>
       <use style="stroke:#000000;stroke-width:0.6;" x="151.966433" xlink:href="#me7b4dfe131" y="111.601272"/>
      </g>
     </g>
    </g>
    <g id="ytick_24">
     <g id="line2d_84">
      <path clip-path="url(#p4a3f21624f)" d="M 151.966433 88.803571 
L 265.422554 88.803571 
" style="fill:none;stroke:#000000;stroke-linecap:square;stroke-opacity:0.1;stroke-width:0.6;"/>
     </g>
     <g id="line2d_85">
      <g>
       <use style="stroke:#000000;stroke-width:0.6;" x="151.966433" xlink:href="#me7b4dfe131" y="88.803571"/>
      </g>
     </g>
    </g>
    <g id="ytick_25">
     <g id="line2d_86">
      <path clip-path="url(#p4a3f21624f)" d="M 151.966433 66.00587 
L 265.422554 66.00587 
" style="fill:none;stroke:#000000;stroke-linecap:square;stroke-opacity:0.1;stroke-width:0.6;"/>
     </g>
     <g id="line2d_87">
      <g>
       <use style="stroke:#000000;stroke-width:0.6;" x="151.966433" xlink:href="#me7b4dfe131" y="66.00587"/>
      </g>
     </g>
    </g>
    <g id="ytick_26">
     <g id="line2d_88">
      <path clip-path="url(#p4a3f21624f)" d="M 151.966433 43.20817 
L 265.422554 43.20817 
" style="fill:none;stroke:#000000;stroke-linecap:square;stroke-opacity:0.1;stroke-width:0.6;"/>
     </g>
     <g id="line2d_89">
      <g>
       <use style="stroke:#000000;stroke-width:0.6;" x="151.966433" xlink:href="#me7b4dfe131" y="43.20817"/>
      </g>
     </g>
    </g>
    <g id="ytick_27">
     <g id="line2d_90">
      <path clip-path="url(#p4a3f21624f)" d="M 151.966433 20.410469 
L 265.422554 20.410469 
" style="fill:none;stroke:#000000;stroke-linecap:square;stroke-opacity:0.1;stroke-width:0.6;"/>
     </g>
     <g id="line2d_91">
      <g>
       <use style="stroke:#000000;stroke-width:0.6;" x="151.966433" xlink:href="#me7b4dfe131" y="20.410469"/>
      </g>
     </g>
    </g>
    <g id="ytick_28">
     <g id="line2d_92">
      <g>
       <use style="stroke:#000000;stroke-width:0.48;" x="151.966433" xlink:href="#m7a523e26af" y="128.699548"/>
      </g>
     </g>
    </g>
    <g id="ytick_29">
     <g id="line2d_93">
      <g>
       <use style="stroke:#000000;stroke-width:0.48;" x="151.966433" xlink:href="#m7a523e26af" y="123.000123"/>
      </g>
     </g>
    </g>
    <g id="ytick_30">
     <g id="line2d_94">
      <g>
       <use style="stroke:#000000;stroke-width:0.48;" x="151.966433" xlink:href="#m7a523e26af" y="117.300697"/>
      </g>
     </g>
    </g>
    <g id="ytick_31">
     <g id="line2d_95">
      <g>
       <use style="stroke:#000000;stroke-width:0.48;" x="151.966433" xlink:href="#m7a523e26af" y="105.901847"/>
      </g>
     </g>
    </g>
    <g id="ytick_32">
     <g id="line2d_96">
      <g>
       <use style="stroke:#000000;stroke-width:0.48;" x="151.966433" xlink:href="#m7a523e26af" y="100.202422"/>
      </g>
     </g>
    </g>
    <g id="ytick_33">
     <g id="line2d_97">
      <g>
       <use style="stroke:#000000;stroke-width:0.48;" x="151.966433" xlink:href="#m7a523e26af" y="94.502997"/>
      </g>
     </g>
    </g>
    <g id="ytick_34">
     <g id="line2d_98">
      <g>
       <use style="stroke:#000000;stroke-width:0.48;" x="151.966433" xlink:href="#m7a523e26af" y="83.104146"/>
      </g>
     </g>
    </g>
    <g id="ytick_35">
     <g id="line2d_99">
      <g>
       <use style="stroke:#000000;stroke-width:0.48;" x="151.966433" xlink:href="#m7a523e26af" y="77.404721"/>
      </g>
     </g>
    </g>
    <g id="ytick_36">
     <g id="line2d_100">
      <g>
       <use style="stroke:#000000;stroke-width:0.48;" x="151.966433" xlink:href="#m7a523e26af" y="71.705296"/>
      </g>
     </g>
    </g>
    <g id="ytick_37">
     <g id="line2d_101">
      <g>
       <use style="stroke:#000000;stroke-width:0.48;" x="151.966433" xlink:href="#m7a523e26af" y="60.306445"/>
      </g>
     </g>
    </g>
    <g id="ytick_38">
     <g id="line2d_102">
      <g>
       <use style="stroke:#000000;stroke-width:0.48;" x="151.966433" xlink:href="#m7a523e26af" y="54.60702"/>
      </g>
     </g>
    </g>
    <g id="ytick_39">
     <g id="line2d_103">
      <g>
       <use style="stroke:#000000;stroke-width:0.48;" x="151.966433" xlink:href="#m7a523e26af" y="48.907595"/>
      </g>
     </g>
    </g>
    <g id="ytick_40">
     <g id="line2d_104">
      <g>
       <use style="stroke:#000000;stroke-width:0.48;" x="151.966433" xlink:href="#m7a523e26af" y="37.508744"/>
      </g>
     </g>
    </g>
    <g id="ytick_41">
     <g id="line2d_105">
      <g>
       <use style="stroke:#000000;stroke-width:0.48;" x="151.966433" xlink:href="#m7a523e26af" y="31.809319"/>
      </g>
     </g>
    </g>
    <g id="ytick_42">
     <g id="line2d_106">
      <g>
       <use style="stroke:#000000;stroke-width:0.48;" x="151.966433" xlink:href="#m7a523e26af" y="26.109894"/>
      </g>
     </g>
    </g>
   </g>
   <g id="patch_8">
    <path d="M 151.966433 134.398973 
L 151.966433 20.410469 
" style="fill:none;stroke:#000000;stroke-linecap:square;stroke-linejoin:miter;stroke-width:0.6;"/>
   </g>
   <g id="patch_9">
    <path d="M 265.422554 134.398973 
L 265.422554 20.410469 
" style="fill:none;stroke:#000000;stroke-linecap:square;stroke-linejoin:miter;stroke-width:0.6;"/>
   </g>
   <g id="patch_10">
    <path d="M 151.966433 134.398973 
L 265.422554 134.398973 
" style="fill:none;stroke:#000000;stroke-linecap:square;stroke-linejoin:miter;stroke-width:0.6;"/>
   </g>
   <g id="patch_11">
    <path d="M 151.966433 20.410469 
L 265.422554 20.410469 
" style="fill:none;stroke:#000000;stroke-linecap:square;stroke-linejoin:miter;stroke-width:0.6;"/>
   </g>
  </g>
  <g id="text_18">
   <!-- Effect of subplot properties on figure size -->
   <defs>
    <path d="M 62.40625 0 
L 7.90625 0 
L 7.90625 72.90625 
L 60.59375 72.90625 
L 60.59375 60.40625 
L 22.90625 60.40625 
L 22.90625 43.90625 
L 57.796875 43.90625 
L 57.796875 31.40625 
L 22.90625 31.40625 
L 22.90625 12.5 
L 62.40625 12.5 
z
" id="TeXGyreHeros-Bold-69"/>
    <path d="M 31.296875 43.59375 
L 23 43.59375 
L 23 0 
L 9 0 
L 9 43.59375 
L 1.40625 43.59375 
L 1.40625 52.90625 
L 9 52.90625 
L 9 59.40625 
Q 9 72.90625 22.796875 72.90625 
Q 26.90625 72.90625 30.796875 72.59375 
L 30.796875 62.09375 
Q 29 62.40625 26.796875 62.40625 
Q 23 62.40625 23 58.203125 
L 23 52.90625 
L 31.296875 52.90625 
z
" id="TeXGyreHeros-Bold-102"/>
    <path d="M 52.5 25 
L 52.40625 23.296875 
L 16.203125 23.296875 
Q 16.5 15.796875 19.296875 12.796875 
Q 22.09375 9.796875 27.40625 9.796875 
Q 36.40625 9.796875 38.09375 15.203125 
L 51.90625 15.203125 
Q 49.59375 7.40625 42.890625 3.25 
Q 36.203125 -0.90625 26.90625 -0.90625 
Q 15.296875 -0.90625 8.75 6.25 
Q 2.203125 13.40625 2.203125 26.296875 
Q 2.203125 39.796875 8.84375 47.34375 
Q 15.5 54.90625 27.203125 54.90625 
Q 39.09375 54.90625 45.796875 46.953125 
Q 52.5 39 52.5 25 
z
M 37.90625 32.59375 
Q 37.40625 38.296875 34.5 41.25 
Q 31.59375 44.203125 27 44.203125 
Q 17.796875 44.203125 16.40625 32.59375 
z
" id="TeXGyreHeros-Bold-101"/>
    <path d="M 52.203125 18.703125 
Q 51.203125 10 44.796875 4.546875 
Q 38.40625 -0.90625 28.703125 -0.90625 
Q 16.59375 -0.90625 10 6.1875 
Q 3.40625 13.296875 3.40625 26.59375 
Q 3.40625 40.296875 10.046875 47.59375 
Q 16.703125 54.90625 28.90625 54.90625 
Q 39 54.90625 45.25 49.296875 
Q 51.5 43.703125 52.203125 33.796875 
L 38.796875 33.796875 
Q 37.59375 39.09375 35.34375 41.34375 
Q 33.09375 43.59375 28.796875 43.59375 
Q 17.40625 43.59375 17.40625 26.59375 
Q 17.40625 18.796875 20.40625 14.59375 
Q 23.40625 10.40625 28.796875 10.40625 
Q 32.796875 10.40625 35.09375 12.40625 
Q 37.40625 14.40625 38.796875 18.703125 
z
" id="TeXGyreHeros-Bold-99"/>
    <path d="M 30.09375 0 
Q 29.5 0 26.640625 -0.203125 
Q 23.796875 -0.40625 22 -0.40625 
Q 15 -0.40625 11.640625 2.4375 
Q 8.296875 5.296875 8.296875 11.59375 
L 8.296875 43.59375 
L 1.40625 43.59375 
L 1.40625 52.90625 
L 8.296875 52.90625 
L 8.296875 67.40625 
L 22.296875 67.40625 
L 22.296875 52.90625 
L 30.09375 52.90625 
L 30.09375 43.59375 
L 22.296875 43.59375 
L 22.296875 15.40625 
Q 22.296875 11.796875 23.1875 10.640625 
Q 24.09375 9.5 26.90625 9.5 
Q 28 9.5 30.09375 9.796875 
z
" id="TeXGyreHeros-Bold-116"/>
    <path id="TeXGyreHeros-Bold-32"/>
    <path d="M 56.90625 26.59375 
Q 56.90625 13.703125 49.75 6.390625 
Q 42.59375 -0.90625 30.203125 -0.90625 
Q 17.703125 -0.90625 10.59375 6.390625 
Q 3.5 13.703125 3.5 27 
Q 3.5 40.203125 10.59375 47.546875 
Q 17.703125 54.90625 30.09375 54.90625 
Q 42.90625 54.90625 49.90625 47.546875 
Q 56.90625 40.203125 56.90625 26.59375 
z
M 42.90625 26.796875 
Q 42.90625 34.703125 39.453125 39.140625 
Q 36 43.59375 30.203125 43.59375 
Q 24.40625 43.59375 20.953125 39.140625 
Q 17.5 34.703125 17.5 27 
Q 17.5 19.296875 20.953125 14.84375 
Q 24.40625 10.40625 30.203125 10.40625 
Q 35.90625 10.40625 39.40625 14.84375 
Q 42.90625 19.296875 42.90625 26.796875 
z
" id="TeXGyreHeros-Bold-111"/>
    <path d="M 52 16 
Q 52 7.796875 45.890625 3.4375 
Q 39.796875 -0.90625 28.40625 -0.90625 
Q 3.5 -0.90625 2.90625 17.09375 
L 16.59375 17.09375 
Q 17.5 13 20 11.546875 
Q 22.5 10.09375 27.59375 10.09375 
Q 38 10.09375 38 14.703125 
Q 38 16.90625 33.296875 18.40625 
L 16.59375 23.59375 
Q 9.5 25.796875 7.140625 28.6875 
Q 4.796875 31.59375 4.796875 36.90625 
Q 4.796875 45.203125 10.75 50.046875 
Q 16.703125 54.90625 27 54.90625 
Q 37.90625 54.90625 44.09375 50.046875 
Q 50.296875 45.203125 50.5 36.59375 
L 37 36.59375 
Q 36.90625 43.90625 26.90625 43.90625 
Q 23.203125 43.90625 21 42.546875 
Q 18.796875 41.203125 18.796875 38.90625 
Q 18.796875 37.203125 19.796875 36.34375 
Q 20.796875 35.5 23.703125 34.703125 
L 41.40625 29.59375 
Q 52 26.5 52 16.703125 
z
" id="TeXGyreHeros-Bold-115"/>
    <path d="M 54.09375 0 
L 40.09375 0 
L 40.09375 7.09375 
Q 34.09375 -0.90625 23.90625 -0.90625 
Q 15.296875 -0.90625 10.546875 4 
Q 5.796875 8.90625 5.796875 17.796875 
L 5.796875 54 
L 19.796875 54 
L 19.796875 20.703125 
Q 19.796875 11 28.796875 11 
Q 33.90625 11 37 13.890625 
Q 40.09375 16.796875 40.09375 21.59375 
L 40.09375 54 
L 54.09375 54 
z
" id="TeXGyreHeros-Bold-117"/>
    <path d="M 57.5 26.296875 
Q 57.5 14.203125 51.046875 6.640625 
Q 44.59375 -0.90625 34.796875 -0.90625 
Q 25.09375 -0.90625 19.90625 6.203125 
L 19.90625 0 
L 5.90625 0 
L 5.90625 72.90625 
L 19.90625 72.90625 
L 19.90625 47 
Q 24.90625 54.90625 34.796875 54.90625 
Q 45.09375 54.90625 51.296875 46.546875 
Q 57.5 38.203125 57.5 26.296875 
z
M 43.5 26.90625 
Q 43.5 34.296875 40.203125 38.75 
Q 36.90625 43.203125 31.703125 43.203125 
Q 26.40625 43.203125 23.15625 38.84375 
Q 19.90625 34.5 19.90625 27.203125 
Q 19.90625 19.59375 23.09375 15.1875 
Q 26.296875 10.796875 31.703125 10.796875 
Q 36.90625 10.796875 40.203125 15.1875 
Q 43.5 19.59375 43.5 26.90625 
z
" id="TeXGyreHeros-Bold-98"/>
    <path d="M 57.40625 27 
Q 57.40625 14.796875 51 6.9375 
Q 44.59375 -0.90625 34.796875 -0.90625 
Q 24.40625 -0.90625 19.796875 7.203125 
L 19.796875 -21.796875 
L 5.796875 -21.796875 
L 5.796875 54 
L 19.796875 54 
L 19.796875 46 
Q 24.796875 54.90625 34.796875 54.90625 
Q 45.203125 54.90625 51.296875 47.09375 
Q 57.40625 39.296875 57.40625 27 
z
M 43.40625 26.796875 
Q 43.40625 34.40625 40.203125 38.796875 
Q 37 43.203125 31.59375 43.203125 
Q 26.296875 43.203125 23.046875 38.84375 
Q 19.796875 34.5 19.796875 27 
Q 19.796875 19.5 23.046875 15.140625 
Q 26.296875 10.796875 31.59375 10.796875 
Q 36.796875 10.796875 40.09375 15.140625 
Q 43.40625 19.5 43.40625 26.796875 
z
" id="TeXGyreHeros-Bold-112"/>
    <path d="M 20.703125 0 
L 6.703125 0 
L 6.703125 72.90625 
L 20.703125 72.90625 
z
" id="TeXGyreHeros-Bold-108"/>
    <path d="M 37 40.59375 
Q 34.5 41 32.59375 41 
Q 20.296875 41 20.296875 28.703125 
L 20.296875 0 
L 6.296875 0 
L 6.296875 54 
L 20.296875 54 
L 20.296875 43.40625 
Q 22.5 48.90625 26.5 51.90625 
Q 30.5 54.90625 35.296875 54.90625 
Q 36.203125 54.90625 37 54.796875 
z
" id="TeXGyreHeros-Bold-114"/>
    <path d="M 20.703125 0 
L 6.703125 0 
L 6.703125 54 
L 20.703125 54 
z
M 20.90625 60.5 
L 6.90625 60.5 
L 6.90625 74.5 
L 20.90625 74.5 
z
" id="TeXGyreHeros-Bold-105"/>
    <path d="M 54.59375 0 
L 40.59375 0 
L 40.59375 33.296875 
Q 40.59375 43 31.59375 43 
Q 26.5 43 23.390625 40.09375 
Q 20.296875 37.203125 20.296875 32.40625 
L 20.296875 0 
L 6.296875 0 
L 6.296875 54 
L 20.296875 54 
L 20.296875 46.203125 
Q 26.09375 54.90625 36.5 54.90625 
Q 45.09375 54.90625 49.84375 50 
Q 54.59375 45.09375 54.59375 36.203125 
z
" id="TeXGyreHeros-Bold-110"/>
    <path d="M 54.09375 -1.796875 
Q 54.09375 -11.296875 47.34375 -16.546875 
Q 40.59375 -21.796875 28.40625 -21.796875 
Q 17.5 -21.796875 11.09375 -17.5 
Q 4.703125 -13.203125 4.5 -6.5 
L 19 -6.5 
Q 20.703125 -12.796875 28.90625 -12.796875 
Q 34.203125 -12.796875 37.5 -9.75 
Q 40.796875 -6.703125 40.796875 -1.796875 
L 40.796875 6.203125 
Q 36.796875 2.203125 33.5 0.640625 
Q 30.203125 -0.90625 25.5 -0.90625 
Q 15.5 -0.90625 9.453125 6.5 
Q 3.40625 13.90625 3.40625 26.40625 
Q 3.40625 38.90625 9.75 46.90625 
Q 16.09375 54.90625 25.796875 54.90625 
Q 34.796875 54.90625 40.796875 45.703125 
L 40.796875 54 
L 54.09375 54 
z
M 41 26.59375 
Q 41 34 37.546875 38.59375 
Q 34.09375 43.203125 28.796875 43.203125 
Q 23.703125 43.203125 20.546875 38.703125 
Q 17.40625 34.203125 17.40625 26.59375 
Q 17.40625 19.296875 20.5 15.046875 
Q 23.59375 10.796875 28.59375 10.796875 
Q 34.09375 10.796875 37.546875 15.046875 
Q 41 19.296875 41 26.59375 
z
" id="TeXGyreHeros-Bold-103"/>
    <path d="M 46.796875 0 
L 2.09375 0 
L 2.09375 11.296875 
L 28.796875 42.703125 
L 3.90625 42.703125 
L 3.90625 54 
L 45.90625 54 
L 45.90625 42.703125 
L 19.40625 11.296875 
L 46.796875 11.296875 
z
" id="TeXGyreHeros-Bold-122"/>
   </defs>
   <g transform="translate(45.318699 11.95)scale(0.1 -0.1)">
    <use xlink:href="#TeXGyreHeros-Bold-69"/>
    <use x="66.699997" xlink:href="#TeXGyreHeros-Bold-102"/>
    <use x="99.999985" xlink:href="#TeXGyreHeros-Bold-102"/>
    <use x="133.299973" xlink:href="#TeXGyreHeros-Bold-101"/>
    <use x="188.899963" xlink:href="#TeXGyreHeros-Bold-99"/>
    <use x="244.499954" xlink:href="#TeXGyreHeros-Bold-116"/>
    <use x="277.799942" xlink:href="#TeXGyreHeros-Bold-32"/>
    <use x="305.59993" xlink:href="#TeXGyreHeros-Bold-111"/>
    <use x="366.699921" xlink:href="#TeXGyreHeros-Bold-102"/>
    <use x="399.999908" xlink:href="#TeXGyreHeros-Bold-32"/>
    <use x="427.799896" xlink:href="#TeXGyreHeros-Bold-115"/>
    <use x="483.399887" xlink:href="#TeXGyreHeros-Bold-117"/>
    <use x="544.499878" xlink:href="#TeXGyreHeros-Bold-98"/>
    <use x="605.599869" xlink:href="#TeXGyreHeros-Bold-112"/>
    <use x="666.69986" xlink:href="#TeXGyreHeros-Bold-108"/>
    <use x="694.499847" xlink:href="#TeXGyreHeros-Bold-111"/>
    <use x="755.599838" xlink:href="#TeXGyreHeros-Bold-116"/>
    <use x="788.899826" xlink:href="#TeXGyreHeros-Bold-32"/>
    <use x="816.699814" xlink:href="#TeXGyreHeros-Bold-112"/>
    <use x="877.799805" xlink:href="#TeXGyreHeros-Bold-114"/>
    <use x="916.699799" xlink:href="#TeXGyreHeros-Bold-111"/>
    <use x="977.799789" xlink:href="#TeXGyreHeros-Bold-112"/>
    <use x="1038.89978" xlink:href="#TeXGyreHeros-Bold-101"/>
    <use x="1094.499771" xlink:href="#TeXGyreHeros-Bold-114"/>
    <use x="1133.399765" xlink:href="#TeXGyreHeros-Bold-116"/>
    <use x="1166.699753" xlink:href="#TeXGyreHeros-Bold-105"/>
    <use x="1194.499741" xlink:href="#TeXGyreHeros-Bold-101"/>
    <use x="1250.099731" xlink:href="#TeXGyreHeros-Bold-115"/>
    <use x="1305.699722" xlink:href="#TeXGyreHeros-Bold-32"/>
    <use x="1333.49971" xlink:href="#TeXGyreHeros-Bold-111"/>
    <use x="1394.599701" xlink:href="#TeXGyreHeros-Bold-110"/>
    <use x="1455.699692" xlink:href="#TeXGyreHeros-Bold-32"/>
    <use x="1483.49968" xlink:href="#TeXGyreHeros-Bold-102"/>
    <use x="1516.799667" xlink:href="#TeXGyreHeros-Bold-105"/>
    <use x="1544.599655" xlink:href="#TeXGyreHeros-Bold-103"/>
    <use x="1605.699646" xlink:href="#TeXGyreHeros-Bold-117"/>
    <use x="1666.799637" xlink:href="#TeXGyreHeros-Bold-114"/>
    <use x="1705.699631" xlink:href="#TeXGyreHeros-Bold-101"/>
    <use x="1761.299622" xlink:href="#TeXGyreHeros-Bold-32"/>
    <use x="1789.099609" xlink:href="#TeXGyreHeros-Bold-115"/>
    <use x="1844.6996" xlink:href="#TeXGyreHeros-Bold-105"/>
    <use x="1872.499588" xlink:href="#TeXGyreHeros-Bold-122"/>
    <use x="1922.499573" xlink:href="#TeXGyreHeros-Bold-101"/>
   </g>
  </g>
 </g>
 <defs>
  <clipPath id="p076ed1b92b">
   <rect height="113.988504" width="113.456121" x="23.008594" y="20.410469"/>
  </clipPath>
  <clipPath id="p4a3f21624f">
   <rect height="113.988504" width="113.456121" x="151.966433" y="20.410469"/>
  </clipPath>
 </defs>
</svg>
