<?xml version="1.0" encoding="utf-8" standalone="no"?>
<!DOCTYPE svg PUBLIC "-//W3C//DTD SVG 1.1//EN"
  "http://www.w3.org/Graphics/SVG/1.1/DTD/svg11.dtd">
<!-- Created with matplotlib (https://matplotlib.org/) -->
<svg height="210.05509pt" version="1.1" viewBox="0 0 385.735008 210.05509" width="385.735008pt" xmlns="http://www.w3.org/2000/svg" xmlns:xlink="http://www.w3.org/1999/xlink">
 <defs>
  <style type="text/css">
*{stroke-linecap:butt;stroke-linejoin:round;}
  </style>
 </defs>
 <g id="figure_1">
  <g id="patch_1">
   <path d="M 0 210.05509 
L 385.735008 210.05509 
L 385.735008 0 
L 0 0 
z
" style="fill:none;"/>
  </g>
  <g id="axes_1">
   <g id="patch_2">
    <path d="M 23.008594 191.031809 
L 193.120082 191.031809 
L 193.120082 20.410469 
L 23.008594 20.410469 
z
" style="fill:none;"/>
   </g>
   <g id="matplotlib.axis_1">
    <g id="xtick_1">
     <g id="line2d_1">
      <path clip-path="url(#pbf26bb8755)" d="M 23.008594 191.031809 
L 23.008594 20.410469 
" style="fill:none;stroke:#000000;stroke-linecap:square;stroke-opacity:0.1;stroke-width:0.6;"/>
     </g>
     <g id="line2d_2">
      <defs>
       <path d="M 0 0 
L 0 4 
" id="m75ce6a9382" style="stroke:#000000;stroke-width:0.6;"/>
      </defs>
      <g>
       <use style="stroke:#000000;stroke-width:0.6;" x="23.008594" xlink:href="#m75ce6a9382" y="191.031809"/>
      </g>
     </g>
     <g id="text_1">
      <!-- 0 -->
      <defs>
       <path d="M 50.703125 34.09375 
Q 50.703125 16.703125 44.75 7.59375 
Q 38.796875 -1.5 27.5 -1.5 
Q 16.09375 -1.5 10.1875 7.640625 
Q 4.296875 16.796875 4.296875 34.6875 
Q 4.296875 52.59375 10.140625 61.75 
Q 16 70.90625 27.5 70.90625 
Q 50.703125 70.90625 50.703125 34.09375 
z
M 41.703125 34.90625 
Q 41.703125 63.09375 27.5 63.09375 
Q 13.296875 63.09375 13.296875 34.59375 
Q 13.296875 5.796875 27.296875 5.796875 
Q 34.703125 5.796875 38.203125 12.84375 
Q 41.703125 19.90625 41.703125 34.90625 
z
" id="TeXGyreHeros-Regular-48"/>
      </defs>
      <g transform="translate(20.506875 203.593371)scale(0.09 -0.09)">
       <use xlink:href="#TeXGyreHeros-Regular-48"/>
      </g>
     </g>
    </g>
    <g id="xtick_2">
     <g id="line2d_3">
      <path clip-path="url(#pbf26bb8755)" d="M 57.030891 191.031809 
L 57.030891 20.410469 
" style="fill:none;stroke:#000000;stroke-linecap:square;stroke-opacity:0.1;stroke-width:0.6;"/>
     </g>
     <g id="line2d_4">
      <g>
       <use style="stroke:#000000;stroke-width:0.6;" x="57.030891" xlink:href="#m75ce6a9382" y="191.031809"/>
      </g>
     </g>
     <g id="text_2">
      <!-- 0.2 -->
      <defs>
       <path d="M 19.09375 0 
L 8.703125 0 
L 8.703125 10.40625 
L 19.09375 10.40625 
z
" id="TeXGyreHeros-Regular-46"/>
       <path d="M 51.09375 50.09375 
Q 51.09375 36.703125 36.09375 28.703125 
L 26.09375 23.296875 
Q 19.59375 19.5 16.796875 16.296875 
Q 14 13.09375 13.296875 8.703125 
L 50.59375 8.703125 
L 50.59375 0 
L 3.40625 0 
Q 4 11.703125 8.09375 18.046875 
Q 12.203125 24.40625 23.296875 30.703125 
L 32.5 35.90625 
Q 42.09375 41.40625 42.09375 49.90625 
Q 42.09375 55.59375 38.09375 59.390625 
Q 34.09375 63.203125 28.09375 63.203125 
Q 21.40625 63.203125 17.84375 59.140625 
Q 14.296875 55.09375 13.796875 46.296875 
L 5 46.296875 
Q 5.703125 70.90625 28.40625 70.90625 
Q 38.40625 70.90625 44.75 65 
Q 51.09375 59.09375 51.09375 50.09375 
z
" id="TeXGyreHeros-Regular-50"/>
      </defs>
      <g transform="translate(50.776595 203.593371)scale(0.09 -0.09)">
       <use xlink:href="#TeXGyreHeros-Regular-48"/>
       <use x="55.599991" xlink:href="#TeXGyreHeros-Regular-46"/>
       <use x="83.399979" xlink:href="#TeXGyreHeros-Regular-50"/>
      </g>
     </g>
    </g>
    <g id="xtick_3">
     <g id="line2d_5">
      <path clip-path="url(#pbf26bb8755)" d="M 91.053189 191.031809 
L 91.053189 20.410469 
" style="fill:none;stroke:#000000;stroke-linecap:square;stroke-opacity:0.1;stroke-width:0.6;"/>
     </g>
     <g id="line2d_6">
      <g>
       <use style="stroke:#000000;stroke-width:0.6;" x="91.053189" xlink:href="#m75ce6a9382" y="191.031809"/>
      </g>
     </g>
     <g id="text_3">
      <!-- 0.4 -->
      <defs>
       <path d="M 52 17 
L 41.5 17 
L 41.5 0 
L 32.703125 0 
L 32.703125 17 
L 2.796875 17 
L 2.796875 26.296875 
L 35 70.90625 
L 41.5 70.90625 
L 41.5 24.90625 
L 52 24.90625 
z
M 32.703125 24.90625 
L 32.703125 55.90625 
L 10.5 24.90625 
z
" id="TeXGyreHeros-Regular-52"/>
      </defs>
      <g transform="translate(84.798892 203.593371)scale(0.09 -0.09)">
       <use xlink:href="#TeXGyreHeros-Regular-48"/>
       <use x="55.599991" xlink:href="#TeXGyreHeros-Regular-46"/>
       <use x="83.399979" xlink:href="#TeXGyreHeros-Regular-52"/>
      </g>
     </g>
    </g>
    <g id="xtick_4">
     <g id="line2d_7">
      <path clip-path="url(#pbf26bb8755)" d="M 125.075487 191.031809 
L 125.075487 20.410469 
" style="fill:none;stroke:#000000;stroke-linecap:square;stroke-opacity:0.1;stroke-width:0.6;"/>
     </g>
     <g id="line2d_8">
      <g>
       <use style="stroke:#000000;stroke-width:0.6;" x="125.075487" xlink:href="#m75ce6a9382" y="191.031809"/>
      </g>
     </g>
     <g id="text_4">
      <!-- 0.6 -->
      <defs>
       <path d="M 51.296875 22 
Q 51.296875 11.59375 44.796875 5.046875 
Q 38.296875 -1.5 28.09375 -1.5 
Q 4.296875 -1.5 4.296875 32.296875 
Q 4.296875 50.90625 10.84375 60.90625 
Q 17.40625 70.90625 29.703125 70.90625 
Q 37.796875 70.90625 43.140625 66 
Q 48.5 61.09375 49.796875 52.40625 
L 41 52.40625 
Q 39.90625 57.5 36.796875 60.296875 
Q 33.703125 63.09375 29.09375 63.09375 
Q 21.5 63.09375 17.453125 56.140625 
Q 13.40625 49.203125 13.296875 36.203125 
Q 19.09375 44.09375 29.59375 44.09375 
Q 39.203125 44.09375 45.25 38 
Q 51.296875 31.90625 51.296875 22 
z
M 42.296875 21.296875 
Q 42.296875 28.40625 38.59375 32.34375 
Q 34.90625 36.296875 28.5 36.296875 
Q 21.90625 36.296875 17.84375 32.34375 
Q 13.796875 28.40625 13.796875 21.796875 
Q 13.796875 15 17.890625 10.640625 
Q 22 6.296875 28.203125 6.296875 
Q 34.296875 6.296875 38.296875 10.5 
Q 42.296875 14.703125 42.296875 21.296875 
z
" id="TeXGyreHeros-Regular-54"/>
      </defs>
      <g transform="translate(118.82119 203.593371)scale(0.09 -0.09)">
       <use xlink:href="#TeXGyreHeros-Regular-48"/>
       <use x="55.599991" xlink:href="#TeXGyreHeros-Regular-46"/>
       <use x="83.399979" xlink:href="#TeXGyreHeros-Regular-54"/>
      </g>
     </g>
    </g>
    <g id="xtick_5">
     <g id="line2d_9">
      <path clip-path="url(#pbf26bb8755)" d="M 159.097785 191.031809 
L 159.097785 20.410469 
" style="fill:none;stroke:#000000;stroke-linecap:square;stroke-opacity:0.1;stroke-width:0.6;"/>
     </g>
     <g id="line2d_10">
      <g>
       <use style="stroke:#000000;stroke-width:0.6;" x="159.097785" xlink:href="#m75ce6a9382" y="191.031809"/>
      </g>
     </g>
     <g id="text_5">
      <!-- 0.8 -->
      <defs>
       <path d="M 51.296875 20 
Q 51.296875 10.40625 44.640625 4.453125 
Q 38 -1.5 27.5 -1.5 
Q 16.90625 -1.5 10.296875 4.453125 
Q 3.703125 10.40625 3.703125 20.09375 
Q 3.703125 31.5 15.796875 37.296875 
Q 10.40625 40.703125 8.296875 43.890625 
Q 6.203125 47.09375 6.203125 52 
Q 6.203125 60.296875 12.140625 65.59375 
Q 18.09375 70.90625 27.5 70.90625 
Q 36.90625 70.90625 42.84375 65.59375 
Q 48.796875 60.296875 48.796875 52 
Q 48.796875 47 46.6875 43.796875 
Q 44.59375 40.59375 39.09375 37.296875 
Q 51.296875 31.5 51.296875 20 
z
M 39.796875 51.796875 
Q 39.796875 57 36.4375 60.046875 
Q 33.09375 63.09375 27.5 63.09375 
Q 21.90625 63.09375 18.546875 60.046875 
Q 15.203125 57 15.203125 51.90625 
Q 15.203125 46.90625 18.546875 43.84375 
Q 21.90625 40.796875 27.5 40.796875 
Q 33 40.796875 36.390625 43.796875 
Q 39.796875 46.796875 39.796875 51.796875 
z
M 42.296875 19.90625 
Q 42.296875 26.09375 38.25 29.75 
Q 34.203125 33.40625 27.5 33.40625 
Q 20.796875 33.40625 16.75 29.75 
Q 12.703125 26.09375 12.703125 19.890625 
Q 12.703125 13.703125 16.75 10 
Q 20.796875 6.296875 27.296875 6.296875 
Q 34.09375 6.296875 38.1875 9.9375 
Q 42.296875 13.59375 42.296875 19.90625 
z
" id="TeXGyreHeros-Regular-56"/>
      </defs>
      <g transform="translate(152.843488 203.593371)scale(0.09 -0.09)">
       <use xlink:href="#TeXGyreHeros-Regular-48"/>
       <use x="55.599991" xlink:href="#TeXGyreHeros-Regular-46"/>
       <use x="83.399979" xlink:href="#TeXGyreHeros-Regular-56"/>
      </g>
     </g>
    </g>
    <g id="xtick_6">
     <g id="line2d_11">
      <path clip-path="url(#pbf26bb8755)" d="M 193.120082 191.031809 
L 193.120082 20.410469 
" style="fill:none;stroke:#000000;stroke-linecap:square;stroke-opacity:0.1;stroke-width:0.6;"/>
     </g>
     <g id="line2d_12">
      <g>
       <use style="stroke:#000000;stroke-width:0.6;" x="193.120082" xlink:href="#m75ce6a9382" y="191.031809"/>
      </g>
     </g>
     <g id="text_6">
      <!-- 1 -->
      <defs>
       <path d="M 34.703125 0 
L 25.90625 0 
L 25.90625 50.5 
L 10.203125 50.5 
L 10.203125 56.796875 
Q 20.40625 58.09375 23.5 60.390625 
Q 26.59375 62.703125 28.90625 70.90625 
L 34.703125 70.90625 
z
" id="TeXGyreHeros-Regular-49"/>
      </defs>
      <g transform="translate(190.618363 203.593371)scale(0.09 -0.09)">
       <use xlink:href="#TeXGyreHeros-Regular-49"/>
      </g>
     </g>
    </g>
    <g id="xtick_7">
     <g id="line2d_13">
      <defs>
       <path d="M 0 0 
L 0 2 
" id="meff43ba1e1" style="stroke:#000000;stroke-width:0.48;"/>
      </defs>
      <g>
       <use style="stroke:#000000;stroke-width:0.48;" x="31.514168" xlink:href="#meff43ba1e1" y="191.031809"/>
      </g>
     </g>
    </g>
    <g id="xtick_8">
     <g id="line2d_14">
      <g>
       <use style="stroke:#000000;stroke-width:0.48;" x="40.019743" xlink:href="#meff43ba1e1" y="191.031809"/>
      </g>
     </g>
    </g>
    <g id="xtick_9">
     <g id="line2d_15">
      <g>
       <use style="stroke:#000000;stroke-width:0.48;" x="48.525317" xlink:href="#meff43ba1e1" y="191.031809"/>
      </g>
     </g>
    </g>
    <g id="xtick_10">
     <g id="line2d_16">
      <g>
       <use style="stroke:#000000;stroke-width:0.48;" x="65.536466" xlink:href="#meff43ba1e1" y="191.031809"/>
      </g>
     </g>
    </g>
    <g id="xtick_11">
     <g id="line2d_17">
      <g>
       <use style="stroke:#000000;stroke-width:0.48;" x="74.04204" xlink:href="#meff43ba1e1" y="191.031809"/>
      </g>
     </g>
    </g>
    <g id="xtick_12">
     <g id="line2d_18">
      <g>
       <use style="stroke:#000000;stroke-width:0.48;" x="82.547615" xlink:href="#meff43ba1e1" y="191.031809"/>
      </g>
     </g>
    </g>
    <g id="xtick_13">
     <g id="line2d_19">
      <g>
       <use style="stroke:#000000;stroke-width:0.48;" x="99.558764" xlink:href="#meff43ba1e1" y="191.031809"/>
      </g>
     </g>
    </g>
    <g id="xtick_14">
     <g id="line2d_20">
      <g>
       <use style="stroke:#000000;stroke-width:0.48;" x="108.064338" xlink:href="#meff43ba1e1" y="191.031809"/>
      </g>
     </g>
    </g>
    <g id="xtick_15">
     <g id="line2d_21">
      <g>
       <use style="stroke:#000000;stroke-width:0.48;" x="116.569912" xlink:href="#meff43ba1e1" y="191.031809"/>
      </g>
     </g>
    </g>
    <g id="xtick_16">
     <g id="line2d_22">
      <g>
       <use style="stroke:#000000;stroke-width:0.48;" x="133.581061" xlink:href="#meff43ba1e1" y="191.031809"/>
      </g>
     </g>
    </g>
    <g id="xtick_17">
     <g id="line2d_23">
      <g>
       <use style="stroke:#000000;stroke-width:0.48;" x="142.086636" xlink:href="#meff43ba1e1" y="191.031809"/>
      </g>
     </g>
    </g>
    <g id="xtick_18">
     <g id="line2d_24">
      <g>
       <use style="stroke:#000000;stroke-width:0.48;" x="150.59221" xlink:href="#meff43ba1e1" y="191.031809"/>
      </g>
     </g>
    </g>
    <g id="xtick_19">
     <g id="line2d_25">
      <g>
       <use style="stroke:#000000;stroke-width:0.48;" x="167.603359" xlink:href="#meff43ba1e1" y="191.031809"/>
      </g>
     </g>
    </g>
    <g id="xtick_20">
     <g id="line2d_26">
      <g>
       <use style="stroke:#000000;stroke-width:0.48;" x="176.108933" xlink:href="#meff43ba1e1" y="191.031809"/>
      </g>
     </g>
    </g>
    <g id="xtick_21">
     <g id="line2d_27">
      <g>
       <use style="stroke:#000000;stroke-width:0.48;" x="184.614508" xlink:href="#meff43ba1e1" y="191.031809"/>
      </g>
     </g>
    </g>
   </g>
   <g id="matplotlib.axis_2">
    <g id="ytick_1">
     <g id="line2d_28">
      <path clip-path="url(#pbf26bb8755)" d="M 23.008594 191.031809 
L 193.120082 191.031809 
" style="fill:none;stroke:#000000;stroke-linecap:square;stroke-opacity:0.1;stroke-width:0.6;"/>
     </g>
     <g id="line2d_29">
      <defs>
       <path d="M 0 0 
L -4 0 
" id="ma819d5512a" style="stroke:#000000;stroke-width:0.6;"/>
      </defs>
      <g>
       <use style="stroke:#000000;stroke-width:0.6;" x="23.008594" xlink:href="#ma819d5512a" y="191.031809"/>
      </g>
     </g>
     <g id="text_7">
      <!-- 0 -->
      <g transform="translate(12.005156 194.31259)scale(0.09 -0.09)">
       <use xlink:href="#TeXGyreHeros-Regular-48"/>
      </g>
     </g>
    </g>
    <g id="ytick_2">
     <g id="line2d_30">
      <path clip-path="url(#pbf26bb8755)" d="M 23.008594 156.907541 
L 193.120082 156.907541 
" style="fill:none;stroke:#000000;stroke-linecap:square;stroke-opacity:0.1;stroke-width:0.6;"/>
     </g>
     <g id="line2d_31">
      <g>
       <use style="stroke:#000000;stroke-width:0.6;" x="23.008594" xlink:href="#ma819d5512a" y="156.907541"/>
      </g>
     </g>
     <g id="text_8">
      <!-- 0.2 -->
      <g transform="translate(4.5 160.188322)scale(0.09 -0.09)">
       <use xlink:href="#TeXGyreHeros-Regular-48"/>
       <use x="55.599991" xlink:href="#TeXGyreHeros-Regular-46"/>
       <use x="83.399979" xlink:href="#TeXGyreHeros-Regular-50"/>
      </g>
     </g>
    </g>
    <g id="ytick_3">
     <g id="line2d_32">
      <path clip-path="url(#pbf26bb8755)" d="M 23.008594 122.783273 
L 193.120082 122.783273 
" style="fill:none;stroke:#000000;stroke-linecap:square;stroke-opacity:0.1;stroke-width:0.6;"/>
     </g>
     <g id="line2d_33">
      <g>
       <use style="stroke:#000000;stroke-width:0.6;" x="23.008594" xlink:href="#ma819d5512a" y="122.783273"/>
      </g>
     </g>
     <g id="text_9">
      <!-- 0.4 -->
      <g transform="translate(4.5 126.064054)scale(0.09 -0.09)">
       <use xlink:href="#TeXGyreHeros-Regular-48"/>
       <use x="55.599991" xlink:href="#TeXGyreHeros-Regular-46"/>
       <use x="83.399979" xlink:href="#TeXGyreHeros-Regular-52"/>
      </g>
     </g>
    </g>
    <g id="ytick_4">
     <g id="line2d_34">
      <path clip-path="url(#pbf26bb8755)" d="M 23.008594 88.659005 
L 193.120082 88.659005 
" style="fill:none;stroke:#000000;stroke-linecap:square;stroke-opacity:0.1;stroke-width:0.6;"/>
     </g>
     <g id="line2d_35">
      <g>
       <use style="stroke:#000000;stroke-width:0.6;" x="23.008594" xlink:href="#ma819d5512a" y="88.659005"/>
      </g>
     </g>
     <g id="text_10">
      <!-- 0.6 -->
      <g transform="translate(4.5 91.939786)scale(0.09 -0.09)">
       <use xlink:href="#TeXGyreHeros-Regular-48"/>
       <use x="55.599991" xlink:href="#TeXGyreHeros-Regular-46"/>
       <use x="83.399979" xlink:href="#TeXGyreHeros-Regular-54"/>
      </g>
     </g>
    </g>
    <g id="ytick_5">
     <g id="line2d_36">
      <path clip-path="url(#pbf26bb8755)" d="M 23.008594 54.534737 
L 193.120082 54.534737 
" style="fill:none;stroke:#000000;stroke-linecap:square;stroke-opacity:0.1;stroke-width:0.6;"/>
     </g>
     <g id="line2d_37">
      <g>
       <use style="stroke:#000000;stroke-width:0.6;" x="23.008594" xlink:href="#ma819d5512a" y="54.534737"/>
      </g>
     </g>
     <g id="text_11">
      <!-- 0.8 -->
      <g transform="translate(4.5 57.815518)scale(0.09 -0.09)">
       <use xlink:href="#TeXGyreHeros-Regular-48"/>
       <use x="55.599991" xlink:href="#TeXGyreHeros-Regular-46"/>
       <use x="83.399979" xlink:href="#TeXGyreHeros-Regular-56"/>
      </g>
     </g>
    </g>
    <g id="ytick_6">
     <g id="line2d_38">
      <path clip-path="url(#pbf26bb8755)" d="M 23.008594 20.410469 
L 193.120082 20.410469 
" style="fill:none;stroke:#000000;stroke-linecap:square;stroke-opacity:0.1;stroke-width:0.6;"/>
     </g>
     <g id="line2d_39">
      <g>
       <use style="stroke:#000000;stroke-width:0.6;" x="23.008594" xlink:href="#ma819d5512a" y="20.410469"/>
      </g>
     </g>
     <g id="text_12">
      <!-- 1 -->
      <g transform="translate(12.005156 23.69125)scale(0.09 -0.09)">
       <use xlink:href="#TeXGyreHeros-Regular-49"/>
      </g>
     </g>
    </g>
    <g id="ytick_7">
     <g id="line2d_40">
      <defs>
       <path d="M 0 0 
L -2 0 
" id="ma0804df7d4" style="stroke:#000000;stroke-width:0.48;"/>
      </defs>
      <g>
       <use style="stroke:#000000;stroke-width:0.48;" x="23.008594" xlink:href="#ma0804df7d4" y="182.500742"/>
      </g>
     </g>
    </g>
    <g id="ytick_8">
     <g id="line2d_41">
      <g>
       <use style="stroke:#000000;stroke-width:0.48;" x="23.008594" xlink:href="#ma0804df7d4" y="173.969675"/>
      </g>
     </g>
    </g>
    <g id="ytick_9">
     <g id="line2d_42">
      <g>
       <use style="stroke:#000000;stroke-width:0.48;" x="23.008594" xlink:href="#ma0804df7d4" y="165.438608"/>
      </g>
     </g>
    </g>
    <g id="ytick_10">
     <g id="line2d_43">
      <g>
       <use style="stroke:#000000;stroke-width:0.48;" x="23.008594" xlink:href="#ma0804df7d4" y="148.376474"/>
      </g>
     </g>
    </g>
    <g id="ytick_11">
     <g id="line2d_44">
      <g>
       <use style="stroke:#000000;stroke-width:0.48;" x="23.008594" xlink:href="#ma0804df7d4" y="139.845407"/>
      </g>
     </g>
    </g>
    <g id="ytick_12">
     <g id="line2d_45">
      <g>
       <use style="stroke:#000000;stroke-width:0.48;" x="23.008594" xlink:href="#ma0804df7d4" y="131.31434"/>
      </g>
     </g>
    </g>
    <g id="ytick_13">
     <g id="line2d_46">
      <g>
       <use style="stroke:#000000;stroke-width:0.48;" x="23.008594" xlink:href="#ma0804df7d4" y="114.252206"/>
      </g>
     </g>
    </g>
    <g id="ytick_14">
     <g id="line2d_47">
      <g>
       <use style="stroke:#000000;stroke-width:0.48;" x="23.008594" xlink:href="#ma0804df7d4" y="105.721139"/>
      </g>
     </g>
    </g>
    <g id="ytick_15">
     <g id="line2d_48">
      <g>
       <use style="stroke:#000000;stroke-width:0.48;" x="23.008594" xlink:href="#ma0804df7d4" y="97.190072"/>
      </g>
     </g>
    </g>
    <g id="ytick_16">
     <g id="line2d_49">
      <g>
       <use style="stroke:#000000;stroke-width:0.48;" x="23.008594" xlink:href="#ma0804df7d4" y="80.127938"/>
      </g>
     </g>
    </g>
    <g id="ytick_17">
     <g id="line2d_50">
      <g>
       <use style="stroke:#000000;stroke-width:0.48;" x="23.008594" xlink:href="#ma0804df7d4" y="71.596871"/>
      </g>
     </g>
    </g>
    <g id="ytick_18">
     <g id="line2d_51">
      <g>
       <use style="stroke:#000000;stroke-width:0.48;" x="23.008594" xlink:href="#ma0804df7d4" y="63.065804"/>
      </g>
     </g>
    </g>
    <g id="ytick_19">
     <g id="line2d_52">
      <g>
       <use style="stroke:#000000;stroke-width:0.48;" x="23.008594" xlink:href="#ma0804df7d4" y="46.00367"/>
      </g>
     </g>
    </g>
    <g id="ytick_20">
     <g id="line2d_53">
      <g>
       <use style="stroke:#000000;stroke-width:0.48;" x="23.008594" xlink:href="#ma0804df7d4" y="37.472603"/>
      </g>
     </g>
    </g>
    <g id="ytick_21">
     <g id="line2d_54">
      <g>
       <use style="stroke:#000000;stroke-width:0.48;" x="23.008594" xlink:href="#ma0804df7d4" y="28.941536"/>
      </g>
     </g>
    </g>
   </g>
   <g id="patch_3">
    <path d="M 23.008594 191.031809 
L 23.008594 20.410469 
" style="fill:none;stroke:#000000;stroke-linecap:square;stroke-linejoin:miter;stroke-width:0.6;"/>
   </g>
   <g id="patch_4">
    <path d="M 193.120082 191.031809 
L 193.120082 20.410469 
" style="fill:none;stroke:#000000;stroke-linecap:square;stroke-linejoin:miter;stroke-width:0.6;"/>
   </g>
   <g id="patch_5">
    <path d="M 23.008594 191.031809 
L 193.120082 191.031809 
" style="fill:none;stroke:#000000;stroke-linecap:square;stroke-linejoin:miter;stroke-width:0.6;"/>
   </g>
   <g id="patch_6">
    <path d="M 23.008594 20.410469 
L 193.120082 20.410469 
" style="fill:none;stroke:#000000;stroke-linecap:square;stroke-linejoin:miter;stroke-width:0.6;"/>
   </g>
   <g id="text_13">
    <path d="M 78.986994 32.201094 
L 77.466682 32.201094 
Q 77.305744 32.001094 77.305744 31.521406 
Q 76.566682 32.291719 75.666682 32.291719 
Q 74.955744 32.291719 74.490119 31.891719 
Q 74.026057 31.491719 74.026057 30.741719 
Q 74.026057 30.021406 74.410432 29.641719 
Q 74.796369 29.260469 75.616682 29.110469 
L 76.176057 29.010469 
Q 76.296369 28.991719 76.496369 28.962031 
Q 76.696369 28.930781 76.780744 28.916719 
Q 76.866682 28.901094 76.991682 28.862031 
Q 77.116682 28.821406 77.166682 28.766719 
Q 77.216682 28.710469 77.255744 28.616719 
Q 77.296369 28.521406 77.296369 28.380781 
Q 77.296369 27.841719 76.486994 27.841719 
Q 75.966682 27.841719 75.755744 28.001094 
Q 75.546369 28.160469 75.496369 28.580781 
L 74.146369 28.580781 
Q 74.276057 26.710469 76.455744 26.710469 
Q 78.666682 26.710469 78.666682 28.371406 
L 78.666682 31.371406 
Q 78.666682 31.741719 78.986994 32.030781 
z
M 77.296369 29.891719 
L 77.296369 29.651094 
Q 77.105744 29.741719 76.705744 29.821406 
L 76.226057 29.910469 
Q 75.776057 29.991719 75.601057 30.137031 
Q 75.426057 30.280781 75.426057 30.580781 
Q 75.426057 31.160469 76.186994 31.160469 
Q 76.716682 31.160469 77.005744 30.830781 
Q 77.296369 30.501094 77.296369 29.891719 
z
M 84.656368 32.201094 
L 82.976681 32.201094 
L 82.065743 30.521406 
L 81.146993 32.201094 
L 79.465743 32.201094 
L 81.265743 29.480781 
L 79.506368 26.801094 
L 81.186056 26.801094 
L 82.065743 28.430781 
L 82.936056 26.801094 
L 84.615743 26.801094 
L 82.856368 29.480781 
z
M 92.525742 26.801094 
L 90.996055 32.201094 
L 89.546055 32.201094 
L 88.73668 28.391719 
L 87.875742 32.201094 
L 86.43668 32.201094 
L 84.916367 26.801094 
L 86.366367 26.801094 
L 87.225742 30.580781 
L 88.046055 26.801094 
L 89.446055 26.801094 
L 90.256992 30.580781 
L 91.075742 26.801094 
z
M 94.716679 32.201094 
L 93.316679 32.201094 
L 93.316679 26.801094 
L 94.716679 26.801094 
z
M 94.736991 26.151094 
L 93.336991 26.151094 
L 93.336991 24.751094 
L 94.736991 24.751094 
z
M 100.876365 32.201094 
L 99.476365 32.201094 
L 99.476365 31.580781 
Q 98.93574 32.291719 97.98574 32.291719 
Q 96.946677 32.291719 96.331052 31.496406 
Q 95.71699 30.701094 95.71699 29.510469 
Q 95.71699 28.291719 96.36699 27.501094 
Q 97.01699 26.710469 97.98574 26.710469 
Q 98.96699 26.710469 99.476365 27.501094 
L 99.476365 24.910469 
L 100.876365 24.910469 
z
M 99.476365 29.530781 
Q 99.476365 28.760469 99.156052 28.321406 
Q 98.83574 27.880781 98.296677 27.880781 
Q 97.76699 27.880781 97.44199 28.326094 
Q 97.11699 28.771406 97.11699 29.512031 
Q 97.11699 30.251094 97.44199 30.687031 
Q 97.76699 31.121406 98.296677 31.121406 
Q 98.826365 31.121406 99.151365 30.691719 
Q 99.476365 30.260469 99.476365 29.530781 
z
M 104.545739 32.201094 
Q 104.486364 32.201094 104.200427 32.221406 
Q 103.916052 32.241719 103.736364 32.241719 
Q 103.036364 32.241719 102.700427 31.957344 
Q 102.366052 31.671406 102.366052 31.041719 
L 102.366052 27.841719 
L 101.676989 27.841719 
L 101.676989 26.910469 
L 102.366052 26.910469 
L 102.366052 25.460469 
L 103.766052 25.460469 
L 103.766052 26.910469 
L 104.545739 26.910469 
L 104.545739 27.841719 
L 103.766052 27.841719 
L 103.766052 30.660469 
Q 103.766052 31.021406 103.855114 31.137031 
Q 103.945739 31.251094 104.226989 31.251094 
Q 104.336364 31.251094 104.545739 31.221406 
z
M 110.275738 32.201094 
L 108.875738 32.201094 
L 108.875738 28.901094 
Q 108.875738 27.901094 108.016363 27.901094 
Q 107.54605 27.901094 107.241363 28.201094 
Q 106.936675 28.501094 106.936675 28.960469 
L 106.936675 32.201094 
L 105.536675 32.201094 
L 105.536675 24.910469 
L 106.936675 24.910469 
L 106.936675 27.580781 
Q 107.516363 26.710469 108.516363 26.710469 
Q 109.316363 26.710469 109.79605 27.191719 
Q 110.275738 27.671406 110.275738 28.580781 
z
M 118.996986 29.291719 
L 114.356361 29.291719 
L 114.356361 28.291719 
L 118.996986 28.291719 
z
M 118.996986 31.110469 
L 114.356361 31.110469 
L 114.356361 30.110469 
L 118.996986 30.110469 
z
M 127.566984 29.760469 
Q 127.566984 30.910469 126.910734 31.601094 
Q 126.256046 32.291719 125.196671 32.291719 
Q 123.816984 32.291719 123.206046 31.310469 
Q 122.696671 30.501094 122.696671 28.830781 
Q 122.696671 26.921406 123.360734 25.941719 
Q 124.026359 24.960469 125.316984 24.960469 
Q 126.196671 24.960469 126.756046 25.410469 
Q 127.316984 25.860469 127.446671 26.721406 
L 126.146671 26.721406 
Q 126.006046 26.380781 125.810734 26.237031 
Q 125.616984 26.091719 125.276359 26.091719 
Q 124.646671 26.091719 124.396671 26.566719 
Q 124.146671 27.041719 124.096671 28.160469 
Q 124.426359 27.821406 124.746671 27.676094 
Q 125.066984 27.530781 125.506046 27.530781 
Q 126.426359 27.530781 126.996671 28.141719 
Q 127.566984 28.751094 127.566984 29.760469 
z
M 126.235734 29.851094 
Q 126.235734 29.271406 125.945109 28.951094 
Q 125.656046 28.630781 125.165421 28.630781 
Q 124.676359 28.630781 124.376359 28.966719 
Q 124.076359 29.301094 124.076359 29.880781 
Q 124.076359 30.441719 124.371671 30.766719 
Q 124.666984 31.091719 125.156046 31.091719 
Q 125.626359 31.091719 125.931046 30.751094 
Q 126.235734 30.410469 126.235734 29.851094 
z
M 133.15667 30.330781 
Q 133.05667 31.201094 132.416045 31.746406 
Q 131.776983 32.291719 130.80667 32.291719 
Q 129.595733 32.291719 128.936358 31.582344 
Q 128.276983 30.871406 128.276983 29.541719 
Q 128.276983 28.171406 128.941045 27.441719 
Q 129.60667 26.710469 130.826983 26.710469 
Q 131.836358 26.710469 132.461358 27.271406 
Q 133.086358 27.830781 133.15667 28.821406 
L 131.816045 28.821406 
Q 131.695733 28.291719 131.470733 28.066719 
Q 131.245733 27.841719 130.816045 27.841719 
Q 129.676983 27.841719 129.676983 29.541719 
Q 129.676983 30.321406 129.976983 30.741719 
Q 130.276983 31.160469 130.816045 31.160469 
Q 131.216045 31.160469 131.445733 30.960469 
Q 131.676983 30.760469 131.816045 30.330781 
z
M 141.736982 32.201094 
L 140.336982 32.201094 
L 140.336982 28.601094 
Q 140.336982 28.280781 140.130732 28.091719 
Q 139.926045 27.901094 139.576045 27.901094 
Q 139.126045 27.901094 138.871357 28.180781 
Q 138.61667 28.460469 138.61667 28.960469 
L 138.61667 32.201094 
L 137.21667 32.201094 
L 137.21667 28.601094 
Q 137.21667 28.280781 137.01042 28.091719 
Q 136.805732 27.901094 136.455732 27.901094 
Q 136.005732 27.901094 135.751045 28.180781 
Q 135.496357 28.460469 135.496357 28.960469 
L 135.496357 32.201094 
L 134.096357 32.201094 
L 134.096357 26.801094 
L 135.486982 26.801094 
L 135.486982 27.471406 
Q 135.836982 27.060469 136.171357 26.885469 
Q 136.505732 26.710469 136.96667 26.710469 
Q 138.026045 26.710469 138.436982 27.510469 
Q 139.036982 26.710469 140.01667 26.710469 
Q 140.826045 26.710469 141.280732 27.151094 
Q 141.736982 27.591719 141.736982 28.380781 
z
" style="fill:#c92a2a;stroke:#ffffff;stroke-linejoin:miter;stroke-width:1.5;"/>
    <path d="M 78.986994 32.201094 
L 77.466682 32.201094 
Q 77.305744 32.001094 77.305744 31.521406 
Q 76.566682 32.291719 75.666682 32.291719 
Q 74.955744 32.291719 74.490119 31.891719 
Q 74.026057 31.491719 74.026057 30.741719 
Q 74.026057 30.021406 74.410432 29.641719 
Q 74.796369 29.260469 75.616682 29.110469 
L 76.176057 29.010469 
Q 76.296369 28.991719 76.496369 28.962031 
Q 76.696369 28.930781 76.780744 28.916719 
Q 76.866682 28.901094 76.991682 28.862031 
Q 77.116682 28.821406 77.166682 28.766719 
Q 77.216682 28.710469 77.255744 28.616719 
Q 77.296369 28.521406 77.296369 28.380781 
Q 77.296369 27.841719 76.486994 27.841719 
Q 75.966682 27.841719 75.755744 28.001094 
Q 75.546369 28.160469 75.496369 28.580781 
L 74.146369 28.580781 
Q 74.276057 26.710469 76.455744 26.710469 
Q 78.666682 26.710469 78.666682 28.371406 
L 78.666682 31.371406 
Q 78.666682 31.741719 78.986994 32.030781 
z
M 77.296369 29.891719 
L 77.296369 29.651094 
Q 77.105744 29.741719 76.705744 29.821406 
L 76.226057 29.910469 
Q 75.776057 29.991719 75.601057 30.137031 
Q 75.426057 30.280781 75.426057 30.580781 
Q 75.426057 31.160469 76.186994 31.160469 
Q 76.716682 31.160469 77.005744 30.830781 
Q 77.296369 30.501094 77.296369 29.891719 
z
M 84.656368 32.201094 
L 82.976681 32.201094 
L 82.065743 30.521406 
L 81.146993 32.201094 
L 79.465743 32.201094 
L 81.265743 29.480781 
L 79.506368 26.801094 
L 81.186056 26.801094 
L 82.065743 28.430781 
L 82.936056 26.801094 
L 84.615743 26.801094 
L 82.856368 29.480781 
z
M 92.525742 26.801094 
L 90.996055 32.201094 
L 89.546055 32.201094 
L 88.73668 28.391719 
L 87.875742 32.201094 
L 86.43668 32.201094 
L 84.916367 26.801094 
L 86.366367 26.801094 
L 87.225742 30.580781 
L 88.046055 26.801094 
L 89.446055 26.801094 
L 90.256992 30.580781 
L 91.075742 26.801094 
z
M 94.716679 32.201094 
L 93.316679 32.201094 
L 93.316679 26.801094 
L 94.716679 26.801094 
z
M 94.736991 26.151094 
L 93.336991 26.151094 
L 93.336991 24.751094 
L 94.736991 24.751094 
z
M 100.876365 32.201094 
L 99.476365 32.201094 
L 99.476365 31.580781 
Q 98.93574 32.291719 97.98574 32.291719 
Q 96.946677 32.291719 96.331052 31.496406 
Q 95.71699 30.701094 95.71699 29.510469 
Q 95.71699 28.291719 96.36699 27.501094 
Q 97.01699 26.710469 97.98574 26.710469 
Q 98.96699 26.710469 99.476365 27.501094 
L 99.476365 24.910469 
L 100.876365 24.910469 
z
M 99.476365 29.530781 
Q 99.476365 28.760469 99.156052 28.321406 
Q 98.83574 27.880781 98.296677 27.880781 
Q 97.76699 27.880781 97.44199 28.326094 
Q 97.11699 28.771406 97.11699 29.512031 
Q 97.11699 30.251094 97.44199 30.687031 
Q 97.76699 31.121406 98.296677 31.121406 
Q 98.826365 31.121406 99.151365 30.691719 
Q 99.476365 30.260469 99.476365 29.530781 
z
M 104.545739 32.201094 
Q 104.486364 32.201094 104.200427 32.221406 
Q 103.916052 32.241719 103.736364 32.241719 
Q 103.036364 32.241719 102.700427 31.957344 
Q 102.366052 31.671406 102.366052 31.041719 
L 102.366052 27.841719 
L 101.676989 27.841719 
L 101.676989 26.910469 
L 102.366052 26.910469 
L 102.366052 25.460469 
L 103.766052 25.460469 
L 103.766052 26.910469 
L 104.545739 26.910469 
L 104.545739 27.841719 
L 103.766052 27.841719 
L 103.766052 30.660469 
Q 103.766052 31.021406 103.855114 31.137031 
Q 103.945739 31.251094 104.226989 31.251094 
Q 104.336364 31.251094 104.545739 31.221406 
z
M 110.275738 32.201094 
L 108.875738 32.201094 
L 108.875738 28.901094 
Q 108.875738 27.901094 108.016363 27.901094 
Q 107.54605 27.901094 107.241363 28.201094 
Q 106.936675 28.501094 106.936675 28.960469 
L 106.936675 32.201094 
L 105.536675 32.201094 
L 105.536675 24.910469 
L 106.936675 24.910469 
L 106.936675 27.580781 
Q 107.516363 26.710469 108.516363 26.710469 
Q 109.316363 26.710469 109.79605 27.191719 
Q 110.275738 27.671406 110.275738 28.580781 
z
M 118.996986 29.291719 
L 114.356361 29.291719 
L 114.356361 28.291719 
L 118.996986 28.291719 
z
M 118.996986 31.110469 
L 114.356361 31.110469 
L 114.356361 30.110469 
L 118.996986 30.110469 
z
M 127.566984 29.760469 
Q 127.566984 30.910469 126.910734 31.601094 
Q 126.256046 32.291719 125.196671 32.291719 
Q 123.816984 32.291719 123.206046 31.310469 
Q 122.696671 30.501094 122.696671 28.830781 
Q 122.696671 26.921406 123.360734 25.941719 
Q 124.026359 24.960469 125.316984 24.960469 
Q 126.196671 24.960469 126.756046 25.410469 
Q 127.316984 25.860469 127.446671 26.721406 
L 126.146671 26.721406 
Q 126.006046 26.380781 125.810734 26.237031 
Q 125.616984 26.091719 125.276359 26.091719 
Q 124.646671 26.091719 124.396671 26.566719 
Q 124.146671 27.041719 124.096671 28.160469 
Q 124.426359 27.821406 124.746671 27.676094 
Q 125.066984 27.530781 125.506046 27.530781 
Q 126.426359 27.530781 126.996671 28.141719 
Q 127.566984 28.751094 127.566984 29.760469 
z
M 126.235734 29.851094 
Q 126.235734 29.271406 125.945109 28.951094 
Q 125.656046 28.630781 125.165421 28.630781 
Q 124.676359 28.630781 124.376359 28.966719 
Q 124.076359 29.301094 124.076359 29.880781 
Q 124.076359 30.441719 124.371671 30.766719 
Q 124.666984 31.091719 125.156046 31.091719 
Q 125.626359 31.091719 125.931046 30.751094 
Q 126.235734 30.410469 126.235734 29.851094 
z
M 133.15667 30.330781 
Q 133.05667 31.201094 132.416045 31.746406 
Q 131.776983 32.291719 130.80667 32.291719 
Q 129.595733 32.291719 128.936358 31.582344 
Q 128.276983 30.871406 128.276983 29.541719 
Q 128.276983 28.171406 128.941045 27.441719 
Q 129.60667 26.710469 130.826983 26.710469 
Q 131.836358 26.710469 132.461358 27.271406 
Q 133.086358 27.830781 133.15667 28.821406 
L 131.816045 28.821406 
Q 131.695733 28.291719 131.470733 28.066719 
Q 131.245733 27.841719 130.816045 27.841719 
Q 129.676983 27.841719 129.676983 29.541719 
Q 129.676983 30.321406 129.976983 30.741719 
Q 130.276983 31.160469 130.816045 31.160469 
Q 131.216045 31.160469 131.445733 30.960469 
Q 131.676983 30.760469 131.816045 30.330781 
z
M 141.736982 32.201094 
L 140.336982 32.201094 
L 140.336982 28.601094 
Q 140.336982 28.280781 140.130732 28.091719 
Q 139.926045 27.901094 139.576045 27.901094 
Q 139.126045 27.901094 138.871357 28.180781 
Q 138.61667 28.460469 138.61667 28.960469 
L 138.61667 32.201094 
L 137.21667 32.201094 
L 137.21667 28.601094 
Q 137.21667 28.280781 137.01042 28.091719 
Q 136.805732 27.901094 136.455732 27.901094 
Q 136.005732 27.901094 135.751045 28.180781 
Q 135.496357 28.460469 135.496357 28.960469 
L 135.496357 32.201094 
L 134.096357 32.201094 
L 134.096357 26.801094 
L 135.486982 26.801094 
L 135.486982 27.471406 
Q 135.836982 27.060469 136.171357 26.885469 
Q 136.505732 26.710469 136.96667 26.710469 
Q 138.026045 26.710469 138.436982 27.510469 
Q 139.036982 26.710469 140.01667 26.710469 
Q 140.826045 26.710469 141.280732 27.151094 
Q 141.736982 27.591719 141.736982 28.380781 
z
" style="fill:#c92a2a;"/>
   </g>
  </g>
  <g id="axes_2">
   <g id="patch_7">
    <path d="M 208.621801 191.031809 
L 378.733289 191.031809 
L 378.733289 20.410469 
L 208.621801 20.410469 
z
" style="fill:none;"/>
   </g>
   <g id="matplotlib.axis_3">
    <g id="xtick_22">
     <g id="line2d_55">
      <path clip-path="url(#p762cf7c3b8)" d="M 208.621801 191.031809 
L 208.621801 20.410469 
" style="fill:none;stroke:#000000;stroke-linecap:square;stroke-opacity:0.1;stroke-width:0.6;"/>
     </g>
     <g id="line2d_56">
      <g>
       <use style="stroke:#000000;stroke-width:0.6;" x="208.621801" xlink:href="#m75ce6a9382" y="191.031809"/>
      </g>
     </g>
     <g id="text_14">
      <!-- 0 -->
      <g transform="translate(206.120082 203.593371)scale(0.09 -0.09)">
       <use xlink:href="#TeXGyreHeros-Regular-48"/>
      </g>
     </g>
    </g>
    <g id="xtick_23">
     <g id="line2d_57">
      <path clip-path="url(#p762cf7c3b8)" d="M 242.644099 191.031809 
L 242.644099 20.410469 
" style="fill:none;stroke:#000000;stroke-linecap:square;stroke-opacity:0.1;stroke-width:0.6;"/>
     </g>
     <g id="line2d_58">
      <g>
       <use style="stroke:#000000;stroke-width:0.6;" x="242.644099" xlink:href="#m75ce6a9382" y="191.031809"/>
      </g>
     </g>
     <g id="text_15">
      <!-- 0.2 -->
      <g transform="translate(236.389802 203.593371)scale(0.09 -0.09)">
       <use xlink:href="#TeXGyreHeros-Regular-48"/>
       <use x="55.599991" xlink:href="#TeXGyreHeros-Regular-46"/>
       <use x="83.399979" xlink:href="#TeXGyreHeros-Regular-50"/>
      </g>
     </g>
    </g>
    <g id="xtick_24">
     <g id="line2d_59">
      <path clip-path="url(#p762cf7c3b8)" d="M 276.666396 191.031809 
L 276.666396 20.410469 
" style="fill:none;stroke:#000000;stroke-linecap:square;stroke-opacity:0.1;stroke-width:0.6;"/>
     </g>
     <g id="line2d_60">
      <g>
       <use style="stroke:#000000;stroke-width:0.6;" x="276.666396" xlink:href="#m75ce6a9382" y="191.031809"/>
      </g>
     </g>
     <g id="text_16">
      <!-- 0.4 -->
      <g transform="translate(270.4121 203.593371)scale(0.09 -0.09)">
       <use xlink:href="#TeXGyreHeros-Regular-48"/>
       <use x="55.599991" xlink:href="#TeXGyreHeros-Regular-46"/>
       <use x="83.399979" xlink:href="#TeXGyreHeros-Regular-52"/>
      </g>
     </g>
    </g>
    <g id="xtick_25">
     <g id="line2d_61">
      <path clip-path="url(#p762cf7c3b8)" d="M 310.688694 191.031809 
L 310.688694 20.410469 
" style="fill:none;stroke:#000000;stroke-linecap:square;stroke-opacity:0.1;stroke-width:0.6;"/>
     </g>
     <g id="line2d_62">
      <g>
       <use style="stroke:#000000;stroke-width:0.6;" x="310.688694" xlink:href="#m75ce6a9382" y="191.031809"/>
      </g>
     </g>
     <g id="text_17">
      <!-- 0.6 -->
      <g transform="translate(304.434397 203.593371)scale(0.09 -0.09)">
       <use xlink:href="#TeXGyreHeros-Regular-48"/>
       <use x="55.599991" xlink:href="#TeXGyreHeros-Regular-46"/>
       <use x="83.399979" xlink:href="#TeXGyreHeros-Regular-54"/>
      </g>
     </g>
    </g>
    <g id="xtick_26">
     <g id="line2d_63">
      <path clip-path="url(#p762cf7c3b8)" d="M 344.710992 191.031809 
L 344.710992 20.410469 
" style="fill:none;stroke:#000000;stroke-linecap:square;stroke-opacity:0.1;stroke-width:0.6;"/>
     </g>
     <g id="line2d_64">
      <g>
       <use style="stroke:#000000;stroke-width:0.6;" x="344.710992" xlink:href="#m75ce6a9382" y="191.031809"/>
      </g>
     </g>
     <g id="text_18">
      <!-- 0.8 -->
      <g transform="translate(338.456695 203.593371)scale(0.09 -0.09)">
       <use xlink:href="#TeXGyreHeros-Regular-48"/>
       <use x="55.599991" xlink:href="#TeXGyreHeros-Regular-46"/>
       <use x="83.399979" xlink:href="#TeXGyreHeros-Regular-56"/>
      </g>
     </g>
    </g>
    <g id="xtick_27">
     <g id="line2d_65">
      <path clip-path="url(#p762cf7c3b8)" d="M 378.733289 191.031809 
L 378.733289 20.410469 
" style="fill:none;stroke:#000000;stroke-linecap:square;stroke-opacity:0.1;stroke-width:0.6;"/>
     </g>
     <g id="line2d_66">
      <g>
       <use style="stroke:#000000;stroke-width:0.6;" x="378.733289" xlink:href="#m75ce6a9382" y="191.031809"/>
      </g>
     </g>
     <g id="text_19">
      <!-- 1 -->
      <g transform="translate(376.231571 203.593371)scale(0.09 -0.09)">
       <use xlink:href="#TeXGyreHeros-Regular-49"/>
      </g>
     </g>
    </g>
    <g id="xtick_28">
     <g id="line2d_67">
      <g>
       <use style="stroke:#000000;stroke-width:0.48;" x="217.127375" xlink:href="#meff43ba1e1" y="191.031809"/>
      </g>
     </g>
    </g>
    <g id="xtick_29">
     <g id="line2d_68">
      <g>
       <use style="stroke:#000000;stroke-width:0.48;" x="225.63295" xlink:href="#meff43ba1e1" y="191.031809"/>
      </g>
     </g>
    </g>
    <g id="xtick_30">
     <g id="line2d_69">
      <g>
       <use style="stroke:#000000;stroke-width:0.48;" x="234.138524" xlink:href="#meff43ba1e1" y="191.031809"/>
      </g>
     </g>
    </g>
    <g id="xtick_31">
     <g id="line2d_70">
      <g>
       <use style="stroke:#000000;stroke-width:0.48;" x="251.149673" xlink:href="#meff43ba1e1" y="191.031809"/>
      </g>
     </g>
    </g>
    <g id="xtick_32">
     <g id="line2d_71">
      <g>
       <use style="stroke:#000000;stroke-width:0.48;" x="259.655248" xlink:href="#meff43ba1e1" y="191.031809"/>
      </g>
     </g>
    </g>
    <g id="xtick_33">
     <g id="line2d_72">
      <g>
       <use style="stroke:#000000;stroke-width:0.48;" x="268.160822" xlink:href="#meff43ba1e1" y="191.031809"/>
      </g>
     </g>
    </g>
    <g id="xtick_34">
     <g id="line2d_73">
      <g>
       <use style="stroke:#000000;stroke-width:0.48;" x="285.171971" xlink:href="#meff43ba1e1" y="191.031809"/>
      </g>
     </g>
    </g>
    <g id="xtick_35">
     <g id="line2d_74">
      <g>
       <use style="stroke:#000000;stroke-width:0.48;" x="293.677545" xlink:href="#meff43ba1e1" y="191.031809"/>
      </g>
     </g>
    </g>
    <g id="xtick_36">
     <g id="line2d_75">
      <g>
       <use style="stroke:#000000;stroke-width:0.48;" x="302.18312" xlink:href="#meff43ba1e1" y="191.031809"/>
      </g>
     </g>
    </g>
    <g id="xtick_37">
     <g id="line2d_76">
      <g>
       <use style="stroke:#000000;stroke-width:0.48;" x="319.194269" xlink:href="#meff43ba1e1" y="191.031809"/>
      </g>
     </g>
    </g>
    <g id="xtick_38">
     <g id="line2d_77">
      <g>
       <use style="stroke:#000000;stroke-width:0.48;" x="327.699843" xlink:href="#meff43ba1e1" y="191.031809"/>
      </g>
     </g>
    </g>
    <g id="xtick_39">
     <g id="line2d_78">
      <g>
       <use style="stroke:#000000;stroke-width:0.48;" x="336.205417" xlink:href="#meff43ba1e1" y="191.031809"/>
      </g>
     </g>
    </g>
    <g id="xtick_40">
     <g id="line2d_79">
      <g>
       <use style="stroke:#000000;stroke-width:0.48;" x="353.216566" xlink:href="#meff43ba1e1" y="191.031809"/>
      </g>
     </g>
    </g>
    <g id="xtick_41">
     <g id="line2d_80">
      <g>
       <use style="stroke:#000000;stroke-width:0.48;" x="361.722141" xlink:href="#meff43ba1e1" y="191.031809"/>
      </g>
     </g>
    </g>
    <g id="xtick_42">
     <g id="line2d_81">
      <g>
       <use style="stroke:#000000;stroke-width:0.48;" x="370.227715" xlink:href="#meff43ba1e1" y="191.031809"/>
      </g>
     </g>
    </g>
   </g>
   <g id="matplotlib.axis_4">
    <g id="ytick_22">
     <g id="line2d_82">
      <path clip-path="url(#p762cf7c3b8)" d="M 208.621801 191.031809 
L 378.733289 191.031809 
" style="fill:none;stroke:#000000;stroke-linecap:square;stroke-opacity:0.1;stroke-width:0.6;"/>
     </g>
     <g id="line2d_83">
      <g>
       <use style="stroke:#000000;stroke-width:0.6;" x="208.621801" xlink:href="#ma819d5512a" y="191.031809"/>
      </g>
     </g>
    </g>
    <g id="ytick_23">
     <g id="line2d_84">
      <path clip-path="url(#p762cf7c3b8)" d="M 208.621801 156.907541 
L 378.733289 156.907541 
" style="fill:none;stroke:#000000;stroke-linecap:square;stroke-opacity:0.1;stroke-width:0.6;"/>
     </g>
     <g id="line2d_85">
      <g>
       <use style="stroke:#000000;stroke-width:0.6;" x="208.621801" xlink:href="#ma819d5512a" y="156.907541"/>
      </g>
     </g>
    </g>
    <g id="ytick_24">
     <g id="line2d_86">
      <path clip-path="url(#p762cf7c3b8)" d="M 208.621801 122.783273 
L 378.733289 122.783273 
" style="fill:none;stroke:#000000;stroke-linecap:square;stroke-opacity:0.1;stroke-width:0.6;"/>
     </g>
     <g id="line2d_87">
      <g>
       <use style="stroke:#000000;stroke-width:0.6;" x="208.621801" xlink:href="#ma819d5512a" y="122.783273"/>
      </g>
     </g>
    </g>
    <g id="ytick_25">
     <g id="line2d_88">
      <path clip-path="url(#p762cf7c3b8)" d="M 208.621801 88.659005 
L 378.733289 88.659005 
" style="fill:none;stroke:#000000;stroke-linecap:square;stroke-opacity:0.1;stroke-width:0.6;"/>
     </g>
     <g id="line2d_89">
      <g>
       <use style="stroke:#000000;stroke-width:0.6;" x="208.621801" xlink:href="#ma819d5512a" y="88.659005"/>
      </g>
     </g>
    </g>
    <g id="ytick_26">
     <g id="line2d_90">
      <path clip-path="url(#p762cf7c3b8)" d="M 208.621801 54.534737 
L 378.733289 54.534737 
" style="fill:none;stroke:#000000;stroke-linecap:square;stroke-opacity:0.1;stroke-width:0.6;"/>
     </g>
     <g id="line2d_91">
      <g>
       <use style="stroke:#000000;stroke-width:0.6;" x="208.621801" xlink:href="#ma819d5512a" y="54.534737"/>
      </g>
     </g>
    </g>
    <g id="ytick_27">
     <g id="line2d_92">
      <path clip-path="url(#p762cf7c3b8)" d="M 208.621801 20.410469 
L 378.733289 20.410469 
" style="fill:none;stroke:#000000;stroke-linecap:square;stroke-opacity:0.1;stroke-width:0.6;"/>
     </g>
     <g id="line2d_93">
      <g>
       <use style="stroke:#000000;stroke-width:0.6;" x="208.621801" xlink:href="#ma819d5512a" y="20.410469"/>
      </g>
     </g>
    </g>
    <g id="ytick_28">
     <g id="line2d_94">
      <g>
       <use style="stroke:#000000;stroke-width:0.48;" x="208.621801" xlink:href="#ma0804df7d4" y="182.500742"/>
      </g>
     </g>
    </g>
    <g id="ytick_29">
     <g id="line2d_95">
      <g>
       <use style="stroke:#000000;stroke-width:0.48;" x="208.621801" xlink:href="#ma0804df7d4" y="173.969675"/>
      </g>
     </g>
    </g>
    <g id="ytick_30">
     <g id="line2d_96">
      <g>
       <use style="stroke:#000000;stroke-width:0.48;" x="208.621801" xlink:href="#ma0804df7d4" y="165.438608"/>
      </g>
     </g>
    </g>
    <g id="ytick_31">
     <g id="line2d_97">
      <g>
       <use style="stroke:#000000;stroke-width:0.48;" x="208.621801" xlink:href="#ma0804df7d4" y="148.376474"/>
      </g>
     </g>
    </g>
    <g id="ytick_32">
     <g id="line2d_98">
      <g>
       <use style="stroke:#000000;stroke-width:0.48;" x="208.621801" xlink:href="#ma0804df7d4" y="139.845407"/>
      </g>
     </g>
    </g>
    <g id="ytick_33">
     <g id="line2d_99">
      <g>
       <use style="stroke:#000000;stroke-width:0.48;" x="208.621801" xlink:href="#ma0804df7d4" y="131.31434"/>
      </g>
     </g>
    </g>
    <g id="ytick_34">
     <g id="line2d_100">
      <g>
       <use style="stroke:#000000;stroke-width:0.48;" x="208.621801" xlink:href="#ma0804df7d4" y="114.252206"/>
      </g>
     </g>
    </g>
    <g id="ytick_35">
     <g id="line2d_101">
      <g>
       <use style="stroke:#000000;stroke-width:0.48;" x="208.621801" xlink:href="#ma0804df7d4" y="105.721139"/>
      </g>
     </g>
    </g>
    <g id="ytick_36">
     <g id="line2d_102">
      <g>
       <use style="stroke:#000000;stroke-width:0.48;" x="208.621801" xlink:href="#ma0804df7d4" y="97.190072"/>
      </g>
     </g>
    </g>
    <g id="ytick_37">
     <g id="line2d_103">
      <g>
       <use style="stroke:#000000;stroke-width:0.48;" x="208.621801" xlink:href="#ma0804df7d4" y="80.127938"/>
      </g>
     </g>
    </g>
    <g id="ytick_38">
     <g id="line2d_104">
      <g>
       <use style="stroke:#000000;stroke-width:0.48;" x="208.621801" xlink:href="#ma0804df7d4" y="71.596871"/>
      </g>
     </g>
    </g>
    <g id="ytick_39">
     <g id="line2d_105">
      <g>
       <use style="stroke:#000000;stroke-width:0.48;" x="208.621801" xlink:href="#ma0804df7d4" y="63.065804"/>
      </g>
     </g>
    </g>
    <g id="ytick_40">
     <g id="line2d_106">
      <g>
       <use style="stroke:#000000;stroke-width:0.48;" x="208.621801" xlink:href="#ma0804df7d4" y="46.00367"/>
      </g>
     </g>
    </g>
    <g id="ytick_41">
     <g id="line2d_107">
      <g>
       <use style="stroke:#000000;stroke-width:0.48;" x="208.621801" xlink:href="#ma0804df7d4" y="37.472603"/>
      </g>
     </g>
    </g>
    <g id="ytick_42">
     <g id="line2d_108">
      <g>
       <use style="stroke:#000000;stroke-width:0.48;" x="208.621801" xlink:href="#ma0804df7d4" y="28.941536"/>
      </g>
     </g>
    </g>
   </g>
   <g id="patch_8">
    <path d="M 208.621801 191.031809 
L 208.621801 20.410469 
" style="fill:none;stroke:#000000;stroke-linecap:square;stroke-linejoin:miter;stroke-width:0.6;"/>
   </g>
   <g id="patch_9">
    <path d="M 378.733289 191.031809 
L 378.733289 20.410469 
" style="fill:none;stroke:#000000;stroke-linecap:square;stroke-linejoin:miter;stroke-width:0.6;"/>
   </g>
   <g id="patch_10">
    <path d="M 208.621801 191.031809 
L 378.733289 191.031809 
" style="fill:none;stroke:#000000;stroke-linecap:square;stroke-linejoin:miter;stroke-width:0.6;"/>
   </g>
   <g id="patch_11">
    <path d="M 208.621801 20.410469 
L 378.733289 20.410469 
" style="fill:none;stroke:#000000;stroke-linecap:square;stroke-linejoin:miter;stroke-width:0.6;"/>
   </g>
  </g>
  <g id="text_20">
   <!-- Effect of subplot properties on figure size -->
   <defs>
    <path d="M 62.40625 0 
L 7.90625 0 
L 7.90625 72.90625 
L 60.59375 72.90625 
L 60.59375 60.40625 
L 22.90625 60.40625 
L 22.90625 43.90625 
L 57.796875 43.90625 
L 57.796875 31.40625 
L 22.90625 31.40625 
L 22.90625 12.5 
L 62.40625 12.5 
z
" id="TeXGyreHeros-Bold-69"/>
    <path d="M 31.296875 43.59375 
L 23 43.59375 
L 23 0 
L 9 0 
L 9 43.59375 
L 1.40625 43.59375 
L 1.40625 52.90625 
L 9 52.90625 
L 9 59.40625 
Q 9 72.90625 22.796875 72.90625 
Q 26.90625 72.90625 30.796875 72.59375 
L 30.796875 62.09375 
Q 29 62.40625 26.796875 62.40625 
Q 23 62.40625 23 58.203125 
L 23 52.90625 
L 31.296875 52.90625 
z
" id="TeXGyreHeros-Bold-102"/>
    <path d="M 52.5 25 
L 52.40625 23.296875 
L 16.203125 23.296875 
Q 16.5 15.796875 19.296875 12.796875 
Q 22.09375 9.796875 27.40625 9.796875 
Q 36.40625 9.796875 38.09375 15.203125 
L 51.90625 15.203125 
Q 49.59375 7.40625 42.890625 3.25 
Q 36.203125 -0.90625 26.90625 -0.90625 
Q 15.296875 -0.90625 8.75 6.25 
Q 2.203125 13.40625 2.203125 26.296875 
Q 2.203125 39.796875 8.84375 47.34375 
Q 15.5 54.90625 27.203125 54.90625 
Q 39.09375 54.90625 45.796875 46.953125 
Q 52.5 39 52.5 25 
z
M 37.90625 32.59375 
Q 37.40625 38.296875 34.5 41.25 
Q 31.59375 44.203125 27 44.203125 
Q 17.796875 44.203125 16.40625 32.59375 
z
" id="TeXGyreHeros-Bold-101"/>
    <path d="M 52.203125 18.703125 
Q 51.203125 10 44.796875 4.546875 
Q 38.40625 -0.90625 28.703125 -0.90625 
Q 16.59375 -0.90625 10 6.1875 
Q 3.40625 13.296875 3.40625 26.59375 
Q 3.40625 40.296875 10.046875 47.59375 
Q 16.703125 54.90625 28.90625 54.90625 
Q 39 54.90625 45.25 49.296875 
Q 51.5 43.703125 52.203125 33.796875 
L 38.796875 33.796875 
Q 37.59375 39.09375 35.34375 41.34375 
Q 33.09375 43.59375 28.796875 43.59375 
Q 17.40625 43.59375 17.40625 26.59375 
Q 17.40625 18.796875 20.40625 14.59375 
Q 23.40625 10.40625 28.796875 10.40625 
Q 32.796875 10.40625 35.09375 12.40625 
Q 37.40625 14.40625 38.796875 18.703125 
z
" id="TeXGyreHeros-Bold-99"/>
    <path d="M 30.09375 0 
Q 29.5 0 26.640625 -0.203125 
Q 23.796875 -0.40625 22 -0.40625 
Q 15 -0.40625 11.640625 2.4375 
Q 8.296875 5.296875 8.296875 11.59375 
L 8.296875 43.59375 
L 1.40625 43.59375 
L 1.40625 52.90625 
L 8.296875 52.90625 
L 8.296875 67.40625 
L 22.296875 67.40625 
L 22.296875 52.90625 
L 30.09375 52.90625 
L 30.09375 43.59375 
L 22.296875 43.59375 
L 22.296875 15.40625 
Q 22.296875 11.796875 23.1875 10.640625 
Q 24.09375 9.5 26.90625 9.5 
Q 28 9.5 30.09375 9.796875 
z
" id="TeXGyreHeros-Bold-116"/>
    <path id="TeXGyreHeros-Bold-32"/>
    <path d="M 56.90625 26.59375 
Q 56.90625 13.703125 49.75 6.390625 
Q 42.59375 -0.90625 30.203125 -0.90625 
Q 17.703125 -0.90625 10.59375 6.390625 
Q 3.5 13.703125 3.5 27 
Q 3.5 40.203125 10.59375 47.546875 
Q 17.703125 54.90625 30.09375 54.90625 
Q 42.90625 54.90625 49.90625 47.546875 
Q 56.90625 40.203125 56.90625 26.59375 
z
M 42.90625 26.796875 
Q 42.90625 34.703125 39.453125 39.140625 
Q 36 43.59375 30.203125 43.59375 
Q 24.40625 43.59375 20.953125 39.140625 
Q 17.5 34.703125 17.5 27 
Q 17.5 19.296875 20.953125 14.84375 
Q 24.40625 10.40625 30.203125 10.40625 
Q 35.90625 10.40625 39.40625 14.84375 
Q 42.90625 19.296875 42.90625 26.796875 
z
" id="TeXGyreHeros-Bold-111"/>
    <path d="M 52 16 
Q 52 7.796875 45.890625 3.4375 
Q 39.796875 -0.90625 28.40625 -0.90625 
Q 3.5 -0.90625 2.90625 17.09375 
L 16.59375 17.09375 
Q 17.5 13 20 11.546875 
Q 22.5 10.09375 27.59375 10.09375 
Q 38 10.09375 38 14.703125 
Q 38 16.90625 33.296875 18.40625 
L 16.59375 23.59375 
Q 9.5 25.796875 7.140625 28.6875 
Q 4.796875 31.59375 4.796875 36.90625 
Q 4.796875 45.203125 10.75 50.046875 
Q 16.703125 54.90625 27 54.90625 
Q 37.90625 54.90625 44.09375 50.046875 
Q 50.296875 45.203125 50.5 36.59375 
L 37 36.59375 
Q 36.90625 43.90625 26.90625 43.90625 
Q 23.203125 43.90625 21 42.546875 
Q 18.796875 41.203125 18.796875 38.90625 
Q 18.796875 37.203125 19.796875 36.34375 
Q 20.796875 35.5 23.703125 34.703125 
L 41.40625 29.59375 
Q 52 26.5 52 16.703125 
z
" id="TeXGyreHeros-Bold-115"/>
    <path d="M 54.09375 0 
L 40.09375 0 
L 40.09375 7.09375 
Q 34.09375 -0.90625 23.90625 -0.90625 
Q 15.296875 -0.90625 10.546875 4 
Q 5.796875 8.90625 5.796875 17.796875 
L 5.796875 54 
L 19.796875 54 
L 19.796875 20.703125 
Q 19.796875 11 28.796875 11 
Q 33.90625 11 37 13.890625 
Q 40.09375 16.796875 40.09375 21.59375 
L 40.09375 54 
L 54.09375 54 
z
" id="TeXGyreHeros-Bold-117"/>
    <path d="M 57.5 26.296875 
Q 57.5 14.203125 51.046875 6.640625 
Q 44.59375 -0.90625 34.796875 -0.90625 
Q 25.09375 -0.90625 19.90625 6.203125 
L 19.90625 0 
L 5.90625 0 
L 5.90625 72.90625 
L 19.90625 72.90625 
L 19.90625 47 
Q 24.90625 54.90625 34.796875 54.90625 
Q 45.09375 54.90625 51.296875 46.546875 
Q 57.5 38.203125 57.5 26.296875 
z
M 43.5 26.90625 
Q 43.5 34.296875 40.203125 38.75 
Q 36.90625 43.203125 31.703125 43.203125 
Q 26.40625 43.203125 23.15625 38.84375 
Q 19.90625 34.5 19.90625 27.203125 
Q 19.90625 19.59375 23.09375 15.1875 
Q 26.296875 10.796875 31.703125 10.796875 
Q 36.90625 10.796875 40.203125 15.1875 
Q 43.5 19.59375 43.5 26.90625 
z
" id="TeXGyreHeros-Bold-98"/>
    <path d="M 57.40625 27 
Q 57.40625 14.796875 51 6.9375 
Q 44.59375 -0.90625 34.796875 -0.90625 
Q 24.40625 -0.90625 19.796875 7.203125 
L 19.796875 -21.796875 
L 5.796875 -21.796875 
L 5.796875 54 
L 19.796875 54 
L 19.796875 46 
Q 24.796875 54.90625 34.796875 54.90625 
Q 45.203125 54.90625 51.296875 47.09375 
Q 57.40625 39.296875 57.40625 27 
z
M 43.40625 26.796875 
Q 43.40625 34.40625 40.203125 38.796875 
Q 37 43.203125 31.59375 43.203125 
Q 26.296875 43.203125 23.046875 38.84375 
Q 19.796875 34.5 19.796875 27 
Q 19.796875 19.5 23.046875 15.140625 
Q 26.296875 10.796875 31.59375 10.796875 
Q 36.796875 10.796875 40.09375 15.140625 
Q 43.40625 19.5 43.40625 26.796875 
z
" id="TeXGyreHeros-Bold-112"/>
    <path d="M 20.703125 0 
L 6.703125 0 
L 6.703125 72.90625 
L 20.703125 72.90625 
z
" id="TeXGyreHeros-Bold-108"/>
    <path d="M 37 40.59375 
Q 34.5 41 32.59375 41 
Q 20.296875 41 20.296875 28.703125 
L 20.296875 0 
L 6.296875 0 
L 6.296875 54 
L 20.296875 54 
L 20.296875 43.40625 
Q 22.5 48.90625 26.5 51.90625 
Q 30.5 54.90625 35.296875 54.90625 
Q 36.203125 54.90625 37 54.796875 
z
" id="TeXGyreHeros-Bold-114"/>
    <path d="M 20.703125 0 
L 6.703125 0 
L 6.703125 54 
L 20.703125 54 
z
M 20.90625 60.5 
L 6.90625 60.5 
L 6.90625 74.5 
L 20.90625 74.5 
z
" id="TeXGyreHeros-Bold-105"/>
    <path d="M 54.59375 0 
L 40.59375 0 
L 40.59375 33.296875 
Q 40.59375 43 31.59375 43 
Q 26.5 43 23.390625 40.09375 
Q 20.296875 37.203125 20.296875 32.40625 
L 20.296875 0 
L 6.296875 0 
L 6.296875 54 
L 20.296875 54 
L 20.296875 46.203125 
Q 26.09375 54.90625 36.5 54.90625 
Q 45.09375 54.90625 49.84375 50 
Q 54.59375 45.09375 54.59375 36.203125 
z
" id="TeXGyreHeros-Bold-110"/>
    <path d="M 54.09375 -1.796875 
Q 54.09375 -11.296875 47.34375 -16.546875 
Q 40.59375 -21.796875 28.40625 -21.796875 
Q 17.5 -21.796875 11.09375 -17.5 
Q 4.703125 -13.203125 4.5 -6.5 
L 19 -6.5 
Q 20.703125 -12.796875 28.90625 -12.796875 
Q 34.203125 -12.796875 37.5 -9.75 
Q 40.796875 -6.703125 40.796875 -1.796875 
L 40.796875 6.203125 
Q 36.796875 2.203125 33.5 0.640625 
Q 30.203125 -0.90625 25.5 -0.90625 
Q 15.5 -0.90625 9.453125 6.5 
Q 3.40625 13.90625 3.40625 26.40625 
Q 3.40625 38.90625 9.75 46.90625 
Q 16.09375 54.90625 25.796875 54.90625 
Q 34.796875 54.90625 40.796875 45.703125 
L 40.796875 54 
L 54.09375 54 
z
M 41 26.59375 
Q 41 34 37.546875 38.59375 
Q 34.09375 43.203125 28.796875 43.203125 
Q 23.703125 43.203125 20.546875 38.703125 
Q 17.40625 34.203125 17.40625 26.59375 
Q 17.40625 19.296875 20.5 15.046875 
Q 23.59375 10.796875 28.59375 10.796875 
Q 34.09375 10.796875 37.546875 15.046875 
Q 41 19.296875 41 26.59375 
z
" id="TeXGyreHeros-Bold-103"/>
    <path d="M 46.796875 0 
L 2.09375 0 
L 2.09375 11.296875 
L 28.796875 42.703125 
L 3.90625 42.703125 
L 3.90625 54 
L 45.90625 54 
L 45.90625 42.703125 
L 19.40625 11.296875 
L 46.796875 11.296875 
z
" id="TeXGyreHeros-Bold-122"/>
   </defs>
   <g transform="translate(101.974067 11.95)scale(0.1 -0.1)">
    <use xlink:href="#TeXGyreHeros-Bold-69"/>
    <use x="66.699997" xlink:href="#TeXGyreHeros-Bold-102"/>
    <use x="99.999985" xlink:href="#TeXGyreHeros-Bold-102"/>
    <use x="133.299973" xlink:href="#TeXGyreHeros-Bold-101"/>
    <use x="188.899963" xlink:href="#TeXGyreHeros-Bold-99"/>
    <use x="244.499954" xlink:href="#TeXGyreHeros-Bold-116"/>
    <use x="277.799942" xlink:href="#TeXGyreHeros-Bold-32"/>
    <use x="305.59993" xlink:href="#TeXGyreHeros-Bold-111"/>
    <use x="366.699921" xlink:href="#TeXGyreHeros-Bold-102"/>
    <use x="399.999908" xlink:href="#TeXGyreHeros-Bold-32"/>
    <use x="427.799896" xlink:href="#TeXGyreHeros-Bold-115"/>
    <use x="483.399887" xlink:href="#TeXGyreHeros-Bold-117"/>
    <use x="544.499878" xlink:href="#TeXGyreHeros-Bold-98"/>
    <use x="605.599869" xlink:href="#TeXGyreHeros-Bold-112"/>
    <use x="666.69986" xlink:href="#TeXGyreHeros-Bold-108"/>
    <use x="694.499847" xlink:href="#TeXGyreHeros-Bold-111"/>
    <use x="755.599838" xlink:href="#TeXGyreHeros-Bold-116"/>
    <use x="788.899826" xlink:href="#TeXGyreHeros-Bold-32"/>
    <use x="816.699814" xlink:href="#TeXGyreHeros-Bold-112"/>
    <use x="877.799805" xlink:href="#TeXGyreHeros-Bold-114"/>
    <use x="916.699799" xlink:href="#TeXGyreHeros-Bold-111"/>
    <use x="977.799789" xlink:href="#TeXGyreHeros-Bold-112"/>
    <use x="1038.89978" xlink:href="#TeXGyreHeros-Bold-101"/>
    <use x="1094.499771" xlink:href="#TeXGyreHeros-Bold-114"/>
    <use x="1133.399765" xlink:href="#TeXGyreHeros-Bold-116"/>
    <use x="1166.699753" xlink:href="#TeXGyreHeros-Bold-105"/>
    <use x="1194.499741" xlink:href="#TeXGyreHeros-Bold-101"/>
    <use x="1250.099731" xlink:href="#TeXGyreHeros-Bold-115"/>
    <use x="1305.699722" xlink:href="#TeXGyreHeros-Bold-32"/>
    <use x="1333.49971" xlink:href="#TeXGyreHeros-Bold-111"/>
    <use x="1394.599701" xlink:href="#TeXGyreHeros-Bold-110"/>
    <use x="1455.699692" xlink:href="#TeXGyreHeros-Bold-32"/>
    <use x="1483.49968" xlink:href="#TeXGyreHeros-Bold-102"/>
    <use x="1516.799667" xlink:href="#TeXGyreHeros-Bold-105"/>
    <use x="1544.599655" xlink:href="#TeXGyreHeros-Bold-103"/>
    <use x="1605.699646" xlink:href="#TeXGyreHeros-Bold-117"/>
    <use x="1666.799637" xlink:href="#TeXGyreHeros-Bold-114"/>
    <use x="1705.699631" xlink:href="#TeXGyreHeros-Bold-101"/>
    <use x="1761.299622" xlink:href="#TeXGyreHeros-Bold-32"/>
    <use x="1789.099609" xlink:href="#TeXGyreHeros-Bold-115"/>
    <use x="1844.6996" xlink:href="#TeXGyreHeros-Bold-105"/>
    <use x="1872.499588" xlink:href="#TeXGyreHeros-Bold-122"/>
    <use x="1922.499573" xlink:href="#TeXGyreHeros-Bold-101"/>
   </g>
  </g>
 </g>
 <defs>
  <clipPath id="pbf26bb8755">
   <rect height="170.62134" width="170.111488" x="23.008594" y="20.410469"/>
  </clipPath>
  <clipPath id="p762cf7c3b8">
   <rect height="170.62134" width="170.111488" x="208.621801" y="20.410469"/>
  </clipPath>
 </defs>
</svg>
