<?xml version="1.0" encoding="utf-8" standalone="no"?>
<!DOCTYPE svg PUBLIC "-//W3C//DTD SVG 1.1//EN"
  "http://www.w3.org/Graphics/SVG/1.1/DTD/svg11.dtd">
<!-- Created with matplotlib (https://matplotlib.org/) -->
<svg height="211.276596pt" version="1.1" viewBox="0 0 281.006512 211.276596" width="281.006512pt" xmlns="http://www.w3.org/2000/svg" xmlns:xlink="http://www.w3.org/1999/xlink">
 <defs>
  <style type="text/css">
*{stroke-linecap:butt;stroke-linejoin:round;}
  </style>
 </defs>
 <g id="figure_1">
  <g id="patch_1">
   <path d="M 0 211.276596 
L 281.006512 211.276596 
L 281.006512 0 
L 0 0 
z
" style="fill:none;"/>
  </g>
  <g id="axes_1">
   <g id="patch_2">
    <path d="M 28.012031 97.570251 
L 143.257553 97.570251 
L 143.257553 20.410469 
L 28.012031 20.410469 
z
" style="fill:none;"/>
   </g>
   <g id="matplotlib.axis_1">
    <g id="xtick_1">
     <g id="line2d_1">
      <path clip-path="url(#p205d5309d6)" d="M 28.012031 97.570251 
L 28.012031 20.410469 
" style="fill:none;stroke:#000000;stroke-linecap:square;stroke-opacity:0.1;stroke-width:0.6;"/>
     </g>
     <g id="line2d_2">
      <defs>
       <path d="M 0 0 
L 0 4 
" id="m88cd548b26" style="stroke:#000000;stroke-width:0.6;"/>
      </defs>
      <g>
       <use style="stroke:#000000;stroke-width:0.6;" x="28.012031" xlink:href="#m88cd548b26" y="97.570251"/>
      </g>
     </g>
    </g>
    <g id="xtick_2">
     <g id="line2d_3">
      <path clip-path="url(#p205d5309d6)" d="M 56.823412 97.570251 
L 56.823412 20.410469 
" style="fill:none;stroke:#000000;stroke-linecap:square;stroke-opacity:0.1;stroke-width:0.6;"/>
     </g>
     <g id="line2d_4">
      <g>
       <use style="stroke:#000000;stroke-width:0.6;" x="56.823412" xlink:href="#m88cd548b26" y="97.570251"/>
      </g>
     </g>
    </g>
    <g id="xtick_3">
     <g id="line2d_5">
      <path clip-path="url(#p205d5309d6)" d="M 85.634792 97.570251 
L 85.634792 20.410469 
" style="fill:none;stroke:#000000;stroke-linecap:square;stroke-opacity:0.1;stroke-width:0.6;"/>
     </g>
     <g id="line2d_6">
      <g>
       <use style="stroke:#000000;stroke-width:0.6;" x="85.634792" xlink:href="#m88cd548b26" y="97.570251"/>
      </g>
     </g>
    </g>
    <g id="xtick_4">
     <g id="line2d_7">
      <path clip-path="url(#p205d5309d6)" d="M 114.446173 97.570251 
L 114.446173 20.410469 
" style="fill:none;stroke:#000000;stroke-linecap:square;stroke-opacity:0.1;stroke-width:0.6;"/>
     </g>
     <g id="line2d_8">
      <g>
       <use style="stroke:#000000;stroke-width:0.6;" x="114.446173" xlink:href="#m88cd548b26" y="97.570251"/>
      </g>
     </g>
    </g>
    <g id="xtick_5">
     <g id="line2d_9">
      <path clip-path="url(#p205d5309d6)" d="M 143.257553 97.570251 
L 143.257553 20.410469 
" style="fill:none;stroke:#000000;stroke-linecap:square;stroke-opacity:0.1;stroke-width:0.6;"/>
     </g>
     <g id="line2d_10">
      <g>
       <use style="stroke:#000000;stroke-width:0.6;" x="143.257553" xlink:href="#m88cd548b26" y="97.570251"/>
      </g>
     </g>
    </g>
    <g id="xtick_6">
     <g id="line2d_11">
      <defs>
       <path d="M 0 0 
L 0 2 
" id="m7163675dc7" style="stroke:#000000;stroke-width:0.48;"/>
      </defs>
      <g>
       <use style="stroke:#000000;stroke-width:0.48;" x="33.774307" xlink:href="#m7163675dc7" y="97.570251"/>
      </g>
     </g>
    </g>
    <g id="xtick_7">
     <g id="line2d_12">
      <g>
       <use style="stroke:#000000;stroke-width:0.48;" x="39.536583" xlink:href="#m7163675dc7" y="97.570251"/>
      </g>
     </g>
    </g>
    <g id="xtick_8">
     <g id="line2d_13">
      <g>
       <use style="stroke:#000000;stroke-width:0.48;" x="45.29886" xlink:href="#m7163675dc7" y="97.570251"/>
      </g>
     </g>
    </g>
    <g id="xtick_9">
     <g id="line2d_14">
      <g>
       <use style="stroke:#000000;stroke-width:0.48;" x="51.061136" xlink:href="#m7163675dc7" y="97.570251"/>
      </g>
     </g>
    </g>
    <g id="xtick_10">
     <g id="line2d_15">
      <g>
       <use style="stroke:#000000;stroke-width:0.48;" x="62.585688" xlink:href="#m7163675dc7" y="97.570251"/>
      </g>
     </g>
    </g>
    <g id="xtick_11">
     <g id="line2d_16">
      <g>
       <use style="stroke:#000000;stroke-width:0.48;" x="68.347964" xlink:href="#m7163675dc7" y="97.570251"/>
      </g>
     </g>
    </g>
    <g id="xtick_12">
     <g id="line2d_17">
      <g>
       <use style="stroke:#000000;stroke-width:0.48;" x="74.11024" xlink:href="#m7163675dc7" y="97.570251"/>
      </g>
     </g>
    </g>
    <g id="xtick_13">
     <g id="line2d_18">
      <g>
       <use style="stroke:#000000;stroke-width:0.48;" x="79.872516" xlink:href="#m7163675dc7" y="97.570251"/>
      </g>
     </g>
    </g>
    <g id="xtick_14">
     <g id="line2d_19">
      <g>
       <use style="stroke:#000000;stroke-width:0.48;" x="91.397068" xlink:href="#m7163675dc7" y="97.570251"/>
      </g>
     </g>
    </g>
    <g id="xtick_15">
     <g id="line2d_20">
      <g>
       <use style="stroke:#000000;stroke-width:0.48;" x="97.159344" xlink:href="#m7163675dc7" y="97.570251"/>
      </g>
     </g>
    </g>
    <g id="xtick_16">
     <g id="line2d_21">
      <g>
       <use style="stroke:#000000;stroke-width:0.48;" x="102.92162" xlink:href="#m7163675dc7" y="97.570251"/>
      </g>
     </g>
    </g>
    <g id="xtick_17">
     <g id="line2d_22">
      <g>
       <use style="stroke:#000000;stroke-width:0.48;" x="108.683896" xlink:href="#m7163675dc7" y="97.570251"/>
      </g>
     </g>
    </g>
    <g id="xtick_18">
     <g id="line2d_23">
      <g>
       <use style="stroke:#000000;stroke-width:0.48;" x="120.208449" xlink:href="#m7163675dc7" y="97.570251"/>
      </g>
     </g>
    </g>
    <g id="xtick_19">
     <g id="line2d_24">
      <g>
       <use style="stroke:#000000;stroke-width:0.48;" x="125.970725" xlink:href="#m7163675dc7" y="97.570251"/>
      </g>
     </g>
    </g>
    <g id="xtick_20">
     <g id="line2d_25">
      <g>
       <use style="stroke:#000000;stroke-width:0.48;" x="131.733001" xlink:href="#m7163675dc7" y="97.570251"/>
      </g>
     </g>
    </g>
    <g id="xtick_21">
     <g id="line2d_26">
      <g>
       <use style="stroke:#000000;stroke-width:0.48;" x="137.495277" xlink:href="#m7163675dc7" y="97.570251"/>
      </g>
     </g>
    </g>
   </g>
   <g id="matplotlib.axis_2">
    <g id="ytick_1">
     <g id="line2d_27">
      <path clip-path="url(#p205d5309d6)" d="M 28.012031 97.570251 
L 143.257553 97.570251 
" style="fill:none;stroke:#000000;stroke-linecap:square;stroke-opacity:0.1;stroke-width:0.6;"/>
     </g>
     <g id="line2d_28">
      <defs>
       <path d="M 0 0 
L -4 0 
" id="macf923dc08" style="stroke:#000000;stroke-width:0.6;"/>
      </defs>
      <g>
       <use style="stroke:#000000;stroke-width:0.6;" x="28.012031" xlink:href="#macf923dc08" y="97.570251"/>
      </g>
     </g>
     <g id="text_1">
      <!-- 0 -->
      <defs>
       <path d="M 50.703125 34.09375 
Q 50.703125 16.703125 44.75 7.59375 
Q 38.796875 -1.5 27.5 -1.5 
Q 16.09375 -1.5 10.1875 7.640625 
Q 4.296875 16.796875 4.296875 34.6875 
Q 4.296875 52.59375 10.140625 61.75 
Q 16 70.90625 27.5 70.90625 
Q 50.703125 70.90625 50.703125 34.09375 
z
M 41.703125 34.90625 
Q 41.703125 63.09375 27.5 63.09375 
Q 13.296875 63.09375 13.296875 34.59375 
Q 13.296875 5.796875 27.296875 5.796875 
Q 34.703125 5.796875 38.203125 12.84375 
Q 41.703125 19.90625 41.703125 34.90625 
z
" id="TeXGyreHeros-Regular-48"/>
      </defs>
      <g transform="translate(17.008594 100.851032)scale(0.09 -0.09)">
       <use xlink:href="#TeXGyreHeros-Regular-48"/>
      </g>
     </g>
    </g>
    <g id="ytick_2">
     <g id="line2d_29">
      <path clip-path="url(#p205d5309d6)" d="M 28.012031 78.280305 
L 143.257553 78.280305 
" style="fill:none;stroke:#000000;stroke-linecap:square;stroke-opacity:0.1;stroke-width:0.6;"/>
     </g>
     <g id="line2d_30">
      <g>
       <use style="stroke:#000000;stroke-width:0.6;" x="28.012031" xlink:href="#macf923dc08" y="78.280305"/>
      </g>
     </g>
     <g id="text_2">
      <!-- 0.25 -->
      <defs>
       <path d="M 19.09375 0 
L 8.703125 0 
L 8.703125 10.40625 
L 19.09375 10.40625 
z
" id="TeXGyreHeros-Regular-46"/>
       <path d="M 51.09375 50.09375 
Q 51.09375 36.703125 36.09375 28.703125 
L 26.09375 23.296875 
Q 19.59375 19.5 16.796875 16.296875 
Q 14 13.09375 13.296875 8.703125 
L 50.59375 8.703125 
L 50.59375 0 
L 3.40625 0 
Q 4 11.703125 8.09375 18.046875 
Q 12.203125 24.40625 23.296875 30.703125 
L 32.5 35.90625 
Q 42.09375 41.40625 42.09375 49.90625 
Q 42.09375 55.59375 38.09375 59.390625 
Q 34.09375 63.203125 28.09375 63.203125 
Q 21.40625 63.203125 17.84375 59.140625 
Q 14.296875 55.09375 13.796875 46.296875 
L 5 46.296875 
Q 5.703125 70.90625 28.40625 70.90625 
Q 38.40625 70.90625 44.75 65 
Q 51.09375 59.09375 51.09375 50.09375 
z
" id="TeXGyreHeros-Regular-50"/>
       <path d="M 51.296875 23.5 
Q 51.296875 12.296875 44.546875 5.390625 
Q 37.796875 -1.5 27 -1.5 
Q 17.296875 -1.5 11.4375 3.203125 
Q 5.59375 7.90625 3.5 18.203125 
L 12.296875 18.203125 
Q 15.40625 6.296875 26.796875 6.296875 
Q 34.09375 6.296875 38.1875 10.5 
Q 42.296875 14.703125 42.296875 22.296875 
Q 42.296875 30.09375 38.140625 34.5 
Q 34 38.90625 26.796875 38.90625 
Q 22.703125 38.90625 19.796875 37.453125 
Q 16.90625 36 13.796875 32.296875 
L 5.703125 32.296875 
L 11 69.40625 
L 47.59375 69.40625 
L 47.59375 60.703125 
L 18.09375 60.703125 
L 15.296875 42.40625 
Q 21.203125 46.703125 28.40625 46.703125 
Q 38.59375 46.703125 44.9375 40.34375 
Q 51.296875 34 51.296875 23.5 
z
" id="TeXGyreHeros-Regular-53"/>
      </defs>
      <g transform="translate(4.5 81.561087)scale(0.09 -0.09)">
       <use xlink:href="#TeXGyreHeros-Regular-48"/>
       <use x="55.599991" xlink:href="#TeXGyreHeros-Regular-46"/>
       <use x="83.399979" xlink:href="#TeXGyreHeros-Regular-50"/>
       <use x="138.999969" xlink:href="#TeXGyreHeros-Regular-53"/>
      </g>
     </g>
    </g>
    <g id="ytick_3">
     <g id="line2d_31">
      <path clip-path="url(#p205d5309d6)" d="M 28.012031 58.99036 
L 143.257553 58.99036 
" style="fill:none;stroke:#000000;stroke-linecap:square;stroke-opacity:0.1;stroke-width:0.6;"/>
     </g>
     <g id="line2d_32">
      <g>
       <use style="stroke:#000000;stroke-width:0.6;" x="28.012031" xlink:href="#macf923dc08" y="58.99036"/>
      </g>
     </g>
     <g id="text_3">
      <!-- 0.5 -->
      <g transform="translate(9.503438 62.271141)scale(0.09 -0.09)">
       <use xlink:href="#TeXGyreHeros-Regular-48"/>
       <use x="55.599991" xlink:href="#TeXGyreHeros-Regular-46"/>
       <use x="83.399979" xlink:href="#TeXGyreHeros-Regular-53"/>
      </g>
     </g>
    </g>
    <g id="ytick_4">
     <g id="line2d_33">
      <path clip-path="url(#p205d5309d6)" d="M 28.012031 39.700414 
L 143.257553 39.700414 
" style="fill:none;stroke:#000000;stroke-linecap:square;stroke-opacity:0.1;stroke-width:0.6;"/>
     </g>
     <g id="line2d_34">
      <g>
       <use style="stroke:#000000;stroke-width:0.6;" x="28.012031" xlink:href="#macf923dc08" y="39.700414"/>
      </g>
     </g>
     <g id="text_4">
      <!-- 0.75 -->
      <defs>
       <path d="M 52 62 
Q 29.09375 34.796875 23.203125 0 
L 13.796875 0 
Q 21.296875 33.5 42.90625 60.703125 
L 4.59375 60.703125 
L 4.59375 69.40625 
L 52 69.40625 
z
" id="TeXGyreHeros-Regular-55"/>
      </defs>
      <g transform="translate(4.5 42.981196)scale(0.09 -0.09)">
       <use xlink:href="#TeXGyreHeros-Regular-48"/>
       <use x="55.599991" xlink:href="#TeXGyreHeros-Regular-46"/>
       <use x="83.399979" xlink:href="#TeXGyreHeros-Regular-55"/>
       <use x="138.999969" xlink:href="#TeXGyreHeros-Regular-53"/>
      </g>
     </g>
    </g>
    <g id="ytick_5">
     <g id="line2d_35">
      <path clip-path="url(#p205d5309d6)" d="M 28.012031 20.410469 
L 143.257553 20.410469 
" style="fill:none;stroke:#000000;stroke-linecap:square;stroke-opacity:0.1;stroke-width:0.6;"/>
     </g>
     <g id="line2d_36">
      <g>
       <use style="stroke:#000000;stroke-width:0.6;" x="28.012031" xlink:href="#macf923dc08" y="20.410469"/>
      </g>
     </g>
     <g id="text_5">
      <!-- 1 -->
      <defs>
       <path d="M 34.703125 0 
L 25.90625 0 
L 25.90625 50.5 
L 10.203125 50.5 
L 10.203125 56.796875 
Q 20.40625 58.09375 23.5 60.390625 
Q 26.59375 62.703125 28.90625 70.90625 
L 34.703125 70.90625 
z
" id="TeXGyreHeros-Regular-49"/>
      </defs>
      <g transform="translate(17.008594 23.69125)scale(0.09 -0.09)">
       <use xlink:href="#TeXGyreHeros-Regular-49"/>
      </g>
     </g>
    </g>
    <g id="ytick_6">
     <g id="line2d_37">
      <defs>
       <path d="M 0 0 
L -2 0 
" id="mddd0a29bd1" style="stroke:#000000;stroke-width:0.48;"/>
      </defs>
      <g>
       <use style="stroke:#000000;stroke-width:0.48;" x="28.012031" xlink:href="#mddd0a29bd1" y="93.712262"/>
      </g>
     </g>
    </g>
    <g id="ytick_7">
     <g id="line2d_38">
      <g>
       <use style="stroke:#000000;stroke-width:0.48;" x="28.012031" xlink:href="#mddd0a29bd1" y="89.854273"/>
      </g>
     </g>
    </g>
    <g id="ytick_8">
     <g id="line2d_39">
      <g>
       <use style="stroke:#000000;stroke-width:0.48;" x="28.012031" xlink:href="#mddd0a29bd1" y="85.996284"/>
      </g>
     </g>
    </g>
    <g id="ytick_9">
     <g id="line2d_40">
      <g>
       <use style="stroke:#000000;stroke-width:0.48;" x="28.012031" xlink:href="#mddd0a29bd1" y="82.138295"/>
      </g>
     </g>
    </g>
    <g id="ytick_10">
     <g id="line2d_41">
      <g>
       <use style="stroke:#000000;stroke-width:0.48;" x="28.012031" xlink:href="#mddd0a29bd1" y="74.422316"/>
      </g>
     </g>
    </g>
    <g id="ytick_11">
     <g id="line2d_42">
      <g>
       <use style="stroke:#000000;stroke-width:0.48;" x="28.012031" xlink:href="#mddd0a29bd1" y="70.564327"/>
      </g>
     </g>
    </g>
    <g id="ytick_12">
     <g id="line2d_43">
      <g>
       <use style="stroke:#000000;stroke-width:0.48;" x="28.012031" xlink:href="#mddd0a29bd1" y="66.706338"/>
      </g>
     </g>
    </g>
    <g id="ytick_13">
     <g id="line2d_44">
      <g>
       <use style="stroke:#000000;stroke-width:0.48;" x="28.012031" xlink:href="#mddd0a29bd1" y="62.848349"/>
      </g>
     </g>
    </g>
    <g id="ytick_14">
     <g id="line2d_45">
      <g>
       <use style="stroke:#000000;stroke-width:0.48;" x="28.012031" xlink:href="#mddd0a29bd1" y="55.132371"/>
      </g>
     </g>
    </g>
    <g id="ytick_15">
     <g id="line2d_46">
      <g>
       <use style="stroke:#000000;stroke-width:0.48;" x="28.012031" xlink:href="#mddd0a29bd1" y="51.274382"/>
      </g>
     </g>
    </g>
    <g id="ytick_16">
     <g id="line2d_47">
      <g>
       <use style="stroke:#000000;stroke-width:0.48;" x="28.012031" xlink:href="#mddd0a29bd1" y="47.416393"/>
      </g>
     </g>
    </g>
    <g id="ytick_17">
     <g id="line2d_48">
      <g>
       <use style="stroke:#000000;stroke-width:0.48;" x="28.012031" xlink:href="#mddd0a29bd1" y="43.558403"/>
      </g>
     </g>
    </g>
    <g id="ytick_18">
     <g id="line2d_49">
      <g>
       <use style="stroke:#000000;stroke-width:0.48;" x="28.012031" xlink:href="#mddd0a29bd1" y="35.842425"/>
      </g>
     </g>
    </g>
    <g id="ytick_19">
     <g id="line2d_50">
      <g>
       <use style="stroke:#000000;stroke-width:0.48;" x="28.012031" xlink:href="#mddd0a29bd1" y="31.984436"/>
      </g>
     </g>
    </g>
    <g id="ytick_20">
     <g id="line2d_51">
      <g>
       <use style="stroke:#000000;stroke-width:0.48;" x="28.012031" xlink:href="#mddd0a29bd1" y="28.126447"/>
      </g>
     </g>
    </g>
    <g id="ytick_21">
     <g id="line2d_52">
      <g>
       <use style="stroke:#000000;stroke-width:0.48;" x="28.012031" xlink:href="#mddd0a29bd1" y="24.268458"/>
      </g>
     </g>
    </g>
   </g>
   <g id="patch_3">
    <path d="M 28.012031 97.570251 
L 28.012031 20.410469 
" style="fill:none;stroke:#000000;stroke-linecap:square;stroke-linejoin:miter;stroke-width:0.6;"/>
   </g>
   <g id="patch_4">
    <path d="M 143.257553 97.570251 
L 143.257553 20.410469 
" style="fill:none;stroke:#000000;stroke-linecap:square;stroke-linejoin:miter;stroke-width:0.6;"/>
   </g>
   <g id="patch_5">
    <path d="M 28.012031 97.570251 
L 143.257553 97.570251 
" style="fill:none;stroke:#000000;stroke-linecap:square;stroke-linejoin:miter;stroke-width:0.6;"/>
   </g>
   <g id="patch_6">
    <path d="M 28.012031 20.410469 
L 143.257553 20.410469 
" style="fill:none;stroke:#000000;stroke-linecap:square;stroke-linejoin:miter;stroke-width:0.6;"/>
   </g>
   <g id="text_6">
    <path d="M 57.668386 32.201094 
L 56.148073 32.201094 
Q 55.987136 32.001094 55.987136 31.521406 
Q 55.248073 32.291719 54.348073 32.291719 
Q 53.637136 32.291719 53.171511 31.891719 
Q 52.707448 31.491719 52.707448 30.741719 
Q 52.707448 30.021406 53.091823 29.641719 
Q 53.477761 29.260469 54.298073 29.110469 
L 54.857448 29.010469 
Q 54.977761 28.991719 55.177761 28.962031 
Q 55.377761 28.930781 55.462136 28.916719 
Q 55.548073 28.901094 55.673073 28.862031 
Q 55.798073 28.821406 55.848073 28.766719 
Q 55.898073 28.710469 55.937136 28.616719 
Q 55.977761 28.521406 55.977761 28.380781 
Q 55.977761 27.841719 55.168386 27.841719 
Q 54.648073 27.841719 54.437136 28.001094 
Q 54.227761 28.160469 54.177761 28.580781 
L 52.827761 28.580781 
Q 52.957448 26.710469 55.137136 26.710469 
Q 57.348073 26.710469 57.348073 28.371406 
L 57.348073 31.371406 
Q 57.348073 31.741719 57.668386 32.030781 
z
M 55.977761 29.891719 
L 55.977761 29.651094 
Q 55.787136 29.741719 55.387136 29.821406 
L 54.907448 29.910469 
Q 54.457448 29.991719 54.282448 30.137031 
Q 54.107448 30.280781 54.107448 30.580781 
Q 54.107448 31.160469 54.868386 31.160469 
Q 55.398073 31.160469 55.687136 30.830781 
Q 55.977761 30.501094 55.977761 29.891719 
z
M 63.18776 30.601094 
Q 63.18776 31.421406 62.576822 31.857344 
Q 61.967447 32.291719 60.828385 32.291719 
Q 58.33776 32.291719 58.278385 30.491719 
L 59.647135 30.491719 
Q 59.73776 30.901094 59.98776 31.046406 
Q 60.23776 31.191719 60.747135 31.191719 
Q 61.78776 31.191719 61.78776 30.730781 
Q 61.78776 30.510469 61.317447 30.360469 
L 59.647135 29.841719 
Q 58.93776 29.621406 58.701822 29.332344 
Q 58.467447 29.041719 58.467447 28.510469 
Q 58.467447 27.680781 59.06276 27.196406 
Q 59.658072 26.710469 60.68776 26.710469 
Q 61.778385 26.710469 62.397135 27.196406 
Q 63.017447 27.680781 63.03776 28.541719 
L 61.68776 28.541719 
Q 61.678385 27.810469 60.678385 27.810469 
Q 60.308072 27.810469 60.08776 27.946406 
Q 59.867447 28.080781 59.867447 28.310469 
Q 59.867447 28.480781 59.967447 28.566719 
Q 60.067447 28.651094 60.358072 28.730781 
L 62.128385 29.241719 
Q 63.18776 29.551094 63.18776 30.530781 
z
M 69.288384 29.501094 
Q 69.288384 30.721406 68.647759 31.507344 
Q 68.007134 32.291719 67.027447 32.291719 
Q 65.988384 32.291719 65.527447 31.480781 
L 65.527447 34.380781 
L 64.127447 34.380781 
L 64.127447 26.801094 
L 65.527447 26.801094 
L 65.527447 27.601094 
Q 66.027447 26.710469 67.027447 26.710469 
Q 68.068072 26.710469 68.677447 27.491719 
Q 69.288384 28.271406 69.288384 29.501094 
z
M 67.888384 29.521406 
Q 67.888384 28.760469 67.568072 28.321406 
Q 67.247759 27.880781 66.707134 27.880781 
Q 66.177447 27.880781 65.852447 28.316719 
Q 65.527447 28.751094 65.527447 29.501094 
Q 65.527447 30.251094 65.852447 30.687031 
Q 66.177447 31.121406 66.707134 31.121406 
Q 67.227447 31.121406 67.557134 30.687031 
Q 67.888384 30.251094 67.888384 29.521406 
z
M 74.907758 29.701094 
L 74.898383 29.871406 
L 71.278071 29.871406 
Q 71.307758 30.621406 71.587446 30.921406 
Q 71.867133 31.221406 72.398383 31.221406 
Q 73.298383 31.221406 73.467133 30.680781 
L 74.848383 30.680781 
Q 74.617133 31.460469 73.946821 31.876094 
Q 73.278071 32.291719 72.348383 32.291719 
Q 71.187446 32.291719 70.532758 31.576094 
Q 69.878071 30.860469 69.878071 29.571406 
Q 69.878071 28.221406 70.542133 27.466719 
Q 71.207758 26.710469 72.378071 26.710469 
Q 73.567133 26.710469 74.237446 27.505781 
Q 74.907758 28.301094 74.907758 29.701094 
z
M 73.448383 28.941719 
Q 73.398383 28.371406 73.107758 28.076094 
Q 72.817133 27.780781 72.357758 27.780781 
Q 71.437446 27.780781 71.298383 28.941719 
z
M 80.43807 30.330781 
Q 80.33807 31.201094 79.697445 31.746406 
Q 79.058382 32.291719 78.08807 32.291719 
Q 76.877132 32.291719 76.217757 31.582344 
Q 75.558382 30.871406 75.558382 29.541719 
Q 75.558382 28.171406 76.222445 27.441719 
Q 76.88807 26.710469 78.108382 26.710469 
Q 79.117757 26.710469 79.742757 27.271406 
Q 80.367757 27.830781 80.43807 28.821406 
L 79.097445 28.821406 
Q 78.977132 28.291719 78.752132 28.066719 
Q 78.527132 27.841719 78.097445 27.841719 
Q 76.958382 27.841719 76.958382 29.541719 
Q 76.958382 30.321406 77.258382 30.741719 
Q 77.558382 31.160469 78.097445 31.160469 
Q 78.497445 31.160469 78.727132 30.960469 
Q 78.958382 30.760469 79.097445 30.330781 
z
M 83.787131 32.201094 
Q 83.727756 32.201094 83.441819 32.221406 
Q 83.157444 32.241719 82.977756 32.241719 
Q 82.277756 32.241719 81.941819 31.957344 
Q 81.607444 31.671406 81.607444 31.041719 
L 81.607444 27.841719 
L 80.918381 27.841719 
L 80.918381 26.910469 
L 81.607444 26.910469 
L 81.607444 25.460469 
L 83.007444 25.460469 
L 83.007444 26.910469 
L 83.787131 26.910469 
L 83.787131 27.841719 
L 83.007444 27.841719 
L 83.007444 30.660469 
Q 83.007444 31.021406 83.096506 31.137031 
Q 83.187131 31.251094 83.468381 31.251094 
Q 83.577756 31.251094 83.787131 31.221406 
z
M 92.128379 29.291719 
L 87.487754 29.291719 
L 87.487754 28.291719 
L 92.128379 28.291719 
z
M 92.128379 31.110469 
L 87.487754 31.110469 
L 87.487754 30.110469 
L 92.128379 30.110469 
z
M 98.53744 34.201094 
L 97.53744 34.201094 
Q 96.678065 32.901094 96.292127 31.805781 
Q 95.907752 30.710469 95.907752 29.551094 
Q 95.907752 28.401094 96.292127 27.301094 
Q 96.678065 26.201094 97.53744 24.910469 
L 98.53744 24.910469 
Q 97.748377 26.441719 97.442127 27.446406 
Q 97.13744 28.451094 97.13744 29.551094 
Q 97.13744 30.651094 97.43744 31.651094 
Q 97.73744 32.651094 98.53744 34.201094 
z
M 103.997126 30.021406 
Q 103.997126 31.060469 103.322126 31.676094 
Q 102.647126 32.291719 101.517438 32.291719 
Q 100.428376 32.291719 99.778376 31.666719 
Q 99.128376 31.041719 99.128376 29.980781 
L 100.487751 29.980781 
Q 100.487751 30.521406 100.767438 30.807344 
Q 101.047126 31.091719 101.547126 31.091719 
Q 102.008063 31.091719 102.301813 30.791719 
Q 102.597126 30.491719 102.597126 30.021406 
Q 102.597126 29.460469 102.206501 29.210469 
Q 101.817438 28.960469 101.008063 28.960469 
L 101.008063 28.021406 
L 101.128376 28.021406 
Q 101.758063 28.021406 102.062751 27.782344 
Q 102.367438 27.541719 102.367438 27.021406 
Q 102.367438 26.580781 102.137751 26.337031 
Q 101.908063 26.091719 101.487751 26.091719 
Q 100.967438 26.091719 100.742438 26.387031 
Q 100.517438 26.680781 100.517438 27.341719 
L 99.217438 27.341719 
L 99.217438 27.221406 
Q 99.217438 26.101094 99.837751 25.530781 
Q 100.458063 24.960469 101.517438 24.960469 
Q 102.547126 24.960469 103.156501 25.485469 
Q 103.767438 26.010469 103.767438 26.891719 
Q 103.767438 27.371406 103.551813 27.696406 
Q 103.337751 28.021406 102.837751 28.330781 
Q 103.447126 28.630781 103.722126 29.021406 
Q 103.997126 29.410469 103.997126 30.021406 
z
M 106.538375 32.110469 
Q 106.538375 32.691719 106.418062 33.016719 
Q 106.29775 33.341719 105.99775 33.571406 
Q 105.607125 33.871406 105.038375 33.941719 
L 105.038375 33.380781 
Q 105.89775 33.210469 105.89775 32.230781 
L 105.89775 32.201094 
L 105.038375 32.201094 
L 105.038375 30.741719 
L 106.538375 30.741719 
z
M 115.107747 27.210469 
Q 115.107747 27.930781 114.77181 28.430781 
Q 114.437435 28.930781 113.517122 29.610469 
Q 112.72806 30.180781 112.467122 30.426094 
Q 112.207747 30.671406 112.07806 30.951094 
L 115.07806 30.951094 
L 115.07806 32.201094 
L 110.257747 32.201094 
Q 110.307747 31.221406 110.65306 30.637031 
Q 110.998372 30.051094 111.898372 29.441719 
Q 113.067122 28.610469 113.387435 28.221406 
Q 113.707747 27.830781 113.707747 27.241719 
Q 113.707747 26.710469 113.442122 26.405781 
Q 113.17806 26.101094 112.707747 26.101094 
Q 112.22806 26.101094 111.962435 26.430781 
Q 111.698372 26.760469 111.698372 27.351094 
L 111.698372 27.580781 
L 110.357747 27.580781 
Q 110.348372 27.471406 110.348372 27.330781 
Q 110.348372 26.210469 110.962435 25.585469 
Q 111.57806 24.960469 112.67806 24.960469 
Q 113.798372 24.960469 114.45306 25.571406 
Q 115.107747 26.180781 115.107747 27.210469 
z
M 118.367747 29.560469 
Q 118.367747 30.710469 117.981809 31.810469 
Q 117.597434 32.910469 116.738059 34.201094 
L 115.738059 34.201094 
Q 116.527122 32.671406 116.831809 31.666719 
Q 117.138059 30.660469 117.138059 29.560469 
Q 117.138059 28.460469 116.838059 27.460469 
Q 116.538059 26.460469 115.738059 24.910469 
L 116.738059 24.910469 
Q 117.597434 26.210469 117.981809 27.305781 
Q 118.367747 28.401094 118.367747 29.560469 
z
" style="fill:#c92a2a;stroke:#ffffff;stroke-linejoin:miter;stroke-width:1.5;"/>
    <path d="M 57.668386 32.201094 
L 56.148073 32.201094 
Q 55.987136 32.001094 55.987136 31.521406 
Q 55.248073 32.291719 54.348073 32.291719 
Q 53.637136 32.291719 53.171511 31.891719 
Q 52.707448 31.491719 52.707448 30.741719 
Q 52.707448 30.021406 53.091823 29.641719 
Q 53.477761 29.260469 54.298073 29.110469 
L 54.857448 29.010469 
Q 54.977761 28.991719 55.177761 28.962031 
Q 55.377761 28.930781 55.462136 28.916719 
Q 55.548073 28.901094 55.673073 28.862031 
Q 55.798073 28.821406 55.848073 28.766719 
Q 55.898073 28.710469 55.937136 28.616719 
Q 55.977761 28.521406 55.977761 28.380781 
Q 55.977761 27.841719 55.168386 27.841719 
Q 54.648073 27.841719 54.437136 28.001094 
Q 54.227761 28.160469 54.177761 28.580781 
L 52.827761 28.580781 
Q 52.957448 26.710469 55.137136 26.710469 
Q 57.348073 26.710469 57.348073 28.371406 
L 57.348073 31.371406 
Q 57.348073 31.741719 57.668386 32.030781 
z
M 55.977761 29.891719 
L 55.977761 29.651094 
Q 55.787136 29.741719 55.387136 29.821406 
L 54.907448 29.910469 
Q 54.457448 29.991719 54.282448 30.137031 
Q 54.107448 30.280781 54.107448 30.580781 
Q 54.107448 31.160469 54.868386 31.160469 
Q 55.398073 31.160469 55.687136 30.830781 
Q 55.977761 30.501094 55.977761 29.891719 
z
M 63.18776 30.601094 
Q 63.18776 31.421406 62.576822 31.857344 
Q 61.967447 32.291719 60.828385 32.291719 
Q 58.33776 32.291719 58.278385 30.491719 
L 59.647135 30.491719 
Q 59.73776 30.901094 59.98776 31.046406 
Q 60.23776 31.191719 60.747135 31.191719 
Q 61.78776 31.191719 61.78776 30.730781 
Q 61.78776 30.510469 61.317447 30.360469 
L 59.647135 29.841719 
Q 58.93776 29.621406 58.701822 29.332344 
Q 58.467447 29.041719 58.467447 28.510469 
Q 58.467447 27.680781 59.06276 27.196406 
Q 59.658072 26.710469 60.68776 26.710469 
Q 61.778385 26.710469 62.397135 27.196406 
Q 63.017447 27.680781 63.03776 28.541719 
L 61.68776 28.541719 
Q 61.678385 27.810469 60.678385 27.810469 
Q 60.308072 27.810469 60.08776 27.946406 
Q 59.867447 28.080781 59.867447 28.310469 
Q 59.867447 28.480781 59.967447 28.566719 
Q 60.067447 28.651094 60.358072 28.730781 
L 62.128385 29.241719 
Q 63.18776 29.551094 63.18776 30.530781 
z
M 69.288384 29.501094 
Q 69.288384 30.721406 68.647759 31.507344 
Q 68.007134 32.291719 67.027447 32.291719 
Q 65.988384 32.291719 65.527447 31.480781 
L 65.527447 34.380781 
L 64.127447 34.380781 
L 64.127447 26.801094 
L 65.527447 26.801094 
L 65.527447 27.601094 
Q 66.027447 26.710469 67.027447 26.710469 
Q 68.068072 26.710469 68.677447 27.491719 
Q 69.288384 28.271406 69.288384 29.501094 
z
M 67.888384 29.521406 
Q 67.888384 28.760469 67.568072 28.321406 
Q 67.247759 27.880781 66.707134 27.880781 
Q 66.177447 27.880781 65.852447 28.316719 
Q 65.527447 28.751094 65.527447 29.501094 
Q 65.527447 30.251094 65.852447 30.687031 
Q 66.177447 31.121406 66.707134 31.121406 
Q 67.227447 31.121406 67.557134 30.687031 
Q 67.888384 30.251094 67.888384 29.521406 
z
M 74.907758 29.701094 
L 74.898383 29.871406 
L 71.278071 29.871406 
Q 71.307758 30.621406 71.587446 30.921406 
Q 71.867133 31.221406 72.398383 31.221406 
Q 73.298383 31.221406 73.467133 30.680781 
L 74.848383 30.680781 
Q 74.617133 31.460469 73.946821 31.876094 
Q 73.278071 32.291719 72.348383 32.291719 
Q 71.187446 32.291719 70.532758 31.576094 
Q 69.878071 30.860469 69.878071 29.571406 
Q 69.878071 28.221406 70.542133 27.466719 
Q 71.207758 26.710469 72.378071 26.710469 
Q 73.567133 26.710469 74.237446 27.505781 
Q 74.907758 28.301094 74.907758 29.701094 
z
M 73.448383 28.941719 
Q 73.398383 28.371406 73.107758 28.076094 
Q 72.817133 27.780781 72.357758 27.780781 
Q 71.437446 27.780781 71.298383 28.941719 
z
M 80.43807 30.330781 
Q 80.33807 31.201094 79.697445 31.746406 
Q 79.058382 32.291719 78.08807 32.291719 
Q 76.877132 32.291719 76.217757 31.582344 
Q 75.558382 30.871406 75.558382 29.541719 
Q 75.558382 28.171406 76.222445 27.441719 
Q 76.88807 26.710469 78.108382 26.710469 
Q 79.117757 26.710469 79.742757 27.271406 
Q 80.367757 27.830781 80.43807 28.821406 
L 79.097445 28.821406 
Q 78.977132 28.291719 78.752132 28.066719 
Q 78.527132 27.841719 78.097445 27.841719 
Q 76.958382 27.841719 76.958382 29.541719 
Q 76.958382 30.321406 77.258382 30.741719 
Q 77.558382 31.160469 78.097445 31.160469 
Q 78.497445 31.160469 78.727132 30.960469 
Q 78.958382 30.760469 79.097445 30.330781 
z
M 83.787131 32.201094 
Q 83.727756 32.201094 83.441819 32.221406 
Q 83.157444 32.241719 82.977756 32.241719 
Q 82.277756 32.241719 81.941819 31.957344 
Q 81.607444 31.671406 81.607444 31.041719 
L 81.607444 27.841719 
L 80.918381 27.841719 
L 80.918381 26.910469 
L 81.607444 26.910469 
L 81.607444 25.460469 
L 83.007444 25.460469 
L 83.007444 26.910469 
L 83.787131 26.910469 
L 83.787131 27.841719 
L 83.007444 27.841719 
L 83.007444 30.660469 
Q 83.007444 31.021406 83.096506 31.137031 
Q 83.187131 31.251094 83.468381 31.251094 
Q 83.577756 31.251094 83.787131 31.221406 
z
M 92.128379 29.291719 
L 87.487754 29.291719 
L 87.487754 28.291719 
L 92.128379 28.291719 
z
M 92.128379 31.110469 
L 87.487754 31.110469 
L 87.487754 30.110469 
L 92.128379 30.110469 
z
M 98.53744 34.201094 
L 97.53744 34.201094 
Q 96.678065 32.901094 96.292127 31.805781 
Q 95.907752 30.710469 95.907752 29.551094 
Q 95.907752 28.401094 96.292127 27.301094 
Q 96.678065 26.201094 97.53744 24.910469 
L 98.53744 24.910469 
Q 97.748377 26.441719 97.442127 27.446406 
Q 97.13744 28.451094 97.13744 29.551094 
Q 97.13744 30.651094 97.43744 31.651094 
Q 97.73744 32.651094 98.53744 34.201094 
z
M 103.997126 30.021406 
Q 103.997126 31.060469 103.322126 31.676094 
Q 102.647126 32.291719 101.517438 32.291719 
Q 100.428376 32.291719 99.778376 31.666719 
Q 99.128376 31.041719 99.128376 29.980781 
L 100.487751 29.980781 
Q 100.487751 30.521406 100.767438 30.807344 
Q 101.047126 31.091719 101.547126 31.091719 
Q 102.008063 31.091719 102.301813 30.791719 
Q 102.597126 30.491719 102.597126 30.021406 
Q 102.597126 29.460469 102.206501 29.210469 
Q 101.817438 28.960469 101.008063 28.960469 
L 101.008063 28.021406 
L 101.128376 28.021406 
Q 101.758063 28.021406 102.062751 27.782344 
Q 102.367438 27.541719 102.367438 27.021406 
Q 102.367438 26.580781 102.137751 26.337031 
Q 101.908063 26.091719 101.487751 26.091719 
Q 100.967438 26.091719 100.742438 26.387031 
Q 100.517438 26.680781 100.517438 27.341719 
L 99.217438 27.341719 
L 99.217438 27.221406 
Q 99.217438 26.101094 99.837751 25.530781 
Q 100.458063 24.960469 101.517438 24.960469 
Q 102.547126 24.960469 103.156501 25.485469 
Q 103.767438 26.010469 103.767438 26.891719 
Q 103.767438 27.371406 103.551813 27.696406 
Q 103.337751 28.021406 102.837751 28.330781 
Q 103.447126 28.630781 103.722126 29.021406 
Q 103.997126 29.410469 103.997126 30.021406 
z
M 106.538375 32.110469 
Q 106.538375 32.691719 106.418062 33.016719 
Q 106.29775 33.341719 105.99775 33.571406 
Q 105.607125 33.871406 105.038375 33.941719 
L 105.038375 33.380781 
Q 105.89775 33.210469 105.89775 32.230781 
L 105.89775 32.201094 
L 105.038375 32.201094 
L 105.038375 30.741719 
L 106.538375 30.741719 
z
M 115.107747 27.210469 
Q 115.107747 27.930781 114.77181 28.430781 
Q 114.437435 28.930781 113.517122 29.610469 
Q 112.72806 30.180781 112.467122 30.426094 
Q 112.207747 30.671406 112.07806 30.951094 
L 115.07806 30.951094 
L 115.07806 32.201094 
L 110.257747 32.201094 
Q 110.307747 31.221406 110.65306 30.637031 
Q 110.998372 30.051094 111.898372 29.441719 
Q 113.067122 28.610469 113.387435 28.221406 
Q 113.707747 27.830781 113.707747 27.241719 
Q 113.707747 26.710469 113.442122 26.405781 
Q 113.17806 26.101094 112.707747 26.101094 
Q 112.22806 26.101094 111.962435 26.430781 
Q 111.698372 26.760469 111.698372 27.351094 
L 111.698372 27.580781 
L 110.357747 27.580781 
Q 110.348372 27.471406 110.348372 27.330781 
Q 110.348372 26.210469 110.962435 25.585469 
Q 111.57806 24.960469 112.67806 24.960469 
Q 113.798372 24.960469 114.45306 25.571406 
Q 115.107747 26.180781 115.107747 27.210469 
z
M 118.367747 29.560469 
Q 118.367747 30.710469 117.981809 31.810469 
Q 117.597434 32.910469 116.738059 34.201094 
L 115.738059 34.201094 
Q 116.527122 32.671406 116.831809 31.666719 
Q 117.138059 30.660469 117.138059 29.560469 
Q 117.138059 28.460469 116.838059 27.460469 
Q 116.538059 26.460469 115.738059 24.910469 
L 116.738059 24.910469 
Q 117.597434 26.210469 117.981809 27.305781 
Q 118.367747 28.401094 118.367747 29.560469 
z
" style="fill:#c92a2a;"/>
   </g>
  </g>
  <g id="axes_2">
   <g id="patch_7">
    <path d="M 158.759272 97.570251 
L 274.004794 97.570251 
L 274.004794 20.410469 
L 158.759272 20.410469 
z
" style="fill:none;"/>
   </g>
   <g id="matplotlib.axis_3">
    <g id="xtick_22">
     <g id="line2d_53">
      <path clip-path="url(#pf0dfd89f50)" d="M 158.759272 97.570251 
L 158.759272 20.410469 
" style="fill:none;stroke:#000000;stroke-linecap:square;stroke-opacity:0.1;stroke-width:0.6;"/>
     </g>
     <g id="line2d_54">
      <g>
       <use style="stroke:#000000;stroke-width:0.6;" x="158.759272" xlink:href="#m88cd548b26" y="97.570251"/>
      </g>
     </g>
    </g>
    <g id="xtick_23">
     <g id="line2d_55">
      <path clip-path="url(#pf0dfd89f50)" d="M 187.570652 97.570251 
L 187.570652 20.410469 
" style="fill:none;stroke:#000000;stroke-linecap:square;stroke-opacity:0.1;stroke-width:0.6;"/>
     </g>
     <g id="line2d_56">
      <g>
       <use style="stroke:#000000;stroke-width:0.6;" x="187.570652" xlink:href="#m88cd548b26" y="97.570251"/>
      </g>
     </g>
    </g>
    <g id="xtick_24">
     <g id="line2d_57">
      <path clip-path="url(#pf0dfd89f50)" d="M 216.382033 97.570251 
L 216.382033 20.410469 
" style="fill:none;stroke:#000000;stroke-linecap:square;stroke-opacity:0.1;stroke-width:0.6;"/>
     </g>
     <g id="line2d_58">
      <g>
       <use style="stroke:#000000;stroke-width:0.6;" x="216.382033" xlink:href="#m88cd548b26" y="97.570251"/>
      </g>
     </g>
    </g>
    <g id="xtick_25">
     <g id="line2d_59">
      <path clip-path="url(#pf0dfd89f50)" d="M 245.193413 97.570251 
L 245.193413 20.410469 
" style="fill:none;stroke:#000000;stroke-linecap:square;stroke-opacity:0.1;stroke-width:0.6;"/>
     </g>
     <g id="line2d_60">
      <g>
       <use style="stroke:#000000;stroke-width:0.6;" x="245.193413" xlink:href="#m88cd548b26" y="97.570251"/>
      </g>
     </g>
    </g>
    <g id="xtick_26">
     <g id="line2d_61">
      <path clip-path="url(#pf0dfd89f50)" d="M 274.004794 97.570251 
L 274.004794 20.410469 
" style="fill:none;stroke:#000000;stroke-linecap:square;stroke-opacity:0.1;stroke-width:0.6;"/>
     </g>
     <g id="line2d_62">
      <g>
       <use style="stroke:#000000;stroke-width:0.6;" x="274.004794" xlink:href="#m88cd548b26" y="97.570251"/>
      </g>
     </g>
    </g>
    <g id="xtick_27">
     <g id="line2d_63">
      <g>
       <use style="stroke:#000000;stroke-width:0.48;" x="164.521548" xlink:href="#m7163675dc7" y="97.570251"/>
      </g>
     </g>
    </g>
    <g id="xtick_28">
     <g id="line2d_64">
      <g>
       <use style="stroke:#000000;stroke-width:0.48;" x="170.283824" xlink:href="#m7163675dc7" y="97.570251"/>
      </g>
     </g>
    </g>
    <g id="xtick_29">
     <g id="line2d_65">
      <g>
       <use style="stroke:#000000;stroke-width:0.48;" x="176.0461" xlink:href="#m7163675dc7" y="97.570251"/>
      </g>
     </g>
    </g>
    <g id="xtick_30">
     <g id="line2d_66">
      <g>
       <use style="stroke:#000000;stroke-width:0.48;" x="181.808376" xlink:href="#m7163675dc7" y="97.570251"/>
      </g>
     </g>
    </g>
    <g id="xtick_31">
     <g id="line2d_67">
      <g>
       <use style="stroke:#000000;stroke-width:0.48;" x="193.332928" xlink:href="#m7163675dc7" y="97.570251"/>
      </g>
     </g>
    </g>
    <g id="xtick_32">
     <g id="line2d_68">
      <g>
       <use style="stroke:#000000;stroke-width:0.48;" x="199.095204" xlink:href="#m7163675dc7" y="97.570251"/>
      </g>
     </g>
    </g>
    <g id="xtick_33">
     <g id="line2d_69">
      <g>
       <use style="stroke:#000000;stroke-width:0.48;" x="204.85748" xlink:href="#m7163675dc7" y="97.570251"/>
      </g>
     </g>
    </g>
    <g id="xtick_34">
     <g id="line2d_70">
      <g>
       <use style="stroke:#000000;stroke-width:0.48;" x="210.619757" xlink:href="#m7163675dc7" y="97.570251"/>
      </g>
     </g>
    </g>
    <g id="xtick_35">
     <g id="line2d_71">
      <g>
       <use style="stroke:#000000;stroke-width:0.48;" x="222.144309" xlink:href="#m7163675dc7" y="97.570251"/>
      </g>
     </g>
    </g>
    <g id="xtick_36">
     <g id="line2d_72">
      <g>
       <use style="stroke:#000000;stroke-width:0.48;" x="227.906585" xlink:href="#m7163675dc7" y="97.570251"/>
      </g>
     </g>
    </g>
    <g id="xtick_37">
     <g id="line2d_73">
      <g>
       <use style="stroke:#000000;stroke-width:0.48;" x="233.668861" xlink:href="#m7163675dc7" y="97.570251"/>
      </g>
     </g>
    </g>
    <g id="xtick_38">
     <g id="line2d_74">
      <g>
       <use style="stroke:#000000;stroke-width:0.48;" x="239.431137" xlink:href="#m7163675dc7" y="97.570251"/>
      </g>
     </g>
    </g>
    <g id="xtick_39">
     <g id="line2d_75">
      <g>
       <use style="stroke:#000000;stroke-width:0.48;" x="250.955689" xlink:href="#m7163675dc7" y="97.570251"/>
      </g>
     </g>
    </g>
    <g id="xtick_40">
     <g id="line2d_76">
      <g>
       <use style="stroke:#000000;stroke-width:0.48;" x="256.717965" xlink:href="#m7163675dc7" y="97.570251"/>
      </g>
     </g>
    </g>
    <g id="xtick_41">
     <g id="line2d_77">
      <g>
       <use style="stroke:#000000;stroke-width:0.48;" x="262.480241" xlink:href="#m7163675dc7" y="97.570251"/>
      </g>
     </g>
    </g>
    <g id="xtick_42">
     <g id="line2d_78">
      <g>
       <use style="stroke:#000000;stroke-width:0.48;" x="268.242517" xlink:href="#m7163675dc7" y="97.570251"/>
      </g>
     </g>
    </g>
   </g>
   <g id="matplotlib.axis_4">
    <g id="ytick_22">
     <g id="line2d_79">
      <path clip-path="url(#pf0dfd89f50)" d="M 158.759272 97.570251 
L 274.004794 97.570251 
" style="fill:none;stroke:#000000;stroke-linecap:square;stroke-opacity:0.1;stroke-width:0.6;"/>
     </g>
     <g id="line2d_80">
      <g>
       <use style="stroke:#000000;stroke-width:0.6;" x="158.759272" xlink:href="#macf923dc08" y="97.570251"/>
      </g>
     </g>
    </g>
    <g id="ytick_23">
     <g id="line2d_81">
      <path clip-path="url(#pf0dfd89f50)" d="M 158.759272 78.280305 
L 274.004794 78.280305 
" style="fill:none;stroke:#000000;stroke-linecap:square;stroke-opacity:0.1;stroke-width:0.6;"/>
     </g>
     <g id="line2d_82">
      <g>
       <use style="stroke:#000000;stroke-width:0.6;" x="158.759272" xlink:href="#macf923dc08" y="78.280305"/>
      </g>
     </g>
    </g>
    <g id="ytick_24">
     <g id="line2d_83">
      <path clip-path="url(#pf0dfd89f50)" d="M 158.759272 58.99036 
L 274.004794 58.99036 
" style="fill:none;stroke:#000000;stroke-linecap:square;stroke-opacity:0.1;stroke-width:0.6;"/>
     </g>
     <g id="line2d_84">
      <g>
       <use style="stroke:#000000;stroke-width:0.6;" x="158.759272" xlink:href="#macf923dc08" y="58.99036"/>
      </g>
     </g>
    </g>
    <g id="ytick_25">
     <g id="line2d_85">
      <path clip-path="url(#pf0dfd89f50)" d="M 158.759272 39.700414 
L 274.004794 39.700414 
" style="fill:none;stroke:#000000;stroke-linecap:square;stroke-opacity:0.1;stroke-width:0.6;"/>
     </g>
     <g id="line2d_86">
      <g>
       <use style="stroke:#000000;stroke-width:0.6;" x="158.759272" xlink:href="#macf923dc08" y="39.700414"/>
      </g>
     </g>
    </g>
    <g id="ytick_26">
     <g id="line2d_87">
      <path clip-path="url(#pf0dfd89f50)" d="M 158.759272 20.410469 
L 274.004794 20.410469 
" style="fill:none;stroke:#000000;stroke-linecap:square;stroke-opacity:0.1;stroke-width:0.6;"/>
     </g>
     <g id="line2d_88">
      <g>
       <use style="stroke:#000000;stroke-width:0.6;" x="158.759272" xlink:href="#macf923dc08" y="20.410469"/>
      </g>
     </g>
    </g>
    <g id="ytick_27">
     <g id="line2d_89">
      <g>
       <use style="stroke:#000000;stroke-width:0.48;" x="158.759272" xlink:href="#mddd0a29bd1" y="93.712262"/>
      </g>
     </g>
    </g>
    <g id="ytick_28">
     <g id="line2d_90">
      <g>
       <use style="stroke:#000000;stroke-width:0.48;" x="158.759272" xlink:href="#mddd0a29bd1" y="89.854273"/>
      </g>
     </g>
    </g>
    <g id="ytick_29">
     <g id="line2d_91">
      <g>
       <use style="stroke:#000000;stroke-width:0.48;" x="158.759272" xlink:href="#mddd0a29bd1" y="85.996284"/>
      </g>
     </g>
    </g>
    <g id="ytick_30">
     <g id="line2d_92">
      <g>
       <use style="stroke:#000000;stroke-width:0.48;" x="158.759272" xlink:href="#mddd0a29bd1" y="82.138295"/>
      </g>
     </g>
    </g>
    <g id="ytick_31">
     <g id="line2d_93">
      <g>
       <use style="stroke:#000000;stroke-width:0.48;" x="158.759272" xlink:href="#mddd0a29bd1" y="74.422316"/>
      </g>
     </g>
    </g>
    <g id="ytick_32">
     <g id="line2d_94">
      <g>
       <use style="stroke:#000000;stroke-width:0.48;" x="158.759272" xlink:href="#mddd0a29bd1" y="70.564327"/>
      </g>
     </g>
    </g>
    <g id="ytick_33">
     <g id="line2d_95">
      <g>
       <use style="stroke:#000000;stroke-width:0.48;" x="158.759272" xlink:href="#mddd0a29bd1" y="66.706338"/>
      </g>
     </g>
    </g>
    <g id="ytick_34">
     <g id="line2d_96">
      <g>
       <use style="stroke:#000000;stroke-width:0.48;" x="158.759272" xlink:href="#mddd0a29bd1" y="62.848349"/>
      </g>
     </g>
    </g>
    <g id="ytick_35">
     <g id="line2d_97">
      <g>
       <use style="stroke:#000000;stroke-width:0.48;" x="158.759272" xlink:href="#mddd0a29bd1" y="55.132371"/>
      </g>
     </g>
    </g>
    <g id="ytick_36">
     <g id="line2d_98">
      <g>
       <use style="stroke:#000000;stroke-width:0.48;" x="158.759272" xlink:href="#mddd0a29bd1" y="51.274382"/>
      </g>
     </g>
    </g>
    <g id="ytick_37">
     <g id="line2d_99">
      <g>
       <use style="stroke:#000000;stroke-width:0.48;" x="158.759272" xlink:href="#mddd0a29bd1" y="47.416393"/>
      </g>
     </g>
    </g>
    <g id="ytick_38">
     <g id="line2d_100">
      <g>
       <use style="stroke:#000000;stroke-width:0.48;" x="158.759272" xlink:href="#mddd0a29bd1" y="43.558403"/>
      </g>
     </g>
    </g>
    <g id="ytick_39">
     <g id="line2d_101">
      <g>
       <use style="stroke:#000000;stroke-width:0.48;" x="158.759272" xlink:href="#mddd0a29bd1" y="35.842425"/>
      </g>
     </g>
    </g>
    <g id="ytick_40">
     <g id="line2d_102">
      <g>
       <use style="stroke:#000000;stroke-width:0.48;" x="158.759272" xlink:href="#mddd0a29bd1" y="31.984436"/>
      </g>
     </g>
    </g>
    <g id="ytick_41">
     <g id="line2d_103">
      <g>
       <use style="stroke:#000000;stroke-width:0.48;" x="158.759272" xlink:href="#mddd0a29bd1" y="28.126447"/>
      </g>
     </g>
    </g>
    <g id="ytick_42">
     <g id="line2d_104">
      <g>
       <use style="stroke:#000000;stroke-width:0.48;" x="158.759272" xlink:href="#mddd0a29bd1" y="24.268458"/>
      </g>
     </g>
    </g>
   </g>
   <g id="patch_8">
    <path d="M 158.759272 97.570251 
L 158.759272 20.410469 
" style="fill:none;stroke:#000000;stroke-linecap:square;stroke-linejoin:miter;stroke-width:0.6;"/>
   </g>
   <g id="patch_9">
    <path d="M 274.004794 97.570251 
L 274.004794 20.410469 
" style="fill:none;stroke:#000000;stroke-linecap:square;stroke-linejoin:miter;stroke-width:0.6;"/>
   </g>
   <g id="patch_10">
    <path d="M 158.759272 97.570251 
L 274.004794 97.570251 
" style="fill:none;stroke:#000000;stroke-linecap:square;stroke-linejoin:miter;stroke-width:0.6;"/>
   </g>
   <g id="patch_11">
    <path d="M 158.759272 20.410469 
L 274.004794 20.410469 
" style="fill:none;stroke:#000000;stroke-linecap:square;stroke-linejoin:miter;stroke-width:0.6;"/>
   </g>
  </g>
  <g id="axes_3">
   <g id="patch_12">
    <path d="M 28.012031 192.253314 
L 143.257553 192.253314 
L 143.257553 115.093532 
L 28.012031 115.093532 
z
" style="fill:none;"/>
   </g>
   <g id="matplotlib.axis_5">
    <g id="xtick_43">
     <g id="line2d_105">
      <path clip-path="url(#pcbc49a924b)" d="M 28.012031 192.253314 
L 28.012031 115.093532 
" style="fill:none;stroke:#000000;stroke-linecap:square;stroke-opacity:0.1;stroke-width:0.6;"/>
     </g>
     <g id="line2d_106">
      <g>
       <use style="stroke:#000000;stroke-width:0.6;" x="28.012031" xlink:href="#m88cd548b26" y="192.253314"/>
      </g>
     </g>
     <g id="text_7">
      <!-- 0 -->
      <g transform="translate(25.510313 204.814877)scale(0.09 -0.09)">
       <use xlink:href="#TeXGyreHeros-Regular-48"/>
      </g>
     </g>
    </g>
    <g id="xtick_44">
     <g id="line2d_107">
      <path clip-path="url(#pcbc49a924b)" d="M 56.823412 192.253314 
L 56.823412 115.093532 
" style="fill:none;stroke:#000000;stroke-linecap:square;stroke-opacity:0.1;stroke-width:0.6;"/>
     </g>
     <g id="line2d_108">
      <g>
       <use style="stroke:#000000;stroke-width:0.6;" x="56.823412" xlink:href="#m88cd548b26" y="192.253314"/>
      </g>
     </g>
     <g id="text_8">
      <!-- 0.25 -->
      <g transform="translate(48.067396 204.814877)scale(0.09 -0.09)">
       <use xlink:href="#TeXGyreHeros-Regular-48"/>
       <use x="55.599991" xlink:href="#TeXGyreHeros-Regular-46"/>
       <use x="83.399979" xlink:href="#TeXGyreHeros-Regular-50"/>
       <use x="138.999969" xlink:href="#TeXGyreHeros-Regular-53"/>
      </g>
     </g>
    </g>
    <g id="xtick_45">
     <g id="line2d_109">
      <path clip-path="url(#pcbc49a924b)" d="M 85.634792 192.253314 
L 85.634792 115.093532 
" style="fill:none;stroke:#000000;stroke-linecap:square;stroke-opacity:0.1;stroke-width:0.6;"/>
     </g>
     <g id="line2d_110">
      <g>
       <use style="stroke:#000000;stroke-width:0.6;" x="85.634792" xlink:href="#m88cd548b26" y="192.253314"/>
      </g>
     </g>
     <g id="text_9">
      <!-- 0.5 -->
      <g transform="translate(79.380495 204.814877)scale(0.09 -0.09)">
       <use xlink:href="#TeXGyreHeros-Regular-48"/>
       <use x="55.599991" xlink:href="#TeXGyreHeros-Regular-46"/>
       <use x="83.399979" xlink:href="#TeXGyreHeros-Regular-53"/>
      </g>
     </g>
    </g>
    <g id="xtick_46">
     <g id="line2d_111">
      <path clip-path="url(#pcbc49a924b)" d="M 114.446173 192.253314 
L 114.446173 115.093532 
" style="fill:none;stroke:#000000;stroke-linecap:square;stroke-opacity:0.1;stroke-width:0.6;"/>
     </g>
     <g id="line2d_112">
      <g>
       <use style="stroke:#000000;stroke-width:0.6;" x="114.446173" xlink:href="#m88cd548b26" y="192.253314"/>
      </g>
     </g>
     <g id="text_10">
      <!-- 0.75 -->
      <g transform="translate(105.690157 204.814877)scale(0.09 -0.09)">
       <use xlink:href="#TeXGyreHeros-Regular-48"/>
       <use x="55.599991" xlink:href="#TeXGyreHeros-Regular-46"/>
       <use x="83.399979" xlink:href="#TeXGyreHeros-Regular-55"/>
       <use x="138.999969" xlink:href="#TeXGyreHeros-Regular-53"/>
      </g>
     </g>
    </g>
    <g id="xtick_47">
     <g id="line2d_113">
      <path clip-path="url(#pcbc49a924b)" d="M 143.257553 192.253314 
L 143.257553 115.093532 
" style="fill:none;stroke:#000000;stroke-linecap:square;stroke-opacity:0.1;stroke-width:0.6;"/>
     </g>
     <g id="line2d_114">
      <g>
       <use style="stroke:#000000;stroke-width:0.6;" x="143.257553" xlink:href="#m88cd548b26" y="192.253314"/>
      </g>
     </g>
     <g id="text_11">
      <!-- 1 -->
      <g transform="translate(140.755834 204.814877)scale(0.09 -0.09)">
       <use xlink:href="#TeXGyreHeros-Regular-49"/>
      </g>
     </g>
    </g>
    <g id="xtick_48">
     <g id="line2d_115">
      <g>
       <use style="stroke:#000000;stroke-width:0.48;" x="33.774307" xlink:href="#m7163675dc7" y="192.253314"/>
      </g>
     </g>
    </g>
    <g id="xtick_49">
     <g id="line2d_116">
      <g>
       <use style="stroke:#000000;stroke-width:0.48;" x="39.536583" xlink:href="#m7163675dc7" y="192.253314"/>
      </g>
     </g>
    </g>
    <g id="xtick_50">
     <g id="line2d_117">
      <g>
       <use style="stroke:#000000;stroke-width:0.48;" x="45.29886" xlink:href="#m7163675dc7" y="192.253314"/>
      </g>
     </g>
    </g>
    <g id="xtick_51">
     <g id="line2d_118">
      <g>
       <use style="stroke:#000000;stroke-width:0.48;" x="51.061136" xlink:href="#m7163675dc7" y="192.253314"/>
      </g>
     </g>
    </g>
    <g id="xtick_52">
     <g id="line2d_119">
      <g>
       <use style="stroke:#000000;stroke-width:0.48;" x="62.585688" xlink:href="#m7163675dc7" y="192.253314"/>
      </g>
     </g>
    </g>
    <g id="xtick_53">
     <g id="line2d_120">
      <g>
       <use style="stroke:#000000;stroke-width:0.48;" x="68.347964" xlink:href="#m7163675dc7" y="192.253314"/>
      </g>
     </g>
    </g>
    <g id="xtick_54">
     <g id="line2d_121">
      <g>
       <use style="stroke:#000000;stroke-width:0.48;" x="74.11024" xlink:href="#m7163675dc7" y="192.253314"/>
      </g>
     </g>
    </g>
    <g id="xtick_55">
     <g id="line2d_122">
      <g>
       <use style="stroke:#000000;stroke-width:0.48;" x="79.872516" xlink:href="#m7163675dc7" y="192.253314"/>
      </g>
     </g>
    </g>
    <g id="xtick_56">
     <g id="line2d_123">
      <g>
       <use style="stroke:#000000;stroke-width:0.48;" x="91.397068" xlink:href="#m7163675dc7" y="192.253314"/>
      </g>
     </g>
    </g>
    <g id="xtick_57">
     <g id="line2d_124">
      <g>
       <use style="stroke:#000000;stroke-width:0.48;" x="97.159344" xlink:href="#m7163675dc7" y="192.253314"/>
      </g>
     </g>
    </g>
    <g id="xtick_58">
     <g id="line2d_125">
      <g>
       <use style="stroke:#000000;stroke-width:0.48;" x="102.92162" xlink:href="#m7163675dc7" y="192.253314"/>
      </g>
     </g>
    </g>
    <g id="xtick_59">
     <g id="line2d_126">
      <g>
       <use style="stroke:#000000;stroke-width:0.48;" x="108.683896" xlink:href="#m7163675dc7" y="192.253314"/>
      </g>
     </g>
    </g>
    <g id="xtick_60">
     <g id="line2d_127">
      <g>
       <use style="stroke:#000000;stroke-width:0.48;" x="120.208449" xlink:href="#m7163675dc7" y="192.253314"/>
      </g>
     </g>
    </g>
    <g id="xtick_61">
     <g id="line2d_128">
      <g>
       <use style="stroke:#000000;stroke-width:0.48;" x="125.970725" xlink:href="#m7163675dc7" y="192.253314"/>
      </g>
     </g>
    </g>
    <g id="xtick_62">
     <g id="line2d_129">
      <g>
       <use style="stroke:#000000;stroke-width:0.48;" x="131.733001" xlink:href="#m7163675dc7" y="192.253314"/>
      </g>
     </g>
    </g>
    <g id="xtick_63">
     <g id="line2d_130">
      <g>
       <use style="stroke:#000000;stroke-width:0.48;" x="137.495277" xlink:href="#m7163675dc7" y="192.253314"/>
      </g>
     </g>
    </g>
   </g>
   <g id="matplotlib.axis_6">
    <g id="ytick_43">
     <g id="line2d_131">
      <path clip-path="url(#pcbc49a924b)" d="M 28.012031 192.253314 
L 143.257553 192.253314 
" style="fill:none;stroke:#000000;stroke-linecap:square;stroke-opacity:0.1;stroke-width:0.6;"/>
     </g>
     <g id="line2d_132">
      <g>
       <use style="stroke:#000000;stroke-width:0.6;" x="28.012031" xlink:href="#macf923dc08" y="192.253314"/>
      </g>
     </g>
     <g id="text_12">
      <!-- 0 -->
      <g transform="translate(17.008594 195.534096)scale(0.09 -0.09)">
       <use xlink:href="#TeXGyreHeros-Regular-48"/>
      </g>
     </g>
    </g>
    <g id="ytick_44">
     <g id="line2d_133">
      <path clip-path="url(#pcbc49a924b)" d="M 28.012031 172.963369 
L 143.257553 172.963369 
" style="fill:none;stroke:#000000;stroke-linecap:square;stroke-opacity:0.1;stroke-width:0.6;"/>
     </g>
     <g id="line2d_134">
      <g>
       <use style="stroke:#000000;stroke-width:0.6;" x="28.012031" xlink:href="#macf923dc08" y="172.963369"/>
      </g>
     </g>
     <g id="text_13">
      <!-- 0.25 -->
      <g transform="translate(4.5 176.24415)scale(0.09 -0.09)">
       <use xlink:href="#TeXGyreHeros-Regular-48"/>
       <use x="55.599991" xlink:href="#TeXGyreHeros-Regular-46"/>
       <use x="83.399979" xlink:href="#TeXGyreHeros-Regular-50"/>
       <use x="138.999969" xlink:href="#TeXGyreHeros-Regular-53"/>
      </g>
     </g>
    </g>
    <g id="ytick_45">
     <g id="line2d_135">
      <path clip-path="url(#pcbc49a924b)" d="M 28.012031 153.673423 
L 143.257553 153.673423 
" style="fill:none;stroke:#000000;stroke-linecap:square;stroke-opacity:0.1;stroke-width:0.6;"/>
     </g>
     <g id="line2d_136">
      <g>
       <use style="stroke:#000000;stroke-width:0.6;" x="28.012031" xlink:href="#macf923dc08" y="153.673423"/>
      </g>
     </g>
     <g id="text_14">
      <!-- 0.5 -->
      <g transform="translate(9.503438 156.954205)scale(0.09 -0.09)">
       <use xlink:href="#TeXGyreHeros-Regular-48"/>
       <use x="55.599991" xlink:href="#TeXGyreHeros-Regular-46"/>
       <use x="83.399979" xlink:href="#TeXGyreHeros-Regular-53"/>
      </g>
     </g>
    </g>
    <g id="ytick_46">
     <g id="line2d_137">
      <path clip-path="url(#pcbc49a924b)" d="M 28.012031 134.383478 
L 143.257553 134.383478 
" style="fill:none;stroke:#000000;stroke-linecap:square;stroke-opacity:0.1;stroke-width:0.6;"/>
     </g>
     <g id="line2d_138">
      <g>
       <use style="stroke:#000000;stroke-width:0.6;" x="28.012031" xlink:href="#macf923dc08" y="134.383478"/>
      </g>
     </g>
     <g id="text_15">
      <!-- 0.75 -->
      <g transform="translate(4.5 137.664259)scale(0.09 -0.09)">
       <use xlink:href="#TeXGyreHeros-Regular-48"/>
       <use x="55.599991" xlink:href="#TeXGyreHeros-Regular-46"/>
       <use x="83.399979" xlink:href="#TeXGyreHeros-Regular-55"/>
       <use x="138.999969" xlink:href="#TeXGyreHeros-Regular-53"/>
      </g>
     </g>
    </g>
    <g id="ytick_47">
     <g id="line2d_139">
      <path clip-path="url(#pcbc49a924b)" d="M 28.012031 115.093532 
L 143.257553 115.093532 
" style="fill:none;stroke:#000000;stroke-linecap:square;stroke-opacity:0.1;stroke-width:0.6;"/>
     </g>
     <g id="line2d_140">
      <g>
       <use style="stroke:#000000;stroke-width:0.6;" x="28.012031" xlink:href="#macf923dc08" y="115.093532"/>
      </g>
     </g>
     <g id="text_16">
      <!-- 1 -->
      <g transform="translate(17.008594 118.374313)scale(0.09 -0.09)">
       <use xlink:href="#TeXGyreHeros-Regular-49"/>
      </g>
     </g>
    </g>
    <g id="ytick_48">
     <g id="line2d_141">
      <g>
       <use style="stroke:#000000;stroke-width:0.48;" x="28.012031" xlink:href="#mddd0a29bd1" y="188.395325"/>
      </g>
     </g>
    </g>
    <g id="ytick_49">
     <g id="line2d_142">
      <g>
       <use style="stroke:#000000;stroke-width:0.48;" x="28.012031" xlink:href="#mddd0a29bd1" y="184.537336"/>
      </g>
     </g>
    </g>
    <g id="ytick_50">
     <g id="line2d_143">
      <g>
       <use style="stroke:#000000;stroke-width:0.48;" x="28.012031" xlink:href="#mddd0a29bd1" y="180.679347"/>
      </g>
     </g>
    </g>
    <g id="ytick_51">
     <g id="line2d_144">
      <g>
       <use style="stroke:#000000;stroke-width:0.48;" x="28.012031" xlink:href="#mddd0a29bd1" y="176.821358"/>
      </g>
     </g>
    </g>
    <g id="ytick_52">
     <g id="line2d_145">
      <g>
       <use style="stroke:#000000;stroke-width:0.48;" x="28.012031" xlink:href="#mddd0a29bd1" y="169.10538"/>
      </g>
     </g>
    </g>
    <g id="ytick_53">
     <g id="line2d_146">
      <g>
       <use style="stroke:#000000;stroke-width:0.48;" x="28.012031" xlink:href="#mddd0a29bd1" y="165.247391"/>
      </g>
     </g>
    </g>
    <g id="ytick_54">
     <g id="line2d_147">
      <g>
       <use style="stroke:#000000;stroke-width:0.48;" x="28.012031" xlink:href="#mddd0a29bd1" y="161.389402"/>
      </g>
     </g>
    </g>
    <g id="ytick_55">
     <g id="line2d_148">
      <g>
       <use style="stroke:#000000;stroke-width:0.48;" x="28.012031" xlink:href="#mddd0a29bd1" y="157.531412"/>
      </g>
     </g>
    </g>
    <g id="ytick_56">
     <g id="line2d_149">
      <g>
       <use style="stroke:#000000;stroke-width:0.48;" x="28.012031" xlink:href="#mddd0a29bd1" y="149.815434"/>
      </g>
     </g>
    </g>
    <g id="ytick_57">
     <g id="line2d_150">
      <g>
       <use style="stroke:#000000;stroke-width:0.48;" x="28.012031" xlink:href="#mddd0a29bd1" y="145.957445"/>
      </g>
     </g>
    </g>
    <g id="ytick_58">
     <g id="line2d_151">
      <g>
       <use style="stroke:#000000;stroke-width:0.48;" x="28.012031" xlink:href="#mddd0a29bd1" y="142.099456"/>
      </g>
     </g>
    </g>
    <g id="ytick_59">
     <g id="line2d_152">
      <g>
       <use style="stroke:#000000;stroke-width:0.48;" x="28.012031" xlink:href="#mddd0a29bd1" y="138.241467"/>
      </g>
     </g>
    </g>
    <g id="ytick_60">
     <g id="line2d_153">
      <g>
       <use style="stroke:#000000;stroke-width:0.48;" x="28.012031" xlink:href="#mddd0a29bd1" y="130.525489"/>
      </g>
     </g>
    </g>
    <g id="ytick_61">
     <g id="line2d_154">
      <g>
       <use style="stroke:#000000;stroke-width:0.48;" x="28.012031" xlink:href="#mddd0a29bd1" y="126.6675"/>
      </g>
     </g>
    </g>
    <g id="ytick_62">
     <g id="line2d_155">
      <g>
       <use style="stroke:#000000;stroke-width:0.48;" x="28.012031" xlink:href="#mddd0a29bd1" y="122.80951"/>
      </g>
     </g>
    </g>
    <g id="ytick_63">
     <g id="line2d_156">
      <g>
       <use style="stroke:#000000;stroke-width:0.48;" x="28.012031" xlink:href="#mddd0a29bd1" y="118.951521"/>
      </g>
     </g>
    </g>
   </g>
   <g id="patch_13">
    <path d="M 28.012031 192.253314 
L 28.012031 115.093532 
" style="fill:none;stroke:#000000;stroke-linecap:square;stroke-linejoin:miter;stroke-width:0.6;"/>
   </g>
   <g id="patch_14">
    <path d="M 143.257553 192.253314 
L 143.257553 115.093532 
" style="fill:none;stroke:#000000;stroke-linecap:square;stroke-linejoin:miter;stroke-width:0.6;"/>
   </g>
   <g id="patch_15">
    <path d="M 28.012031 192.253314 
L 143.257553 192.253314 
" style="fill:none;stroke:#000000;stroke-linecap:square;stroke-linejoin:miter;stroke-width:0.6;"/>
   </g>
   <g id="patch_16">
    <path d="M 28.012031 115.093532 
L 143.257553 115.093532 
" style="fill:none;stroke:#000000;stroke-linecap:square;stroke-linejoin:miter;stroke-width:0.6;"/>
   </g>
  </g>
  <g id="axes_4">
   <g id="patch_17">
    <path d="M 158.759272 192.253314 
L 274.004794 192.253314 
L 274.004794 115.093532 
L 158.759272 115.093532 
z
" style="fill:none;"/>
   </g>
   <g id="matplotlib.axis_7">
    <g id="xtick_64">
     <g id="line2d_157">
      <path clip-path="url(#p561b85005e)" d="M 158.759272 192.253314 
L 158.759272 115.093532 
" style="fill:none;stroke:#000000;stroke-linecap:square;stroke-opacity:0.1;stroke-width:0.6;"/>
     </g>
     <g id="line2d_158">
      <g>
       <use style="stroke:#000000;stroke-width:0.6;" x="158.759272" xlink:href="#m88cd548b26" y="192.253314"/>
      </g>
     </g>
     <g id="text_17">
      <!-- 0 -->
      <g transform="translate(156.257553 204.814877)scale(0.09 -0.09)">
       <use xlink:href="#TeXGyreHeros-Regular-48"/>
      </g>
     </g>
    </g>
    <g id="xtick_65">
     <g id="line2d_159">
      <path clip-path="url(#p561b85005e)" d="M 187.570652 192.253314 
L 187.570652 115.093532 
" style="fill:none;stroke:#000000;stroke-linecap:square;stroke-opacity:0.1;stroke-width:0.6;"/>
     </g>
     <g id="line2d_160">
      <g>
       <use style="stroke:#000000;stroke-width:0.6;" x="187.570652" xlink:href="#m88cd548b26" y="192.253314"/>
      </g>
     </g>
     <g id="text_18">
      <!-- 0.25 -->
      <g transform="translate(178.814637 204.814877)scale(0.09 -0.09)">
       <use xlink:href="#TeXGyreHeros-Regular-48"/>
       <use x="55.599991" xlink:href="#TeXGyreHeros-Regular-46"/>
       <use x="83.399979" xlink:href="#TeXGyreHeros-Regular-50"/>
       <use x="138.999969" xlink:href="#TeXGyreHeros-Regular-53"/>
      </g>
     </g>
    </g>
    <g id="xtick_66">
     <g id="line2d_161">
      <path clip-path="url(#p561b85005e)" d="M 216.382033 192.253314 
L 216.382033 115.093532 
" style="fill:none;stroke:#000000;stroke-linecap:square;stroke-opacity:0.1;stroke-width:0.6;"/>
     </g>
     <g id="line2d_162">
      <g>
       <use style="stroke:#000000;stroke-width:0.6;" x="216.382033" xlink:href="#m88cd548b26" y="192.253314"/>
      </g>
     </g>
     <g id="text_19">
      <!-- 0.5 -->
      <g transform="translate(210.127736 204.814877)scale(0.09 -0.09)">
       <use xlink:href="#TeXGyreHeros-Regular-48"/>
       <use x="55.599991" xlink:href="#TeXGyreHeros-Regular-46"/>
       <use x="83.399979" xlink:href="#TeXGyreHeros-Regular-53"/>
      </g>
     </g>
    </g>
    <g id="xtick_67">
     <g id="line2d_163">
      <path clip-path="url(#p561b85005e)" d="M 245.193413 192.253314 
L 245.193413 115.093532 
" style="fill:none;stroke:#000000;stroke-linecap:square;stroke-opacity:0.1;stroke-width:0.6;"/>
     </g>
     <g id="line2d_164">
      <g>
       <use style="stroke:#000000;stroke-width:0.6;" x="245.193413" xlink:href="#m88cd548b26" y="192.253314"/>
      </g>
     </g>
     <g id="text_20">
      <!-- 0.75 -->
      <g transform="translate(236.437397 204.814877)scale(0.09 -0.09)">
       <use xlink:href="#TeXGyreHeros-Regular-48"/>
       <use x="55.599991" xlink:href="#TeXGyreHeros-Regular-46"/>
       <use x="83.399979" xlink:href="#TeXGyreHeros-Regular-55"/>
       <use x="138.999969" xlink:href="#TeXGyreHeros-Regular-53"/>
      </g>
     </g>
    </g>
    <g id="xtick_68">
     <g id="line2d_165">
      <path clip-path="url(#p561b85005e)" d="M 274.004794 192.253314 
L 274.004794 115.093532 
" style="fill:none;stroke:#000000;stroke-linecap:square;stroke-opacity:0.1;stroke-width:0.6;"/>
     </g>
     <g id="line2d_166">
      <g>
       <use style="stroke:#000000;stroke-width:0.6;" x="274.004794" xlink:href="#m88cd548b26" y="192.253314"/>
      </g>
     </g>
     <g id="text_21">
      <!-- 1 -->
      <g transform="translate(271.503075 204.814877)scale(0.09 -0.09)">
       <use xlink:href="#TeXGyreHeros-Regular-49"/>
      </g>
     </g>
    </g>
    <g id="xtick_69">
     <g id="line2d_167">
      <g>
       <use style="stroke:#000000;stroke-width:0.48;" x="164.521548" xlink:href="#m7163675dc7" y="192.253314"/>
      </g>
     </g>
    </g>
    <g id="xtick_70">
     <g id="line2d_168">
      <g>
       <use style="stroke:#000000;stroke-width:0.48;" x="170.283824" xlink:href="#m7163675dc7" y="192.253314"/>
      </g>
     </g>
    </g>
    <g id="xtick_71">
     <g id="line2d_169">
      <g>
       <use style="stroke:#000000;stroke-width:0.48;" x="176.0461" xlink:href="#m7163675dc7" y="192.253314"/>
      </g>
     </g>
    </g>
    <g id="xtick_72">
     <g id="line2d_170">
      <g>
       <use style="stroke:#000000;stroke-width:0.48;" x="181.808376" xlink:href="#m7163675dc7" y="192.253314"/>
      </g>
     </g>
    </g>
    <g id="xtick_73">
     <g id="line2d_171">
      <g>
       <use style="stroke:#000000;stroke-width:0.48;" x="193.332928" xlink:href="#m7163675dc7" y="192.253314"/>
      </g>
     </g>
    </g>
    <g id="xtick_74">
     <g id="line2d_172">
      <g>
       <use style="stroke:#000000;stroke-width:0.48;" x="199.095204" xlink:href="#m7163675dc7" y="192.253314"/>
      </g>
     </g>
    </g>
    <g id="xtick_75">
     <g id="line2d_173">
      <g>
       <use style="stroke:#000000;stroke-width:0.48;" x="204.85748" xlink:href="#m7163675dc7" y="192.253314"/>
      </g>
     </g>
    </g>
    <g id="xtick_76">
     <g id="line2d_174">
      <g>
       <use style="stroke:#000000;stroke-width:0.48;" x="210.619757" xlink:href="#m7163675dc7" y="192.253314"/>
      </g>
     </g>
    </g>
    <g id="xtick_77">
     <g id="line2d_175">
      <g>
       <use style="stroke:#000000;stroke-width:0.48;" x="222.144309" xlink:href="#m7163675dc7" y="192.253314"/>
      </g>
     </g>
    </g>
    <g id="xtick_78">
     <g id="line2d_176">
      <g>
       <use style="stroke:#000000;stroke-width:0.48;" x="227.906585" xlink:href="#m7163675dc7" y="192.253314"/>
      </g>
     </g>
    </g>
    <g id="xtick_79">
     <g id="line2d_177">
      <g>
       <use style="stroke:#000000;stroke-width:0.48;" x="233.668861" xlink:href="#m7163675dc7" y="192.253314"/>
      </g>
     </g>
    </g>
    <g id="xtick_80">
     <g id="line2d_178">
      <g>
       <use style="stroke:#000000;stroke-width:0.48;" x="239.431137" xlink:href="#m7163675dc7" y="192.253314"/>
      </g>
     </g>
    </g>
    <g id="xtick_81">
     <g id="line2d_179">
      <g>
       <use style="stroke:#000000;stroke-width:0.48;" x="250.955689" xlink:href="#m7163675dc7" y="192.253314"/>
      </g>
     </g>
    </g>
    <g id="xtick_82">
     <g id="line2d_180">
      <g>
       <use style="stroke:#000000;stroke-width:0.48;" x="256.717965" xlink:href="#m7163675dc7" y="192.253314"/>
      </g>
     </g>
    </g>
    <g id="xtick_83">
     <g id="line2d_181">
      <g>
       <use style="stroke:#000000;stroke-width:0.48;" x="262.480241" xlink:href="#m7163675dc7" y="192.253314"/>
      </g>
     </g>
    </g>
    <g id="xtick_84">
     <g id="line2d_182">
      <g>
       <use style="stroke:#000000;stroke-width:0.48;" x="268.242517" xlink:href="#m7163675dc7" y="192.253314"/>
      </g>
     </g>
    </g>
   </g>
   <g id="matplotlib.axis_8">
    <g id="ytick_64">
     <g id="line2d_183">
      <path clip-path="url(#p561b85005e)" d="M 158.759272 192.253314 
L 274.004794 192.253314 
" style="fill:none;stroke:#000000;stroke-linecap:square;stroke-opacity:0.1;stroke-width:0.6;"/>
     </g>
     <g id="line2d_184">
      <g>
       <use style="stroke:#000000;stroke-width:0.6;" x="158.759272" xlink:href="#macf923dc08" y="192.253314"/>
      </g>
     </g>
    </g>
    <g id="ytick_65">
     <g id="line2d_185">
      <path clip-path="url(#p561b85005e)" d="M 158.759272 172.963369 
L 274.004794 172.963369 
" style="fill:none;stroke:#000000;stroke-linecap:square;stroke-opacity:0.1;stroke-width:0.6;"/>
     </g>
     <g id="line2d_186">
      <g>
       <use style="stroke:#000000;stroke-width:0.6;" x="158.759272" xlink:href="#macf923dc08" y="172.963369"/>
      </g>
     </g>
    </g>
    <g id="ytick_66">
     <g id="line2d_187">
      <path clip-path="url(#p561b85005e)" d="M 158.759272 153.673423 
L 274.004794 153.673423 
" style="fill:none;stroke:#000000;stroke-linecap:square;stroke-opacity:0.1;stroke-width:0.6;"/>
     </g>
     <g id="line2d_188">
      <g>
       <use style="stroke:#000000;stroke-width:0.6;" x="158.759272" xlink:href="#macf923dc08" y="153.673423"/>
      </g>
     </g>
    </g>
    <g id="ytick_67">
     <g id="line2d_189">
      <path clip-path="url(#p561b85005e)" d="M 158.759272 134.383478 
L 274.004794 134.383478 
" style="fill:none;stroke:#000000;stroke-linecap:square;stroke-opacity:0.1;stroke-width:0.6;"/>
     </g>
     <g id="line2d_190">
      <g>
       <use style="stroke:#000000;stroke-width:0.6;" x="158.759272" xlink:href="#macf923dc08" y="134.383478"/>
      </g>
     </g>
    </g>
    <g id="ytick_68">
     <g id="line2d_191">
      <path clip-path="url(#p561b85005e)" d="M 158.759272 115.093532 
L 274.004794 115.093532 
" style="fill:none;stroke:#000000;stroke-linecap:square;stroke-opacity:0.1;stroke-width:0.6;"/>
     </g>
     <g id="line2d_192">
      <g>
       <use style="stroke:#000000;stroke-width:0.6;" x="158.759272" xlink:href="#macf923dc08" y="115.093532"/>
      </g>
     </g>
    </g>
    <g id="ytick_69">
     <g id="line2d_193">
      <g>
       <use style="stroke:#000000;stroke-width:0.48;" x="158.759272" xlink:href="#mddd0a29bd1" y="188.395325"/>
      </g>
     </g>
    </g>
    <g id="ytick_70">
     <g id="line2d_194">
      <g>
       <use style="stroke:#000000;stroke-width:0.48;" x="158.759272" xlink:href="#mddd0a29bd1" y="184.537336"/>
      </g>
     </g>
    </g>
    <g id="ytick_71">
     <g id="line2d_195">
      <g>
       <use style="stroke:#000000;stroke-width:0.48;" x="158.759272" xlink:href="#mddd0a29bd1" y="180.679347"/>
      </g>
     </g>
    </g>
    <g id="ytick_72">
     <g id="line2d_196">
      <g>
       <use style="stroke:#000000;stroke-width:0.48;" x="158.759272" xlink:href="#mddd0a29bd1" y="176.821358"/>
      </g>
     </g>
    </g>
    <g id="ytick_73">
     <g id="line2d_197">
      <g>
       <use style="stroke:#000000;stroke-width:0.48;" x="158.759272" xlink:href="#mddd0a29bd1" y="169.10538"/>
      </g>
     </g>
    </g>
    <g id="ytick_74">
     <g id="line2d_198">
      <g>
       <use style="stroke:#000000;stroke-width:0.48;" x="158.759272" xlink:href="#mddd0a29bd1" y="165.247391"/>
      </g>
     </g>
    </g>
    <g id="ytick_75">
     <g id="line2d_199">
      <g>
       <use style="stroke:#000000;stroke-width:0.48;" x="158.759272" xlink:href="#mddd0a29bd1" y="161.389402"/>
      </g>
     </g>
    </g>
    <g id="ytick_76">
     <g id="line2d_200">
      <g>
       <use style="stroke:#000000;stroke-width:0.48;" x="158.759272" xlink:href="#mddd0a29bd1" y="157.531412"/>
      </g>
     </g>
    </g>
    <g id="ytick_77">
     <g id="line2d_201">
      <g>
       <use style="stroke:#000000;stroke-width:0.48;" x="158.759272" xlink:href="#mddd0a29bd1" y="149.815434"/>
      </g>
     </g>
    </g>
    <g id="ytick_78">
     <g id="line2d_202">
      <g>
       <use style="stroke:#000000;stroke-width:0.48;" x="158.759272" xlink:href="#mddd0a29bd1" y="145.957445"/>
      </g>
     </g>
    </g>
    <g id="ytick_79">
     <g id="line2d_203">
      <g>
       <use style="stroke:#000000;stroke-width:0.48;" x="158.759272" xlink:href="#mddd0a29bd1" y="142.099456"/>
      </g>
     </g>
    </g>
    <g id="ytick_80">
     <g id="line2d_204">
      <g>
       <use style="stroke:#000000;stroke-width:0.48;" x="158.759272" xlink:href="#mddd0a29bd1" y="138.241467"/>
      </g>
     </g>
    </g>
    <g id="ytick_81">
     <g id="line2d_205">
      <g>
       <use style="stroke:#000000;stroke-width:0.48;" x="158.759272" xlink:href="#mddd0a29bd1" y="130.525489"/>
      </g>
     </g>
    </g>
    <g id="ytick_82">
     <g id="line2d_206">
      <g>
       <use style="stroke:#000000;stroke-width:0.48;" x="158.759272" xlink:href="#mddd0a29bd1" y="126.6675"/>
      </g>
     </g>
    </g>
    <g id="ytick_83">
     <g id="line2d_207">
      <g>
       <use style="stroke:#000000;stroke-width:0.48;" x="158.759272" xlink:href="#mddd0a29bd1" y="122.80951"/>
      </g>
     </g>
    </g>
    <g id="ytick_84">
     <g id="line2d_208">
      <g>
       <use style="stroke:#000000;stroke-width:0.48;" x="158.759272" xlink:href="#mddd0a29bd1" y="118.951521"/>
      </g>
     </g>
    </g>
   </g>
   <g id="patch_18">
    <path d="M 158.759272 192.253314 
L 158.759272 115.093532 
" style="fill:none;stroke:#000000;stroke-linecap:square;stroke-linejoin:miter;stroke-width:0.6;"/>
   </g>
   <g id="patch_19">
    <path d="M 274.004794 192.253314 
L 274.004794 115.093532 
" style="fill:none;stroke:#000000;stroke-linecap:square;stroke-linejoin:miter;stroke-width:0.6;"/>
   </g>
   <g id="patch_20">
    <path d="M 158.759272 192.253314 
L 274.004794 192.253314 
" style="fill:none;stroke:#000000;stroke-linecap:square;stroke-linejoin:miter;stroke-width:0.6;"/>
   </g>
   <g id="patch_21">
    <path d="M 158.759272 115.093532 
L 274.004794 115.093532 
" style="fill:none;stroke:#000000;stroke-linecap:square;stroke-linejoin:miter;stroke-width:0.6;"/>
   </g>
  </g>
  <g id="text_22">
   <!-- Effect of subplot properties on figure size -->
   <defs>
    <path d="M 62.40625 0 
L 7.90625 0 
L 7.90625 72.90625 
L 60.59375 72.90625 
L 60.59375 60.40625 
L 22.90625 60.40625 
L 22.90625 43.90625 
L 57.796875 43.90625 
L 57.796875 31.40625 
L 22.90625 31.40625 
L 22.90625 12.5 
L 62.40625 12.5 
z
" id="TeXGyreHeros-Bold-69"/>
    <path d="M 31.296875 43.59375 
L 23 43.59375 
L 23 0 
L 9 0 
L 9 43.59375 
L 1.40625 43.59375 
L 1.40625 52.90625 
L 9 52.90625 
L 9 59.40625 
Q 9 72.90625 22.796875 72.90625 
Q 26.90625 72.90625 30.796875 72.59375 
L 30.796875 62.09375 
Q 29 62.40625 26.796875 62.40625 
Q 23 62.40625 23 58.203125 
L 23 52.90625 
L 31.296875 52.90625 
z
" id="TeXGyreHeros-Bold-102"/>
    <path d="M 52.5 25 
L 52.40625 23.296875 
L 16.203125 23.296875 
Q 16.5 15.796875 19.296875 12.796875 
Q 22.09375 9.796875 27.40625 9.796875 
Q 36.40625 9.796875 38.09375 15.203125 
L 51.90625 15.203125 
Q 49.59375 7.40625 42.890625 3.25 
Q 36.203125 -0.90625 26.90625 -0.90625 
Q 15.296875 -0.90625 8.75 6.25 
Q 2.203125 13.40625 2.203125 26.296875 
Q 2.203125 39.796875 8.84375 47.34375 
Q 15.5 54.90625 27.203125 54.90625 
Q 39.09375 54.90625 45.796875 46.953125 
Q 52.5 39 52.5 25 
z
M 37.90625 32.59375 
Q 37.40625 38.296875 34.5 41.25 
Q 31.59375 44.203125 27 44.203125 
Q 17.796875 44.203125 16.40625 32.59375 
z
" id="TeXGyreHeros-Bold-101"/>
    <path d="M 52.203125 18.703125 
Q 51.203125 10 44.796875 4.546875 
Q 38.40625 -0.90625 28.703125 -0.90625 
Q 16.59375 -0.90625 10 6.1875 
Q 3.40625 13.296875 3.40625 26.59375 
Q 3.40625 40.296875 10.046875 47.59375 
Q 16.703125 54.90625 28.90625 54.90625 
Q 39 54.90625 45.25 49.296875 
Q 51.5 43.703125 52.203125 33.796875 
L 38.796875 33.796875 
Q 37.59375 39.09375 35.34375 41.34375 
Q 33.09375 43.59375 28.796875 43.59375 
Q 17.40625 43.59375 17.40625 26.59375 
Q 17.40625 18.796875 20.40625 14.59375 
Q 23.40625 10.40625 28.796875 10.40625 
Q 32.796875 10.40625 35.09375 12.40625 
Q 37.40625 14.40625 38.796875 18.703125 
z
" id="TeXGyreHeros-Bold-99"/>
    <path d="M 30.09375 0 
Q 29.5 0 26.640625 -0.203125 
Q 23.796875 -0.40625 22 -0.40625 
Q 15 -0.40625 11.640625 2.4375 
Q 8.296875 5.296875 8.296875 11.59375 
L 8.296875 43.59375 
L 1.40625 43.59375 
L 1.40625 52.90625 
L 8.296875 52.90625 
L 8.296875 67.40625 
L 22.296875 67.40625 
L 22.296875 52.90625 
L 30.09375 52.90625 
L 30.09375 43.59375 
L 22.296875 43.59375 
L 22.296875 15.40625 
Q 22.296875 11.796875 23.1875 10.640625 
Q 24.09375 9.5 26.90625 9.5 
Q 28 9.5 30.09375 9.796875 
z
" id="TeXGyreHeros-Bold-116"/>
    <path id="TeXGyreHeros-Bold-32"/>
    <path d="M 56.90625 26.59375 
Q 56.90625 13.703125 49.75 6.390625 
Q 42.59375 -0.90625 30.203125 -0.90625 
Q 17.703125 -0.90625 10.59375 6.390625 
Q 3.5 13.703125 3.5 27 
Q 3.5 40.203125 10.59375 47.546875 
Q 17.703125 54.90625 30.09375 54.90625 
Q 42.90625 54.90625 49.90625 47.546875 
Q 56.90625 40.203125 56.90625 26.59375 
z
M 42.90625 26.796875 
Q 42.90625 34.703125 39.453125 39.140625 
Q 36 43.59375 30.203125 43.59375 
Q 24.40625 43.59375 20.953125 39.140625 
Q 17.5 34.703125 17.5 27 
Q 17.5 19.296875 20.953125 14.84375 
Q 24.40625 10.40625 30.203125 10.40625 
Q 35.90625 10.40625 39.40625 14.84375 
Q 42.90625 19.296875 42.90625 26.796875 
z
" id="TeXGyreHeros-Bold-111"/>
    <path d="M 52 16 
Q 52 7.796875 45.890625 3.4375 
Q 39.796875 -0.90625 28.40625 -0.90625 
Q 3.5 -0.90625 2.90625 17.09375 
L 16.59375 17.09375 
Q 17.5 13 20 11.546875 
Q 22.5 10.09375 27.59375 10.09375 
Q 38 10.09375 38 14.703125 
Q 38 16.90625 33.296875 18.40625 
L 16.59375 23.59375 
Q 9.5 25.796875 7.140625 28.6875 
Q 4.796875 31.59375 4.796875 36.90625 
Q 4.796875 45.203125 10.75 50.046875 
Q 16.703125 54.90625 27 54.90625 
Q 37.90625 54.90625 44.09375 50.046875 
Q 50.296875 45.203125 50.5 36.59375 
L 37 36.59375 
Q 36.90625 43.90625 26.90625 43.90625 
Q 23.203125 43.90625 21 42.546875 
Q 18.796875 41.203125 18.796875 38.90625 
Q 18.796875 37.203125 19.796875 36.34375 
Q 20.796875 35.5 23.703125 34.703125 
L 41.40625 29.59375 
Q 52 26.5 52 16.703125 
z
" id="TeXGyreHeros-Bold-115"/>
    <path d="M 54.09375 0 
L 40.09375 0 
L 40.09375 7.09375 
Q 34.09375 -0.90625 23.90625 -0.90625 
Q 15.296875 -0.90625 10.546875 4 
Q 5.796875 8.90625 5.796875 17.796875 
L 5.796875 54 
L 19.796875 54 
L 19.796875 20.703125 
Q 19.796875 11 28.796875 11 
Q 33.90625 11 37 13.890625 
Q 40.09375 16.796875 40.09375 21.59375 
L 40.09375 54 
L 54.09375 54 
z
" id="TeXGyreHeros-Bold-117"/>
    <path d="M 57.5 26.296875 
Q 57.5 14.203125 51.046875 6.640625 
Q 44.59375 -0.90625 34.796875 -0.90625 
Q 25.09375 -0.90625 19.90625 6.203125 
L 19.90625 0 
L 5.90625 0 
L 5.90625 72.90625 
L 19.90625 72.90625 
L 19.90625 47 
Q 24.90625 54.90625 34.796875 54.90625 
Q 45.09375 54.90625 51.296875 46.546875 
Q 57.5 38.203125 57.5 26.296875 
z
M 43.5 26.90625 
Q 43.5 34.296875 40.203125 38.75 
Q 36.90625 43.203125 31.703125 43.203125 
Q 26.40625 43.203125 23.15625 38.84375 
Q 19.90625 34.5 19.90625 27.203125 
Q 19.90625 19.59375 23.09375 15.1875 
Q 26.296875 10.796875 31.703125 10.796875 
Q 36.90625 10.796875 40.203125 15.1875 
Q 43.5 19.59375 43.5 26.90625 
z
" id="TeXGyreHeros-Bold-98"/>
    <path d="M 57.40625 27 
Q 57.40625 14.796875 51 6.9375 
Q 44.59375 -0.90625 34.796875 -0.90625 
Q 24.40625 -0.90625 19.796875 7.203125 
L 19.796875 -21.796875 
L 5.796875 -21.796875 
L 5.796875 54 
L 19.796875 54 
L 19.796875 46 
Q 24.796875 54.90625 34.796875 54.90625 
Q 45.203125 54.90625 51.296875 47.09375 
Q 57.40625 39.296875 57.40625 27 
z
M 43.40625 26.796875 
Q 43.40625 34.40625 40.203125 38.796875 
Q 37 43.203125 31.59375 43.203125 
Q 26.296875 43.203125 23.046875 38.84375 
Q 19.796875 34.5 19.796875 27 
Q 19.796875 19.5 23.046875 15.140625 
Q 26.296875 10.796875 31.59375 10.796875 
Q 36.796875 10.796875 40.09375 15.140625 
Q 43.40625 19.5 43.40625 26.796875 
z
" id="TeXGyreHeros-Bold-112"/>
    <path d="M 20.703125 0 
L 6.703125 0 
L 6.703125 72.90625 
L 20.703125 72.90625 
z
" id="TeXGyreHeros-Bold-108"/>
    <path d="M 37 40.59375 
Q 34.5 41 32.59375 41 
Q 20.296875 41 20.296875 28.703125 
L 20.296875 0 
L 6.296875 0 
L 6.296875 54 
L 20.296875 54 
L 20.296875 43.40625 
Q 22.5 48.90625 26.5 51.90625 
Q 30.5 54.90625 35.296875 54.90625 
Q 36.203125 54.90625 37 54.796875 
z
" id="TeXGyreHeros-Bold-114"/>
    <path d="M 20.703125 0 
L 6.703125 0 
L 6.703125 54 
L 20.703125 54 
z
M 20.90625 60.5 
L 6.90625 60.5 
L 6.90625 74.5 
L 20.90625 74.5 
z
" id="TeXGyreHeros-Bold-105"/>
    <path d="M 54.59375 0 
L 40.59375 0 
L 40.59375 33.296875 
Q 40.59375 43 31.59375 43 
Q 26.5 43 23.390625 40.09375 
Q 20.296875 37.203125 20.296875 32.40625 
L 20.296875 0 
L 6.296875 0 
L 6.296875 54 
L 20.296875 54 
L 20.296875 46.203125 
Q 26.09375 54.90625 36.5 54.90625 
Q 45.09375 54.90625 49.84375 50 
Q 54.59375 45.09375 54.59375 36.203125 
z
" id="TeXGyreHeros-Bold-110"/>
    <path d="M 54.09375 -1.796875 
Q 54.09375 -11.296875 47.34375 -16.546875 
Q 40.59375 -21.796875 28.40625 -21.796875 
Q 17.5 -21.796875 11.09375 -17.5 
Q 4.703125 -13.203125 4.5 -6.5 
L 19 -6.5 
Q 20.703125 -12.796875 28.90625 -12.796875 
Q 34.203125 -12.796875 37.5 -9.75 
Q 40.796875 -6.703125 40.796875 -1.796875 
L 40.796875 6.203125 
Q 36.796875 2.203125 33.5 0.640625 
Q 30.203125 -0.90625 25.5 -0.90625 
Q 15.5 -0.90625 9.453125 6.5 
Q 3.40625 13.90625 3.40625 26.40625 
Q 3.40625 38.90625 9.75 46.90625 
Q 16.09375 54.90625 25.796875 54.90625 
Q 34.796875 54.90625 40.796875 45.703125 
L 40.796875 54 
L 54.09375 54 
z
M 41 26.59375 
Q 41 34 37.546875 38.59375 
Q 34.09375 43.203125 28.796875 43.203125 
Q 23.703125 43.203125 20.546875 38.703125 
Q 17.40625 34.203125 17.40625 26.59375 
Q 17.40625 19.296875 20.5 15.046875 
Q 23.59375 10.796875 28.59375 10.796875 
Q 34.09375 10.796875 37.546875 15.046875 
Q 41 19.296875 41 26.59375 
z
" id="TeXGyreHeros-Bold-103"/>
    <path d="M 46.796875 0 
L 2.09375 0 
L 2.09375 11.296875 
L 28.796875 42.703125 
L 3.90625 42.703125 
L 3.90625 54 
L 45.90625 54 
L 45.90625 42.703125 
L 19.40625 11.296875 
L 46.796875 11.296875 
z
" id="TeXGyreHeros-Bold-122"/>
   </defs>
   <g transform="translate(52.111537 11.95)scale(0.1 -0.1)">
    <use xlink:href="#TeXGyreHeros-Bold-69"/>
    <use x="66.699997" xlink:href="#TeXGyreHeros-Bold-102"/>
    <use x="99.999985" xlink:href="#TeXGyreHeros-Bold-102"/>
    <use x="133.299973" xlink:href="#TeXGyreHeros-Bold-101"/>
    <use x="188.899963" xlink:href="#TeXGyreHeros-Bold-99"/>
    <use x="244.499954" xlink:href="#TeXGyreHeros-Bold-116"/>
    <use x="277.799942" xlink:href="#TeXGyreHeros-Bold-32"/>
    <use x="305.59993" xlink:href="#TeXGyreHeros-Bold-111"/>
    <use x="366.699921" xlink:href="#TeXGyreHeros-Bold-102"/>
    <use x="399.999908" xlink:href="#TeXGyreHeros-Bold-32"/>
    <use x="427.799896" xlink:href="#TeXGyreHeros-Bold-115"/>
    <use x="483.399887" xlink:href="#TeXGyreHeros-Bold-117"/>
    <use x="544.499878" xlink:href="#TeXGyreHeros-Bold-98"/>
    <use x="605.599869" xlink:href="#TeXGyreHeros-Bold-112"/>
    <use x="666.69986" xlink:href="#TeXGyreHeros-Bold-108"/>
    <use x="694.499847" xlink:href="#TeXGyreHeros-Bold-111"/>
    <use x="755.599838" xlink:href="#TeXGyreHeros-Bold-116"/>
    <use x="788.899826" xlink:href="#TeXGyreHeros-Bold-32"/>
    <use x="816.699814" xlink:href="#TeXGyreHeros-Bold-112"/>
    <use x="877.799805" xlink:href="#TeXGyreHeros-Bold-114"/>
    <use x="916.699799" xlink:href="#TeXGyreHeros-Bold-111"/>
    <use x="977.799789" xlink:href="#TeXGyreHeros-Bold-112"/>
    <use x="1038.89978" xlink:href="#TeXGyreHeros-Bold-101"/>
    <use x="1094.499771" xlink:href="#TeXGyreHeros-Bold-114"/>
    <use x="1133.399765" xlink:href="#TeXGyreHeros-Bold-116"/>
    <use x="1166.699753" xlink:href="#TeXGyreHeros-Bold-105"/>
    <use x="1194.499741" xlink:href="#TeXGyreHeros-Bold-101"/>
    <use x="1250.099731" xlink:href="#TeXGyreHeros-Bold-115"/>
    <use x="1305.699722" xlink:href="#TeXGyreHeros-Bold-32"/>
    <use x="1333.49971" xlink:href="#TeXGyreHeros-Bold-111"/>
    <use x="1394.599701" xlink:href="#TeXGyreHeros-Bold-110"/>
    <use x="1455.699692" xlink:href="#TeXGyreHeros-Bold-32"/>
    <use x="1483.49968" xlink:href="#TeXGyreHeros-Bold-102"/>
    <use x="1516.799667" xlink:href="#TeXGyreHeros-Bold-105"/>
    <use x="1544.599655" xlink:href="#TeXGyreHeros-Bold-103"/>
    <use x="1605.699646" xlink:href="#TeXGyreHeros-Bold-117"/>
    <use x="1666.799637" xlink:href="#TeXGyreHeros-Bold-114"/>
    <use x="1705.699631" xlink:href="#TeXGyreHeros-Bold-101"/>
    <use x="1761.299622" xlink:href="#TeXGyreHeros-Bold-32"/>
    <use x="1789.099609" xlink:href="#TeXGyreHeros-Bold-115"/>
    <use x="1844.6996" xlink:href="#TeXGyreHeros-Bold-105"/>
    <use x="1872.499588" xlink:href="#TeXGyreHeros-Bold-122"/>
    <use x="1922.499573" xlink:href="#TeXGyreHeros-Bold-101"/>
   </g>
  </g>
 </g>
 <defs>
  <clipPath id="p205d5309d6">
   <rect height="77.159782" width="115.245522" x="28.012031" y="20.410469"/>
  </clipPath>
  <clipPath id="pf0dfd89f50">
   <rect height="77.159782" width="115.245522" x="158.759272" y="20.410469"/>
  </clipPath>
  <clipPath id="pcbc49a924b">
   <rect height="77.159782" width="115.245522" x="28.012031" y="115.093532"/>
  </clipPath>
  <clipPath id="p561b85005e">
   <rect height="77.159782" width="115.245522" x="158.759272" y="115.093532"/>
  </clipPath>
 </defs>
</svg>
