<?xml version="1.0" encoding="utf-8" standalone="no"?>
<!DOCTYPE svg PUBLIC "-//W3C//DTD SVG 1.1//EN"
  "http://www.w3.org/Graphics/SVG/1.1/DTD/svg11.dtd">
<!-- Created with matplotlib (https://matplotlib.org/) -->
<svg height="221.421538pt" version="1.1" viewBox="0 0 376.499568 221.421538" width="376.499568pt" xmlns="http://www.w3.org/2000/svg" xmlns:xlink="http://www.w3.org/1999/xlink">
 <defs>
  <style type="text/css">
*{stroke-linecap:butt;stroke-linejoin:round;}
  </style>
 </defs>
 <g id="figure_1">
  <g id="patch_1">
   <path d="M 0 221.421538 
L 376.499568 221.421538 
L 376.499568 0 
L 0 0 
z
" style="fill:#ffffff;"/>
  </g>
  <g id="axes_1">
   <g id="patch_2">
    <path d="M 32.283281 190.874976 
L 194.390565 190.874976 
L 194.390565 27.420312 
L 32.283281 27.420312 
z
" style="fill:#ffffff;"/>
   </g>
   <g id="matplotlib.axis_1">
    <g id="xtick_1">
     <g id="line2d_1">
      <path clip-path="url(#p49669ac688)" d="M 32.283281 190.874976 
L 32.283281 27.420312 
" style="fill:none;stroke:#000000;stroke-linecap:square;stroke-opacity:0.1;stroke-width:0.6;"/>
     </g>
     <g id="line2d_2">
      <defs>
       <path d="M 0 0 
L 0 4 
" id="m88dd211b42" style="stroke:#000000;stroke-width:0.6;"/>
      </defs>
      <g>
       <use style="stroke:#000000;stroke-width:0.6;" x="32.283281" xlink:href="#m88dd211b42" y="190.874976"/>
      </g>
     </g>
     <g id="text_1">
      <!-- 0 -->
      <defs>
       <path d="M 50.703125 34.09375 
Q 50.703125 16.703125 44.75 7.59375 
Q 38.796875 -1.5 27.5 -1.5 
Q 16.09375 -1.5 10.1875 7.640625 
Q 4.296875 16.796875 4.296875 34.6875 
Q 4.296875 52.59375 10.140625 61.75 
Q 16 70.90625 27.5 70.90625 
Q 50.703125 70.90625 50.703125 34.09375 
z
M 41.703125 34.90625 
Q 41.703125 63.09375 27.5 63.09375 
Q 13.296875 63.09375 13.296875 34.59375 
Q 13.296875 5.796875 27.296875 5.796875 
Q 34.703125 5.796875 38.203125 12.84375 
Q 41.703125 19.90625 41.703125 34.90625 
z
" id="TeXGyreHeros-Regular-48"/>
      </defs>
      <g transform="translate(29.781562 203.436538)scale(0.09 -0.09)">
       <use xlink:href="#TeXGyreHeros-Regular-48"/>
      </g>
     </g>
    </g>
    <g id="xtick_2">
     <g id="line2d_3">
      <path clip-path="url(#p49669ac688)" d="M 65.032227 190.874976 
L 65.032227 27.420312 
" style="fill:none;stroke:#000000;stroke-linecap:square;stroke-opacity:0.1;stroke-width:0.6;"/>
     </g>
     <g id="line2d_4">
      <g>
       <use style="stroke:#000000;stroke-width:0.6;" x="65.032227" xlink:href="#m88dd211b42" y="190.874976"/>
      </g>
     </g>
     <g id="text_2">
      <!-- 20 -->
      <defs>
       <path d="M 51.09375 50.09375 
Q 51.09375 36.703125 36.09375 28.703125 
L 26.09375 23.296875 
Q 19.59375 19.5 16.796875 16.296875 
Q 14 13.09375 13.296875 8.703125 
L 50.59375 8.703125 
L 50.59375 0 
L 3.40625 0 
Q 4 11.703125 8.09375 18.046875 
Q 12.203125 24.40625 23.296875 30.703125 
L 32.5 35.90625 
Q 42.09375 41.40625 42.09375 49.90625 
Q 42.09375 55.59375 38.09375 59.390625 
Q 34.09375 63.203125 28.09375 63.203125 
Q 21.40625 63.203125 17.84375 59.140625 
Q 14.296875 55.09375 13.796875 46.296875 
L 5 46.296875 
Q 5.703125 70.90625 28.40625 70.90625 
Q 38.40625 70.90625 44.75 65 
Q 51.09375 59.09375 51.09375 50.09375 
z
" id="TeXGyreHeros-Regular-50"/>
      </defs>
      <g transform="translate(60.02879 203.436538)scale(0.09 -0.09)">
       <use xlink:href="#TeXGyreHeros-Regular-50"/>
       <use x="55.599991" xlink:href="#TeXGyreHeros-Regular-48"/>
      </g>
     </g>
    </g>
    <g id="xtick_3">
     <g id="line2d_5">
      <path clip-path="url(#p49669ac688)" d="M 97.781174 190.874976 
L 97.781174 27.420312 
" style="fill:none;stroke:#000000;stroke-linecap:square;stroke-opacity:0.1;stroke-width:0.6;"/>
     </g>
     <g id="line2d_6">
      <g>
       <use style="stroke:#000000;stroke-width:0.6;" x="97.781174" xlink:href="#m88dd211b42" y="190.874976"/>
      </g>
     </g>
     <g id="text_3">
      <!-- 40 -->
      <defs>
       <path d="M 52 17 
L 41.5 17 
L 41.5 0 
L 32.703125 0 
L 32.703125 17 
L 2.796875 17 
L 2.796875 26.296875 
L 35 70.90625 
L 41.5 70.90625 
L 41.5 24.90625 
L 52 24.90625 
z
M 32.703125 24.90625 
L 32.703125 55.90625 
L 10.5 24.90625 
z
" id="TeXGyreHeros-Regular-52"/>
      </defs>
      <g transform="translate(92.777736 203.436538)scale(0.09 -0.09)">
       <use xlink:href="#TeXGyreHeros-Regular-52"/>
       <use x="55.599991" xlink:href="#TeXGyreHeros-Regular-48"/>
      </g>
     </g>
    </g>
    <g id="xtick_4">
     <g id="line2d_7">
      <path clip-path="url(#p49669ac688)" d="M 130.53012 190.874976 
L 130.53012 27.420312 
" style="fill:none;stroke:#000000;stroke-linecap:square;stroke-opacity:0.1;stroke-width:0.6;"/>
     </g>
     <g id="line2d_8">
      <g>
       <use style="stroke:#000000;stroke-width:0.6;" x="130.53012" xlink:href="#m88dd211b42" y="190.874976"/>
      </g>
     </g>
     <g id="text_4">
      <!-- 60 -->
      <defs>
       <path d="M 51.296875 22 
Q 51.296875 11.59375 44.796875 5.046875 
Q 38.296875 -1.5 28.09375 -1.5 
Q 4.296875 -1.5 4.296875 32.296875 
Q 4.296875 50.90625 10.84375 60.90625 
Q 17.40625 70.90625 29.703125 70.90625 
Q 37.796875 70.90625 43.140625 66 
Q 48.5 61.09375 49.796875 52.40625 
L 41 52.40625 
Q 39.90625 57.5 36.796875 60.296875 
Q 33.703125 63.09375 29.09375 63.09375 
Q 21.5 63.09375 17.453125 56.140625 
Q 13.40625 49.203125 13.296875 36.203125 
Q 19.09375 44.09375 29.59375 44.09375 
Q 39.203125 44.09375 45.25 38 
Q 51.296875 31.90625 51.296875 22 
z
M 42.296875 21.296875 
Q 42.296875 28.40625 38.59375 32.34375 
Q 34.90625 36.296875 28.5 36.296875 
Q 21.90625 36.296875 17.84375 32.34375 
Q 13.796875 28.40625 13.796875 21.796875 
Q 13.796875 15 17.890625 10.640625 
Q 22 6.296875 28.203125 6.296875 
Q 34.296875 6.296875 38.296875 10.5 
Q 42.296875 14.703125 42.296875 21.296875 
z
" id="TeXGyreHeros-Regular-54"/>
      </defs>
      <g transform="translate(125.526682 203.436538)scale(0.09 -0.09)">
       <use xlink:href="#TeXGyreHeros-Regular-54"/>
       <use x="55.599991" xlink:href="#TeXGyreHeros-Regular-48"/>
      </g>
     </g>
    </g>
    <g id="xtick_5">
     <g id="line2d_9">
      <path clip-path="url(#p49669ac688)" d="M 163.279066 190.874976 
L 163.279066 27.420312 
" style="fill:none;stroke:#000000;stroke-linecap:square;stroke-opacity:0.1;stroke-width:0.6;"/>
     </g>
     <g id="line2d_10">
      <g>
       <use style="stroke:#000000;stroke-width:0.6;" x="163.279066" xlink:href="#m88dd211b42" y="190.874976"/>
      </g>
     </g>
     <g id="text_5">
      <!-- 80 -->
      <defs>
       <path d="M 51.296875 20 
Q 51.296875 10.40625 44.640625 4.453125 
Q 38 -1.5 27.5 -1.5 
Q 16.90625 -1.5 10.296875 4.453125 
Q 3.703125 10.40625 3.703125 20.09375 
Q 3.703125 31.5 15.796875 37.296875 
Q 10.40625 40.703125 8.296875 43.890625 
Q 6.203125 47.09375 6.203125 52 
Q 6.203125 60.296875 12.140625 65.59375 
Q 18.09375 70.90625 27.5 70.90625 
Q 36.90625 70.90625 42.84375 65.59375 
Q 48.796875 60.296875 48.796875 52 
Q 48.796875 47 46.6875 43.796875 
Q 44.59375 40.59375 39.09375 37.296875 
Q 51.296875 31.5 51.296875 20 
z
M 39.796875 51.796875 
Q 39.796875 57 36.4375 60.046875 
Q 33.09375 63.09375 27.5 63.09375 
Q 21.90625 63.09375 18.546875 60.046875 
Q 15.203125 57 15.203125 51.90625 
Q 15.203125 46.90625 18.546875 43.84375 
Q 21.90625 40.796875 27.5 40.796875 
Q 33 40.796875 36.390625 43.796875 
Q 39.796875 46.796875 39.796875 51.796875 
z
M 42.296875 19.90625 
Q 42.296875 26.09375 38.25 29.75 
Q 34.203125 33.40625 27.5 33.40625 
Q 20.796875 33.40625 16.75 29.75 
Q 12.703125 26.09375 12.703125 19.890625 
Q 12.703125 13.703125 16.75 10 
Q 20.796875 6.296875 27.296875 6.296875 
Q 34.09375 6.296875 38.1875 9.9375 
Q 42.296875 13.59375 42.296875 19.90625 
z
" id="TeXGyreHeros-Regular-56"/>
      </defs>
      <g transform="translate(158.275629 203.436538)scale(0.09 -0.09)">
       <use xlink:href="#TeXGyreHeros-Regular-56"/>
       <use x="55.599991" xlink:href="#TeXGyreHeros-Regular-48"/>
      </g>
     </g>
    </g>
    <g id="text_6">
     <!-- x axis -->
     <defs>
      <path d="M 47.296875 0 
L 37.59375 0 
L 24.5 20.09375 
L 11.203125 0 
L 1.703125 0 
L 20.203125 26.703125 
L 2.703125 52.40625 
L 12.203125 52.40625 
L 24.796875 33.40625 
L 37.40625 52.40625 
L 46.796875 52.40625 
L 29.203125 27.09375 
z
" id="TeXGyreHeros-Regular-120"/>
      <path id="TeXGyreHeros-Regular-32"/>
      <path d="M 53.5 0.203125 
Q 50 -0.703125 47.796875 -0.703125 
Q 44.703125 -0.703125 42.296875 1.25 
Q 39.90625 3.203125 39.203125 6.203125 
Q 32 -1.5 21.40625 -1.5 
Q 13.40625 -1.5 8.796875 2.5 
Q 4.203125 6.5 4.203125 13.59375 
Q 4.203125 23.40625 13.40625 27.203125 
Q 15.90625 28.203125 18.703125 28.75 
Q 21.5 29.296875 30.203125 30.40625 
Q 35.09375 31 37 32.296875 
Q 38.90625 33.59375 38.90625 36.203125 
L 38.90625 38.40625 
Q 38.90625 42.203125 35.84375 44.203125 
Q 32.796875 46.203125 27.203125 46.203125 
Q 21.40625 46.203125 18.40625 43.953125 
Q 15.40625 41.703125 14.90625 36.90625 
L 6.5 36.90625 
Q 7.203125 53.90625 27.5 53.90625 
Q 37.203125 53.90625 42.203125 50.25 
Q 47.203125 46.59375 47.203125 39.59375 
L 47.203125 10.40625 
Q 47.203125 6.296875 51.703125 6.296875 
Q 52.59375 6.296875 53.5 6.5 
z
M 38.90625 18.09375 
L 38.90625 25.90625 
Q 35.59375 24.40625 25.5 23 
Q 18.703125 22 15.796875 19.953125 
Q 12.90625 17.90625 12.90625 13.796875 
Q 12.90625 5.796875 23.203125 5.796875 
Q 29.5 5.796875 34.203125 9.25 
Q 38.90625 12.703125 38.90625 18.09375 
z
" id="TeXGyreHeros-Regular-97"/>
      <path d="M 15.296875 0 
L 7 0 
L 7 52.40625 
L 15.296875 52.40625 
z
M 16.40625 60.296875 
L 6 60.296875 
L 6 70.703125 
L 16.40625 70.703125 
z
" id="TeXGyreHeros-Regular-105"/>
      <path d="M 45.90625 14.703125 
Q 45.90625 7.203125 40.046875 2.84375 
Q 34.203125 -1.5 24.296875 -1.5 
Q 14 -1.5 8.84375 2.75 
Q 3.703125 7 3.40625 16 
L 12.203125 16 
Q 13 10.296875 16 8.25 
Q 19 6.203125 25 6.203125 
Q 30.5 6.203125 33.84375 8.296875 
Q 37.203125 10.40625 37.203125 14 
Q 37.203125 16.796875 35.34375 18.296875 
Q 33.5 19.796875 29.09375 20.90625 
L 21.296875 22.796875 
Q 12 25 8.34375 28.34375 
Q 4.703125 31.703125 4.703125 37.90625 
Q 4.703125 45.203125 10.203125 49.546875 
Q 15.703125 53.90625 24.796875 53.90625 
Q 33.90625 53.90625 38.796875 49.703125 
Q 43.703125 45.5 43.796875 37.796875 
L 35 37.796875 
Q 34.703125 46.203125 24.5 46.203125 
Q 19.40625 46.203125 16.40625 44.046875 
Q 13.40625 41.90625 13.40625 38.296875 
Q 13.40625 35.5 15.703125 33.75 
Q 18 32 23.09375 30.796875 
L 31.09375 28.90625 
Q 39 27 42.453125 23.75 
Q 45.90625 20.5 45.90625 14.703125 
z
" id="TeXGyreHeros-Regular-115"/>
     </defs>
     <g transform="translate(189.388846 214.95982)scale(0.09 -0.09)">
      <use xlink:href="#TeXGyreHeros-Regular-120"/>
      <use x="49.999985" xlink:href="#TeXGyreHeros-Regular-32"/>
      <use x="77.799973" xlink:href="#TeXGyreHeros-Regular-97"/>
      <use x="133.399963" xlink:href="#TeXGyreHeros-Regular-120"/>
      <use x="183.399948" xlink:href="#TeXGyreHeros-Regular-105"/>
      <use x="205.599945" xlink:href="#TeXGyreHeros-Regular-115"/>
     </g>
    </g>
   </g>
   <g id="matplotlib.axis_2">
    <g id="ytick_1">
     <g id="line2d_11">
      <path clip-path="url(#p49669ac688)" d="M 32.283281 190.387148 
L 194.390565 190.387148 
" style="fill:none;stroke:#000000;stroke-linecap:square;stroke-opacity:0.1;stroke-width:0.6;"/>
     </g>
     <g id="line2d_12">
      <defs>
       <path d="M 0 0 
L -4 0 
" id="m70429f2693" style="stroke:#000000;stroke-width:0.6;"/>
      </defs>
      <g>
       <use style="stroke:#000000;stroke-width:0.6;" x="32.283281" xlink:href="#m70429f2693" y="190.387148"/>
      </g>
     </g>
     <g id="text_7">
      <!-- −6 -->
      <defs>
       <path d="M 51.59375 21.59375 
L 6.796875 21.59375 
L 6.796875 28.40625 
L 51.59375 28.40625 
z
" id="TeXGyreHeros-Regular-8722"/>
      </defs>
      <g transform="translate(16.023281 193.66793)scale(0.09 -0.09)">
       <use xlink:href="#TeXGyreHeros-Regular-8722"/>
       <use x="58.399994" xlink:href="#TeXGyreHeros-Regular-54"/>
      </g>
     </g>
    </g>
    <g id="ytick_2">
     <g id="line2d_13">
      <path clip-path="url(#p49669ac688)" d="M 32.283281 165.773112 
L 194.390565 165.773112 
" style="fill:none;stroke:#000000;stroke-linecap:square;stroke-opacity:0.1;stroke-width:0.6;"/>
     </g>
     <g id="line2d_14">
      <g>
       <use style="stroke:#000000;stroke-width:0.6;" x="32.283281" xlink:href="#m70429f2693" y="165.773112"/>
      </g>
     </g>
     <g id="text_8">
      <!-- −4 -->
      <g transform="translate(16.023281 169.053893)scale(0.09 -0.09)">
       <use xlink:href="#TeXGyreHeros-Regular-8722"/>
       <use x="58.399994" xlink:href="#TeXGyreHeros-Regular-52"/>
      </g>
     </g>
    </g>
    <g id="ytick_3">
     <g id="line2d_15">
      <path clip-path="url(#p49669ac688)" d="M 32.283281 141.159075 
L 194.390565 141.159075 
" style="fill:none;stroke:#000000;stroke-linecap:square;stroke-opacity:0.1;stroke-width:0.6;"/>
     </g>
     <g id="line2d_16">
      <g>
       <use style="stroke:#000000;stroke-width:0.6;" x="32.283281" xlink:href="#m70429f2693" y="141.159075"/>
      </g>
     </g>
     <g id="text_9">
      <!-- −2 -->
      <g transform="translate(16.023281 144.439856)scale(0.09 -0.09)">
       <use xlink:href="#TeXGyreHeros-Regular-8722"/>
       <use x="58.399994" xlink:href="#TeXGyreHeros-Regular-50"/>
      </g>
     </g>
    </g>
    <g id="ytick_4">
     <g id="line2d_17">
      <path clip-path="url(#p49669ac688)" d="M 32.283281 116.545038 
L 194.390565 116.545038 
" style="fill:none;stroke:#000000;stroke-linecap:square;stroke-opacity:0.1;stroke-width:0.6;"/>
     </g>
     <g id="line2d_18">
      <g>
       <use style="stroke:#000000;stroke-width:0.6;" x="32.283281" xlink:href="#m70429f2693" y="116.545038"/>
      </g>
     </g>
     <g id="text_10">
      <!-- 0 -->
      <g transform="translate(21.279844 119.825819)scale(0.09 -0.09)">
       <use xlink:href="#TeXGyreHeros-Regular-48"/>
      </g>
     </g>
    </g>
    <g id="ytick_5">
     <g id="line2d_19">
      <path clip-path="url(#p49669ac688)" d="M 32.283281 91.931001 
L 194.390565 91.931001 
" style="fill:none;stroke:#000000;stroke-linecap:square;stroke-opacity:0.1;stroke-width:0.6;"/>
     </g>
     <g id="line2d_20">
      <g>
       <use style="stroke:#000000;stroke-width:0.6;" x="32.283281" xlink:href="#m70429f2693" y="91.931001"/>
      </g>
     </g>
     <g id="text_11">
      <!-- 2 -->
      <g transform="translate(21.279844 95.211782)scale(0.09 -0.09)">
       <use xlink:href="#TeXGyreHeros-Regular-50"/>
      </g>
     </g>
    </g>
    <g id="ytick_6">
     <g id="line2d_21">
      <path clip-path="url(#p49669ac688)" d="M 32.283281 67.316964 
L 194.390565 67.316964 
" style="fill:none;stroke:#000000;stroke-linecap:square;stroke-opacity:0.1;stroke-width:0.6;"/>
     </g>
     <g id="line2d_22">
      <g>
       <use style="stroke:#000000;stroke-width:0.6;" x="32.283281" xlink:href="#m70429f2693" y="67.316964"/>
      </g>
     </g>
     <g id="text_12">
      <!-- 4 -->
      <g transform="translate(21.279844 70.597746)scale(0.09 -0.09)">
       <use xlink:href="#TeXGyreHeros-Regular-52"/>
      </g>
     </g>
    </g>
    <g id="ytick_7">
     <g id="line2d_23">
      <path clip-path="url(#p49669ac688)" d="M 32.283281 42.702927 
L 194.390565 42.702927 
" style="fill:none;stroke:#000000;stroke-linecap:square;stroke-opacity:0.1;stroke-width:0.6;"/>
     </g>
     <g id="line2d_24">
      <g>
       <use style="stroke:#000000;stroke-width:0.6;" x="32.283281" xlink:href="#m70429f2693" y="42.702927"/>
      </g>
     </g>
     <g id="text_13">
      <!-- 6 -->
      <g transform="translate(21.279844 45.983709)scale(0.09 -0.09)">
       <use xlink:href="#TeXGyreHeros-Regular-54"/>
      </g>
     </g>
    </g>
    <g id="ytick_8">
     <g id="line2d_25">
      <defs>
       <path d="M 0 0 
L -2 0 
" id="m44618230ad" style="stroke:#000000;stroke-width:0.48;"/>
      </defs>
      <g>
       <use style="stroke:#000000;stroke-width:0.48;" x="32.283281" xlink:href="#m44618230ad" y="184.233639"/>
      </g>
     </g>
    </g>
    <g id="ytick_9">
     <g id="line2d_26">
      <g>
       <use style="stroke:#000000;stroke-width:0.48;" x="32.283281" xlink:href="#m44618230ad" y="178.08013"/>
      </g>
     </g>
    </g>
    <g id="ytick_10">
     <g id="line2d_27">
      <g>
       <use style="stroke:#000000;stroke-width:0.48;" x="32.283281" xlink:href="#m44618230ad" y="171.926621"/>
      </g>
     </g>
    </g>
    <g id="ytick_11">
     <g id="line2d_28">
      <g>
       <use style="stroke:#000000;stroke-width:0.48;" x="32.283281" xlink:href="#m44618230ad" y="159.619602"/>
      </g>
     </g>
    </g>
    <g id="ytick_12">
     <g id="line2d_29">
      <g>
       <use style="stroke:#000000;stroke-width:0.48;" x="32.283281" xlink:href="#m44618230ad" y="153.466093"/>
      </g>
     </g>
    </g>
    <g id="ytick_13">
     <g id="line2d_30">
      <g>
       <use style="stroke:#000000;stroke-width:0.48;" x="32.283281" xlink:href="#m44618230ad" y="147.312584"/>
      </g>
     </g>
    </g>
    <g id="ytick_14">
     <g id="line2d_31">
      <g>
       <use style="stroke:#000000;stroke-width:0.48;" x="32.283281" xlink:href="#m44618230ad" y="135.005566"/>
      </g>
     </g>
    </g>
    <g id="ytick_15">
     <g id="line2d_32">
      <g>
       <use style="stroke:#000000;stroke-width:0.48;" x="32.283281" xlink:href="#m44618230ad" y="128.852056"/>
      </g>
     </g>
    </g>
    <g id="ytick_16">
     <g id="line2d_33">
      <g>
       <use style="stroke:#000000;stroke-width:0.48;" x="32.283281" xlink:href="#m44618230ad" y="122.698547"/>
      </g>
     </g>
    </g>
    <g id="ytick_17">
     <g id="line2d_34">
      <g>
       <use style="stroke:#000000;stroke-width:0.48;" x="32.283281" xlink:href="#m44618230ad" y="110.391529"/>
      </g>
     </g>
    </g>
    <g id="ytick_18">
     <g id="line2d_35">
      <g>
       <use style="stroke:#000000;stroke-width:0.48;" x="32.283281" xlink:href="#m44618230ad" y="104.238019"/>
      </g>
     </g>
    </g>
    <g id="ytick_19">
     <g id="line2d_36">
      <g>
       <use style="stroke:#000000;stroke-width:0.48;" x="32.283281" xlink:href="#m44618230ad" y="98.08451"/>
      </g>
     </g>
    </g>
    <g id="ytick_20">
     <g id="line2d_37">
      <g>
       <use style="stroke:#000000;stroke-width:0.48;" x="32.283281" xlink:href="#m44618230ad" y="85.777492"/>
      </g>
     </g>
    </g>
    <g id="ytick_21">
     <g id="line2d_38">
      <g>
       <use style="stroke:#000000;stroke-width:0.48;" x="32.283281" xlink:href="#m44618230ad" y="79.623983"/>
      </g>
     </g>
    </g>
    <g id="ytick_22">
     <g id="line2d_39">
      <g>
       <use style="stroke:#000000;stroke-width:0.48;" x="32.283281" xlink:href="#m44618230ad" y="73.470473"/>
      </g>
     </g>
    </g>
    <g id="ytick_23">
     <g id="line2d_40">
      <g>
       <use style="stroke:#000000;stroke-width:0.48;" x="32.283281" xlink:href="#m44618230ad" y="61.163455"/>
      </g>
     </g>
    </g>
    <g id="ytick_24">
     <g id="line2d_41">
      <g>
       <use style="stroke:#000000;stroke-width:0.48;" x="32.283281" xlink:href="#m44618230ad" y="55.009946"/>
      </g>
     </g>
    </g>
    <g id="ytick_25">
     <g id="line2d_42">
      <g>
       <use style="stroke:#000000;stroke-width:0.48;" x="32.283281" xlink:href="#m44618230ad" y="48.856437"/>
      </g>
     </g>
    </g>
    <g id="ytick_26">
     <g id="line2d_43">
      <g>
       <use style="stroke:#000000;stroke-width:0.48;" x="32.283281" xlink:href="#m44618230ad" y="36.549418"/>
      </g>
     </g>
    </g>
    <g id="ytick_27">
     <g id="line2d_44">
      <g>
       <use style="stroke:#000000;stroke-width:0.48;" x="32.283281" xlink:href="#m44618230ad" y="30.395909"/>
      </g>
     </g>
    </g>
    <g id="text_14">
     <!-- y axis -->
     <defs>
      <path d="M 47.796875 52.40625 
L 24.5 -11 
Q 20.5 -21.796875 11 -21.796875 
Q 7.90625 -21.796875 5.40625 -20.5 
L 5.40625 -13 
Q 8.09375 -13.59375 9.796875 -13.59375 
Q 12.5 -13.59375 13.953125 -12.4375 
Q 15.40625 -11.296875 16.5 -8.5 
L 19.703125 -0.203125 
L 2 52.40625 
L 10.90625 52.40625 
L 24.296875 11.59375 
L 38.796875 52.40625 
z
" id="TeXGyreHeros-Regular-121"/>
     </defs>
     <g transform="translate(11.061562 120.649363)rotate(-90)scale(0.09 -0.09)">
      <use xlink:href="#TeXGyreHeros-Regular-121"/>
      <use x="49.999985" xlink:href="#TeXGyreHeros-Regular-32"/>
      <use x="77.799973" xlink:href="#TeXGyreHeros-Regular-97"/>
      <use x="133.399963" xlink:href="#TeXGyreHeros-Regular-120"/>
      <use x="183.399948" xlink:href="#TeXGyreHeros-Regular-105"/>
      <use x="205.599945" xlink:href="#TeXGyreHeros-Regular-115"/>
     </g>
    </g>
   </g>
   <g id="line2d_45">
    <path clip-path="url(#p49669ac688)" d="M 32.283281 128.425585 
L 33.920729 137.134273 
L 35.558176 129.302024 
L 37.195623 134.579779 
L 38.83307 125.236734 
L 40.470518 121.535075 
L 42.107965 110.608359 
L 43.745412 102.576631 
L 45.38286 102.160303 
L 47.020307 100.943536 
L 48.657754 96.874025 
L 50.295202 86.869365 
L 51.932649 96.010913 
L 53.570096 104.127188 
L 55.207544 103.988562 
L 56.844991 105.493297 
L 58.482438 106.826454 
L 60.119886 111.754957 
L 61.757333 110.995343 
L 63.39478 119.385521 
L 65.032227 127.299903 
L 66.669675 121.75327 
L 68.307122 131.613151 
L 69.944569 124.967608 
L 71.582017 129.211524 
L 73.219464 118.125755 
L 74.856911 123.445874 
L 76.494359 116.193485 
L 78.131806 123.337058 
L 79.769253 133.345226 
L 81.406701 127.060375 
L 83.044148 128.793283 
L 84.681595 130.064302 
L 86.319043 124.083126 
L 87.95649 121.416375 
L 89.593937 122.548699 
L 91.231384 117.070778 
L 92.868832 116.531052 
L 94.506279 125.175572 
L 96.143726 126.665847 
L 97.781174 137.580415 
L 99.418621 128.86487 
L 101.056068 135.806174 
L 102.693516 137.423767 
L 104.330963 131.065056 
L 105.96841 134.555625 
L 107.605858 143.9216 
L 109.243305 137.795702 
L 110.880752 130.53013 
L 112.518199 136.807343 
L 114.155647 141.459203 
L 115.793094 151.108513 
L 117.430541 156.79433 
L 119.067989 146.996038 
L 120.705436 149.692513 
L 122.342883 138.100191 
L 123.980331 144.865207 
L 125.617778 135.776769 
L 127.255225 130.43573 
L 128.892673 135.138805 
L 130.53012 144.724805 
L 132.167567 156.982252 
L 133.805015 166.137525 
L 135.442462 176.081884 
L 137.079909 179.875216 
L 138.717356 172.592066 
L 140.354804 164.22341 
L 141.992251 171.662843 
L 143.629698 160.418376 
L 145.267146 155.068384 
L 146.904593 144.49294 
L 148.54204 147.884618 
L 150.179488 147.574583 
L 151.816935 137.095518 
L 153.454382 146.841696 
L 155.09183 145.574154 
L 156.729277 134.962575 
L 158.366724 128.13501 
L 160.004172 133.811597 
L 161.641619 141.149523 
L 163.279066 132.081712 
L 164.916513 134.690302 
L 166.553961 136.880548 
L 168.191408 135.396331 
L 169.828855 126.044578 
L 171.466303 132.693913 
L 173.10375 129.829108 
L 174.741197 141.144856 
L 176.378645 144.85574 
L 178.016092 152.305602 
L 179.653539 154.58673 
L 181.290987 159.473853 
L 182.928434 166.583756 
L 184.565881 167.968407 
L 186.203328 178.785506 
L 187.840776 171.256076 
L 189.478223 176.502916 
L 191.11567 176.787119 
L 192.753118 167.539971 
L 194.390565 175.171168 
" style="fill:none;stroke:#0072b2;stroke-linecap:square;stroke-width:2;"/>
   </g>
   <g id="line2d_46">
    <path clip-path="url(#p49669ac688)" d="M 32.283281 125.718707 
L 33.920729 127.758121 
L 35.558176 135.517946 
L 37.195623 134.153523 
L 38.83307 131.186256 
L 40.470518 132.281673 
L 42.107965 123.627638 
L 43.745412 123.95722 
L 45.38286 134.948721 
L 47.020307 144.505248 
L 48.657754 147.710325 
L 50.295202 142.109101 
L 51.932649 144.179802 
L 53.570096 149.082287 
L 55.207544 144.28521 
L 56.844991 133.406837 
L 58.482438 138.144417 
L 60.119886 134.205781 
L 61.757333 130.620254 
L 63.39478 142.244219 
L 65.032227 149.63725 
L 66.669675 153.857859 
L 68.307122 153.367021 
L 69.944569 156.01882 
L 71.582017 155.230175 
L 73.219464 146.990833 
L 74.856911 154.841796 
L 76.494359 156.47467 
L 78.131806 146.372386 
L 79.769253 145.066885 
L 81.406701 154.1684 
L 83.044148 160.063392 
L 84.681595 153.819075 
L 86.319043 150.862571 
L 87.95649 149.022067 
L 89.593937 145.488303 
L 91.231384 156.43144 
L 92.868832 168.376796 
L 94.506279 159.825411 
L 96.143726 149.887788 
L 97.781174 153.514351 
L 99.418621 143.254012 
L 101.056068 132.848934 
L 102.693516 131.977782 
L 104.330963 123.725646 
L 105.96841 112.528533 
L 107.605858 106.51919 
L 109.243305 116.235466 
L 110.880752 108.06441 
L 112.518199 108.998091 
L 114.155647 101.56282 
L 115.793094 104.812198 
L 117.430541 92.86175 
L 119.067989 105.082335 
L 120.705436 104.634457 
L 122.342883 109.811745 
L 123.980331 121.861505 
L 125.617778 113.908931 
L 127.255225 121.545461 
L 128.892673 114.114356 
L 130.53012 123.745812 
L 132.167567 131.547699 
L 133.805015 126.65752 
L 135.442462 114.93515 
L 137.079909 122.689487 
L 138.717356 134.72767 
L 140.354804 144.678393 
L 141.992251 145.96727 
L 143.629698 145.312529 
L 145.267146 138.288968 
L 146.904593 135.328448 
L 148.54204 132.622099 
L 150.179488 122.865508 
L 151.816935 113.805867 
L 153.454382 113.667111 
L 155.09183 104.34016 
L 156.729277 110.406019 
L 158.366724 114.507308 
L 160.004172 119.301511 
L 161.641619 109.035657 
L 163.279066 115.587102 
L 164.916513 106.456223 
L 166.553961 96.260324 
L 168.191408 94.750759 
L 169.828855 84.569327 
L 171.466303 82.61308 
L 173.10375 83.570029 
L 174.741197 80.687278 
L 176.378645 92.40239 
L 178.016092 98.59225 
L 179.653539 106.061279 
L 181.290987 110.894503 
L 182.928434 121.59342 
L 184.565881 121.296086 
L 186.203328 119.044435 
L 187.840776 129.856734 
L 189.478223 126.842644 
L 191.11567 134.613444 
L 192.753118 134.568884 
L 194.390565 125.709485 
" style="fill:none;stroke:#d55e00;stroke-linecap:square;stroke-width:2;"/>
   </g>
   <g id="line2d_47">
    <path clip-path="url(#p49669ac688)" d="M 32.283281 118.920905 
L 33.920729 122.978976 
L 35.558176 134.207737 
L 37.195623 133.108997 
L 38.83307 135.432205 
L 40.470518 132.17263 
L 42.107965 128.894217 
L 43.745412 124.941668 
L 45.38286 122.368615 
L 47.020307 125.05685 
L 48.657754 127.49416 
L 50.295202 131.435395 
L 51.932649 133.660262 
L 53.570096 123.93985 
L 55.207544 113.848142 
L 56.844991 117.805068 
L 58.482438 116.521962 
L 60.119886 105.66409 
L 61.757333 110.404171 
L 63.39478 113.05246 
L 65.032227 119.85003 
L 66.669675 121.937682 
L 68.307122 125.870651 
L 69.944569 128.71675 
L 71.582017 122.066494 
L 73.219464 124.523336 
L 74.856911 126.336881 
L 76.494359 122.293124 
L 78.131806 124.359219 
L 79.769253 114.453077 
L 81.406701 111.91526 
L 83.044148 115.675498 
L 84.681595 105.983599 
L 86.319043 113.648208 
L 87.95649 124.855042 
L 89.593937 137.099462 
L 91.231384 148.856846 
L 92.868832 155.497384 
L 94.506279 152.790784 
L 96.143726 142.512412 
L 97.781174 153.825053 
L 99.418621 157.78888 
L 101.056068 166.828044 
L 102.693516 157.546669 
L 104.330963 153.992952 
L 105.96841 161.692669 
L 107.605858 164.250699 
L 109.243305 169.346865 
L 110.880752 171.380573 
L 112.518199 177.959548 
L 114.155647 180.496106 
L 115.793094 172.165463 
L 117.430541 178.296062 
L 119.067989 178.773748 
L 120.705436 169.975071 
L 122.342883 176.288132 
L 123.980331 167.751661 
L 125.617778 157.672547 
L 127.255225 164.557044 
L 128.892673 157.304106 
L 130.53012 160.515777 
L 132.167567 157.677131 
L 133.805015 150.532203 
L 135.442462 152.166234 
L 137.079909 147.009642 
L 138.717356 137.462604 
L 140.354804 130.484222 
L 141.992251 123.825909 
L 143.629698 126.35545 
L 145.267146 124.829482 
L 146.904593 115.198444 
L 148.54204 125.291324 
L 150.179488 116.603725 
L 151.816935 115.305533 
L 153.454382 109.725337 
L 155.09183 107.089173 
L 156.729277 105.145475 
L 158.366724 106.752933 
L 160.004172 115.126851 
L 161.641619 111.111501 
L 163.279066 117.953306 
L 164.916513 110.623677 
L 166.553961 101.350608 
L 168.191408 92.268438 
L 169.828855 101.985332 
L 171.466303 97.048324 
L 173.10375 102.702504 
L 174.741197 113.447155 
L 176.378645 103.566127 
L 178.016092 108.861154 
L 179.653539 107.196824 
L 181.290987 109.974852 
L 182.928434 104.015087 
L 184.565881 99.032472 
L 186.203328 101.242376 
L 187.840776 90.206846 
L 189.478223 79.350057 
L 191.11567 83.746485 
L 192.753118 91.330981 
L 194.390565 102.388799 
" style="fill:none;stroke:#009e73;stroke-linecap:square;stroke-width:2;"/>
   </g>
   <g id="line2d_48">
    <path clip-path="url(#p49669ac688)" d="M 32.283281 124.214826 
L 33.920729 134.682716 
L 35.558176 125.801143 
L 37.195623 117.913543 
L 38.83307 123.920682 
L 40.470518 115.947169 
L 42.107965 118.960776 
L 43.745412 128.650242 
L 45.38286 135.431924 
L 47.020307 142.756456 
L 48.657754 138.978187 
L 50.295202 137.332939 
L 51.932649 129.774521 
L 53.570096 121.806369 
L 55.207544 122.390818 
L 56.844991 124.760126 
L 58.482438 128.377581 
L 60.119886 130.199535 
L 61.757333 135.491356 
L 63.39478 141.829459 
L 65.032227 132.959134 
L 66.669675 131.15901 
L 68.307122 129.847405 
L 69.944569 118.346742 
L 71.582017 119.487519 
L 73.219464 122.021622 
L 74.856911 130.912355 
L 76.494359 136.440197 
L 78.131806 138.441151 
L 79.769253 141.061291 
L 81.406701 140.050173 
L 83.044148 144.559069 
L 84.681595 148.48413 
L 86.319043 139.585865 
L 87.95649 128.049955 
L 89.593937 127.087869 
L 91.231384 138.535622 
L 92.868832 130.054877 
L 94.506279 130.132592 
L 96.143726 138.6103 
L 97.781174 132.558701 
L 99.418621 121.844589 
L 101.056068 116.247056 
L 102.693516 114.847111 
L 104.330963 110.707087 
L 105.96841 104.508379 
L 107.605858 93.591356 
L 109.243305 88.530074 
L 110.880752 100.028242 
L 112.518199 99.072029 
L 114.155647 103.781137 
L 115.793094 94.670382 
L 117.430541 95.497053 
L 119.067989 91.186079 
L 120.705436 98.163033 
L 122.342883 91.449838 
L 123.980331 96.207542 
L 125.617778 100.20255 
L 127.255225 92.906728 
L 128.892673 83.333544 
L 130.53012 94.658851 
L 132.167567 98.474027 
L 133.805015 95.768414 
L 135.442462 93.745379 
L 137.079909 90.107031 
L 138.717356 100.743609 
L 140.354804 97.352223 
L 141.992251 101.877779 
L 143.629698 113.293254 
L 145.267146 120.176179 
L 146.904593 112.019607 
L 148.54204 109.532478 
L 150.179488 98.03963 
L 151.816935 96.8385 
L 153.454382 96.781783 
L 155.09183 98.738051 
L 156.729277 92.854048 
L 158.366724 82.522696 
L 160.004172 80.238336 
L 161.641619 76.782308 
L 163.279066 87.166854 
L 164.916513 84.43719 
L 166.553961 80.001594 
L 168.191408 73.154163 
L 169.828855 61.262244 
L 171.466303 55.028771 
L 173.10375 54.411033 
L 174.741197 46.022491 
L 176.378645 55.288656 
L 178.016092 48.771141 
L 179.653539 39.55246 
L 181.290987 27.420312 
L 182.928434 29.024471 
L 184.565881 31.594221 
L 186.203328 31.423155 
L 187.840776 31.288009 
L 189.478223 29.811597 
L 191.11567 37.369245 
L 192.753118 44.507008 
L 194.390565 54.872226 
" style="fill:none;stroke:#cc79a7;stroke-linecap:square;stroke-width:2;"/>
   </g>
   <g id="line2d_49">
    <path clip-path="url(#p49669ac688)" d="M 32.283281 111.662691 
L 33.920729 122.051132 
L 35.558176 120.927226 
L 37.195623 119.614021 
L 38.83307 117.041558 
L 40.470518 111.605115 
L 42.107965 109.944356 
L 43.745412 104.520958 
L 45.38286 94.485884 
L 47.020307 88.980063 
L 48.657754 96.844434 
L 50.295202 99.381154 
L 51.932649 106.491589 
L 53.570096 101.068763 
L 55.207544 104.201639 
L 56.844991 107.24185 
L 58.482438 117.57582 
L 60.119886 111.345822 
L 61.757333 106.12647 
L 63.39478 114.452391 
L 65.032227 121.919594 
L 66.669675 132.20607 
L 68.307122 128.262086 
L 69.944569 137.287806 
L 71.582017 132.846805 
L 73.219464 138.588794 
L 74.856911 142.728454 
L 76.494359 140.894353 
L 78.131806 147.79337 
L 79.769253 146.030539 
L 81.406701 145.681124 
L 83.044148 147.889308 
L 84.681595 158.422079 
L 86.319043 157.317522 
L 87.95649 147.723782 
L 89.593937 140.252223 
L 91.231384 146.775777 
L 92.868832 155.029362 
L 94.506279 166.545591 
L 96.143726 165.887183 
L 97.781174 158.648196 
L 99.418621 153.276578 
L 101.056068 146.246157 
L 102.693516 153.295767 
L 104.330963 164.109809 
L 105.96841 154.650719 
L 107.605858 164.429195 
L 109.243305 173.235166 
L 110.880752 169.555034 
L 112.518199 165.406975 
L 114.155647 155.465007 
L 115.793094 144.88906 
L 117.430541 150.542362 
L 119.067989 153.405114 
L 120.705436 152.618894 
L 122.342883 151.904105 
L 123.980331 151.90007 
L 125.617778 162.899023 
L 127.255225 163.690759 
L 128.892673 157.335233 
L 130.53012 168.500249 
L 132.167567 176.857582 
L 133.805015 178.066511 
L 135.442462 179.017254 
L 137.079909 190.874976 
L 138.717356 180.601567 
L 140.354804 176.614682 
L 141.992251 170.456965 
L 143.629698 176.275672 
L 145.267146 180.628199 
L 146.904593 178.119614 
L 148.54204 179.445288 
L 150.179488 182.462364 
L 151.816935 172.42625 
L 153.454382 160.263634 
L 155.09183 155.167504 
L 156.729277 146.800536 
L 158.366724 154.970947 
L 160.004172 144.528181 
L 161.641619 148.76611 
L 163.279066 160.841312 
L 164.916513 155.482164 
L 166.553961 155.430553 
L 168.191408 152.271721 
L 169.828855 140.031958 
L 171.466303 138.55045 
L 173.10375 126.383458 
L 174.741197 132.578602 
L 176.378645 136.623616 
L 178.016092 137.802147 
L 179.653539 133.346605 
L 181.290987 141.832888 
L 182.928434 134.915064 
L 184.565881 125.240198 
L 186.203328 129.372752 
L 187.840776 126.919891 
L 189.478223 116.026135 
L 191.11567 124.179063 
L 192.753118 132.687068 
L 194.390565 140.501809 
" style="fill:none;stroke:#f0e442;stroke-linecap:square;stroke-width:2;"/>
   </g>
   <g id="patch_3">
    <path d="M 32.283281 190.874976 
L 32.283281 27.420312 
" style="fill:none;stroke:#000000;stroke-linecap:square;stroke-linejoin:miter;stroke-width:0.6;"/>
   </g>
   <g id="patch_4">
    <path d="M 194.390565 190.874976 
L 194.390565 27.420312 
" style="fill:none;stroke:#000000;stroke-linecap:square;stroke-linejoin:miter;stroke-width:0.6;"/>
   </g>
   <g id="patch_5">
    <path d="M 32.283281 190.874976 
L 194.390565 190.874976 
" style="fill:none;stroke:#000000;stroke-linecap:square;stroke-linejoin:miter;stroke-width:0.6;"/>
   </g>
   <g id="patch_6">
    <path d="M 32.283281 27.420312 
L 194.390565 27.420312 
" style="fill:none;stroke:#000000;stroke-linecap:square;stroke-linejoin:miter;stroke-width:0.6;"/>
   </g>
   <g id="text_15">
    <!-- Title -->
    <defs>
     <path d="M 59.296875 64.703125 
L 35.40625 64.703125 
L 35.40625 0 
L 26.09375 0 
L 26.09375 64.703125 
L 2.09375 64.703125 
L 2.09375 72.90625 
L 59.296875 72.90625 
z
" id="TeXGyreHeros-Regular-84"/>
     <path d="M 25.40625 0 
Q 21.5 -0.703125 18.59375 -0.703125 
Q 13.703125 -0.703125 11.09375 1.4375 
Q 8.5 3.59375 8.5 7.59375 
L 8.5 45.59375 
L 1.40625 45.59375 
L 1.40625 52.40625 
L 8.5 52.40625 
L 8.5 66.796875 
L 16.796875 66.796875 
L 16.796875 52.40625 
L 25.40625 52.40625 
L 25.40625 45.59375 
L 16.796875 45.59375 
L 16.796875 11.296875 
Q 16.796875 8.5 17.75 7.546875 
Q 18.703125 6.59375 21.40625 6.59375 
Q 23.90625 6.59375 25.40625 7 
z
" id="TeXGyreHeros-Regular-116"/>
     <path d="M 15.09375 0 
L 6.796875 0 
L 6.796875 72.90625 
L 15.09375 72.90625 
z
" id="TeXGyreHeros-Regular-108"/>
     <path d="M 51.296875 23.796875 
L 12.703125 23.796875 
Q 12.796875 15.09375 17.046875 10.640625 
Q 21.296875 6.203125 28.09375 6.203125 
Q 38.59375 6.203125 41.796875 15.90625 
L 50.203125 15.90625 
Q 48.59375 7.90625 42.640625 3.203125 
Q 36.703125 -1.5 27.796875 -1.5 
Q 16.703125 -1.5 10.34375 5.75 
Q 4 13 4 25.890625 
Q 4 38.796875 10.5 46.34375 
Q 17 53.90625 28 53.90625 
Q 35.40625 53.90625 41.046875 50.203125 
Q 46.703125 46.5 49.203125 40.09375 
Q 51.296875 34.59375 51.296875 23.796875 
z
M 42.40625 31.203125 
Q 42.40625 37.40625 38.203125 41.796875 
Q 34 46.203125 27.90625 46.203125 
Q 21.59375 46.203125 17.5 41.890625 
Q 13.40625 37.59375 12.90625 30.59375 
L 42.296875 30.59375 
z
" id="TeXGyreHeros-Regular-101"/>
    </defs>
    <g transform="translate(103.892392 24.420312)scale(0.1 -0.1)">
     <use xlink:href="#TeXGyreHeros-Regular-84"/>
     <use x="61.099991" xlink:href="#TeXGyreHeros-Regular-105"/>
     <use x="83.299988" xlink:href="#TeXGyreHeros-Regular-116"/>
     <use x="111.099976" xlink:href="#TeXGyreHeros-Regular-108"/>
     <use x="133.299973" xlink:href="#TeXGyreHeros-Regular-101"/>
    </g>
   </g>
  </g>
  <g id="axes_2">
   <g id="patch_7">
    <path d="M 207.390565 190.874976 
L 369.497849 190.874976 
L 369.497849 27.420312 
L 207.390565 27.420312 
z
" style="fill:#ffffff;"/>
   </g>
   <g id="matplotlib.axis_3">
    <g id="xtick_6">
     <g id="line2d_50">
      <path clip-path="url(#p640569dcb2)" d="M 207.390565 190.874976 
L 207.390565 27.420312 
" style="fill:none;stroke:#000000;stroke-linecap:square;stroke-opacity:0.1;stroke-width:0.6;"/>
     </g>
     <g id="line2d_51">
      <g>
       <use style="stroke:#000000;stroke-width:0.6;" x="207.390565" xlink:href="#m88dd211b42" y="190.874976"/>
      </g>
     </g>
     <g id="text_16">
      <!-- 0 -->
      <g transform="translate(204.888846 203.436538)scale(0.09 -0.09)">
       <use xlink:href="#TeXGyreHeros-Regular-48"/>
      </g>
     </g>
    </g>
    <g id="xtick_7">
     <g id="line2d_52">
      <path clip-path="url(#p640569dcb2)" d="M 239.812022 190.874976 
L 239.812022 27.420312 
" style="fill:none;stroke:#000000;stroke-linecap:square;stroke-opacity:0.1;stroke-width:0.6;"/>
     </g>
     <g id="line2d_53">
      <g>
       <use style="stroke:#000000;stroke-width:0.6;" x="239.812022" xlink:href="#m88dd211b42" y="190.874976"/>
      </g>
     </g>
     <g id="text_17">
      <!-- 0.2 -->
      <defs>
       <path d="M 19.09375 0 
L 8.703125 0 
L 8.703125 10.40625 
L 19.09375 10.40625 
z
" id="TeXGyreHeros-Regular-46"/>
      </defs>
      <g transform="translate(233.557725 203.436538)scale(0.09 -0.09)">
       <use xlink:href="#TeXGyreHeros-Regular-48"/>
       <use x="55.599991" xlink:href="#TeXGyreHeros-Regular-46"/>
       <use x="83.399979" xlink:href="#TeXGyreHeros-Regular-50"/>
      </g>
     </g>
    </g>
    <g id="xtick_8">
     <g id="line2d_54">
      <path clip-path="url(#p640569dcb2)" d="M 272.233479 190.874976 
L 272.233479 27.420312 
" style="fill:none;stroke:#000000;stroke-linecap:square;stroke-opacity:0.1;stroke-width:0.6;"/>
     </g>
     <g id="line2d_55">
      <g>
       <use style="stroke:#000000;stroke-width:0.6;" x="272.233479" xlink:href="#m88dd211b42" y="190.874976"/>
      </g>
     </g>
     <g id="text_18">
      <!-- 0.4 -->
      <g transform="translate(265.979182 203.436538)scale(0.09 -0.09)">
       <use xlink:href="#TeXGyreHeros-Regular-48"/>
       <use x="55.599991" xlink:href="#TeXGyreHeros-Regular-46"/>
       <use x="83.399979" xlink:href="#TeXGyreHeros-Regular-52"/>
      </g>
     </g>
    </g>
    <g id="xtick_9">
     <g id="line2d_56">
      <path clip-path="url(#p640569dcb2)" d="M 304.654935 190.874976 
L 304.654935 27.420312 
" style="fill:none;stroke:#000000;stroke-linecap:square;stroke-opacity:0.1;stroke-width:0.6;"/>
     </g>
     <g id="line2d_57">
      <g>
       <use style="stroke:#000000;stroke-width:0.6;" x="304.654935" xlink:href="#m88dd211b42" y="190.874976"/>
      </g>
     </g>
     <g id="text_19">
      <!-- 0.6 -->
      <g transform="translate(298.400638 203.436538)scale(0.09 -0.09)">
       <use xlink:href="#TeXGyreHeros-Regular-48"/>
       <use x="55.599991" xlink:href="#TeXGyreHeros-Regular-46"/>
       <use x="83.399979" xlink:href="#TeXGyreHeros-Regular-54"/>
      </g>
     </g>
    </g>
    <g id="xtick_10">
     <g id="line2d_58">
      <path clip-path="url(#p640569dcb2)" d="M 337.076392 190.874976 
L 337.076392 27.420312 
" style="fill:none;stroke:#000000;stroke-linecap:square;stroke-opacity:0.1;stroke-width:0.6;"/>
     </g>
     <g id="line2d_59">
      <g>
       <use style="stroke:#000000;stroke-width:0.6;" x="337.076392" xlink:href="#m88dd211b42" y="190.874976"/>
      </g>
     </g>
     <g id="text_20">
      <!-- 0.8 -->
      <g transform="translate(330.822095 203.436538)scale(0.09 -0.09)">
       <use xlink:href="#TeXGyreHeros-Regular-48"/>
       <use x="55.599991" xlink:href="#TeXGyreHeros-Regular-46"/>
       <use x="83.399979" xlink:href="#TeXGyreHeros-Regular-56"/>
      </g>
     </g>
    </g>
    <g id="xtick_11">
     <g id="line2d_60">
      <path clip-path="url(#p640569dcb2)" d="M 369.497849 190.874976 
L 369.497849 27.420312 
" style="fill:none;stroke:#000000;stroke-linecap:square;stroke-opacity:0.1;stroke-width:0.6;"/>
     </g>
     <g id="line2d_61">
      <g>
       <use style="stroke:#000000;stroke-width:0.6;" x="369.497849" xlink:href="#m88dd211b42" y="190.874976"/>
      </g>
     </g>
     <g id="text_21">
      <!-- 1 -->
      <defs>
       <path d="M 34.703125 0 
L 25.90625 0 
L 25.90625 50.5 
L 10.203125 50.5 
L 10.203125 56.796875 
Q 20.40625 58.09375 23.5 60.390625 
Q 26.59375 62.703125 28.90625 70.90625 
L 34.703125 70.90625 
z
" id="TeXGyreHeros-Regular-49"/>
      </defs>
      <g transform="translate(366.99613 203.436538)scale(0.09 -0.09)">
       <use xlink:href="#TeXGyreHeros-Regular-49"/>
      </g>
     </g>
    </g>
    <g id="xtick_12">
     <g id="line2d_62">
      <defs>
       <path d="M 0 0 
L 0 2 
" id="m1d0bcd367d" style="stroke:#000000;stroke-width:0.48;"/>
      </defs>
      <g>
       <use style="stroke:#000000;stroke-width:0.48;" x="215.495929" xlink:href="#m1d0bcd367d" y="190.874976"/>
      </g>
     </g>
    </g>
    <g id="xtick_13">
     <g id="line2d_63">
      <g>
       <use style="stroke:#000000;stroke-width:0.48;" x="223.601293" xlink:href="#m1d0bcd367d" y="190.874976"/>
      </g>
     </g>
    </g>
    <g id="xtick_14">
     <g id="line2d_64">
      <g>
       <use style="stroke:#000000;stroke-width:0.48;" x="231.706658" xlink:href="#m1d0bcd367d" y="190.874976"/>
      </g>
     </g>
    </g>
    <g id="xtick_15">
     <g id="line2d_65">
      <g>
       <use style="stroke:#000000;stroke-width:0.48;" x="247.917386" xlink:href="#m1d0bcd367d" y="190.874976"/>
      </g>
     </g>
    </g>
    <g id="xtick_16">
     <g id="line2d_66">
      <g>
       <use style="stroke:#000000;stroke-width:0.48;" x="256.02275" xlink:href="#m1d0bcd367d" y="190.874976"/>
      </g>
     </g>
    </g>
    <g id="xtick_17">
     <g id="line2d_67">
      <g>
       <use style="stroke:#000000;stroke-width:0.48;" x="264.128114" xlink:href="#m1d0bcd367d" y="190.874976"/>
      </g>
     </g>
    </g>
    <g id="xtick_18">
     <g id="line2d_68">
      <g>
       <use style="stroke:#000000;stroke-width:0.48;" x="280.338843" xlink:href="#m1d0bcd367d" y="190.874976"/>
      </g>
     </g>
    </g>
    <g id="xtick_19">
     <g id="line2d_69">
      <g>
       <use style="stroke:#000000;stroke-width:0.48;" x="288.444207" xlink:href="#m1d0bcd367d" y="190.874976"/>
      </g>
     </g>
    </g>
    <g id="xtick_20">
     <g id="line2d_70">
      <g>
       <use style="stroke:#000000;stroke-width:0.48;" x="296.549571" xlink:href="#m1d0bcd367d" y="190.874976"/>
      </g>
     </g>
    </g>
    <g id="xtick_21">
     <g id="line2d_71">
      <g>
       <use style="stroke:#000000;stroke-width:0.48;" x="312.760299" xlink:href="#m1d0bcd367d" y="190.874976"/>
      </g>
     </g>
    </g>
    <g id="xtick_22">
     <g id="line2d_72">
      <g>
       <use style="stroke:#000000;stroke-width:0.48;" x="320.865664" xlink:href="#m1d0bcd367d" y="190.874976"/>
      </g>
     </g>
    </g>
    <g id="xtick_23">
     <g id="line2d_73">
      <g>
       <use style="stroke:#000000;stroke-width:0.48;" x="328.971028" xlink:href="#m1d0bcd367d" y="190.874976"/>
      </g>
     </g>
    </g>
    <g id="xtick_24">
     <g id="line2d_74">
      <g>
       <use style="stroke:#000000;stroke-width:0.48;" x="345.181756" xlink:href="#m1d0bcd367d" y="190.874976"/>
      </g>
     </g>
    </g>
    <g id="xtick_25">
     <g id="line2d_75">
      <g>
       <use style="stroke:#000000;stroke-width:0.48;" x="353.28712" xlink:href="#m1d0bcd367d" y="190.874976"/>
      </g>
     </g>
    </g>
    <g id="xtick_26">
     <g id="line2d_76">
      <g>
       <use style="stroke:#000000;stroke-width:0.48;" x="361.392485" xlink:href="#m1d0bcd367d" y="190.874976"/>
      </g>
     </g>
    </g>
   </g>
   <g id="matplotlib.axis_4">
    <g id="ytick_28">
     <g id="line2d_77">
      <path clip-path="url(#p640569dcb2)" d="M 207.390565 190.387148 
L 369.497849 190.387148 
" style="fill:none;stroke:#000000;stroke-linecap:square;stroke-opacity:0.1;stroke-width:0.6;"/>
     </g>
     <g id="line2d_78">
      <g>
       <use style="stroke:#000000;stroke-width:0.6;" x="207.390565" xlink:href="#m70429f2693" y="190.387148"/>
      </g>
     </g>
    </g>
    <g id="ytick_29">
     <g id="line2d_79">
      <path clip-path="url(#p640569dcb2)" d="M 207.390565 165.773112 
L 369.497849 165.773112 
" style="fill:none;stroke:#000000;stroke-linecap:square;stroke-opacity:0.1;stroke-width:0.6;"/>
     </g>
     <g id="line2d_80">
      <g>
       <use style="stroke:#000000;stroke-width:0.6;" x="207.390565" xlink:href="#m70429f2693" y="165.773112"/>
      </g>
     </g>
    </g>
    <g id="ytick_30">
     <g id="line2d_81">
      <path clip-path="url(#p640569dcb2)" d="M 207.390565 141.159075 
L 369.497849 141.159075 
" style="fill:none;stroke:#000000;stroke-linecap:square;stroke-opacity:0.1;stroke-width:0.6;"/>
     </g>
     <g id="line2d_82">
      <g>
       <use style="stroke:#000000;stroke-width:0.6;" x="207.390565" xlink:href="#m70429f2693" y="141.159075"/>
      </g>
     </g>
    </g>
    <g id="ytick_31">
     <g id="line2d_83">
      <path clip-path="url(#p640569dcb2)" d="M 207.390565 116.545038 
L 369.497849 116.545038 
" style="fill:none;stroke:#000000;stroke-linecap:square;stroke-opacity:0.1;stroke-width:0.6;"/>
     </g>
     <g id="line2d_84">
      <g>
       <use style="stroke:#000000;stroke-width:0.6;" x="207.390565" xlink:href="#m70429f2693" y="116.545038"/>
      </g>
     </g>
    </g>
    <g id="ytick_32">
     <g id="line2d_85">
      <path clip-path="url(#p640569dcb2)" d="M 207.390565 91.931001 
L 369.497849 91.931001 
" style="fill:none;stroke:#000000;stroke-linecap:square;stroke-opacity:0.1;stroke-width:0.6;"/>
     </g>
     <g id="line2d_86">
      <g>
       <use style="stroke:#000000;stroke-width:0.6;" x="207.390565" xlink:href="#m70429f2693" y="91.931001"/>
      </g>
     </g>
    </g>
    <g id="ytick_33">
     <g id="line2d_87">
      <path clip-path="url(#p640569dcb2)" d="M 207.390565 67.316964 
L 369.497849 67.316964 
" style="fill:none;stroke:#000000;stroke-linecap:square;stroke-opacity:0.1;stroke-width:0.6;"/>
     </g>
     <g id="line2d_88">
      <g>
       <use style="stroke:#000000;stroke-width:0.6;" x="207.390565" xlink:href="#m70429f2693" y="67.316964"/>
      </g>
     </g>
    </g>
    <g id="ytick_34">
     <g id="line2d_89">
      <path clip-path="url(#p640569dcb2)" d="M 207.390565 42.702927 
L 369.497849 42.702927 
" style="fill:none;stroke:#000000;stroke-linecap:square;stroke-opacity:0.1;stroke-width:0.6;"/>
     </g>
     <g id="line2d_90">
      <g>
       <use style="stroke:#000000;stroke-width:0.6;" x="207.390565" xlink:href="#m70429f2693" y="42.702927"/>
      </g>
     </g>
    </g>
    <g id="ytick_35">
     <g id="line2d_91">
      <g>
       <use style="stroke:#000000;stroke-width:0.48;" x="207.390565" xlink:href="#m44618230ad" y="184.233639"/>
      </g>
     </g>
    </g>
    <g id="ytick_36">
     <g id="line2d_92">
      <g>
       <use style="stroke:#000000;stroke-width:0.48;" x="207.390565" xlink:href="#m44618230ad" y="178.08013"/>
      </g>
     </g>
    </g>
    <g id="ytick_37">
     <g id="line2d_93">
      <g>
       <use style="stroke:#000000;stroke-width:0.48;" x="207.390565" xlink:href="#m44618230ad" y="171.926621"/>
      </g>
     </g>
    </g>
    <g id="ytick_38">
     <g id="line2d_94">
      <g>
       <use style="stroke:#000000;stroke-width:0.48;" x="207.390565" xlink:href="#m44618230ad" y="159.619602"/>
      </g>
     </g>
    </g>
    <g id="ytick_39">
     <g id="line2d_95">
      <g>
       <use style="stroke:#000000;stroke-width:0.48;" x="207.390565" xlink:href="#m44618230ad" y="153.466093"/>
      </g>
     </g>
    </g>
    <g id="ytick_40">
     <g id="line2d_96">
      <g>
       <use style="stroke:#000000;stroke-width:0.48;" x="207.390565" xlink:href="#m44618230ad" y="147.312584"/>
      </g>
     </g>
    </g>
    <g id="ytick_41">
     <g id="line2d_97">
      <g>
       <use style="stroke:#000000;stroke-width:0.48;" x="207.390565" xlink:href="#m44618230ad" y="135.005566"/>
      </g>
     </g>
    </g>
    <g id="ytick_42">
     <g id="line2d_98">
      <g>
       <use style="stroke:#000000;stroke-width:0.48;" x="207.390565" xlink:href="#m44618230ad" y="128.852056"/>
      </g>
     </g>
    </g>
    <g id="ytick_43">
     <g id="line2d_99">
      <g>
       <use style="stroke:#000000;stroke-width:0.48;" x="207.390565" xlink:href="#m44618230ad" y="122.698547"/>
      </g>
     </g>
    </g>
    <g id="ytick_44">
     <g id="line2d_100">
      <g>
       <use style="stroke:#000000;stroke-width:0.48;" x="207.390565" xlink:href="#m44618230ad" y="110.391529"/>
      </g>
     </g>
    </g>
    <g id="ytick_45">
     <g id="line2d_101">
      <g>
       <use style="stroke:#000000;stroke-width:0.48;" x="207.390565" xlink:href="#m44618230ad" y="104.238019"/>
      </g>
     </g>
    </g>
    <g id="ytick_46">
     <g id="line2d_102">
      <g>
       <use style="stroke:#000000;stroke-width:0.48;" x="207.390565" xlink:href="#m44618230ad" y="98.08451"/>
      </g>
     </g>
    </g>
    <g id="ytick_47">
     <g id="line2d_103">
      <g>
       <use style="stroke:#000000;stroke-width:0.48;" x="207.390565" xlink:href="#m44618230ad" y="85.777492"/>
      </g>
     </g>
    </g>
    <g id="ytick_48">
     <g id="line2d_104">
      <g>
       <use style="stroke:#000000;stroke-width:0.48;" x="207.390565" xlink:href="#m44618230ad" y="79.623983"/>
      </g>
     </g>
    </g>
    <g id="ytick_49">
     <g id="line2d_105">
      <g>
       <use style="stroke:#000000;stroke-width:0.48;" x="207.390565" xlink:href="#m44618230ad" y="73.470473"/>
      </g>
     </g>
    </g>
    <g id="ytick_50">
     <g id="line2d_106">
      <g>
       <use style="stroke:#000000;stroke-width:0.48;" x="207.390565" xlink:href="#m44618230ad" y="61.163455"/>
      </g>
     </g>
    </g>
    <g id="ytick_51">
     <g id="line2d_107">
      <g>
       <use style="stroke:#000000;stroke-width:0.48;" x="207.390565" xlink:href="#m44618230ad" y="55.009946"/>
      </g>
     </g>
    </g>
    <g id="ytick_52">
     <g id="line2d_108">
      <g>
       <use style="stroke:#000000;stroke-width:0.48;" x="207.390565" xlink:href="#m44618230ad" y="48.856437"/>
      </g>
     </g>
    </g>
    <g id="ytick_53">
     <g id="line2d_109">
      <g>
       <use style="stroke:#000000;stroke-width:0.48;" x="207.390565" xlink:href="#m44618230ad" y="36.549418"/>
      </g>
     </g>
    </g>
    <g id="ytick_54">
     <g id="line2d_110">
      <g>
       <use style="stroke:#000000;stroke-width:0.48;" x="207.390565" xlink:href="#m44618230ad" y="30.395909"/>
      </g>
     </g>
    </g>
   </g>
   <g id="patch_8">
    <path d="M 207.390565 190.874976 
L 207.390565 27.420312 
" style="fill:none;stroke:#000000;stroke-linecap:square;stroke-linejoin:miter;stroke-width:0.6;"/>
   </g>
   <g id="patch_9">
    <path d="M 369.497849 190.874976 
L 369.497849 27.420312 
" style="fill:none;stroke:#000000;stroke-linecap:square;stroke-linejoin:miter;stroke-width:0.6;"/>
   </g>
   <g id="patch_10">
    <path d="M 207.390565 190.874976 
L 369.497849 190.874976 
" style="fill:none;stroke:#000000;stroke-linecap:square;stroke-linejoin:miter;stroke-width:0.6;"/>
   </g>
   <g id="patch_11">
    <path d="M 207.390565 27.420312 
L 369.497849 27.420312 
" style="fill:none;stroke:#000000;stroke-linecap:square;stroke-linejoin:miter;stroke-width:0.6;"/>
   </g>
   <g id="text_22">
    <!-- Title -->
    <g transform="translate(278.999676 24.420312)scale(0.1 -0.1)">
     <use xlink:href="#TeXGyreHeros-Regular-84"/>
     <use x="61.099991" xlink:href="#TeXGyreHeros-Regular-105"/>
     <use x="83.299988" xlink:href="#TeXGyreHeros-Regular-116"/>
     <use x="111.099976" xlink:href="#TeXGyreHeros-Regular-108"/>
     <use x="133.299973" xlink:href="#TeXGyreHeros-Regular-101"/>
    </g>
   </g>
  </g>
  <g id="text_23">
   <!-- Simple subplot grid -->
   <defs>
    <path d="M 63.296875 21.90625 
Q 63.296875 10.90625 55.4375 4.84375 
Q 47.59375 -1.203125 33.40625 -1.203125 
Q 19.296875 -1.203125 11.25 5.046875 
Q 3.203125 11.296875 3.203125 22.90625 
L 17.796875 22.90625 
Q 17.796875 17.09375 22.140625 13.9375 
Q 26.5 10.796875 34.203125 10.796875 
Q 41.09375 10.796875 45 13.1875 
Q 48.90625 15.59375 48.90625 20.09375 
Q 48.90625 24.40625 45.90625 26.5 
Q 42.90625 28.59375 35.203125 30.09375 
L 25 32.09375 
Q 13.90625 34.296875 9.203125 38.75 
Q 4.5 43.203125 4.5 51.703125 
Q 4.5 62.40625 11.75 68.25 
Q 19 74.09375 32.09375 74.09375 
Q 45.59375 74.09375 53.140625 68.09375 
Q 60.703125 62.09375 60.703125 50.703125 
L 46.703125 50.703125 
Q 46.703125 56.203125 42.640625 59.140625 
Q 38.59375 62.09375 31.40625 62.09375 
Q 25.59375 62.09375 22.1875 59.640625 
Q 18.796875 57.203125 18.796875 53.09375 
Q 18.796875 49.09375 21.6875 47.140625 
Q 24.59375 45.203125 32.59375 43.59375 
L 44 41.40625 
Q 54.203125 39.40625 58.75 34.90625 
Q 63.296875 30.40625 63.296875 21.90625 
z
" id="TeXGyreHeros-Bold-83"/>
    <path d="M 20.703125 0 
L 6.703125 0 
L 6.703125 54 
L 20.703125 54 
z
M 20.90625 60.5 
L 6.90625 60.5 
L 6.90625 74.5 
L 20.90625 74.5 
z
" id="TeXGyreHeros-Bold-105"/>
    <path d="M 82.40625 0 
L 68.40625 0 
L 68.40625 36 
Q 68.40625 39.203125 66.34375 41.09375 
Q 64.296875 43 60.796875 43 
Q 56.296875 43 53.75 40.203125 
Q 51.203125 37.40625 51.203125 32.40625 
L 51.203125 0 
L 37.203125 0 
L 37.203125 36 
Q 37.203125 39.203125 35.140625 41.09375 
Q 33.09375 43 29.59375 43 
Q 25.09375 43 22.546875 40.203125 
Q 20 37.40625 20 32.40625 
L 20 0 
L 6 0 
L 6 54 
L 19.90625 54 
L 19.90625 47.296875 
Q 23.40625 51.40625 26.75 53.15625 
Q 30.09375 54.90625 34.703125 54.90625 
Q 45.296875 54.90625 49.40625 46.90625 
Q 55.40625 54.90625 65.203125 54.90625 
Q 73.296875 54.90625 77.84375 50.5 
Q 82.40625 46.09375 82.40625 38.203125 
z
" id="TeXGyreHeros-Bold-109"/>
    <path d="M 57.40625 27 
Q 57.40625 14.796875 51 6.9375 
Q 44.59375 -0.90625 34.796875 -0.90625 
Q 24.40625 -0.90625 19.796875 7.203125 
L 19.796875 -21.796875 
L 5.796875 -21.796875 
L 5.796875 54 
L 19.796875 54 
L 19.796875 46 
Q 24.796875 54.90625 34.796875 54.90625 
Q 45.203125 54.90625 51.296875 47.09375 
Q 57.40625 39.296875 57.40625 27 
z
M 43.40625 26.796875 
Q 43.40625 34.40625 40.203125 38.796875 
Q 37 43.203125 31.59375 43.203125 
Q 26.296875 43.203125 23.046875 38.84375 
Q 19.796875 34.5 19.796875 27 
Q 19.796875 19.5 23.046875 15.140625 
Q 26.296875 10.796875 31.59375 10.796875 
Q 36.796875 10.796875 40.09375 15.140625 
Q 43.40625 19.5 43.40625 26.796875 
z
" id="TeXGyreHeros-Bold-112"/>
    <path d="M 20.703125 0 
L 6.703125 0 
L 6.703125 72.90625 
L 20.703125 72.90625 
z
" id="TeXGyreHeros-Bold-108"/>
    <path d="M 52.5 25 
L 52.40625 23.296875 
L 16.203125 23.296875 
Q 16.5 15.796875 19.296875 12.796875 
Q 22.09375 9.796875 27.40625 9.796875 
Q 36.40625 9.796875 38.09375 15.203125 
L 51.90625 15.203125 
Q 49.59375 7.40625 42.890625 3.25 
Q 36.203125 -0.90625 26.90625 -0.90625 
Q 15.296875 -0.90625 8.75 6.25 
Q 2.203125 13.40625 2.203125 26.296875 
Q 2.203125 39.796875 8.84375 47.34375 
Q 15.5 54.90625 27.203125 54.90625 
Q 39.09375 54.90625 45.796875 46.953125 
Q 52.5 39 52.5 25 
z
M 37.90625 32.59375 
Q 37.40625 38.296875 34.5 41.25 
Q 31.59375 44.203125 27 44.203125 
Q 17.796875 44.203125 16.40625 32.59375 
z
" id="TeXGyreHeros-Bold-101"/>
    <path id="TeXGyreHeros-Bold-32"/>
    <path d="M 52 16 
Q 52 7.796875 45.890625 3.4375 
Q 39.796875 -0.90625 28.40625 -0.90625 
Q 3.5 -0.90625 2.90625 17.09375 
L 16.59375 17.09375 
Q 17.5 13 20 11.546875 
Q 22.5 10.09375 27.59375 10.09375 
Q 38 10.09375 38 14.703125 
Q 38 16.90625 33.296875 18.40625 
L 16.59375 23.59375 
Q 9.5 25.796875 7.140625 28.6875 
Q 4.796875 31.59375 4.796875 36.90625 
Q 4.796875 45.203125 10.75 50.046875 
Q 16.703125 54.90625 27 54.90625 
Q 37.90625 54.90625 44.09375 50.046875 
Q 50.296875 45.203125 50.5 36.59375 
L 37 36.59375 
Q 36.90625 43.90625 26.90625 43.90625 
Q 23.203125 43.90625 21 42.546875 
Q 18.796875 41.203125 18.796875 38.90625 
Q 18.796875 37.203125 19.796875 36.34375 
Q 20.796875 35.5 23.703125 34.703125 
L 41.40625 29.59375 
Q 52 26.5 52 16.703125 
z
" id="TeXGyreHeros-Bold-115"/>
    <path d="M 54.09375 0 
L 40.09375 0 
L 40.09375 7.09375 
Q 34.09375 -0.90625 23.90625 -0.90625 
Q 15.296875 -0.90625 10.546875 4 
Q 5.796875 8.90625 5.796875 17.796875 
L 5.796875 54 
L 19.796875 54 
L 19.796875 20.703125 
Q 19.796875 11 28.796875 11 
Q 33.90625 11 37 13.890625 
Q 40.09375 16.796875 40.09375 21.59375 
L 40.09375 54 
L 54.09375 54 
z
" id="TeXGyreHeros-Bold-117"/>
    <path d="M 57.5 26.296875 
Q 57.5 14.203125 51.046875 6.640625 
Q 44.59375 -0.90625 34.796875 -0.90625 
Q 25.09375 -0.90625 19.90625 6.203125 
L 19.90625 0 
L 5.90625 0 
L 5.90625 72.90625 
L 19.90625 72.90625 
L 19.90625 47 
Q 24.90625 54.90625 34.796875 54.90625 
Q 45.09375 54.90625 51.296875 46.546875 
Q 57.5 38.203125 57.5 26.296875 
z
M 43.5 26.90625 
Q 43.5 34.296875 40.203125 38.75 
Q 36.90625 43.203125 31.703125 43.203125 
Q 26.40625 43.203125 23.15625 38.84375 
Q 19.90625 34.5 19.90625 27.203125 
Q 19.90625 19.59375 23.09375 15.1875 
Q 26.296875 10.796875 31.703125 10.796875 
Q 36.90625 10.796875 40.203125 15.1875 
Q 43.5 19.59375 43.5 26.90625 
z
" id="TeXGyreHeros-Bold-98"/>
    <path d="M 56.90625 26.59375 
Q 56.90625 13.703125 49.75 6.390625 
Q 42.59375 -0.90625 30.203125 -0.90625 
Q 17.703125 -0.90625 10.59375 6.390625 
Q 3.5 13.703125 3.5 27 
Q 3.5 40.203125 10.59375 47.546875 
Q 17.703125 54.90625 30.09375 54.90625 
Q 42.90625 54.90625 49.90625 47.546875 
Q 56.90625 40.203125 56.90625 26.59375 
z
M 42.90625 26.796875 
Q 42.90625 34.703125 39.453125 39.140625 
Q 36 43.59375 30.203125 43.59375 
Q 24.40625 43.59375 20.953125 39.140625 
Q 17.5 34.703125 17.5 27 
Q 17.5 19.296875 20.953125 14.84375 
Q 24.40625 10.40625 30.203125 10.40625 
Q 35.90625 10.40625 39.40625 14.84375 
Q 42.90625 19.296875 42.90625 26.796875 
z
" id="TeXGyreHeros-Bold-111"/>
    <path d="M 30.09375 0 
Q 29.5 0 26.640625 -0.203125 
Q 23.796875 -0.40625 22 -0.40625 
Q 15 -0.40625 11.640625 2.4375 
Q 8.296875 5.296875 8.296875 11.59375 
L 8.296875 43.59375 
L 1.40625 43.59375 
L 1.40625 52.90625 
L 8.296875 52.90625 
L 8.296875 67.40625 
L 22.296875 67.40625 
L 22.296875 52.90625 
L 30.09375 52.90625 
L 30.09375 43.59375 
L 22.296875 43.59375 
L 22.296875 15.40625 
Q 22.296875 11.796875 23.1875 10.640625 
Q 24.09375 9.5 26.90625 9.5 
Q 28 9.5 30.09375 9.796875 
z
" id="TeXGyreHeros-Bold-116"/>
    <path d="M 54.09375 -1.796875 
Q 54.09375 -11.296875 47.34375 -16.546875 
Q 40.59375 -21.796875 28.40625 -21.796875 
Q 17.5 -21.796875 11.09375 -17.5 
Q 4.703125 -13.203125 4.5 -6.5 
L 19 -6.5 
Q 20.703125 -12.796875 28.90625 -12.796875 
Q 34.203125 -12.796875 37.5 -9.75 
Q 40.796875 -6.703125 40.796875 -1.796875 
L 40.796875 6.203125 
Q 36.796875 2.203125 33.5 0.640625 
Q 30.203125 -0.90625 25.5 -0.90625 
Q 15.5 -0.90625 9.453125 6.5 
Q 3.40625 13.90625 3.40625 26.40625 
Q 3.40625 38.90625 9.75 46.90625 
Q 16.09375 54.90625 25.796875 54.90625 
Q 34.796875 54.90625 40.796875 45.703125 
L 40.796875 54 
L 54.09375 54 
z
M 41 26.59375 
Q 41 34 37.546875 38.59375 
Q 34.09375 43.203125 28.796875 43.203125 
Q 23.703125 43.203125 20.546875 38.703125 
Q 17.40625 34.203125 17.40625 26.59375 
Q 17.40625 19.296875 20.5 15.046875 
Q 23.59375 10.796875 28.59375 10.796875 
Q 34.09375 10.796875 37.546875 15.046875 
Q 41 19.296875 41 26.59375 
z
" id="TeXGyreHeros-Bold-103"/>
    <path d="M 37 40.59375 
Q 34.5 41 32.59375 41 
Q 20.296875 41 20.296875 28.703125 
L 20.296875 0 
L 6.296875 0 
L 6.296875 54 
L 20.296875 54 
L 20.296875 43.40625 
Q 22.5 48.90625 26.5 51.90625 
Q 30.5 54.90625 35.296875 54.90625 
Q 36.203125 54.90625 37 54.796875 
z
" id="TeXGyreHeros-Bold-114"/>
    <path d="M 54.5 0 
L 40.5 0 
L 40.5 6.203125 
Q 35.09375 -0.90625 25.59375 -0.90625 
Q 15.203125 -0.90625 9.046875 7.046875 
Q 2.90625 15 2.90625 26.90625 
Q 2.90625 39.09375 9.40625 47 
Q 15.90625 54.90625 25.59375 54.90625 
Q 35.40625 54.90625 40.5 47 
L 40.5 72.90625 
L 54.5 72.90625 
z
M 40.5 26.703125 
Q 40.5 34.40625 37.296875 38.796875 
Q 34.09375 43.203125 28.703125 43.203125 
Q 23.40625 43.203125 20.15625 38.75 
Q 16.90625 34.296875 16.90625 26.890625 
Q 16.90625 19.5 20.15625 15.140625 
Q 23.40625 10.796875 28.703125 10.796875 
Q 34 10.796875 37.25 15.09375 
Q 40.5 19.40625 40.5 26.703125 
z
" id="TeXGyreHeros-Bold-100"/>
   </defs>
   <g transform="translate(154.21869 11.95)scale(0.1 -0.1)">
    <use xlink:href="#TeXGyreHeros-Bold-83"/>
    <use x="66.699997" xlink:href="#TeXGyreHeros-Bold-105"/>
    <use x="94.499985" xlink:href="#TeXGyreHeros-Bold-109"/>
    <use x="183.399979" xlink:href="#TeXGyreHeros-Bold-112"/>
    <use x="244.499969" xlink:href="#TeXGyreHeros-Bold-108"/>
    <use x="272.299957" xlink:href="#TeXGyreHeros-Bold-101"/>
    <use x="327.899948" xlink:href="#TeXGyreHeros-Bold-32"/>
    <use x="355.699936" xlink:href="#TeXGyreHeros-Bold-115"/>
    <use x="411.299927" xlink:href="#TeXGyreHeros-Bold-117"/>
    <use x="472.399918" xlink:href="#TeXGyreHeros-Bold-98"/>
    <use x="533.499908" xlink:href="#TeXGyreHeros-Bold-112"/>
    <use x="594.599899" xlink:href="#TeXGyreHeros-Bold-108"/>
    <use x="622.399887" xlink:href="#TeXGyreHeros-Bold-111"/>
    <use x="683.499878" xlink:href="#TeXGyreHeros-Bold-116"/>
    <use x="716.799866" xlink:href="#TeXGyreHeros-Bold-32"/>
    <use x="744.599854" xlink:href="#TeXGyreHeros-Bold-103"/>
    <use x="805.699844" xlink:href="#TeXGyreHeros-Bold-114"/>
    <use x="844.599838" xlink:href="#TeXGyreHeros-Bold-105"/>
    <use x="872.399826" xlink:href="#TeXGyreHeros-Bold-100"/>
   </g>
  </g>
 </g>
 <defs>
  <clipPath id="p49669ac688">
   <rect height="163.454663" width="162.107284" x="32.283281" y="27.420312"/>
  </clipPath>
  <clipPath id="p640569dcb2">
   <rect height="163.454663" width="162.107284" x="207.390565" y="27.420312"/>
  </clipPath>
 </defs>
</svg>
