<?xml version="1.0" encoding="utf-8" standalone="no"?>
<!DOCTYPE svg PUBLIC "-//W3C//DTD SVG 1.1//EN"
  "http://www.w3.org/Graphics/SVG/1.1/DTD/svg11.dtd">
<!-- Created with matplotlib (https://matplotlib.org/) -->
<svg height="221.421538pt" version="1.1" viewBox="0 0 376.499568 221.421538" width="376.499568pt" xmlns="http://www.w3.org/2000/svg" xmlns:xlink="http://www.w3.org/1999/xlink">
 <defs>
  <style type="text/css">
*{stroke-linecap:butt;stroke-linejoin:round;}
  </style>
 </defs>
 <g id="figure_1">
  <g id="patch_1">
   <path d="M 0 221.421538 
L 376.499568 221.421538 
L 376.499568 0 
L 0 0 
z
" style="fill:none;"/>
  </g>
  <g id="axes_1">
   <g id="patch_2">
    <path d="M 32.283281 190.874976 
L 194.390565 190.874976 
L 194.390565 27.420312 
L 32.283281 27.420312 
z
" style="fill:none;"/>
   </g>
   <g id="matplotlib.axis_1">
    <g id="xtick_1">
     <g id="line2d_1">
      <path clip-path="url(#p72b88bdb44)" d="M 32.283281 190.874976 
L 32.283281 27.420312 
" style="fill:none;stroke:#000000;stroke-linecap:square;stroke-opacity:0.1;stroke-width:0.6;"/>
     </g>
     <g id="line2d_2">
      <defs>
       <path d="M 0 0 
L 0 4 
" id="m2001fbcbbf" style="stroke:#000000;stroke-width:0.6;"/>
      </defs>
      <g>
       <use style="stroke:#000000;stroke-width:0.6;" x="32.283281" xlink:href="#m2001fbcbbf" y="190.874976"/>
      </g>
     </g>
     <g id="text_1">
      <!-- 0 -->
      <defs>
       <path d="M 50.703125 34.09375 
Q 50.703125 16.703125 44.75 7.59375 
Q 38.796875 -1.5 27.5 -1.5 
Q 16.09375 -1.5 10.1875 7.640625 
Q 4.296875 16.796875 4.296875 34.6875 
Q 4.296875 52.59375 10.140625 61.75 
Q 16 70.90625 27.5 70.90625 
Q 50.703125 70.90625 50.703125 34.09375 
z
M 41.703125 34.90625 
Q 41.703125 63.09375 27.5 63.09375 
Q 13.296875 63.09375 13.296875 34.59375 
Q 13.296875 5.796875 27.296875 5.796875 
Q 34.703125 5.796875 38.203125 12.84375 
Q 41.703125 19.90625 41.703125 34.90625 
z
" id="TeXGyreHeros-Regular-48"/>
      </defs>
      <g transform="translate(29.781562 203.436538)scale(0.09 -0.09)">
       <use xlink:href="#TeXGyreHeros-Regular-48"/>
      </g>
     </g>
    </g>
    <g id="xtick_2">
     <g id="line2d_3">
      <path clip-path="url(#p72b88bdb44)" d="M 65.032227 190.874976 
L 65.032227 27.420312 
" style="fill:none;stroke:#000000;stroke-linecap:square;stroke-opacity:0.1;stroke-width:0.6;"/>
     </g>
     <g id="line2d_4">
      <g>
       <use style="stroke:#000000;stroke-width:0.6;" x="65.032227" xlink:href="#m2001fbcbbf" y="190.874976"/>
      </g>
     </g>
     <g id="text_2">
      <!-- 20 -->
      <defs>
       <path d="M 51.09375 50.09375 
Q 51.09375 36.703125 36.09375 28.703125 
L 26.09375 23.296875 
Q 19.59375 19.5 16.796875 16.296875 
Q 14 13.09375 13.296875 8.703125 
L 50.59375 8.703125 
L 50.59375 0 
L 3.40625 0 
Q 4 11.703125 8.09375 18.046875 
Q 12.203125 24.40625 23.296875 30.703125 
L 32.5 35.90625 
Q 42.09375 41.40625 42.09375 49.90625 
Q 42.09375 55.59375 38.09375 59.390625 
Q 34.09375 63.203125 28.09375 63.203125 
Q 21.40625 63.203125 17.84375 59.140625 
Q 14.296875 55.09375 13.796875 46.296875 
L 5 46.296875 
Q 5.703125 70.90625 28.40625 70.90625 
Q 38.40625 70.90625 44.75 65 
Q 51.09375 59.09375 51.09375 50.09375 
z
" id="TeXGyreHeros-Regular-50"/>
      </defs>
      <g transform="translate(60.02879 203.436538)scale(0.09 -0.09)">
       <use xlink:href="#TeXGyreHeros-Regular-50"/>
       <use x="55.599991" xlink:href="#TeXGyreHeros-Regular-48"/>
      </g>
     </g>
    </g>
    <g id="xtick_3">
     <g id="line2d_5">
      <path clip-path="url(#p72b88bdb44)" d="M 97.781174 190.874976 
L 97.781174 27.420312 
" style="fill:none;stroke:#000000;stroke-linecap:square;stroke-opacity:0.1;stroke-width:0.6;"/>
     </g>
     <g id="line2d_6">
      <g>
       <use style="stroke:#000000;stroke-width:0.6;" x="97.781174" xlink:href="#m2001fbcbbf" y="190.874976"/>
      </g>
     </g>
     <g id="text_3">
      <!-- 40 -->
      <defs>
       <path d="M 52 17 
L 41.5 17 
L 41.5 0 
L 32.703125 0 
L 32.703125 17 
L 2.796875 17 
L 2.796875 26.296875 
L 35 70.90625 
L 41.5 70.90625 
L 41.5 24.90625 
L 52 24.90625 
z
M 32.703125 24.90625 
L 32.703125 55.90625 
L 10.5 24.90625 
z
" id="TeXGyreHeros-Regular-52"/>
      </defs>
      <g transform="translate(92.777736 203.436538)scale(0.09 -0.09)">
       <use xlink:href="#TeXGyreHeros-Regular-52"/>
       <use x="55.599991" xlink:href="#TeXGyreHeros-Regular-48"/>
      </g>
     </g>
    </g>
    <g id="xtick_4">
     <g id="line2d_7">
      <path clip-path="url(#p72b88bdb44)" d="M 130.53012 190.874976 
L 130.53012 27.420312 
" style="fill:none;stroke:#000000;stroke-linecap:square;stroke-opacity:0.1;stroke-width:0.6;"/>
     </g>
     <g id="line2d_8">
      <g>
       <use style="stroke:#000000;stroke-width:0.6;" x="130.53012" xlink:href="#m2001fbcbbf" y="190.874976"/>
      </g>
     </g>
     <g id="text_4">
      <!-- 60 -->
      <defs>
       <path d="M 51.296875 22 
Q 51.296875 11.59375 44.796875 5.046875 
Q 38.296875 -1.5 28.09375 -1.5 
Q 4.296875 -1.5 4.296875 32.296875 
Q 4.296875 50.90625 10.84375 60.90625 
Q 17.40625 70.90625 29.703125 70.90625 
Q 37.796875 70.90625 43.140625 66 
Q 48.5 61.09375 49.796875 52.40625 
L 41 52.40625 
Q 39.90625 57.5 36.796875 60.296875 
Q 33.703125 63.09375 29.09375 63.09375 
Q 21.5 63.09375 17.453125 56.140625 
Q 13.40625 49.203125 13.296875 36.203125 
Q 19.09375 44.09375 29.59375 44.09375 
Q 39.203125 44.09375 45.25 38 
Q 51.296875 31.90625 51.296875 22 
z
M 42.296875 21.296875 
Q 42.296875 28.40625 38.59375 32.34375 
Q 34.90625 36.296875 28.5 36.296875 
Q 21.90625 36.296875 17.84375 32.34375 
Q 13.796875 28.40625 13.796875 21.796875 
Q 13.796875 15 17.890625 10.640625 
Q 22 6.296875 28.203125 6.296875 
Q 34.296875 6.296875 38.296875 10.5 
Q 42.296875 14.703125 42.296875 21.296875 
z
" id="TeXGyreHeros-Regular-54"/>
      </defs>
      <g transform="translate(125.526682 203.436538)scale(0.09 -0.09)">
       <use xlink:href="#TeXGyreHeros-Regular-54"/>
       <use x="55.599991" xlink:href="#TeXGyreHeros-Regular-48"/>
      </g>
     </g>
    </g>
    <g id="xtick_5">
     <g id="line2d_9">
      <path clip-path="url(#p72b88bdb44)" d="M 163.279066 190.874976 
L 163.279066 27.420312 
" style="fill:none;stroke:#000000;stroke-linecap:square;stroke-opacity:0.1;stroke-width:0.6;"/>
     </g>
     <g id="line2d_10">
      <g>
       <use style="stroke:#000000;stroke-width:0.6;" x="163.279066" xlink:href="#m2001fbcbbf" y="190.874976"/>
      </g>
     </g>
     <g id="text_5">
      <!-- 80 -->
      <defs>
       <path d="M 51.296875 20 
Q 51.296875 10.40625 44.640625 4.453125 
Q 38 -1.5 27.5 -1.5 
Q 16.90625 -1.5 10.296875 4.453125 
Q 3.703125 10.40625 3.703125 20.09375 
Q 3.703125 31.5 15.796875 37.296875 
Q 10.40625 40.703125 8.296875 43.890625 
Q 6.203125 47.09375 6.203125 52 
Q 6.203125 60.296875 12.140625 65.59375 
Q 18.09375 70.90625 27.5 70.90625 
Q 36.90625 70.90625 42.84375 65.59375 
Q 48.796875 60.296875 48.796875 52 
Q 48.796875 47 46.6875 43.796875 
Q 44.59375 40.59375 39.09375 37.296875 
Q 51.296875 31.5 51.296875 20 
z
M 39.796875 51.796875 
Q 39.796875 57 36.4375 60.046875 
Q 33.09375 63.09375 27.5 63.09375 
Q 21.90625 63.09375 18.546875 60.046875 
Q 15.203125 57 15.203125 51.90625 
Q 15.203125 46.90625 18.546875 43.84375 
Q 21.90625 40.796875 27.5 40.796875 
Q 33 40.796875 36.390625 43.796875 
Q 39.796875 46.796875 39.796875 51.796875 
z
M 42.296875 19.90625 
Q 42.296875 26.09375 38.25 29.75 
Q 34.203125 33.40625 27.5 33.40625 
Q 20.796875 33.40625 16.75 29.75 
Q 12.703125 26.09375 12.703125 19.890625 
Q 12.703125 13.703125 16.75 10 
Q 20.796875 6.296875 27.296875 6.296875 
Q 34.09375 6.296875 38.1875 9.9375 
Q 42.296875 13.59375 42.296875 19.90625 
z
" id="TeXGyreHeros-Regular-56"/>
      </defs>
      <g transform="translate(158.275629 203.436538)scale(0.09 -0.09)">
       <use xlink:href="#TeXGyreHeros-Regular-56"/>
       <use x="55.599991" xlink:href="#TeXGyreHeros-Regular-48"/>
      </g>
     </g>
    </g>
    <g id="text_6">
     <!-- x axis -->
     <defs>
      <path d="M 47.296875 0 
L 37.59375 0 
L 24.5 20.09375 
L 11.203125 0 
L 1.703125 0 
L 20.203125 26.703125 
L 2.703125 52.40625 
L 12.203125 52.40625 
L 24.796875 33.40625 
L 37.40625 52.40625 
L 46.796875 52.40625 
L 29.203125 27.09375 
z
" id="TeXGyreHeros-Regular-120"/>
      <path id="TeXGyreHeros-Regular-32"/>
      <path d="M 53.5 0.203125 
Q 50 -0.703125 47.796875 -0.703125 
Q 44.703125 -0.703125 42.296875 1.25 
Q 39.90625 3.203125 39.203125 6.203125 
Q 32 -1.5 21.40625 -1.5 
Q 13.40625 -1.5 8.796875 2.5 
Q 4.203125 6.5 4.203125 13.59375 
Q 4.203125 23.40625 13.40625 27.203125 
Q 15.90625 28.203125 18.703125 28.75 
Q 21.5 29.296875 30.203125 30.40625 
Q 35.09375 31 37 32.296875 
Q 38.90625 33.59375 38.90625 36.203125 
L 38.90625 38.40625 
Q 38.90625 42.203125 35.84375 44.203125 
Q 32.796875 46.203125 27.203125 46.203125 
Q 21.40625 46.203125 18.40625 43.953125 
Q 15.40625 41.703125 14.90625 36.90625 
L 6.5 36.90625 
Q 7.203125 53.90625 27.5 53.90625 
Q 37.203125 53.90625 42.203125 50.25 
Q 47.203125 46.59375 47.203125 39.59375 
L 47.203125 10.40625 
Q 47.203125 6.296875 51.703125 6.296875 
Q 52.59375 6.296875 53.5 6.5 
z
M 38.90625 18.09375 
L 38.90625 25.90625 
Q 35.59375 24.40625 25.5 23 
Q 18.703125 22 15.796875 19.953125 
Q 12.90625 17.90625 12.90625 13.796875 
Q 12.90625 5.796875 23.203125 5.796875 
Q 29.5 5.796875 34.203125 9.25 
Q 38.90625 12.703125 38.90625 18.09375 
z
" id="TeXGyreHeros-Regular-97"/>
      <path d="M 15.296875 0 
L 7 0 
L 7 52.40625 
L 15.296875 52.40625 
z
M 16.40625 60.296875 
L 6 60.296875 
L 6 70.703125 
L 16.40625 70.703125 
z
" id="TeXGyreHeros-Regular-105"/>
      <path d="M 45.90625 14.703125 
Q 45.90625 7.203125 40.046875 2.84375 
Q 34.203125 -1.5 24.296875 -1.5 
Q 14 -1.5 8.84375 2.75 
Q 3.703125 7 3.40625 16 
L 12.203125 16 
Q 13 10.296875 16 8.25 
Q 19 6.203125 25 6.203125 
Q 30.5 6.203125 33.84375 8.296875 
Q 37.203125 10.40625 37.203125 14 
Q 37.203125 16.796875 35.34375 18.296875 
Q 33.5 19.796875 29.09375 20.90625 
L 21.296875 22.796875 
Q 12 25 8.34375 28.34375 
Q 4.703125 31.703125 4.703125 37.90625 
Q 4.703125 45.203125 10.203125 49.546875 
Q 15.703125 53.90625 24.796875 53.90625 
Q 33.90625 53.90625 38.796875 49.703125 
Q 43.703125 45.5 43.796875 37.796875 
L 35 37.796875 
Q 34.703125 46.203125 24.5 46.203125 
Q 19.40625 46.203125 16.40625 44.046875 
Q 13.40625 41.90625 13.40625 38.296875 
Q 13.40625 35.5 15.703125 33.75 
Q 18 32 23.09375 30.796875 
L 31.09375 28.90625 
Q 39 27 42.453125 23.75 
Q 45.90625 20.5 45.90625 14.703125 
z
" id="TeXGyreHeros-Regular-115"/>
     </defs>
     <g transform="translate(189.388846 214.95982)scale(0.09 -0.09)">
      <use xlink:href="#TeXGyreHeros-Regular-120"/>
      <use x="49.999985" xlink:href="#TeXGyreHeros-Regular-32"/>
      <use x="77.799973" xlink:href="#TeXGyreHeros-Regular-97"/>
      <use x="133.399963" xlink:href="#TeXGyreHeros-Regular-120"/>
      <use x="183.399948" xlink:href="#TeXGyreHeros-Regular-105"/>
      <use x="205.599945" xlink:href="#TeXGyreHeros-Regular-115"/>
     </g>
    </g>
   </g>
   <g id="matplotlib.axis_2">
    <g id="ytick_1">
     <g id="line2d_11">
      <path clip-path="url(#p72b88bdb44)" d="M 32.283281 172.080492 
L 194.390565 172.080492 
" style="fill:none;stroke:#000000;stroke-linecap:square;stroke-opacity:0.1;stroke-width:0.6;"/>
     </g>
     <g id="line2d_12">
      <defs>
       <path d="M 0 0 
L -4 0 
" id="mc0a63315fb" style="stroke:#000000;stroke-width:0.6;"/>
      </defs>
      <g>
       <use style="stroke:#000000;stroke-width:0.6;" x="32.283281" xlink:href="#mc0a63315fb" y="172.080492"/>
      </g>
     </g>
     <g id="text_7">
      <!-- −4 -->
      <defs>
       <path d="M 51.59375 21.59375 
L 6.796875 21.59375 
L 6.796875 28.40625 
L 51.59375 28.40625 
z
" id="TeXGyreHeros-Regular-8722"/>
      </defs>
      <g transform="translate(16.023281 175.361273)scale(0.09 -0.09)">
       <use xlink:href="#TeXGyreHeros-Regular-8722"/>
       <use x="58.399994" xlink:href="#TeXGyreHeros-Regular-52"/>
      </g>
     </g>
    </g>
    <g id="ytick_2">
     <g id="line2d_13">
      <path clip-path="url(#p72b88bdb44)" d="M 32.283281 146.989415 
L 194.390565 146.989415 
" style="fill:none;stroke:#000000;stroke-linecap:square;stroke-opacity:0.1;stroke-width:0.6;"/>
     </g>
     <g id="line2d_14">
      <g>
       <use style="stroke:#000000;stroke-width:0.6;" x="32.283281" xlink:href="#mc0a63315fb" y="146.989415"/>
      </g>
     </g>
     <g id="text_8">
      <!-- −2 -->
      <g transform="translate(16.023281 150.270197)scale(0.09 -0.09)">
       <use xlink:href="#TeXGyreHeros-Regular-8722"/>
       <use x="58.399994" xlink:href="#TeXGyreHeros-Regular-50"/>
      </g>
     </g>
    </g>
    <g id="ytick_3">
     <g id="line2d_15">
      <path clip-path="url(#p72b88bdb44)" d="M 32.283281 121.898339 
L 194.390565 121.898339 
" style="fill:none;stroke:#000000;stroke-linecap:square;stroke-opacity:0.1;stroke-width:0.6;"/>
     </g>
     <g id="line2d_16">
      <g>
       <use style="stroke:#000000;stroke-width:0.6;" x="32.283281" xlink:href="#mc0a63315fb" y="121.898339"/>
      </g>
     </g>
     <g id="text_9">
      <!-- 0 -->
      <g transform="translate(21.279844 125.17912)scale(0.09 -0.09)">
       <use xlink:href="#TeXGyreHeros-Regular-48"/>
      </g>
     </g>
    </g>
    <g id="ytick_4">
     <g id="line2d_17">
      <path clip-path="url(#p72b88bdb44)" d="M 32.283281 96.807263 
L 194.390565 96.807263 
" style="fill:none;stroke:#000000;stroke-linecap:square;stroke-opacity:0.1;stroke-width:0.6;"/>
     </g>
     <g id="line2d_18">
      <g>
       <use style="stroke:#000000;stroke-width:0.6;" x="32.283281" xlink:href="#mc0a63315fb" y="96.807263"/>
      </g>
     </g>
     <g id="text_10">
      <!-- 2 -->
      <g transform="translate(21.279844 100.088044)scale(0.09 -0.09)">
       <use xlink:href="#TeXGyreHeros-Regular-50"/>
      </g>
     </g>
    </g>
    <g id="ytick_5">
     <g id="line2d_19">
      <path clip-path="url(#p72b88bdb44)" d="M 32.283281 71.716187 
L 194.390565 71.716187 
" style="fill:none;stroke:#000000;stroke-linecap:square;stroke-opacity:0.1;stroke-width:0.6;"/>
     </g>
     <g id="line2d_20">
      <g>
       <use style="stroke:#000000;stroke-width:0.6;" x="32.283281" xlink:href="#mc0a63315fb" y="71.716187"/>
      </g>
     </g>
     <g id="text_11">
      <!-- 4 -->
      <g transform="translate(21.279844 74.996968)scale(0.09 -0.09)">
       <use xlink:href="#TeXGyreHeros-Regular-52"/>
      </g>
     </g>
    </g>
    <g id="ytick_6">
     <g id="line2d_21">
      <path clip-path="url(#p72b88bdb44)" d="M 32.283281 46.625111 
L 194.390565 46.625111 
" style="fill:none;stroke:#000000;stroke-linecap:square;stroke-opacity:0.1;stroke-width:0.6;"/>
     </g>
     <g id="line2d_22">
      <g>
       <use style="stroke:#000000;stroke-width:0.6;" x="32.283281" xlink:href="#mc0a63315fb" y="46.625111"/>
      </g>
     </g>
     <g id="text_12">
      <!-- 6 -->
      <g transform="translate(21.279844 49.905892)scale(0.09 -0.09)">
       <use xlink:href="#TeXGyreHeros-Regular-54"/>
      </g>
     </g>
    </g>
    <g id="ytick_7">
     <g id="line2d_23">
      <defs>
       <path d="M 0 0 
L -2 0 
" id="m75b7bcb059" style="stroke:#000000;stroke-width:0.48;"/>
      </defs>
      <g>
       <use style="stroke:#000000;stroke-width:0.48;" x="32.283281" xlink:href="#m75b7bcb059" y="184.62603"/>
      </g>
     </g>
    </g>
    <g id="ytick_8">
     <g id="line2d_24">
      <g>
       <use style="stroke:#000000;stroke-width:0.48;" x="32.283281" xlink:href="#m75b7bcb059" y="178.353261"/>
      </g>
     </g>
    </g>
    <g id="ytick_9">
     <g id="line2d_25">
      <g>
       <use style="stroke:#000000;stroke-width:0.48;" x="32.283281" xlink:href="#m75b7bcb059" y="165.807722"/>
      </g>
     </g>
    </g>
    <g id="ytick_10">
     <g id="line2d_26">
      <g>
       <use style="stroke:#000000;stroke-width:0.48;" x="32.283281" xlink:href="#m75b7bcb059" y="159.534953"/>
      </g>
     </g>
    </g>
    <g id="ytick_11">
     <g id="line2d_27">
      <g>
       <use style="stroke:#000000;stroke-width:0.48;" x="32.283281" xlink:href="#m75b7bcb059" y="153.262184"/>
      </g>
     </g>
    </g>
    <g id="ytick_12">
     <g id="line2d_28">
      <g>
       <use style="stroke:#000000;stroke-width:0.48;" x="32.283281" xlink:href="#m75b7bcb059" y="140.716646"/>
      </g>
     </g>
    </g>
    <g id="ytick_13">
     <g id="line2d_29">
      <g>
       <use style="stroke:#000000;stroke-width:0.48;" x="32.283281" xlink:href="#m75b7bcb059" y="134.443877"/>
      </g>
     </g>
    </g>
    <g id="ytick_14">
     <g id="line2d_30">
      <g>
       <use style="stroke:#000000;stroke-width:0.48;" x="32.283281" xlink:href="#m75b7bcb059" y="128.171108"/>
      </g>
     </g>
    </g>
    <g id="ytick_15">
     <g id="line2d_31">
      <g>
       <use style="stroke:#000000;stroke-width:0.48;" x="32.283281" xlink:href="#m75b7bcb059" y="115.62557"/>
      </g>
     </g>
    </g>
    <g id="ytick_16">
     <g id="line2d_32">
      <g>
       <use style="stroke:#000000;stroke-width:0.48;" x="32.283281" xlink:href="#m75b7bcb059" y="109.352801"/>
      </g>
     </g>
    </g>
    <g id="ytick_17">
     <g id="line2d_33">
      <g>
       <use style="stroke:#000000;stroke-width:0.48;" x="32.283281" xlink:href="#m75b7bcb059" y="103.080032"/>
      </g>
     </g>
    </g>
    <g id="ytick_18">
     <g id="line2d_34">
      <g>
       <use style="stroke:#000000;stroke-width:0.48;" x="32.283281" xlink:href="#m75b7bcb059" y="90.534494"/>
      </g>
     </g>
    </g>
    <g id="ytick_19">
     <g id="line2d_35">
      <g>
       <use style="stroke:#000000;stroke-width:0.48;" x="32.283281" xlink:href="#m75b7bcb059" y="84.261725"/>
      </g>
     </g>
    </g>
    <g id="ytick_20">
     <g id="line2d_36">
      <g>
       <use style="stroke:#000000;stroke-width:0.48;" x="32.283281" xlink:href="#m75b7bcb059" y="77.988956"/>
      </g>
     </g>
    </g>
    <g id="ytick_21">
     <g id="line2d_37">
      <g>
       <use style="stroke:#000000;stroke-width:0.48;" x="32.283281" xlink:href="#m75b7bcb059" y="65.443418"/>
      </g>
     </g>
    </g>
    <g id="ytick_22">
     <g id="line2d_38">
      <g>
       <use style="stroke:#000000;stroke-width:0.48;" x="32.283281" xlink:href="#m75b7bcb059" y="59.170649"/>
      </g>
     </g>
    </g>
    <g id="ytick_23">
     <g id="line2d_39">
      <g>
       <use style="stroke:#000000;stroke-width:0.48;" x="32.283281" xlink:href="#m75b7bcb059" y="52.89788"/>
      </g>
     </g>
    </g>
    <g id="ytick_24">
     <g id="line2d_40">
      <g>
       <use style="stroke:#000000;stroke-width:0.48;" x="32.283281" xlink:href="#m75b7bcb059" y="40.352341"/>
      </g>
     </g>
    </g>
    <g id="ytick_25">
     <g id="line2d_41">
      <g>
       <use style="stroke:#000000;stroke-width:0.48;" x="32.283281" xlink:href="#m75b7bcb059" y="34.079572"/>
      </g>
     </g>
    </g>
    <g id="ytick_26">
     <g id="line2d_42">
      <g>
       <use style="stroke:#000000;stroke-width:0.48;" x="32.283281" xlink:href="#m75b7bcb059" y="27.806803"/>
      </g>
     </g>
    </g>
    <g id="text_13">
     <!-- y axis -->
     <defs>
      <path d="M 47.796875 52.40625 
L 24.5 -11 
Q 20.5 -21.796875 11 -21.796875 
Q 7.90625 -21.796875 5.40625 -20.5 
L 5.40625 -13 
Q 8.09375 -13.59375 9.796875 -13.59375 
Q 12.5 -13.59375 13.953125 -12.4375 
Q 15.40625 -11.296875 16.5 -8.5 
L 19.703125 -0.203125 
L 2 52.40625 
L 10.90625 52.40625 
L 24.296875 11.59375 
L 38.796875 52.40625 
z
" id="TeXGyreHeros-Regular-121"/>
     </defs>
     <g transform="translate(11.061562 120.649363)rotate(-90)scale(0.09 -0.09)">
      <use xlink:href="#TeXGyreHeros-Regular-121"/>
      <use x="49.999985" xlink:href="#TeXGyreHeros-Regular-32"/>
      <use x="77.799973" xlink:href="#TeXGyreHeros-Regular-97"/>
      <use x="133.399963" xlink:href="#TeXGyreHeros-Regular-120"/>
      <use x="183.399948" xlink:href="#TeXGyreHeros-Regular-105"/>
      <use x="205.599945" xlink:href="#TeXGyreHeros-Regular-115"/>
     </g>
    </g>
   </g>
   <g id="line2d_43">
    <path clip-path="url(#p72b88bdb44)" d="M 32.283281 122.926807 
L 33.920729 114.962613 
L 35.558176 114.077026 
L 37.195623 108.182186 
L 38.83307 111.716034 
L 40.470518 116.18012 
L 42.107965 117.570917 
L 43.745412 122.04945 
L 45.38286 124.022591 
L 47.020307 115.144984 
L 48.657754 109.317835 
L 50.295202 108.587307 
L 51.932649 101.071381 
L 53.570096 105.819163 
L 55.207544 107.975314 
L 56.844991 97.012756 
L 58.482438 99.917132 
L 60.119886 112.417754 
L 61.757333 120.131704 
L 63.39478 116.934208 
L 65.032227 109.889255 
L 66.669675 119.093449 
L 68.307122 125.14949 
L 69.944569 133.147723 
L 71.582017 138.0749 
L 73.219464 133.566792 
L 74.856911 130.040557 
L 76.494359 120.271107 
L 78.131806 126.658491 
L 79.769253 127.105801 
L 81.406701 122.554127 
L 83.044148 133.739983 
L 84.681595 144.627348 
L 86.319043 140.991261 
L 87.95649 133.237775 
L 89.593937 142.818379 
L 91.231384 149.807955 
L 92.868832 147.103592 
L 94.506279 154.58494 
L 96.143726 142.742461 
L 97.781174 142.810104 
L 99.418621 147.151259 
L 101.056068 136.805074 
L 102.693516 131.546503 
L 104.330963 132.062368 
L 105.96841 137.235024 
L 107.605858 127.331832 
L 109.243305 130.861565 
L 110.880752 127.589171 
L 112.518199 127.246764 
L 114.155647 119.146526 
L 115.793094 127.609592 
L 117.430541 123.543454 
L 119.067989 135.733835 
L 120.705436 136.417627 
L 122.342883 124.879317 
L 123.980331 123.748635 
L 125.617778 130.560281 
L 127.255225 133.881438 
L 128.892673 132.178205 
L 130.53012 137.84103 
L 132.167567 130.64486 
L 133.805015 138.825843 
L 135.442462 127.736289 
L 137.079909 122.3442 
L 138.717356 120.924606 
L 140.354804 111.849866 
L 141.992251 117.110197 
L 143.629698 121.091667 
L 145.267146 110.915185 
L 146.904593 119.943295 
L 148.54204 130.71809 
L 150.179488 121.215749 
L 151.816935 130.077345 
L 153.454382 122.757662 
L 155.09183 131.988343 
L 156.729277 140.091601 
L 158.366724 146.967044 
L 160.004172 139.81635 
L 161.641619 132.262584 
L 163.279066 130.910955 
L 164.916513 134.100286 
L 166.553961 122.103929 
L 168.191408 131.598996 
L 169.828855 136.902771 
L 171.466303 148.244487 
L 173.10375 140.72067 
L 174.741197 145.304541 
L 176.378645 146.004935 
L 178.016092 149.069322 
L 179.653539 150.284061 
L 181.290987 156.354768 
L 182.928434 167.657434 
L 184.565881 179.752862 
L 186.203328 179.627529 
L 187.840776 190.874976 
L 189.478223 188.366144 
L 191.11567 189.453691 
L 192.753118 184.081734 
L 194.390565 179.5535 
" style="fill:none;stroke:#0072b2;stroke-linecap:square;stroke-width:2;"/>
   </g>
   <g id="line2d_44">
    <path clip-path="url(#p72b88bdb44)" d="M 32.283281 118.140891 
L 33.920729 121.090349 
L 35.558176 121.237261 
L 37.195623 111.14274 
L 38.83307 122.327381 
L 40.470518 110.200744 
L 42.107965 103.976434 
L 43.745412 93.319721 
L 45.38286 90.435957 
L 47.020307 89.841224 
L 48.657754 83.362303 
L 50.295202 77.150424 
L 51.932649 86.415221 
L 53.570096 78.432683 
L 55.207544 74.495369 
L 56.844991 82.839932 
L 58.482438 86.784999 
L 60.119886 97.10763 
L 61.757333 97.097361 
L 63.39478 102.301406 
L 65.032227 107.601681 
L 66.669675 100.854446 
L 68.307122 103.999129 
L 69.944569 109.490638 
L 71.582017 99.961548 
L 73.219464 96.867956 
L 74.856911 96.322893 
L 76.494359 92.497969 
L 78.131806 98.953587 
L 79.769253 96.961055 
L 81.406701 84.576386 
L 83.044148 72.775152 
L 84.681595 72.199505 
L 86.319043 60.377779 
L 87.95649 49.238369 
L 89.593937 38.274722 
L 91.231384 39.569307 
L 92.868832 50.553257 
L 94.506279 58.98834 
L 96.143726 61.722772 
L 97.781174 68.057617 
L 99.418621 61.77946 
L 101.056068 56.987645 
L 102.693516 60.155385 
L 104.330963 53.370043 
L 105.96841 44.100746 
L 107.605858 36.239418 
L 109.243305 39.721337 
L 110.880752 36.126696 
L 112.518199 34.864226 
L 114.155647 41.451758 
L 115.793094 29.32825 
L 117.430541 40.094683 
L 119.067989 49.499126 
L 120.705436 37.661633 
L 122.342883 27.420312 
L 123.980331 38.218497 
L 125.617778 50.041665 
L 127.255225 39.148165 
L 128.892673 43.483467 
L 130.53012 48.204021 
L 132.167567 60.431355 
L 133.805015 51.829312 
L 135.442462 64.308387 
L 137.079909 63.859024 
L 138.717356 69.700653 
L 140.354804 69.764281 
L 141.992251 75.092297 
L 143.629698 77.931102 
L 145.267146 85.582008 
L 146.904593 94.77969 
L 148.54204 99.3796 
L 150.179488 110.581871 
L 151.816935 111.016375 
L 153.454382 103.672307 
L 155.09183 91.709637 
L 156.729277 98.452017 
L 158.366724 108.317338 
L 160.004172 118.991411 
L 161.641619 110.787406 
L 163.279066 113.085052 
L 164.916513 104.550909 
L 166.553961 99.92359 
L 168.191408 106.328172 
L 169.828855 93.970985 
L 171.466303 102.053264 
L 173.10375 100.180376 
L 174.741197 87.868213 
L 176.378645 96.104184 
L 178.016092 106.308081 
L 179.653539 94.209968 
L 181.290987 102.186598 
L 182.928434 113.510881 
L 184.565881 119.73411 
L 186.203328 126.815104 
L 187.840776 133.791355 
L 189.478223 143.70732 
L 191.11567 139.225158 
L 192.753118 145.748202 
L 194.390565 156.193521 
" style="fill:none;stroke:#d55e00;stroke-linecap:square;stroke-width:2;"/>
   </g>
   <g id="line2d_45">
    <path clip-path="url(#p72b88bdb44)" d="M 32.283281 126.555271 
L 33.920729 134.536395 
L 35.558176 140.165435 
L 37.195623 150.149685 
L 38.83307 138.36004 
L 40.470518 138.463129 
L 42.107965 127.961348 
L 43.745412 123.734514 
L 45.38286 111.742939 
L 47.020307 114.852834 
L 48.657754 119.650843 
L 50.295202 118.484651 
L 51.932649 130.946989 
L 53.570096 142.943942 
L 55.207544 153.507803 
L 56.844991 141.553362 
L 58.482438 150.02255 
L 60.119886 148.786223 
L 61.757333 157.312856 
L 63.39478 160.422155 
L 65.032227 148.211547 
L 66.669675 152.987056 
L 68.307122 145.655328 
L 69.944569 134.151462 
L 71.582017 128.698014 
L 73.219464 120.153961 
L 74.856911 109.403968 
L 76.494359 101.035434 
L 78.131806 102.191816 
L 79.769253 107.175795 
L 81.406701 106.910436 
L 83.044148 110.436964 
L 84.681595 114.368461 
L 86.319043 112.58791 
L 87.95649 100.148621 
L 89.593937 95.048257 
L 91.231384 94.813224 
L 92.868832 87.05993 
L 94.506279 91.192096 
L 96.143726 79.861824 
L 97.781174 88.981371 
L 99.418621 77.034751 
L 101.056068 80.231982 
L 102.693516 92.089727 
L 104.330963 101.567737 
L 105.96841 110.386355 
L 107.605858 104.033908 
L 109.243305 108.118405 
L 110.880752 116.930163 
L 112.518199 120.429294 
L 114.155647 107.98916 
L 115.793094 113.938802 
L 117.430541 106.023069 
L 119.067989 96.220327 
L 120.705436 93.281735 
L 122.342883 104.44905 
L 123.980331 113.604758 
L 125.617778 105.778265 
L 127.255225 97.506093 
L 128.892673 96.225598 
L 130.53012 103.858452 
L 132.167567 111.767471 
L 133.805015 122.194169 
L 135.442462 129.396026 
L 137.079909 137.92004 
L 138.717356 129.239496 
L 140.354804 131.705954 
L 141.992251 121.371736 
L 143.629698 118.896162 
L 145.267146 124.931579 
L 146.904593 137.161054 
L 148.54204 125.358648 
L 150.179488 118.059257 
L 151.816935 117.980051 
L 153.454382 120.706694 
L 155.09183 121.928791 
L 156.729277 128.059859 
L 158.366724 121.44822 
L 160.004172 108.957102 
L 161.641619 109.451032 
L 163.279066 105.462119 
L 164.916513 102.77729 
L 166.553961 99.924357 
L 168.191408 93.623971 
L 169.828855 85.767202 
L 171.466303 83.816668 
L 173.10375 85.302973 
L 174.741197 78.338512 
L 176.378645 75.597079 
L 178.016092 64.336952 
L 179.653539 70.735867 
L 181.290987 68.031696 
L 182.928434 67.234139 
L 184.565881 75.483585 
L 186.203328 80.281 
L 187.840776 82.868117 
L 189.478223 70.921339 
L 191.11567 68.672057 
L 192.753118 72.628543 
L 194.390565 81.733063 
" style="fill:none;stroke:#009e73;stroke-linecap:square;stroke-width:2;"/>
   </g>
   <g id="line2d_46">
    <path clip-path="url(#p72b88bdb44)" d="M 32.283281 125.674977 
L 33.920729 131.619941 
L 35.558176 139.374722 
L 37.195623 140.142369 
L 38.83307 152.670335 
L 40.470518 143.674505 
L 42.107965 147.529535 
L 43.745412 150.150725 
L 45.38286 159.970911 
L 47.020307 172.181006 
L 48.657754 172.948728 
L 50.295202 170.684415 
L 51.932649 163.452765 
L 53.570096 160.006027 
L 55.207544 169.107684 
L 56.844991 160.084632 
L 58.482438 161.617493 
L 60.119886 171.142869 
L 61.757333 176.928256 
L 63.39478 165.235345 
L 65.032227 167.860067 
L 66.669675 161.06714 
L 68.307122 157.778429 
L 69.944569 169.966866 
L 71.582017 164.49406 
L 73.219464 172.172706 
L 74.856911 177.25075 
L 76.494359 167.66475 
L 78.131806 179.785014 
L 79.769253 167.522222 
L 81.406701 164.095455 
L 83.044148 175.966166 
L 84.681595 172.787594 
L 86.319043 177.559274 
L 87.95649 170.492742 
L 89.593937 172.673594 
L 91.231384 174.599894 
L 92.868832 179.717087 
L 94.506279 172.814508 
L 96.143726 178.62929 
L 97.781174 178.622892 
L 99.418621 176.550515 
L 101.056068 167.707763 
L 102.693516 172.0224 
L 104.330963 160.722017 
L 105.96841 171.138227 
L 107.605858 163.526281 
L 109.243305 176.070457 
L 110.880752 179.967348 
L 112.518199 170.542751 
L 114.155647 168.112823 
L 115.793094 173.704048 
L 117.430541 162.445729 
L 119.067989 165.477163 
L 120.705436 158.465067 
L 122.342883 161.498852 
L 123.980331 155.778378 
L 125.617778 167.348072 
L 127.255225 168.210128 
L 128.892673 178.919962 
L 130.53012 189.090734 
L 132.167567 179.497235 
L 133.805015 184.161598 
L 135.442462 187.607776 
L 137.079909 176.066465 
L 138.717356 186.345647 
L 140.354804 182.622577 
L 141.992251 182.710374 
L 143.629698 170.422277 
L 145.267146 165.632414 
L 146.904593 172.877602 
L 148.54204 172.173784 
L 150.179488 168.759742 
L 151.816935 160.675305 
L 153.454382 158.266093 
L 155.09183 168.971065 
L 156.729277 157.50185 
L 158.366724 169.639523 
L 160.004172 170.389025 
L 161.641619 169.208593 
L 163.279066 161.159327 
L 164.916513 167.951698 
L 166.553961 173.54798 
L 168.191408 167.15041 
L 169.828855 176.721875 
L 171.466303 169.483671 
L 173.10375 166.455107 
L 174.741197 178.84387 
L 176.378645 170.964143 
L 178.016092 159.736486 
L 179.653539 164.126996 
L 181.290987 164.942354 
L 182.928434 157.059695 
L 184.565881 149.012484 
L 186.203328 150.528334 
L 187.840776 146.673256 
L 189.478223 136.114109 
L 191.11567 146.72565 
L 192.753118 139.27601 
L 194.390565 138.843073 
" style="fill:none;stroke:#cc79a7;stroke-linecap:square;stroke-width:2;"/>
   </g>
   <g id="line2d_47">
    <path clip-path="url(#p72b88bdb44)" d="M 32.283281 119.047342 
L 33.920729 129.837781 
L 35.558176 121.108172 
L 37.195623 110.808119 
L 38.83307 106.55331 
L 40.470518 112.573321 
L 42.107965 121.748371 
L 43.745412 131.433381 
L 45.38286 137.767062 
L 47.020307 146.140983 
L 48.657754 145.78437 
L 50.295202 135.582286 
L 51.932649 124.823346 
L 53.570096 120.137834 
L 55.207544 110.014239 
L 56.844991 121.56507 
L 58.482438 131.455528 
L 60.119886 143.632087 
L 61.757333 152.154194 
L 63.39478 150.380186 
L 65.032227 155.026276 
L 66.669675 146.853771 
L 68.307122 154.008425 
L 69.944569 163.238432 
L 71.582017 163.591206 
L 73.219464 166.320174 
L 74.856911 175.188954 
L 76.494359 181.445708 
L 78.131806 174.727573 
L 79.769253 176.140526 
L 81.406701 180.826333 
L 83.044148 182.890615 
L 84.681595 187.215983 
L 86.319043 177.910954 
L 87.95649 170.023279 
L 89.593937 174.916008 
L 91.231384 174.892885 
L 92.868832 166.182227 
L 94.506279 160.938671 
L 96.143726 156.620932 
L 97.781174 167.727719 
L 99.418621 160.778608 
L 101.056068 172.610634 
L 102.693516 176.958171 
L 104.330963 172.134511 
L 105.96841 172.628128 
L 107.605858 182.786005 
L 109.243305 179.346186 
L 110.880752 177.005719 
L 112.518199 175.565812 
L 114.155647 171.261628 
L 115.793094 162.522508 
L 117.430541 164.949568 
L 119.067989 156.532774 
L 120.705436 155.798918 
L 122.342883 156.183867 
L 123.980331 154.059581 
L 125.617778 142.271298 
L 127.255225 137.613001 
L 128.892673 149.263487 
L 130.53012 140.140337 
L 132.167567 142.986142 
L 133.805015 137.292227 
L 135.442462 138.351931 
L 137.079909 136.123426 
L 138.717356 131.818406 
L 140.354804 123.973672 
L 141.992251 123.436981 
L 143.629698 122.677033 
L 145.267146 113.981482 
L 146.904593 116.451427 
L 148.54204 106.69654 
L 150.179488 103.140927 
L 151.816935 109.38291 
L 153.454382 118.416897 
L 155.09183 110.030128 
L 156.729277 121.352979 
L 158.366724 115.956298 
L 160.004172 116.386706 
L 161.641619 107.571308 
L 163.279066 106.883463 
L 164.916513 118.760025 
L 166.553961 128.268601 
L 168.191408 119.531483 
L 169.828855 120.263876 
L 171.466303 124.455388 
L 173.10375 134.704769 
L 174.741197 124.319924 
L 176.378645 134.017685 
L 178.016092 142.244609 
L 179.653539 146.575758 
L 181.290987 141.97011 
L 182.928434 136.003876 
L 184.565881 130.642074 
L 186.203328 127.0044 
L 187.840776 122.772855 
L 189.478223 118.583752 
L 191.11567 119.462056 
L 192.753118 121.457111 
L 194.390565 111.167585 
" style="fill:none;stroke:#f0e442;stroke-linecap:square;stroke-width:2;"/>
   </g>
   <g id="patch_3">
    <path d="M 32.283281 190.874976 
L 32.283281 27.420312 
" style="fill:none;stroke:#000000;stroke-linecap:square;stroke-linejoin:miter;stroke-width:0.6;"/>
   </g>
   <g id="patch_4">
    <path d="M 194.390565 190.874976 
L 194.390565 27.420312 
" style="fill:none;stroke:#000000;stroke-linecap:square;stroke-linejoin:miter;stroke-width:0.6;"/>
   </g>
   <g id="patch_5">
    <path d="M 32.283281 190.874976 
L 194.390565 190.874976 
" style="fill:none;stroke:#000000;stroke-linecap:square;stroke-linejoin:miter;stroke-width:0.6;"/>
   </g>
   <g id="patch_6">
    <path d="M 32.283281 27.420312 
L 194.390565 27.420312 
" style="fill:none;stroke:#000000;stroke-linecap:square;stroke-linejoin:miter;stroke-width:0.6;"/>
   </g>
   <g id="text_14">
    <!-- Title -->
    <defs>
     <path d="M 59.296875 64.703125 
L 35.40625 64.703125 
L 35.40625 0 
L 26.09375 0 
L 26.09375 64.703125 
L 2.09375 64.703125 
L 2.09375 72.90625 
L 59.296875 72.90625 
z
" id="TeXGyreHeros-Regular-84"/>
     <path d="M 25.40625 0 
Q 21.5 -0.703125 18.59375 -0.703125 
Q 13.703125 -0.703125 11.09375 1.4375 
Q 8.5 3.59375 8.5 7.59375 
L 8.5 45.59375 
L 1.40625 45.59375 
L 1.40625 52.40625 
L 8.5 52.40625 
L 8.5 66.796875 
L 16.796875 66.796875 
L 16.796875 52.40625 
L 25.40625 52.40625 
L 25.40625 45.59375 
L 16.796875 45.59375 
L 16.796875 11.296875 
Q 16.796875 8.5 17.75 7.546875 
Q 18.703125 6.59375 21.40625 6.59375 
Q 23.90625 6.59375 25.40625 7 
z
" id="TeXGyreHeros-Regular-116"/>
     <path d="M 15.09375 0 
L 6.796875 0 
L 6.796875 72.90625 
L 15.09375 72.90625 
z
" id="TeXGyreHeros-Regular-108"/>
     <path d="M 51.296875 23.796875 
L 12.703125 23.796875 
Q 12.796875 15.09375 17.046875 10.640625 
Q 21.296875 6.203125 28.09375 6.203125 
Q 38.59375 6.203125 41.796875 15.90625 
L 50.203125 15.90625 
Q 48.59375 7.90625 42.640625 3.203125 
Q 36.703125 -1.5 27.796875 -1.5 
Q 16.703125 -1.5 10.34375 5.75 
Q 4 13 4 25.890625 
Q 4 38.796875 10.5 46.34375 
Q 17 53.90625 28 53.90625 
Q 35.40625 53.90625 41.046875 50.203125 
Q 46.703125 46.5 49.203125 40.09375 
Q 51.296875 34.59375 51.296875 23.796875 
z
M 42.40625 31.203125 
Q 42.40625 37.40625 38.203125 41.796875 
Q 34 46.203125 27.90625 46.203125 
Q 21.59375 46.203125 17.5 41.890625 
Q 13.40625 37.59375 12.90625 30.59375 
L 42.296875 30.59375 
z
" id="TeXGyreHeros-Regular-101"/>
    </defs>
    <g transform="translate(103.892392 24.420312)scale(0.1 -0.1)">
     <use xlink:href="#TeXGyreHeros-Regular-84"/>
     <use x="61.099991" xlink:href="#TeXGyreHeros-Regular-105"/>
     <use x="83.299988" xlink:href="#TeXGyreHeros-Regular-116"/>
     <use x="111.099976" xlink:href="#TeXGyreHeros-Regular-108"/>
     <use x="133.299973" xlink:href="#TeXGyreHeros-Regular-101"/>
    </g>
   </g>
  </g>
  <g id="axes_2">
   <g id="patch_7">
    <path d="M 207.390565 190.874976 
L 369.497849 190.874976 
L 369.497849 27.420312 
L 207.390565 27.420312 
z
" style="fill:none;"/>
   </g>
   <g id="matplotlib.axis_3">
    <g id="xtick_6">
     <g id="line2d_48">
      <path clip-path="url(#p51e51da23b)" d="M 207.390565 190.874976 
L 207.390565 27.420312 
" style="fill:none;stroke:#000000;stroke-linecap:square;stroke-opacity:0.1;stroke-width:0.6;"/>
     </g>
     <g id="line2d_49">
      <g>
       <use style="stroke:#000000;stroke-width:0.6;" x="207.390565" xlink:href="#m2001fbcbbf" y="190.874976"/>
      </g>
     </g>
     <g id="text_15">
      <!-- 0 -->
      <g transform="translate(204.888846 203.436538)scale(0.09 -0.09)">
       <use xlink:href="#TeXGyreHeros-Regular-48"/>
      </g>
     </g>
    </g>
    <g id="xtick_7">
     <g id="line2d_50">
      <path clip-path="url(#p51e51da23b)" d="M 239.812022 190.874976 
L 239.812022 27.420312 
" style="fill:none;stroke:#000000;stroke-linecap:square;stroke-opacity:0.1;stroke-width:0.6;"/>
     </g>
     <g id="line2d_51">
      <g>
       <use style="stroke:#000000;stroke-width:0.6;" x="239.812022" xlink:href="#m2001fbcbbf" y="190.874976"/>
      </g>
     </g>
     <g id="text_16">
      <!-- 0.2 -->
      <defs>
       <path d="M 19.09375 0 
L 8.703125 0 
L 8.703125 10.40625 
L 19.09375 10.40625 
z
" id="TeXGyreHeros-Regular-46"/>
      </defs>
      <g transform="translate(233.557725 203.436538)scale(0.09 -0.09)">
       <use xlink:href="#TeXGyreHeros-Regular-48"/>
       <use x="55.599991" xlink:href="#TeXGyreHeros-Regular-46"/>
       <use x="83.399979" xlink:href="#TeXGyreHeros-Regular-50"/>
      </g>
     </g>
    </g>
    <g id="xtick_8">
     <g id="line2d_52">
      <path clip-path="url(#p51e51da23b)" d="M 272.233479 190.874976 
L 272.233479 27.420312 
" style="fill:none;stroke:#000000;stroke-linecap:square;stroke-opacity:0.1;stroke-width:0.6;"/>
     </g>
     <g id="line2d_53">
      <g>
       <use style="stroke:#000000;stroke-width:0.6;" x="272.233479" xlink:href="#m2001fbcbbf" y="190.874976"/>
      </g>
     </g>
     <g id="text_17">
      <!-- 0.4 -->
      <g transform="translate(265.979182 203.436538)scale(0.09 -0.09)">
       <use xlink:href="#TeXGyreHeros-Regular-48"/>
       <use x="55.599991" xlink:href="#TeXGyreHeros-Regular-46"/>
       <use x="83.399979" xlink:href="#TeXGyreHeros-Regular-52"/>
      </g>
     </g>
    </g>
    <g id="xtick_9">
     <g id="line2d_54">
      <path clip-path="url(#p51e51da23b)" d="M 304.654935 190.874976 
L 304.654935 27.420312 
" style="fill:none;stroke:#000000;stroke-linecap:square;stroke-opacity:0.1;stroke-width:0.6;"/>
     </g>
     <g id="line2d_55">
      <g>
       <use style="stroke:#000000;stroke-width:0.6;" x="304.654935" xlink:href="#m2001fbcbbf" y="190.874976"/>
      </g>
     </g>
     <g id="text_18">
      <!-- 0.6 -->
      <g transform="translate(298.400638 203.436538)scale(0.09 -0.09)">
       <use xlink:href="#TeXGyreHeros-Regular-48"/>
       <use x="55.599991" xlink:href="#TeXGyreHeros-Regular-46"/>
       <use x="83.399979" xlink:href="#TeXGyreHeros-Regular-54"/>
      </g>
     </g>
    </g>
    <g id="xtick_10">
     <g id="line2d_56">
      <path clip-path="url(#p51e51da23b)" d="M 337.076392 190.874976 
L 337.076392 27.420312 
" style="fill:none;stroke:#000000;stroke-linecap:square;stroke-opacity:0.1;stroke-width:0.6;"/>
     </g>
     <g id="line2d_57">
      <g>
       <use style="stroke:#000000;stroke-width:0.6;" x="337.076392" xlink:href="#m2001fbcbbf" y="190.874976"/>
      </g>
     </g>
     <g id="text_19">
      <!-- 0.8 -->
      <g transform="translate(330.822095 203.436538)scale(0.09 -0.09)">
       <use xlink:href="#TeXGyreHeros-Regular-48"/>
       <use x="55.599991" xlink:href="#TeXGyreHeros-Regular-46"/>
       <use x="83.399979" xlink:href="#TeXGyreHeros-Regular-56"/>
      </g>
     </g>
    </g>
    <g id="xtick_11">
     <g id="line2d_58">
      <path clip-path="url(#p51e51da23b)" d="M 369.497849 190.874976 
L 369.497849 27.420312 
" style="fill:none;stroke:#000000;stroke-linecap:square;stroke-opacity:0.1;stroke-width:0.6;"/>
     </g>
     <g id="line2d_59">
      <g>
       <use style="stroke:#000000;stroke-width:0.6;" x="369.497849" xlink:href="#m2001fbcbbf" y="190.874976"/>
      </g>
     </g>
     <g id="text_20">
      <!-- 1 -->
      <defs>
       <path d="M 34.703125 0 
L 25.90625 0 
L 25.90625 50.5 
L 10.203125 50.5 
L 10.203125 56.796875 
Q 20.40625 58.09375 23.5 60.390625 
Q 26.59375 62.703125 28.90625 70.90625 
L 34.703125 70.90625 
z
" id="TeXGyreHeros-Regular-49"/>
      </defs>
      <g transform="translate(366.99613 203.436538)scale(0.09 -0.09)">
       <use xlink:href="#TeXGyreHeros-Regular-49"/>
      </g>
     </g>
    </g>
    <g id="xtick_12">
     <g id="line2d_60">
      <defs>
       <path d="M 0 0 
L 0 2 
" id="m178dd104c5" style="stroke:#000000;stroke-width:0.48;"/>
      </defs>
      <g>
       <use style="stroke:#000000;stroke-width:0.48;" x="215.495929" xlink:href="#m178dd104c5" y="190.874976"/>
      </g>
     </g>
    </g>
    <g id="xtick_13">
     <g id="line2d_61">
      <g>
       <use style="stroke:#000000;stroke-width:0.48;" x="223.601293" xlink:href="#m178dd104c5" y="190.874976"/>
      </g>
     </g>
    </g>
    <g id="xtick_14">
     <g id="line2d_62">
      <g>
       <use style="stroke:#000000;stroke-width:0.48;" x="231.706658" xlink:href="#m178dd104c5" y="190.874976"/>
      </g>
     </g>
    </g>
    <g id="xtick_15">
     <g id="line2d_63">
      <g>
       <use style="stroke:#000000;stroke-width:0.48;" x="247.917386" xlink:href="#m178dd104c5" y="190.874976"/>
      </g>
     </g>
    </g>
    <g id="xtick_16">
     <g id="line2d_64">
      <g>
       <use style="stroke:#000000;stroke-width:0.48;" x="256.02275" xlink:href="#m178dd104c5" y="190.874976"/>
      </g>
     </g>
    </g>
    <g id="xtick_17">
     <g id="line2d_65">
      <g>
       <use style="stroke:#000000;stroke-width:0.48;" x="264.128114" xlink:href="#m178dd104c5" y="190.874976"/>
      </g>
     </g>
    </g>
    <g id="xtick_18">
     <g id="line2d_66">
      <g>
       <use style="stroke:#000000;stroke-width:0.48;" x="280.338843" xlink:href="#m178dd104c5" y="190.874976"/>
      </g>
     </g>
    </g>
    <g id="xtick_19">
     <g id="line2d_67">
      <g>
       <use style="stroke:#000000;stroke-width:0.48;" x="288.444207" xlink:href="#m178dd104c5" y="190.874976"/>
      </g>
     </g>
    </g>
    <g id="xtick_20">
     <g id="line2d_68">
      <g>
       <use style="stroke:#000000;stroke-width:0.48;" x="296.549571" xlink:href="#m178dd104c5" y="190.874976"/>
      </g>
     </g>
    </g>
    <g id="xtick_21">
     <g id="line2d_69">
      <g>
       <use style="stroke:#000000;stroke-width:0.48;" x="312.760299" xlink:href="#m178dd104c5" y="190.874976"/>
      </g>
     </g>
    </g>
    <g id="xtick_22">
     <g id="line2d_70">
      <g>
       <use style="stroke:#000000;stroke-width:0.48;" x="320.865664" xlink:href="#m178dd104c5" y="190.874976"/>
      </g>
     </g>
    </g>
    <g id="xtick_23">
     <g id="line2d_71">
      <g>
       <use style="stroke:#000000;stroke-width:0.48;" x="328.971028" xlink:href="#m178dd104c5" y="190.874976"/>
      </g>
     </g>
    </g>
    <g id="xtick_24">
     <g id="line2d_72">
      <g>
       <use style="stroke:#000000;stroke-width:0.48;" x="345.181756" xlink:href="#m178dd104c5" y="190.874976"/>
      </g>
     </g>
    </g>
    <g id="xtick_25">
     <g id="line2d_73">
      <g>
       <use style="stroke:#000000;stroke-width:0.48;" x="353.28712" xlink:href="#m178dd104c5" y="190.874976"/>
      </g>
     </g>
    </g>
    <g id="xtick_26">
     <g id="line2d_74">
      <g>
       <use style="stroke:#000000;stroke-width:0.48;" x="361.392485" xlink:href="#m178dd104c5" y="190.874976"/>
      </g>
     </g>
    </g>
   </g>
   <g id="matplotlib.axis_4">
    <g id="ytick_27">
     <g id="line2d_75">
      <path clip-path="url(#p51e51da23b)" d="M 207.390565 172.080492 
L 369.497849 172.080492 
" style="fill:none;stroke:#000000;stroke-linecap:square;stroke-opacity:0.1;stroke-width:0.6;"/>
     </g>
     <g id="line2d_76">
      <g>
       <use style="stroke:#000000;stroke-width:0.6;" x="207.390565" xlink:href="#mc0a63315fb" y="172.080492"/>
      </g>
     </g>
    </g>
    <g id="ytick_28">
     <g id="line2d_77">
      <path clip-path="url(#p51e51da23b)" d="M 207.390565 146.989415 
L 369.497849 146.989415 
" style="fill:none;stroke:#000000;stroke-linecap:square;stroke-opacity:0.1;stroke-width:0.6;"/>
     </g>
     <g id="line2d_78">
      <g>
       <use style="stroke:#000000;stroke-width:0.6;" x="207.390565" xlink:href="#mc0a63315fb" y="146.989415"/>
      </g>
     </g>
    </g>
    <g id="ytick_29">
     <g id="line2d_79">
      <path clip-path="url(#p51e51da23b)" d="M 207.390565 121.898339 
L 369.497849 121.898339 
" style="fill:none;stroke:#000000;stroke-linecap:square;stroke-opacity:0.1;stroke-width:0.6;"/>
     </g>
     <g id="line2d_80">
      <g>
       <use style="stroke:#000000;stroke-width:0.6;" x="207.390565" xlink:href="#mc0a63315fb" y="121.898339"/>
      </g>
     </g>
    </g>
    <g id="ytick_30">
     <g id="line2d_81">
      <path clip-path="url(#p51e51da23b)" d="M 207.390565 96.807263 
L 369.497849 96.807263 
" style="fill:none;stroke:#000000;stroke-linecap:square;stroke-opacity:0.1;stroke-width:0.6;"/>
     </g>
     <g id="line2d_82">
      <g>
       <use style="stroke:#000000;stroke-width:0.6;" x="207.390565" xlink:href="#mc0a63315fb" y="96.807263"/>
      </g>
     </g>
    </g>
    <g id="ytick_31">
     <g id="line2d_83">
      <path clip-path="url(#p51e51da23b)" d="M 207.390565 71.716187 
L 369.497849 71.716187 
" style="fill:none;stroke:#000000;stroke-linecap:square;stroke-opacity:0.1;stroke-width:0.6;"/>
     </g>
     <g id="line2d_84">
      <g>
       <use style="stroke:#000000;stroke-width:0.6;" x="207.390565" xlink:href="#mc0a63315fb" y="71.716187"/>
      </g>
     </g>
    </g>
    <g id="ytick_32">
     <g id="line2d_85">
      <path clip-path="url(#p51e51da23b)" d="M 207.390565 46.625111 
L 369.497849 46.625111 
" style="fill:none;stroke:#000000;stroke-linecap:square;stroke-opacity:0.1;stroke-width:0.6;"/>
     </g>
     <g id="line2d_86">
      <g>
       <use style="stroke:#000000;stroke-width:0.6;" x="207.390565" xlink:href="#mc0a63315fb" y="46.625111"/>
      </g>
     </g>
    </g>
    <g id="ytick_33">
     <g id="line2d_87">
      <g>
       <use style="stroke:#000000;stroke-width:0.48;" x="207.390565" xlink:href="#m75b7bcb059" y="184.62603"/>
      </g>
     </g>
    </g>
    <g id="ytick_34">
     <g id="line2d_88">
      <g>
       <use style="stroke:#000000;stroke-width:0.48;" x="207.390565" xlink:href="#m75b7bcb059" y="178.353261"/>
      </g>
     </g>
    </g>
    <g id="ytick_35">
     <g id="line2d_89">
      <g>
       <use style="stroke:#000000;stroke-width:0.48;" x="207.390565" xlink:href="#m75b7bcb059" y="165.807722"/>
      </g>
     </g>
    </g>
    <g id="ytick_36">
     <g id="line2d_90">
      <g>
       <use style="stroke:#000000;stroke-width:0.48;" x="207.390565" xlink:href="#m75b7bcb059" y="159.534953"/>
      </g>
     </g>
    </g>
    <g id="ytick_37">
     <g id="line2d_91">
      <g>
       <use style="stroke:#000000;stroke-width:0.48;" x="207.390565" xlink:href="#m75b7bcb059" y="153.262184"/>
      </g>
     </g>
    </g>
    <g id="ytick_38">
     <g id="line2d_92">
      <g>
       <use style="stroke:#000000;stroke-width:0.48;" x="207.390565" xlink:href="#m75b7bcb059" y="140.716646"/>
      </g>
     </g>
    </g>
    <g id="ytick_39">
     <g id="line2d_93">
      <g>
       <use style="stroke:#000000;stroke-width:0.48;" x="207.390565" xlink:href="#m75b7bcb059" y="134.443877"/>
      </g>
     </g>
    </g>
    <g id="ytick_40">
     <g id="line2d_94">
      <g>
       <use style="stroke:#000000;stroke-width:0.48;" x="207.390565" xlink:href="#m75b7bcb059" y="128.171108"/>
      </g>
     </g>
    </g>
    <g id="ytick_41">
     <g id="line2d_95">
      <g>
       <use style="stroke:#000000;stroke-width:0.48;" x="207.390565" xlink:href="#m75b7bcb059" y="115.62557"/>
      </g>
     </g>
    </g>
    <g id="ytick_42">
     <g id="line2d_96">
      <g>
       <use style="stroke:#000000;stroke-width:0.48;" x="207.390565" xlink:href="#m75b7bcb059" y="109.352801"/>
      </g>
     </g>
    </g>
    <g id="ytick_43">
     <g id="line2d_97">
      <g>
       <use style="stroke:#000000;stroke-width:0.48;" x="207.390565" xlink:href="#m75b7bcb059" y="103.080032"/>
      </g>
     </g>
    </g>
    <g id="ytick_44">
     <g id="line2d_98">
      <g>
       <use style="stroke:#000000;stroke-width:0.48;" x="207.390565" xlink:href="#m75b7bcb059" y="90.534494"/>
      </g>
     </g>
    </g>
    <g id="ytick_45">
     <g id="line2d_99">
      <g>
       <use style="stroke:#000000;stroke-width:0.48;" x="207.390565" xlink:href="#m75b7bcb059" y="84.261725"/>
      </g>
     </g>
    </g>
    <g id="ytick_46">
     <g id="line2d_100">
      <g>
       <use style="stroke:#000000;stroke-width:0.48;" x="207.390565" xlink:href="#m75b7bcb059" y="77.988956"/>
      </g>
     </g>
    </g>
    <g id="ytick_47">
     <g id="line2d_101">
      <g>
       <use style="stroke:#000000;stroke-width:0.48;" x="207.390565" xlink:href="#m75b7bcb059" y="65.443418"/>
      </g>
     </g>
    </g>
    <g id="ytick_48">
     <g id="line2d_102">
      <g>
       <use style="stroke:#000000;stroke-width:0.48;" x="207.390565" xlink:href="#m75b7bcb059" y="59.170649"/>
      </g>
     </g>
    </g>
    <g id="ytick_49">
     <g id="line2d_103">
      <g>
       <use style="stroke:#000000;stroke-width:0.48;" x="207.390565" xlink:href="#m75b7bcb059" y="52.89788"/>
      </g>
     </g>
    </g>
    <g id="ytick_50">
     <g id="line2d_104">
      <g>
       <use style="stroke:#000000;stroke-width:0.48;" x="207.390565" xlink:href="#m75b7bcb059" y="40.352341"/>
      </g>
     </g>
    </g>
    <g id="ytick_51">
     <g id="line2d_105">
      <g>
       <use style="stroke:#000000;stroke-width:0.48;" x="207.390565" xlink:href="#m75b7bcb059" y="34.079572"/>
      </g>
     </g>
    </g>
    <g id="ytick_52">
     <g id="line2d_106">
      <g>
       <use style="stroke:#000000;stroke-width:0.48;" x="207.390565" xlink:href="#m75b7bcb059" y="27.806803"/>
      </g>
     </g>
    </g>
   </g>
   <g id="patch_8">
    <path d="M 207.390565 190.874976 
L 207.390565 27.420312 
" style="fill:none;stroke:#000000;stroke-linecap:square;stroke-linejoin:miter;stroke-width:0.6;"/>
   </g>
   <g id="patch_9">
    <path d="M 369.497849 190.874976 
L 369.497849 27.420312 
" style="fill:none;stroke:#000000;stroke-linecap:square;stroke-linejoin:miter;stroke-width:0.6;"/>
   </g>
   <g id="patch_10">
    <path d="M 207.390565 190.874976 
L 369.497849 190.874976 
" style="fill:none;stroke:#000000;stroke-linecap:square;stroke-linejoin:miter;stroke-width:0.6;"/>
   </g>
   <g id="patch_11">
    <path d="M 207.390565 27.420312 
L 369.497849 27.420312 
" style="fill:none;stroke:#000000;stroke-linecap:square;stroke-linejoin:miter;stroke-width:0.6;"/>
   </g>
   <g id="text_21">
    <!-- Title -->
    <g transform="translate(278.999676 24.420312)scale(0.1 -0.1)">
     <use xlink:href="#TeXGyreHeros-Regular-84"/>
     <use x="61.099991" xlink:href="#TeXGyreHeros-Regular-105"/>
     <use x="83.299988" xlink:href="#TeXGyreHeros-Regular-116"/>
     <use x="111.099976" xlink:href="#TeXGyreHeros-Regular-108"/>
     <use x="133.299973" xlink:href="#TeXGyreHeros-Regular-101"/>
    </g>
   </g>
  </g>
  <g id="text_22">
   <!-- Simple subplot grid -->
   <defs>
    <path d="M 63.296875 21.90625 
Q 63.296875 10.90625 55.4375 4.84375 
Q 47.59375 -1.203125 33.40625 -1.203125 
Q 19.296875 -1.203125 11.25 5.046875 
Q 3.203125 11.296875 3.203125 22.90625 
L 17.796875 22.90625 
Q 17.796875 17.09375 22.140625 13.9375 
Q 26.5 10.796875 34.203125 10.796875 
Q 41.09375 10.796875 45 13.1875 
Q 48.90625 15.59375 48.90625 20.09375 
Q 48.90625 24.40625 45.90625 26.5 
Q 42.90625 28.59375 35.203125 30.09375 
L 25 32.09375 
Q 13.90625 34.296875 9.203125 38.75 
Q 4.5 43.203125 4.5 51.703125 
Q 4.5 62.40625 11.75 68.25 
Q 19 74.09375 32.09375 74.09375 
Q 45.59375 74.09375 53.140625 68.09375 
Q 60.703125 62.09375 60.703125 50.703125 
L 46.703125 50.703125 
Q 46.703125 56.203125 42.640625 59.140625 
Q 38.59375 62.09375 31.40625 62.09375 
Q 25.59375 62.09375 22.1875 59.640625 
Q 18.796875 57.203125 18.796875 53.09375 
Q 18.796875 49.09375 21.6875 47.140625 
Q 24.59375 45.203125 32.59375 43.59375 
L 44 41.40625 
Q 54.203125 39.40625 58.75 34.90625 
Q 63.296875 30.40625 63.296875 21.90625 
z
" id="TeXGyreHeros-Bold-83"/>
    <path d="M 20.703125 0 
L 6.703125 0 
L 6.703125 54 
L 20.703125 54 
z
M 20.90625 60.5 
L 6.90625 60.5 
L 6.90625 74.5 
L 20.90625 74.5 
z
" id="TeXGyreHeros-Bold-105"/>
    <path d="M 82.40625 0 
L 68.40625 0 
L 68.40625 36 
Q 68.40625 39.203125 66.34375 41.09375 
Q 64.296875 43 60.796875 43 
Q 56.296875 43 53.75 40.203125 
Q 51.203125 37.40625 51.203125 32.40625 
L 51.203125 0 
L 37.203125 0 
L 37.203125 36 
Q 37.203125 39.203125 35.140625 41.09375 
Q 33.09375 43 29.59375 43 
Q 25.09375 43 22.546875 40.203125 
Q 20 37.40625 20 32.40625 
L 20 0 
L 6 0 
L 6 54 
L 19.90625 54 
L 19.90625 47.296875 
Q 23.40625 51.40625 26.75 53.15625 
Q 30.09375 54.90625 34.703125 54.90625 
Q 45.296875 54.90625 49.40625 46.90625 
Q 55.40625 54.90625 65.203125 54.90625 
Q 73.296875 54.90625 77.84375 50.5 
Q 82.40625 46.09375 82.40625 38.203125 
z
" id="TeXGyreHeros-Bold-109"/>
    <path d="M 57.40625 27 
Q 57.40625 14.796875 51 6.9375 
Q 44.59375 -0.90625 34.796875 -0.90625 
Q 24.40625 -0.90625 19.796875 7.203125 
L 19.796875 -21.796875 
L 5.796875 -21.796875 
L 5.796875 54 
L 19.796875 54 
L 19.796875 46 
Q 24.796875 54.90625 34.796875 54.90625 
Q 45.203125 54.90625 51.296875 47.09375 
Q 57.40625 39.296875 57.40625 27 
z
M 43.40625 26.796875 
Q 43.40625 34.40625 40.203125 38.796875 
Q 37 43.203125 31.59375 43.203125 
Q 26.296875 43.203125 23.046875 38.84375 
Q 19.796875 34.5 19.796875 27 
Q 19.796875 19.5 23.046875 15.140625 
Q 26.296875 10.796875 31.59375 10.796875 
Q 36.796875 10.796875 40.09375 15.140625 
Q 43.40625 19.5 43.40625 26.796875 
z
" id="TeXGyreHeros-Bold-112"/>
    <path d="M 20.703125 0 
L 6.703125 0 
L 6.703125 72.90625 
L 20.703125 72.90625 
z
" id="TeXGyreHeros-Bold-108"/>
    <path d="M 52.5 25 
L 52.40625 23.296875 
L 16.203125 23.296875 
Q 16.5 15.796875 19.296875 12.796875 
Q 22.09375 9.796875 27.40625 9.796875 
Q 36.40625 9.796875 38.09375 15.203125 
L 51.90625 15.203125 
Q 49.59375 7.40625 42.890625 3.25 
Q 36.203125 -0.90625 26.90625 -0.90625 
Q 15.296875 -0.90625 8.75 6.25 
Q 2.203125 13.40625 2.203125 26.296875 
Q 2.203125 39.796875 8.84375 47.34375 
Q 15.5 54.90625 27.203125 54.90625 
Q 39.09375 54.90625 45.796875 46.953125 
Q 52.5 39 52.5 25 
z
M 37.90625 32.59375 
Q 37.40625 38.296875 34.5 41.25 
Q 31.59375 44.203125 27 44.203125 
Q 17.796875 44.203125 16.40625 32.59375 
z
" id="TeXGyreHeros-Bold-101"/>
    <path id="TeXGyreHeros-Bold-32"/>
    <path d="M 52 16 
Q 52 7.796875 45.890625 3.4375 
Q 39.796875 -0.90625 28.40625 -0.90625 
Q 3.5 -0.90625 2.90625 17.09375 
L 16.59375 17.09375 
Q 17.5 13 20 11.546875 
Q 22.5 10.09375 27.59375 10.09375 
Q 38 10.09375 38 14.703125 
Q 38 16.90625 33.296875 18.40625 
L 16.59375 23.59375 
Q 9.5 25.796875 7.140625 28.6875 
Q 4.796875 31.59375 4.796875 36.90625 
Q 4.796875 45.203125 10.75 50.046875 
Q 16.703125 54.90625 27 54.90625 
Q 37.90625 54.90625 44.09375 50.046875 
Q 50.296875 45.203125 50.5 36.59375 
L 37 36.59375 
Q 36.90625 43.90625 26.90625 43.90625 
Q 23.203125 43.90625 21 42.546875 
Q 18.796875 41.203125 18.796875 38.90625 
Q 18.796875 37.203125 19.796875 36.34375 
Q 20.796875 35.5 23.703125 34.703125 
L 41.40625 29.59375 
Q 52 26.5 52 16.703125 
z
" id="TeXGyreHeros-Bold-115"/>
    <path d="M 54.09375 0 
L 40.09375 0 
L 40.09375 7.09375 
Q 34.09375 -0.90625 23.90625 -0.90625 
Q 15.296875 -0.90625 10.546875 4 
Q 5.796875 8.90625 5.796875 17.796875 
L 5.796875 54 
L 19.796875 54 
L 19.796875 20.703125 
Q 19.796875 11 28.796875 11 
Q 33.90625 11 37 13.890625 
Q 40.09375 16.796875 40.09375 21.59375 
L 40.09375 54 
L 54.09375 54 
z
" id="TeXGyreHeros-Bold-117"/>
    <path d="M 57.5 26.296875 
Q 57.5 14.203125 51.046875 6.640625 
Q 44.59375 -0.90625 34.796875 -0.90625 
Q 25.09375 -0.90625 19.90625 6.203125 
L 19.90625 0 
L 5.90625 0 
L 5.90625 72.90625 
L 19.90625 72.90625 
L 19.90625 47 
Q 24.90625 54.90625 34.796875 54.90625 
Q 45.09375 54.90625 51.296875 46.546875 
Q 57.5 38.203125 57.5 26.296875 
z
M 43.5 26.90625 
Q 43.5 34.296875 40.203125 38.75 
Q 36.90625 43.203125 31.703125 43.203125 
Q 26.40625 43.203125 23.15625 38.84375 
Q 19.90625 34.5 19.90625 27.203125 
Q 19.90625 19.59375 23.09375 15.1875 
Q 26.296875 10.796875 31.703125 10.796875 
Q 36.90625 10.796875 40.203125 15.1875 
Q 43.5 19.59375 43.5 26.90625 
z
" id="TeXGyreHeros-Bold-98"/>
    <path d="M 56.90625 26.59375 
Q 56.90625 13.703125 49.75 6.390625 
Q 42.59375 -0.90625 30.203125 -0.90625 
Q 17.703125 -0.90625 10.59375 6.390625 
Q 3.5 13.703125 3.5 27 
Q 3.5 40.203125 10.59375 47.546875 
Q 17.703125 54.90625 30.09375 54.90625 
Q 42.90625 54.90625 49.90625 47.546875 
Q 56.90625 40.203125 56.90625 26.59375 
z
M 42.90625 26.796875 
Q 42.90625 34.703125 39.453125 39.140625 
Q 36 43.59375 30.203125 43.59375 
Q 24.40625 43.59375 20.953125 39.140625 
Q 17.5 34.703125 17.5 27 
Q 17.5 19.296875 20.953125 14.84375 
Q 24.40625 10.40625 30.203125 10.40625 
Q 35.90625 10.40625 39.40625 14.84375 
Q 42.90625 19.296875 42.90625 26.796875 
z
" id="TeXGyreHeros-Bold-111"/>
    <path d="M 30.09375 0 
Q 29.5 0 26.640625 -0.203125 
Q 23.796875 -0.40625 22 -0.40625 
Q 15 -0.40625 11.640625 2.4375 
Q 8.296875 5.296875 8.296875 11.59375 
L 8.296875 43.59375 
L 1.40625 43.59375 
L 1.40625 52.90625 
L 8.296875 52.90625 
L 8.296875 67.40625 
L 22.296875 67.40625 
L 22.296875 52.90625 
L 30.09375 52.90625 
L 30.09375 43.59375 
L 22.296875 43.59375 
L 22.296875 15.40625 
Q 22.296875 11.796875 23.1875 10.640625 
Q 24.09375 9.5 26.90625 9.5 
Q 28 9.5 30.09375 9.796875 
z
" id="TeXGyreHeros-Bold-116"/>
    <path d="M 54.09375 -1.796875 
Q 54.09375 -11.296875 47.34375 -16.546875 
Q 40.59375 -21.796875 28.40625 -21.796875 
Q 17.5 -21.796875 11.09375 -17.5 
Q 4.703125 -13.203125 4.5 -6.5 
L 19 -6.5 
Q 20.703125 -12.796875 28.90625 -12.796875 
Q 34.203125 -12.796875 37.5 -9.75 
Q 40.796875 -6.703125 40.796875 -1.796875 
L 40.796875 6.203125 
Q 36.796875 2.203125 33.5 0.640625 
Q 30.203125 -0.90625 25.5 -0.90625 
Q 15.5 -0.90625 9.453125 6.5 
Q 3.40625 13.90625 3.40625 26.40625 
Q 3.40625 38.90625 9.75 46.90625 
Q 16.09375 54.90625 25.796875 54.90625 
Q 34.796875 54.90625 40.796875 45.703125 
L 40.796875 54 
L 54.09375 54 
z
M 41 26.59375 
Q 41 34 37.546875 38.59375 
Q 34.09375 43.203125 28.796875 43.203125 
Q 23.703125 43.203125 20.546875 38.703125 
Q 17.40625 34.203125 17.40625 26.59375 
Q 17.40625 19.296875 20.5 15.046875 
Q 23.59375 10.796875 28.59375 10.796875 
Q 34.09375 10.796875 37.546875 15.046875 
Q 41 19.296875 41 26.59375 
z
" id="TeXGyreHeros-Bold-103"/>
    <path d="M 37 40.59375 
Q 34.5 41 32.59375 41 
Q 20.296875 41 20.296875 28.703125 
L 20.296875 0 
L 6.296875 0 
L 6.296875 54 
L 20.296875 54 
L 20.296875 43.40625 
Q 22.5 48.90625 26.5 51.90625 
Q 30.5 54.90625 35.296875 54.90625 
Q 36.203125 54.90625 37 54.796875 
z
" id="TeXGyreHeros-Bold-114"/>
    <path d="M 54.5 0 
L 40.5 0 
L 40.5 6.203125 
Q 35.09375 -0.90625 25.59375 -0.90625 
Q 15.203125 -0.90625 9.046875 7.046875 
Q 2.90625 15 2.90625 26.90625 
Q 2.90625 39.09375 9.40625 47 
Q 15.90625 54.90625 25.59375 54.90625 
Q 35.40625 54.90625 40.5 47 
L 40.5 72.90625 
L 54.5 72.90625 
z
M 40.5 26.703125 
Q 40.5 34.40625 37.296875 38.796875 
Q 34.09375 43.203125 28.703125 43.203125 
Q 23.40625 43.203125 20.15625 38.75 
Q 16.90625 34.296875 16.90625 26.890625 
Q 16.90625 19.5 20.15625 15.140625 
Q 23.40625 10.796875 28.703125 10.796875 
Q 34 10.796875 37.25 15.09375 
Q 40.5 19.40625 40.5 26.703125 
z
" id="TeXGyreHeros-Bold-100"/>
   </defs>
   <g transform="translate(154.21869 11.95)scale(0.1 -0.1)">
    <use xlink:href="#TeXGyreHeros-Bold-83"/>
    <use x="66.699997" xlink:href="#TeXGyreHeros-Bold-105"/>
    <use x="94.499985" xlink:href="#TeXGyreHeros-Bold-109"/>
    <use x="183.399979" xlink:href="#TeXGyreHeros-Bold-112"/>
    <use x="244.499969" xlink:href="#TeXGyreHeros-Bold-108"/>
    <use x="272.299957" xlink:href="#TeXGyreHeros-Bold-101"/>
    <use x="327.899948" xlink:href="#TeXGyreHeros-Bold-32"/>
    <use x="355.699936" xlink:href="#TeXGyreHeros-Bold-115"/>
    <use x="411.299927" xlink:href="#TeXGyreHeros-Bold-117"/>
    <use x="472.399918" xlink:href="#TeXGyreHeros-Bold-98"/>
    <use x="533.499908" xlink:href="#TeXGyreHeros-Bold-112"/>
    <use x="594.599899" xlink:href="#TeXGyreHeros-Bold-108"/>
    <use x="622.399887" xlink:href="#TeXGyreHeros-Bold-111"/>
    <use x="683.499878" xlink:href="#TeXGyreHeros-Bold-116"/>
    <use x="716.799866" xlink:href="#TeXGyreHeros-Bold-32"/>
    <use x="744.599854" xlink:href="#TeXGyreHeros-Bold-103"/>
    <use x="805.699844" xlink:href="#TeXGyreHeros-Bold-114"/>
    <use x="844.599838" xlink:href="#TeXGyreHeros-Bold-105"/>
    <use x="872.399826" xlink:href="#TeXGyreHeros-Bold-100"/>
   </g>
  </g>
 </g>
 <defs>
  <clipPath id="p72b88bdb44">
   <rect height="163.454663" width="162.107284" x="32.283281" y="27.420312"/>
  </clipPath>
  <clipPath id="p51e51da23b">
   <rect height="163.454663" width="162.107284" x="207.390565" y="27.420312"/>
  </clipPath>
 </defs>
</svg>
