<?xml version="1.0" encoding="utf-8" standalone="no"?>
<!DOCTYPE svg PUBLIC "-//W3C//DTD SVG 1.1//EN"
  "http://www.w3.org/Graphics/SVG/1.1/DTD/svg11.dtd">
<!-- Created with matplotlib (https://matplotlib.org/) -->
<svg height="346.236522pt" version="1.1" viewBox="0 0 316.486461 346.236522" width="316.486461pt" xmlns="http://www.w3.org/2000/svg" xmlns:xlink="http://www.w3.org/1999/xlink">
 <defs>
  <style type="text/css">
*{stroke-linecap:butt;stroke-linejoin:round;}
  </style>
 </defs>
 <g id="figure_1">
  <g id="patch_1">
   <path d="M 0 346.236522 
L 316.486461 346.236522 
L 316.486461 0 
L 0 0 
z
" style="fill:#ffffff;"/>
  </g>
  <g id="axes_1">
   <g id="patch_2">
    <path d="M 34.531875 150.526933 
L 164.257449 150.526933 
L 164.257449 20.410469 
L 34.531875 20.410469 
z
" style="fill:#ffffff;"/>
   </g>
   <g id="matplotlib.axis_1">
    <g id="xtick_1">
     <g id="line2d_1">
      <path clip-path="url(#pda136a467e)" d="M 34.531875 150.526933 
L 34.531875 20.410469 
" style="fill:none;stroke:#000000;stroke-linecap:square;stroke-opacity:0.1;stroke-width:0.6;"/>
     </g>
     <g id="line2d_2">
      <defs>
       <path d="M 0 0 
L 0 4 
" id="m41992e0f97" style="stroke:#000000;stroke-width:0.6;"/>
      </defs>
      <g>
       <use style="stroke:#000000;stroke-width:0.6;" x="34.531875" xlink:href="#m41992e0f97" y="150.526933"/>
      </g>
     </g>
     <g id="text_1">
      <!-- 0 -->
      <defs>
       <path d="M 50.703125 34.09375 
Q 50.703125 16.703125 44.75 7.59375 
Q 38.796875 -1.5 27.5 -1.5 
Q 16.09375 -1.5 10.1875 7.640625 
Q 4.296875 16.796875 4.296875 34.6875 
Q 4.296875 52.59375 10.140625 61.75 
Q 16 70.90625 27.5 70.90625 
Q 50.703125 70.90625 50.703125 34.09375 
z
M 41.703125 34.90625 
Q 41.703125 63.09375 27.5 63.09375 
Q 13.296875 63.09375 13.296875 34.59375 
Q 13.296875 5.796875 27.296875 5.796875 
Q 34.703125 5.796875 38.203125 12.84375 
Q 41.703125 19.90625 41.703125 34.90625 
z
" id="TeXGyreHeros-Regular-48"/>
      </defs>
      <g transform="translate(32.030156 163.088495)scale(0.09 -0.09)">
       <use xlink:href="#TeXGyreHeros-Regular-48"/>
      </g>
     </g>
    </g>
    <g id="xtick_2">
     <g id="line2d_3">
      <path clip-path="url(#pda136a467e)" d="M 66.963269 150.526933 
L 66.963269 20.410469 
" style="fill:none;stroke:#000000;stroke-linecap:square;stroke-opacity:0.1;stroke-width:0.6;"/>
     </g>
     <g id="line2d_4">
      <g>
       <use style="stroke:#000000;stroke-width:0.6;" x="66.963269" xlink:href="#m41992e0f97" y="150.526933"/>
      </g>
     </g>
     <g id="text_2">
      <!-- 0.25 -->
      <defs>
       <path d="M 19.09375 0 
L 8.703125 0 
L 8.703125 10.40625 
L 19.09375 10.40625 
z
" id="TeXGyreHeros-Regular-46"/>
       <path d="M 51.09375 50.09375 
Q 51.09375 36.703125 36.09375 28.703125 
L 26.09375 23.296875 
Q 19.59375 19.5 16.796875 16.296875 
Q 14 13.09375 13.296875 8.703125 
L 50.59375 8.703125 
L 50.59375 0 
L 3.40625 0 
Q 4 11.703125 8.09375 18.046875 
Q 12.203125 24.40625 23.296875 30.703125 
L 32.5 35.90625 
Q 42.09375 41.40625 42.09375 49.90625 
Q 42.09375 55.59375 38.09375 59.390625 
Q 34.09375 63.203125 28.09375 63.203125 
Q 21.40625 63.203125 17.84375 59.140625 
Q 14.296875 55.09375 13.796875 46.296875 
L 5 46.296875 
Q 5.703125 70.90625 28.40625 70.90625 
Q 38.40625 70.90625 44.75 65 
Q 51.09375 59.09375 51.09375 50.09375 
z
" id="TeXGyreHeros-Regular-50"/>
       <path d="M 51.296875 23.5 
Q 51.296875 12.296875 44.546875 5.390625 
Q 37.796875 -1.5 27 -1.5 
Q 17.296875 -1.5 11.4375 3.203125 
Q 5.59375 7.90625 3.5 18.203125 
L 12.296875 18.203125 
Q 15.40625 6.296875 26.796875 6.296875 
Q 34.09375 6.296875 38.1875 10.5 
Q 42.296875 14.703125 42.296875 22.296875 
Q 42.296875 30.09375 38.140625 34.5 
Q 34 38.90625 26.796875 38.90625 
Q 22.703125 38.90625 19.796875 37.453125 
Q 16.90625 36 13.796875 32.296875 
L 5.703125 32.296875 
L 11 69.40625 
L 47.59375 69.40625 
L 47.59375 60.703125 
L 18.09375 60.703125 
L 15.296875 42.40625 
Q 21.203125 46.703125 28.40625 46.703125 
Q 38.59375 46.703125 44.9375 40.34375 
Q 51.296875 34 51.296875 23.5 
z
" id="TeXGyreHeros-Regular-53"/>
      </defs>
      <g transform="translate(58.207253 163.088495)scale(0.09 -0.09)">
       <use xlink:href="#TeXGyreHeros-Regular-48"/>
       <use x="55.599991" xlink:href="#TeXGyreHeros-Regular-46"/>
       <use x="83.399979" xlink:href="#TeXGyreHeros-Regular-50"/>
       <use x="138.999969" xlink:href="#TeXGyreHeros-Regular-53"/>
      </g>
     </g>
    </g>
    <g id="xtick_3">
     <g id="line2d_5">
      <path clip-path="url(#pda136a467e)" d="M 99.394662 150.526933 
L 99.394662 20.410469 
" style="fill:none;stroke:#000000;stroke-linecap:square;stroke-opacity:0.1;stroke-width:0.6;"/>
     </g>
     <g id="line2d_6">
      <g>
       <use style="stroke:#000000;stroke-width:0.6;" x="99.394662" xlink:href="#m41992e0f97" y="150.526933"/>
      </g>
     </g>
     <g id="text_3">
      <!-- 0.5 -->
      <g transform="translate(93.140365 163.088495)scale(0.09 -0.09)">
       <use xlink:href="#TeXGyreHeros-Regular-48"/>
       <use x="55.599991" xlink:href="#TeXGyreHeros-Regular-46"/>
       <use x="83.399979" xlink:href="#TeXGyreHeros-Regular-53"/>
      </g>
     </g>
    </g>
    <g id="xtick_4">
     <g id="line2d_7">
      <path clip-path="url(#pda136a467e)" d="M 131.826056 150.526933 
L 131.826056 20.410469 
" style="fill:none;stroke:#000000;stroke-linecap:square;stroke-opacity:0.1;stroke-width:0.6;"/>
     </g>
     <g id="line2d_8">
      <g>
       <use style="stroke:#000000;stroke-width:0.6;" x="131.826056" xlink:href="#m41992e0f97" y="150.526933"/>
      </g>
     </g>
     <g id="text_4">
      <!-- 0.75 -->
      <defs>
       <path d="M 52 62 
Q 29.09375 34.796875 23.203125 0 
L 13.796875 0 
Q 21.296875 33.5 42.90625 60.703125 
L 4.59375 60.703125 
L 4.59375 69.40625 
L 52 69.40625 
z
" id="TeXGyreHeros-Regular-55"/>
      </defs>
      <g transform="translate(123.07004 163.088495)scale(0.09 -0.09)">
       <use xlink:href="#TeXGyreHeros-Regular-48"/>
       <use x="55.599991" xlink:href="#TeXGyreHeros-Regular-46"/>
       <use x="83.399979" xlink:href="#TeXGyreHeros-Regular-55"/>
       <use x="138.999969" xlink:href="#TeXGyreHeros-Regular-53"/>
      </g>
     </g>
    </g>
    <g id="xtick_5">
     <g id="line2d_9">
      <path clip-path="url(#pda136a467e)" d="M 164.257449 150.526933 
L 164.257449 20.410469 
" style="fill:none;stroke:#000000;stroke-linecap:square;stroke-opacity:0.1;stroke-width:0.6;"/>
     </g>
     <g id="line2d_10">
      <g>
       <use style="stroke:#000000;stroke-width:0.6;" x="164.257449" xlink:href="#m41992e0f97" y="150.526933"/>
      </g>
     </g>
     <g id="text_5">
      <!-- 1 -->
      <defs>
       <path d="M 34.703125 0 
L 25.90625 0 
L 25.90625 50.5 
L 10.203125 50.5 
L 10.203125 56.796875 
Q 20.40625 58.09375 23.5 60.390625 
Q 26.59375 62.703125 28.90625 70.90625 
L 34.703125 70.90625 
z
" id="TeXGyreHeros-Regular-49"/>
      </defs>
      <g transform="translate(161.755731 163.088495)scale(0.09 -0.09)">
       <use xlink:href="#TeXGyreHeros-Regular-49"/>
      </g>
     </g>
    </g>
    <g id="xtick_6">
     <g id="line2d_11">
      <defs>
       <path d="M 0 0 
L 0 2 
" id="m4f60ec0c6f" style="stroke:#000000;stroke-width:0.48;"/>
      </defs>
      <g>
       <use style="stroke:#000000;stroke-width:0.48;" x="41.018154" xlink:href="#m4f60ec0c6f" y="150.526933"/>
      </g>
     </g>
    </g>
    <g id="xtick_7">
     <g id="line2d_12">
      <g>
       <use style="stroke:#000000;stroke-width:0.48;" x="47.504432" xlink:href="#m4f60ec0c6f" y="150.526933"/>
      </g>
     </g>
    </g>
    <g id="xtick_8">
     <g id="line2d_13">
      <g>
       <use style="stroke:#000000;stroke-width:0.48;" x="53.990711" xlink:href="#m4f60ec0c6f" y="150.526933"/>
      </g>
     </g>
    </g>
    <g id="xtick_9">
     <g id="line2d_14">
      <g>
       <use style="stroke:#000000;stroke-width:0.48;" x="60.47699" xlink:href="#m4f60ec0c6f" y="150.526933"/>
      </g>
     </g>
    </g>
    <g id="xtick_10">
     <g id="line2d_15">
      <g>
       <use style="stroke:#000000;stroke-width:0.48;" x="73.449547" xlink:href="#m4f60ec0c6f" y="150.526933"/>
      </g>
     </g>
    </g>
    <g id="xtick_11">
     <g id="line2d_16">
      <g>
       <use style="stroke:#000000;stroke-width:0.48;" x="79.935826" xlink:href="#m4f60ec0c6f" y="150.526933"/>
      </g>
     </g>
    </g>
    <g id="xtick_12">
     <g id="line2d_17">
      <g>
       <use style="stroke:#000000;stroke-width:0.48;" x="86.422105" xlink:href="#m4f60ec0c6f" y="150.526933"/>
      </g>
     </g>
    </g>
    <g id="xtick_13">
     <g id="line2d_18">
      <g>
       <use style="stroke:#000000;stroke-width:0.48;" x="92.908383" xlink:href="#m4f60ec0c6f" y="150.526933"/>
      </g>
     </g>
    </g>
    <g id="xtick_14">
     <g id="line2d_19">
      <g>
       <use style="stroke:#000000;stroke-width:0.48;" x="105.880941" xlink:href="#m4f60ec0c6f" y="150.526933"/>
      </g>
     </g>
    </g>
    <g id="xtick_15">
     <g id="line2d_20">
      <g>
       <use style="stroke:#000000;stroke-width:0.48;" x="112.36722" xlink:href="#m4f60ec0c6f" y="150.526933"/>
      </g>
     </g>
    </g>
    <g id="xtick_16">
     <g id="line2d_21">
      <g>
       <use style="stroke:#000000;stroke-width:0.48;" x="118.853498" xlink:href="#m4f60ec0c6f" y="150.526933"/>
      </g>
     </g>
    </g>
    <g id="xtick_17">
     <g id="line2d_22">
      <g>
       <use style="stroke:#000000;stroke-width:0.48;" x="125.339777" xlink:href="#m4f60ec0c6f" y="150.526933"/>
      </g>
     </g>
    </g>
    <g id="xtick_18">
     <g id="line2d_23">
      <g>
       <use style="stroke:#000000;stroke-width:0.48;" x="138.312335" xlink:href="#m4f60ec0c6f" y="150.526933"/>
      </g>
     </g>
    </g>
    <g id="xtick_19">
     <g id="line2d_24">
      <g>
       <use style="stroke:#000000;stroke-width:0.48;" x="144.798613" xlink:href="#m4f60ec0c6f" y="150.526933"/>
      </g>
     </g>
    </g>
    <g id="xtick_20">
     <g id="line2d_25">
      <g>
       <use style="stroke:#000000;stroke-width:0.48;" x="151.284892" xlink:href="#m4f60ec0c6f" y="150.526933"/>
      </g>
     </g>
    </g>
    <g id="xtick_21">
     <g id="line2d_26">
      <g>
       <use style="stroke:#000000;stroke-width:0.48;" x="157.771171" xlink:href="#m4f60ec0c6f" y="150.526933"/>
      </g>
     </g>
    </g>
    <g id="text_6">
     <!-- xlabel -->
     <defs>
      <path d="M 47.296875 0 
L 37.59375 0 
L 24.5 20.09375 
L 11.203125 0 
L 1.703125 0 
L 20.203125 26.703125 
L 2.703125 52.40625 
L 12.203125 52.40625 
L 24.796875 33.40625 
L 37.40625 52.40625 
L 46.796875 52.40625 
L 29.203125 27.09375 
z
" id="TeXGyreHeros-Regular-120"/>
      <path d="M 15.09375 0 
L 6.796875 0 
L 6.796875 72.90625 
L 15.09375 72.90625 
z
" id="TeXGyreHeros-Regular-108"/>
      <path d="M 53.5 0.203125 
Q 50 -0.703125 47.796875 -0.703125 
Q 44.703125 -0.703125 42.296875 1.25 
Q 39.90625 3.203125 39.203125 6.203125 
Q 32 -1.5 21.40625 -1.5 
Q 13.40625 -1.5 8.796875 2.5 
Q 4.203125 6.5 4.203125 13.59375 
Q 4.203125 23.40625 13.40625 27.203125 
Q 15.90625 28.203125 18.703125 28.75 
Q 21.5 29.296875 30.203125 30.40625 
Q 35.09375 31 37 32.296875 
Q 38.90625 33.59375 38.90625 36.203125 
L 38.90625 38.40625 
Q 38.90625 42.203125 35.84375 44.203125 
Q 32.796875 46.203125 27.203125 46.203125 
Q 21.40625 46.203125 18.40625 43.953125 
Q 15.40625 41.703125 14.90625 36.90625 
L 6.5 36.90625 
Q 7.203125 53.90625 27.5 53.90625 
Q 37.203125 53.90625 42.203125 50.25 
Q 47.203125 46.59375 47.203125 39.59375 
L 47.203125 10.40625 
Q 47.203125 6.296875 51.703125 6.296875 
Q 52.59375 6.296875 53.5 6.5 
z
M 38.90625 18.09375 
L 38.90625 25.90625 
Q 35.59375 24.40625 25.5 23 
Q 18.703125 22 15.796875 19.953125 
Q 12.90625 17.90625 12.90625 13.796875 
Q 12.90625 5.796875 23.203125 5.796875 
Q 29.5 5.796875 34.203125 9.25 
Q 38.90625 12.703125 38.90625 18.09375 
z
" id="TeXGyreHeros-Regular-97"/>
      <path d="M 52.296875 26.796875 
Q 52.296875 14 46.046875 6.25 
Q 39.796875 -1.5 29.5 -1.5 
Q 18.796875 -1.5 12.90625 7.5 
L 12.90625 0 
L 5.40625 0 
L 5.40625 72.90625 
L 13.703125 72.90625 
L 13.703125 45.296875 
Q 19.40625 53.90625 29.90625 53.90625 
Q 40.296875 53.90625 46.296875 46.703125 
Q 52.296875 39.5 52.296875 26.796875 
z
M 43.59375 26.296875 
Q 43.59375 35.09375 39.390625 40.59375 
Q 35.203125 46.09375 28.296875 46.09375 
Q 21.703125 46.40625 17.703125 40.90625 
Q 13.703125 35.40625 13.703125 26.203125 
Q 13.703125 17.296875 17.703125 11.796875 
Q 21.703125 6.296875 28.296875 6.296875 
Q 35.09375 6.296875 39.34375 11.84375 
Q 43.59375 17.40625 43.59375 26.296875 
z
" id="TeXGyreHeros-Regular-98"/>
      <path d="M 51.296875 23.796875 
L 12.703125 23.796875 
Q 12.796875 15.09375 17.046875 10.640625 
Q 21.296875 6.203125 28.09375 6.203125 
Q 38.59375 6.203125 41.796875 15.90625 
L 50.203125 15.90625 
Q 48.59375 7.90625 42.640625 3.203125 
Q 36.703125 -1.5 27.796875 -1.5 
Q 16.703125 -1.5 10.34375 5.75 
Q 4 13 4 25.890625 
Q 4 38.796875 10.5 46.34375 
Q 17 53.90625 28 53.90625 
Q 35.40625 53.90625 41.046875 50.203125 
Q 46.703125 46.5 49.203125 40.09375 
Q 51.296875 34.59375 51.296875 23.796875 
z
M 42.40625 31.203125 
Q 42.40625 37.40625 38.203125 41.796875 
Q 34 46.203125 27.90625 46.203125 
Q 21.59375 46.203125 17.5 41.890625 
Q 13.40625 37.59375 12.90625 30.59375 
L 42.296875 30.59375 
z
" id="TeXGyreHeros-Regular-101"/>
     </defs>
     <g transform="translate(160.254871 174.611776)scale(0.09 -0.09)">
      <use xlink:href="#TeXGyreHeros-Regular-120"/>
      <use x="49.999985" xlink:href="#TeXGyreHeros-Regular-108"/>
      <use x="72.199982" xlink:href="#TeXGyreHeros-Regular-97"/>
      <use x="127.799973" xlink:href="#TeXGyreHeros-Regular-98"/>
      <use x="183.399963" xlink:href="#TeXGyreHeros-Regular-101"/>
      <use x="238.999954" xlink:href="#TeXGyreHeros-Regular-108"/>
     </g>
    </g>
   </g>
   <g id="matplotlib.axis_2">
    <g id="ytick_1">
     <g id="line2d_27">
      <path clip-path="url(#pda136a467e)" d="M 34.531875 150.526933 
L 164.257449 150.526933 
" style="fill:none;stroke:#000000;stroke-linecap:square;stroke-opacity:0.1;stroke-width:0.6;"/>
     </g>
     <g id="line2d_28">
      <defs>
       <path d="M 0 0 
L -4 0 
" id="m38d6bbd263" style="stroke:#000000;stroke-width:0.6;"/>
      </defs>
      <g>
       <use style="stroke:#000000;stroke-width:0.6;" x="34.531875" xlink:href="#m38d6bbd263" y="150.526933"/>
      </g>
     </g>
     <g id="text_7">
      <!-- 0 -->
      <g transform="translate(23.528437 153.807714)scale(0.09 -0.09)">
       <use xlink:href="#TeXGyreHeros-Regular-48"/>
      </g>
     </g>
    </g>
    <g id="ytick_2">
     <g id="line2d_29">
      <path clip-path="url(#pda136a467e)" d="M 34.531875 124.50364 
L 164.257449 124.50364 
" style="fill:none;stroke:#000000;stroke-linecap:square;stroke-opacity:0.1;stroke-width:0.6;"/>
     </g>
     <g id="line2d_30">
      <g>
       <use style="stroke:#000000;stroke-width:0.6;" x="34.531875" xlink:href="#m38d6bbd263" y="124.50364"/>
      </g>
     </g>
     <g id="text_8">
      <!-- 0.2 -->
      <g transform="translate(16.023281 127.784421)scale(0.09 -0.09)">
       <use xlink:href="#TeXGyreHeros-Regular-48"/>
       <use x="55.599991" xlink:href="#TeXGyreHeros-Regular-46"/>
       <use x="83.399979" xlink:href="#TeXGyreHeros-Regular-50"/>
      </g>
     </g>
    </g>
    <g id="ytick_3">
     <g id="line2d_31">
      <path clip-path="url(#pda136a467e)" d="M 34.531875 98.480347 
L 164.257449 98.480347 
" style="fill:none;stroke:#000000;stroke-linecap:square;stroke-opacity:0.1;stroke-width:0.6;"/>
     </g>
     <g id="line2d_32">
      <g>
       <use style="stroke:#000000;stroke-width:0.6;" x="34.531875" xlink:href="#m38d6bbd263" y="98.480347"/>
      </g>
     </g>
     <g id="text_9">
      <!-- 0.4 -->
      <defs>
       <path d="M 52 17 
L 41.5 17 
L 41.5 0 
L 32.703125 0 
L 32.703125 17 
L 2.796875 17 
L 2.796875 26.296875 
L 35 70.90625 
L 41.5 70.90625 
L 41.5 24.90625 
L 52 24.90625 
z
M 32.703125 24.90625 
L 32.703125 55.90625 
L 10.5 24.90625 
z
" id="TeXGyreHeros-Regular-52"/>
      </defs>
      <g transform="translate(16.023281 101.761128)scale(0.09 -0.09)">
       <use xlink:href="#TeXGyreHeros-Regular-48"/>
       <use x="55.599991" xlink:href="#TeXGyreHeros-Regular-46"/>
       <use x="83.399979" xlink:href="#TeXGyreHeros-Regular-52"/>
      </g>
     </g>
    </g>
    <g id="ytick_4">
     <g id="line2d_33">
      <path clip-path="url(#pda136a467e)" d="M 34.531875 72.457054 
L 164.257449 72.457054 
" style="fill:none;stroke:#000000;stroke-linecap:square;stroke-opacity:0.1;stroke-width:0.6;"/>
     </g>
     <g id="line2d_34">
      <g>
       <use style="stroke:#000000;stroke-width:0.6;" x="34.531875" xlink:href="#m38d6bbd263" y="72.457054"/>
      </g>
     </g>
     <g id="text_10">
      <!-- 0.6 -->
      <defs>
       <path d="M 51.296875 22 
Q 51.296875 11.59375 44.796875 5.046875 
Q 38.296875 -1.5 28.09375 -1.5 
Q 4.296875 -1.5 4.296875 32.296875 
Q 4.296875 50.90625 10.84375 60.90625 
Q 17.40625 70.90625 29.703125 70.90625 
Q 37.796875 70.90625 43.140625 66 
Q 48.5 61.09375 49.796875 52.40625 
L 41 52.40625 
Q 39.90625 57.5 36.796875 60.296875 
Q 33.703125 63.09375 29.09375 63.09375 
Q 21.5 63.09375 17.453125 56.140625 
Q 13.40625 49.203125 13.296875 36.203125 
Q 19.09375 44.09375 29.59375 44.09375 
Q 39.203125 44.09375 45.25 38 
Q 51.296875 31.90625 51.296875 22 
z
M 42.296875 21.296875 
Q 42.296875 28.40625 38.59375 32.34375 
Q 34.90625 36.296875 28.5 36.296875 
Q 21.90625 36.296875 17.84375 32.34375 
Q 13.796875 28.40625 13.796875 21.796875 
Q 13.796875 15 17.890625 10.640625 
Q 22 6.296875 28.203125 6.296875 
Q 34.296875 6.296875 38.296875 10.5 
Q 42.296875 14.703125 42.296875 21.296875 
z
" id="TeXGyreHeros-Regular-54"/>
      </defs>
      <g transform="translate(16.023281 75.737836)scale(0.09 -0.09)">
       <use xlink:href="#TeXGyreHeros-Regular-48"/>
       <use x="55.599991" xlink:href="#TeXGyreHeros-Regular-46"/>
       <use x="83.399979" xlink:href="#TeXGyreHeros-Regular-54"/>
      </g>
     </g>
    </g>
    <g id="ytick_5">
     <g id="line2d_35">
      <path clip-path="url(#pda136a467e)" d="M 34.531875 46.433762 
L 164.257449 46.433762 
" style="fill:none;stroke:#000000;stroke-linecap:square;stroke-opacity:0.1;stroke-width:0.6;"/>
     </g>
     <g id="line2d_36">
      <g>
       <use style="stroke:#000000;stroke-width:0.6;" x="34.531875" xlink:href="#m38d6bbd263" y="46.433762"/>
      </g>
     </g>
     <g id="text_11">
      <!-- 0.8 -->
      <defs>
       <path d="M 51.296875 20 
Q 51.296875 10.40625 44.640625 4.453125 
Q 38 -1.5 27.5 -1.5 
Q 16.90625 -1.5 10.296875 4.453125 
Q 3.703125 10.40625 3.703125 20.09375 
Q 3.703125 31.5 15.796875 37.296875 
Q 10.40625 40.703125 8.296875 43.890625 
Q 6.203125 47.09375 6.203125 52 
Q 6.203125 60.296875 12.140625 65.59375 
Q 18.09375 70.90625 27.5 70.90625 
Q 36.90625 70.90625 42.84375 65.59375 
Q 48.796875 60.296875 48.796875 52 
Q 48.796875 47 46.6875 43.796875 
Q 44.59375 40.59375 39.09375 37.296875 
Q 51.296875 31.5 51.296875 20 
z
M 39.796875 51.796875 
Q 39.796875 57 36.4375 60.046875 
Q 33.09375 63.09375 27.5 63.09375 
Q 21.90625 63.09375 18.546875 60.046875 
Q 15.203125 57 15.203125 51.90625 
Q 15.203125 46.90625 18.546875 43.84375 
Q 21.90625 40.796875 27.5 40.796875 
Q 33 40.796875 36.390625 43.796875 
Q 39.796875 46.796875 39.796875 51.796875 
z
M 42.296875 19.90625 
Q 42.296875 26.09375 38.25 29.75 
Q 34.203125 33.40625 27.5 33.40625 
Q 20.796875 33.40625 16.75 29.75 
Q 12.703125 26.09375 12.703125 19.890625 
Q 12.703125 13.703125 16.75 10 
Q 20.796875 6.296875 27.296875 6.296875 
Q 34.09375 6.296875 38.1875 9.9375 
Q 42.296875 13.59375 42.296875 19.90625 
z
" id="TeXGyreHeros-Regular-56"/>
      </defs>
      <g transform="translate(16.023281 49.714543)scale(0.09 -0.09)">
       <use xlink:href="#TeXGyreHeros-Regular-48"/>
       <use x="55.599991" xlink:href="#TeXGyreHeros-Regular-46"/>
       <use x="83.399979" xlink:href="#TeXGyreHeros-Regular-56"/>
      </g>
     </g>
    </g>
    <g id="ytick_6">
     <g id="line2d_37">
      <path clip-path="url(#pda136a467e)" d="M 34.531875 20.410469 
L 164.257449 20.410469 
" style="fill:none;stroke:#000000;stroke-linecap:square;stroke-opacity:0.1;stroke-width:0.6;"/>
     </g>
     <g id="line2d_38">
      <g>
       <use style="stroke:#000000;stroke-width:0.6;" x="34.531875" xlink:href="#m38d6bbd263" y="20.410469"/>
      </g>
     </g>
     <g id="text_12">
      <!-- 1 -->
      <g transform="translate(23.528437 23.69125)scale(0.09 -0.09)">
       <use xlink:href="#TeXGyreHeros-Regular-49"/>
      </g>
     </g>
    </g>
    <g id="ytick_7">
     <g id="line2d_39">
      <defs>
       <path d="M 0 0 
L -2 0 
" id="m298eb4709f" style="stroke:#000000;stroke-width:0.48;"/>
      </defs>
      <g>
       <use style="stroke:#000000;stroke-width:0.48;" x="34.531875" xlink:href="#m298eb4709f" y="144.02111"/>
      </g>
     </g>
    </g>
    <g id="ytick_8">
     <g id="line2d_40">
      <g>
       <use style="stroke:#000000;stroke-width:0.48;" x="34.531875" xlink:href="#m298eb4709f" y="137.515286"/>
      </g>
     </g>
    </g>
    <g id="ytick_9">
     <g id="line2d_41">
      <g>
       <use style="stroke:#000000;stroke-width:0.48;" x="34.531875" xlink:href="#m298eb4709f" y="131.009463"/>
      </g>
     </g>
    </g>
    <g id="ytick_10">
     <g id="line2d_42">
      <g>
       <use style="stroke:#000000;stroke-width:0.48;" x="34.531875" xlink:href="#m298eb4709f" y="117.997817"/>
      </g>
     </g>
    </g>
    <g id="ytick_11">
     <g id="line2d_43">
      <g>
       <use style="stroke:#000000;stroke-width:0.48;" x="34.531875" xlink:href="#m298eb4709f" y="111.491994"/>
      </g>
     </g>
    </g>
    <g id="ytick_12">
     <g id="line2d_44">
      <g>
       <use style="stroke:#000000;stroke-width:0.48;" x="34.531875" xlink:href="#m298eb4709f" y="104.98617"/>
      </g>
     </g>
    </g>
    <g id="ytick_13">
     <g id="line2d_45">
      <g>
       <use style="stroke:#000000;stroke-width:0.48;" x="34.531875" xlink:href="#m298eb4709f" y="91.974524"/>
      </g>
     </g>
    </g>
    <g id="ytick_14">
     <g id="line2d_46">
      <g>
       <use style="stroke:#000000;stroke-width:0.48;" x="34.531875" xlink:href="#m298eb4709f" y="85.468701"/>
      </g>
     </g>
    </g>
    <g id="ytick_15">
     <g id="line2d_47">
      <g>
       <use style="stroke:#000000;stroke-width:0.48;" x="34.531875" xlink:href="#m298eb4709f" y="78.962878"/>
      </g>
     </g>
    </g>
    <g id="ytick_16">
     <g id="line2d_48">
      <g>
       <use style="stroke:#000000;stroke-width:0.48;" x="34.531875" xlink:href="#m298eb4709f" y="65.951231"/>
      </g>
     </g>
    </g>
    <g id="ytick_17">
     <g id="line2d_49">
      <g>
       <use style="stroke:#000000;stroke-width:0.48;" x="34.531875" xlink:href="#m298eb4709f" y="59.445408"/>
      </g>
     </g>
    </g>
    <g id="ytick_18">
     <g id="line2d_50">
      <g>
       <use style="stroke:#000000;stroke-width:0.48;" x="34.531875" xlink:href="#m298eb4709f" y="52.939585"/>
      </g>
     </g>
    </g>
    <g id="ytick_19">
     <g id="line2d_51">
      <g>
       <use style="stroke:#000000;stroke-width:0.48;" x="34.531875" xlink:href="#m298eb4709f" y="39.927938"/>
      </g>
     </g>
    </g>
    <g id="ytick_20">
     <g id="line2d_52">
      <g>
       <use style="stroke:#000000;stroke-width:0.48;" x="34.531875" xlink:href="#m298eb4709f" y="33.422115"/>
      </g>
     </g>
    </g>
    <g id="ytick_21">
     <g id="line2d_53">
      <g>
       <use style="stroke:#000000;stroke-width:0.48;" x="34.531875" xlink:href="#m298eb4709f" y="26.916292"/>
      </g>
     </g>
    </g>
    <g id="text_13">
     <!-- ylabel -->
     <defs>
      <path d="M 47.796875 52.40625 
L 24.5 -11 
Q 20.5 -21.796875 11 -21.796875 
Q 7.90625 -21.796875 5.40625 -20.5 
L 5.40625 -13 
Q 8.09375 -13.59375 9.796875 -13.59375 
Q 12.5 -13.59375 13.953125 -12.4375 
Q 15.40625 -11.296875 16.5 -8.5 
L 19.703125 -0.203125 
L 2 52.40625 
L 10.90625 52.40625 
L 24.296875 11.59375 
L 38.796875 52.40625 
z
" id="TeXGyreHeros-Regular-121"/>
     </defs>
     <g transform="translate(11.061563 97.222138)rotate(-90)scale(0.09 -0.09)">
      <use xlink:href="#TeXGyreHeros-Regular-121"/>
      <use x="49.999985" xlink:href="#TeXGyreHeros-Regular-108"/>
      <use x="72.199982" xlink:href="#TeXGyreHeros-Regular-97"/>
      <use x="127.799973" xlink:href="#TeXGyreHeros-Regular-98"/>
      <use x="183.399963" xlink:href="#TeXGyreHeros-Regular-101"/>
      <use x="238.999954" xlink:href="#TeXGyreHeros-Regular-108"/>
     </g>
    </g>
   </g>
   <g id="patch_3">
    <path d="M 34.531875 150.526933 
L 34.531875 20.410469 
" style="fill:none;stroke:#000000;stroke-linecap:square;stroke-linejoin:miter;stroke-width:0.6;"/>
   </g>
   <g id="patch_4">
    <path d="M 164.257449 150.526933 
L 164.257449 20.410469 
" style="fill:none;stroke:#000000;stroke-linecap:square;stroke-linejoin:miter;stroke-width:0.6;"/>
   </g>
   <g id="patch_5">
    <path d="M 34.531875 150.526933 
L 164.257449 150.526933 
" style="fill:none;stroke:#000000;stroke-linecap:square;stroke-linejoin:miter;stroke-width:0.6;"/>
   </g>
   <g id="patch_6">
    <path d="M 34.531875 20.410469 
L 164.257449 20.410469 
" style="fill:none;stroke:#000000;stroke-linecap:square;stroke-linejoin:miter;stroke-width:0.6;"/>
   </g>
   <g id="text_14">
    <!-- a -->
    <defs>
     <path d="M 52.40625 0 
L 37.203125 0 
Q 35.59375 2 35.59375 6.796875 
Q 28.203125 -0.90625 19.203125 -0.90625 
Q 12.09375 -0.90625 7.4375 3.09375 
Q 2.796875 7.09375 2.796875 14.59375 
Q 2.796875 21.796875 6.640625 25.59375 
Q 10.5 29.40625 18.703125 30.90625 
L 24.296875 31.90625 
Q 25.5 32.09375 27.5 32.390625 
Q 29.5 32.703125 30.34375 32.84375 
Q 31.203125 33 32.453125 33.390625 
Q 33.703125 33.796875 34.203125 34.34375 
Q 34.703125 34.90625 35.09375 35.84375 
Q 35.5 36.796875 35.5 38.203125 
Q 35.5 43.59375 27.40625 43.59375 
Q 22.203125 43.59375 20.09375 42 
Q 18 40.40625 17.5 36.203125 
L 4 36.203125 
Q 5.296875 54.90625 27.09375 54.90625 
Q 49.203125 54.90625 49.203125 38.296875 
L 49.203125 8.296875 
Q 49.203125 4.59375 52.40625 1.703125 
z
M 35.5 23.09375 
L 35.5 25.5 
Q 33.59375 24.59375 29.59375 23.796875 
L 24.796875 22.90625 
Q 20.296875 22.09375 18.546875 20.640625 
Q 16.796875 19.203125 16.796875 16.203125 
Q 16.796875 10.40625 24.40625 10.40625 
Q 29.703125 10.40625 32.59375 13.703125 
Q 35.5 17 35.5 23.09375 
z
" id="TeXGyreHeros-Bold-97"/>
    </defs>
    <g transform="translate(39.031875 32.201094)scale(0.1 -0.1)">
     <use xlink:href="#TeXGyreHeros-Bold-97"/>
    </g>
   </g>
  </g>
  <g id="axes_2">
   <g id="patch_7">
    <path d="M 179.759168 150.526933 
L 309.484743 150.526933 
L 309.484743 20.410469 
L 179.759168 20.410469 
z
" style="fill:#ffffff;"/>
   </g>
   <g id="matplotlib.axis_3">
    <g id="xtick_22">
     <g id="line2d_54">
      <path clip-path="url(#pac155cb39f)" d="M 179.759168 150.526933 
L 179.759168 20.410469 
" style="fill:none;stroke:#000000;stroke-linecap:square;stroke-opacity:0.1;stroke-width:0.6;"/>
     </g>
     <g id="line2d_55">
      <g>
       <use style="stroke:#000000;stroke-width:0.6;" x="179.759168" xlink:href="#m41992e0f97" y="150.526933"/>
      </g>
     </g>
     <g id="text_15">
      <!-- 0 -->
      <g transform="translate(177.257449 163.088495)scale(0.09 -0.09)">
       <use xlink:href="#TeXGyreHeros-Regular-48"/>
      </g>
     </g>
    </g>
    <g id="xtick_23">
     <g id="line2d_56">
      <path clip-path="url(#pac155cb39f)" d="M 212.190562 150.526933 
L 212.190562 20.410469 
" style="fill:none;stroke:#000000;stroke-linecap:square;stroke-opacity:0.1;stroke-width:0.6;"/>
     </g>
     <g id="line2d_57">
      <g>
       <use style="stroke:#000000;stroke-width:0.6;" x="212.190562" xlink:href="#m41992e0f97" y="150.526933"/>
      </g>
     </g>
     <g id="text_16">
      <!-- 0.25 -->
      <g transform="translate(203.434546 163.088495)scale(0.09 -0.09)">
       <use xlink:href="#TeXGyreHeros-Regular-48"/>
       <use x="55.599991" xlink:href="#TeXGyreHeros-Regular-46"/>
       <use x="83.399979" xlink:href="#TeXGyreHeros-Regular-50"/>
       <use x="138.999969" xlink:href="#TeXGyreHeros-Regular-53"/>
      </g>
     </g>
    </g>
    <g id="xtick_24">
     <g id="line2d_58">
      <path clip-path="url(#pac155cb39f)" d="M 244.621955 150.526933 
L 244.621955 20.410469 
" style="fill:none;stroke:#000000;stroke-linecap:square;stroke-opacity:0.1;stroke-width:0.6;"/>
     </g>
     <g id="line2d_59">
      <g>
       <use style="stroke:#000000;stroke-width:0.6;" x="244.621955" xlink:href="#m41992e0f97" y="150.526933"/>
      </g>
     </g>
     <g id="text_17">
      <!-- 0.5 -->
      <g transform="translate(238.367659 163.088495)scale(0.09 -0.09)">
       <use xlink:href="#TeXGyreHeros-Regular-48"/>
       <use x="55.599991" xlink:href="#TeXGyreHeros-Regular-46"/>
       <use x="83.399979" xlink:href="#TeXGyreHeros-Regular-53"/>
      </g>
     </g>
    </g>
    <g id="xtick_25">
     <g id="line2d_60">
      <path clip-path="url(#pac155cb39f)" d="M 277.053349 150.526933 
L 277.053349 20.410469 
" style="fill:none;stroke:#000000;stroke-linecap:square;stroke-opacity:0.1;stroke-width:0.6;"/>
     </g>
     <g id="line2d_61">
      <g>
       <use style="stroke:#000000;stroke-width:0.6;" x="277.053349" xlink:href="#m41992e0f97" y="150.526933"/>
      </g>
     </g>
     <g id="text_18">
      <!-- 0.75 -->
      <g transform="translate(268.297333 163.088495)scale(0.09 -0.09)">
       <use xlink:href="#TeXGyreHeros-Regular-48"/>
       <use x="55.599991" xlink:href="#TeXGyreHeros-Regular-46"/>
       <use x="83.399979" xlink:href="#TeXGyreHeros-Regular-55"/>
       <use x="138.999969" xlink:href="#TeXGyreHeros-Regular-53"/>
      </g>
     </g>
    </g>
    <g id="xtick_26">
     <g id="line2d_62">
      <path clip-path="url(#pac155cb39f)" d="M 309.484743 150.526933 
L 309.484743 20.410469 
" style="fill:none;stroke:#000000;stroke-linecap:square;stroke-opacity:0.1;stroke-width:0.6;"/>
     </g>
     <g id="line2d_63">
      <g>
       <use style="stroke:#000000;stroke-width:0.6;" x="309.484743" xlink:href="#m41992e0f97" y="150.526933"/>
      </g>
     </g>
     <g id="text_19">
      <!-- 1 -->
      <g transform="translate(306.983024 163.088495)scale(0.09 -0.09)">
       <use xlink:href="#TeXGyreHeros-Regular-49"/>
      </g>
     </g>
    </g>
    <g id="xtick_27">
     <g id="line2d_64">
      <g>
       <use style="stroke:#000000;stroke-width:0.48;" x="186.245447" xlink:href="#m4f60ec0c6f" y="150.526933"/>
      </g>
     </g>
    </g>
    <g id="xtick_28">
     <g id="line2d_65">
      <g>
       <use style="stroke:#000000;stroke-width:0.48;" x="192.731726" xlink:href="#m4f60ec0c6f" y="150.526933"/>
      </g>
     </g>
    </g>
    <g id="xtick_29">
     <g id="line2d_66">
      <g>
       <use style="stroke:#000000;stroke-width:0.48;" x="199.218004" xlink:href="#m4f60ec0c6f" y="150.526933"/>
      </g>
     </g>
    </g>
    <g id="xtick_30">
     <g id="line2d_67">
      <g>
       <use style="stroke:#000000;stroke-width:0.48;" x="205.704283" xlink:href="#m4f60ec0c6f" y="150.526933"/>
      </g>
     </g>
    </g>
    <g id="xtick_31">
     <g id="line2d_68">
      <g>
       <use style="stroke:#000000;stroke-width:0.48;" x="218.67684" xlink:href="#m4f60ec0c6f" y="150.526933"/>
      </g>
     </g>
    </g>
    <g id="xtick_32">
     <g id="line2d_69">
      <g>
       <use style="stroke:#000000;stroke-width:0.48;" x="225.163119" xlink:href="#m4f60ec0c6f" y="150.526933"/>
      </g>
     </g>
    </g>
    <g id="xtick_33">
     <g id="line2d_70">
      <g>
       <use style="stroke:#000000;stroke-width:0.48;" x="231.649398" xlink:href="#m4f60ec0c6f" y="150.526933"/>
      </g>
     </g>
    </g>
    <g id="xtick_34">
     <g id="line2d_71">
      <g>
       <use style="stroke:#000000;stroke-width:0.48;" x="238.135677" xlink:href="#m4f60ec0c6f" y="150.526933"/>
      </g>
     </g>
    </g>
    <g id="xtick_35">
     <g id="line2d_72">
      <g>
       <use style="stroke:#000000;stroke-width:0.48;" x="251.108234" xlink:href="#m4f60ec0c6f" y="150.526933"/>
      </g>
     </g>
    </g>
    <g id="xtick_36">
     <g id="line2d_73">
      <g>
       <use style="stroke:#000000;stroke-width:0.48;" x="257.594513" xlink:href="#m4f60ec0c6f" y="150.526933"/>
      </g>
     </g>
    </g>
    <g id="xtick_37">
     <g id="line2d_74">
      <g>
       <use style="stroke:#000000;stroke-width:0.48;" x="264.080792" xlink:href="#m4f60ec0c6f" y="150.526933"/>
      </g>
     </g>
    </g>
    <g id="xtick_38">
     <g id="line2d_75">
      <g>
       <use style="stroke:#000000;stroke-width:0.48;" x="270.56707" xlink:href="#m4f60ec0c6f" y="150.526933"/>
      </g>
     </g>
    </g>
    <g id="xtick_39">
     <g id="line2d_76">
      <g>
       <use style="stroke:#000000;stroke-width:0.48;" x="283.539628" xlink:href="#m4f60ec0c6f" y="150.526933"/>
      </g>
     </g>
    </g>
    <g id="xtick_40">
     <g id="line2d_77">
      <g>
       <use style="stroke:#000000;stroke-width:0.48;" x="290.025906" xlink:href="#m4f60ec0c6f" y="150.526933"/>
      </g>
     </g>
    </g>
    <g id="xtick_41">
     <g id="line2d_78">
      <g>
       <use style="stroke:#000000;stroke-width:0.48;" x="296.512185" xlink:href="#m4f60ec0c6f" y="150.526933"/>
      </g>
     </g>
    </g>
    <g id="xtick_42">
     <g id="line2d_79">
      <g>
       <use style="stroke:#000000;stroke-width:0.48;" x="302.998464" xlink:href="#m4f60ec0c6f" y="150.526933"/>
      </g>
     </g>
    </g>
   </g>
   <g id="matplotlib.axis_4">
    <g id="ytick_22">
     <g id="line2d_80">
      <path clip-path="url(#pac155cb39f)" d="M 179.759168 150.526933 
L 309.484743 150.526933 
" style="fill:none;stroke:#000000;stroke-linecap:square;stroke-opacity:0.1;stroke-width:0.6;"/>
     </g>
     <g id="line2d_81">
      <g>
       <use style="stroke:#000000;stroke-width:0.6;" x="179.759168" xlink:href="#m38d6bbd263" y="150.526933"/>
      </g>
     </g>
    </g>
    <g id="ytick_23">
     <g id="line2d_82">
      <path clip-path="url(#pac155cb39f)" d="M 179.759168 124.50364 
L 309.484743 124.50364 
" style="fill:none;stroke:#000000;stroke-linecap:square;stroke-opacity:0.1;stroke-width:0.6;"/>
     </g>
     <g id="line2d_83">
      <g>
       <use style="stroke:#000000;stroke-width:0.6;" x="179.759168" xlink:href="#m38d6bbd263" y="124.50364"/>
      </g>
     </g>
    </g>
    <g id="ytick_24">
     <g id="line2d_84">
      <path clip-path="url(#pac155cb39f)" d="M 179.759168 98.480347 
L 309.484743 98.480347 
" style="fill:none;stroke:#000000;stroke-linecap:square;stroke-opacity:0.1;stroke-width:0.6;"/>
     </g>
     <g id="line2d_85">
      <g>
       <use style="stroke:#000000;stroke-width:0.6;" x="179.759168" xlink:href="#m38d6bbd263" y="98.480347"/>
      </g>
     </g>
    </g>
    <g id="ytick_25">
     <g id="line2d_86">
      <path clip-path="url(#pac155cb39f)" d="M 179.759168 72.457054 
L 309.484743 72.457054 
" style="fill:none;stroke:#000000;stroke-linecap:square;stroke-opacity:0.1;stroke-width:0.6;"/>
     </g>
     <g id="line2d_87">
      <g>
       <use style="stroke:#000000;stroke-width:0.6;" x="179.759168" xlink:href="#m38d6bbd263" y="72.457054"/>
      </g>
     </g>
    </g>
    <g id="ytick_26">
     <g id="line2d_88">
      <path clip-path="url(#pac155cb39f)" d="M 179.759168 46.433762 
L 309.484743 46.433762 
" style="fill:none;stroke:#000000;stroke-linecap:square;stroke-opacity:0.1;stroke-width:0.6;"/>
     </g>
     <g id="line2d_89">
      <g>
       <use style="stroke:#000000;stroke-width:0.6;" x="179.759168" xlink:href="#m38d6bbd263" y="46.433762"/>
      </g>
     </g>
    </g>
    <g id="ytick_27">
     <g id="line2d_90">
      <path clip-path="url(#pac155cb39f)" d="M 179.759168 20.410469 
L 309.484743 20.410469 
" style="fill:none;stroke:#000000;stroke-linecap:square;stroke-opacity:0.1;stroke-width:0.6;"/>
     </g>
     <g id="line2d_91">
      <g>
       <use style="stroke:#000000;stroke-width:0.6;" x="179.759168" xlink:href="#m38d6bbd263" y="20.410469"/>
      </g>
     </g>
    </g>
    <g id="ytick_28">
     <g id="line2d_92">
      <g>
       <use style="stroke:#000000;stroke-width:0.48;" x="179.759168" xlink:href="#m298eb4709f" y="144.02111"/>
      </g>
     </g>
    </g>
    <g id="ytick_29">
     <g id="line2d_93">
      <g>
       <use style="stroke:#000000;stroke-width:0.48;" x="179.759168" xlink:href="#m298eb4709f" y="137.515286"/>
      </g>
     </g>
    </g>
    <g id="ytick_30">
     <g id="line2d_94">
      <g>
       <use style="stroke:#000000;stroke-width:0.48;" x="179.759168" xlink:href="#m298eb4709f" y="131.009463"/>
      </g>
     </g>
    </g>
    <g id="ytick_31">
     <g id="line2d_95">
      <g>
       <use style="stroke:#000000;stroke-width:0.48;" x="179.759168" xlink:href="#m298eb4709f" y="117.997817"/>
      </g>
     </g>
    </g>
    <g id="ytick_32">
     <g id="line2d_96">
      <g>
       <use style="stroke:#000000;stroke-width:0.48;" x="179.759168" xlink:href="#m298eb4709f" y="111.491994"/>
      </g>
     </g>
    </g>
    <g id="ytick_33">
     <g id="line2d_97">
      <g>
       <use style="stroke:#000000;stroke-width:0.48;" x="179.759168" xlink:href="#m298eb4709f" y="104.98617"/>
      </g>
     </g>
    </g>
    <g id="ytick_34">
     <g id="line2d_98">
      <g>
       <use style="stroke:#000000;stroke-width:0.48;" x="179.759168" xlink:href="#m298eb4709f" y="91.974524"/>
      </g>
     </g>
    </g>
    <g id="ytick_35">
     <g id="line2d_99">
      <g>
       <use style="stroke:#000000;stroke-width:0.48;" x="179.759168" xlink:href="#m298eb4709f" y="85.468701"/>
      </g>
     </g>
    </g>
    <g id="ytick_36">
     <g id="line2d_100">
      <g>
       <use style="stroke:#000000;stroke-width:0.48;" x="179.759168" xlink:href="#m298eb4709f" y="78.962878"/>
      </g>
     </g>
    </g>
    <g id="ytick_37">
     <g id="line2d_101">
      <g>
       <use style="stroke:#000000;stroke-width:0.48;" x="179.759168" xlink:href="#m298eb4709f" y="65.951231"/>
      </g>
     </g>
    </g>
    <g id="ytick_38">
     <g id="line2d_102">
      <g>
       <use style="stroke:#000000;stroke-width:0.48;" x="179.759168" xlink:href="#m298eb4709f" y="59.445408"/>
      </g>
     </g>
    </g>
    <g id="ytick_39">
     <g id="line2d_103">
      <g>
       <use style="stroke:#000000;stroke-width:0.48;" x="179.759168" xlink:href="#m298eb4709f" y="52.939585"/>
      </g>
     </g>
    </g>
    <g id="ytick_40">
     <g id="line2d_104">
      <g>
       <use style="stroke:#000000;stroke-width:0.48;" x="179.759168" xlink:href="#m298eb4709f" y="39.927938"/>
      </g>
     </g>
    </g>
    <g id="ytick_41">
     <g id="line2d_105">
      <g>
       <use style="stroke:#000000;stroke-width:0.48;" x="179.759168" xlink:href="#m298eb4709f" y="33.422115"/>
      </g>
     </g>
    </g>
    <g id="ytick_42">
     <g id="line2d_106">
      <g>
       <use style="stroke:#000000;stroke-width:0.48;" x="179.759168" xlink:href="#m298eb4709f" y="26.916292"/>
      </g>
     </g>
    </g>
   </g>
   <g id="patch_8">
    <path d="M 179.759168 150.526933 
L 179.759168 20.410469 
" style="fill:none;stroke:#000000;stroke-linecap:square;stroke-linejoin:miter;stroke-width:0.6;"/>
   </g>
   <g id="patch_9">
    <path d="M 309.484743 150.526933 
L 309.484743 20.410469 
" style="fill:none;stroke:#000000;stroke-linecap:square;stroke-linejoin:miter;stroke-width:0.6;"/>
   </g>
   <g id="patch_10">
    <path d="M 179.759168 150.526933 
L 309.484743 150.526933 
" style="fill:none;stroke:#000000;stroke-linecap:square;stroke-linejoin:miter;stroke-width:0.6;"/>
   </g>
   <g id="patch_11">
    <path d="M 179.759168 20.410469 
L 309.484743 20.410469 
" style="fill:none;stroke:#000000;stroke-linecap:square;stroke-linejoin:miter;stroke-width:0.6;"/>
   </g>
   <g id="text_20">
    <!-- b -->
    <defs>
     <path d="M 57.5 26.296875 
Q 57.5 14.203125 51.046875 6.640625 
Q 44.59375 -0.90625 34.796875 -0.90625 
Q 25.09375 -0.90625 19.90625 6.203125 
L 19.90625 0 
L 5.90625 0 
L 5.90625 72.90625 
L 19.90625 72.90625 
L 19.90625 47 
Q 24.90625 54.90625 34.796875 54.90625 
Q 45.09375 54.90625 51.296875 46.546875 
Q 57.5 38.203125 57.5 26.296875 
z
M 43.5 26.90625 
Q 43.5 34.296875 40.203125 38.75 
Q 36.90625 43.203125 31.703125 43.203125 
Q 26.40625 43.203125 23.15625 38.84375 
Q 19.90625 34.5 19.90625 27.203125 
Q 19.90625 19.59375 23.09375 15.1875 
Q 26.296875 10.796875 31.703125 10.796875 
Q 36.90625 10.796875 40.203125 15.1875 
Q 43.5 19.59375 43.5 26.90625 
z
" id="TeXGyreHeros-Bold-98"/>
    </defs>
    <g transform="translate(184.259168 32.201094)scale(0.1 -0.1)">
     <use xlink:href="#TeXGyreHeros-Bold-98"/>
    </g>
   </g>
  </g>
  <g id="axes_3">
   <g id="patch_12">
    <path d="M 105.894662 315.689959 
L 238.121955 315.689959 
L 238.121955 185.573495 
L 105.894662 185.573495 
z
" style="fill:#ffffff;"/>
   </g>
   <g id="matplotlib.axis_5">
    <g id="xtick_43">
     <g id="line2d_107">
      <path clip-path="url(#pad92612d8f)" d="M 105.894662 315.689959 
L 105.894662 185.573495 
" style="fill:none;stroke:#000000;stroke-linecap:square;stroke-opacity:0.1;stroke-width:0.6;"/>
     </g>
     <g id="line2d_108">
      <g>
       <use style="stroke:#000000;stroke-width:0.6;" x="105.894662" xlink:href="#m41992e0f97" y="315.689959"/>
      </g>
     </g>
     <g id="text_21">
      <!-- 0 -->
      <g transform="translate(103.392943 328.251522)scale(0.09 -0.09)">
       <use xlink:href="#TeXGyreHeros-Regular-48"/>
      </g>
     </g>
    </g>
    <g id="xtick_44">
     <g id="line2d_109">
      <path clip-path="url(#pad92612d8f)" d="M 139.285393 315.689959 
L 139.285393 185.573495 
" style="fill:none;stroke:#000000;stroke-linecap:square;stroke-opacity:0.1;stroke-width:0.6;"/>
     </g>
     <g id="line2d_110">
      <g>
       <use style="stroke:#000000;stroke-width:0.6;" x="139.285393" xlink:href="#m41992e0f97" y="315.689959"/>
      </g>
     </g>
     <g id="text_22">
      <!-- 25 -->
      <g transform="translate(134.281955 328.251522)scale(0.09 -0.09)">
       <use xlink:href="#TeXGyreHeros-Regular-50"/>
       <use x="55.599991" xlink:href="#TeXGyreHeros-Regular-53"/>
      </g>
     </g>
    </g>
    <g id="xtick_45">
     <g id="line2d_111">
      <path clip-path="url(#pad92612d8f)" d="M 172.676123 315.689959 
L 172.676123 185.573495 
" style="fill:none;stroke:#000000;stroke-linecap:square;stroke-opacity:0.1;stroke-width:0.6;"/>
     </g>
     <g id="line2d_112">
      <g>
       <use style="stroke:#000000;stroke-width:0.6;" x="172.676123" xlink:href="#m41992e0f97" y="315.689959"/>
      </g>
     </g>
     <g id="text_23">
      <!-- 50 -->
      <g transform="translate(167.672686 328.251522)scale(0.09 -0.09)">
       <use xlink:href="#TeXGyreHeros-Regular-53"/>
       <use x="55.599991" xlink:href="#TeXGyreHeros-Regular-48"/>
      </g>
     </g>
    </g>
    <g id="xtick_46">
     <g id="line2d_113">
      <path clip-path="url(#pad92612d8f)" d="M 206.066854 315.689959 
L 206.066854 185.573495 
" style="fill:none;stroke:#000000;stroke-linecap:square;stroke-opacity:0.1;stroke-width:0.6;"/>
     </g>
     <g id="line2d_114">
      <g>
       <use style="stroke:#000000;stroke-width:0.6;" x="206.066854" xlink:href="#m41992e0f97" y="315.689959"/>
      </g>
     </g>
     <g id="text_24">
      <!-- 75 -->
      <g transform="translate(201.063417 328.251522)scale(0.09 -0.09)">
       <use xlink:href="#TeXGyreHeros-Regular-55"/>
       <use x="55.599991" xlink:href="#TeXGyreHeros-Regular-53"/>
      </g>
     </g>
    </g>
    <g id="xtick_47">
     <g id="line2d_115">
      <g>
       <use style="stroke:#000000;stroke-width:0.48;" x="112.572808" xlink:href="#m4f60ec0c6f" y="315.689959"/>
      </g>
     </g>
    </g>
    <g id="xtick_48">
     <g id="line2d_116">
      <g>
       <use style="stroke:#000000;stroke-width:0.48;" x="119.250954" xlink:href="#m4f60ec0c6f" y="315.689959"/>
      </g>
     </g>
    </g>
    <g id="xtick_49">
     <g id="line2d_117">
      <g>
       <use style="stroke:#000000;stroke-width:0.48;" x="125.929101" xlink:href="#m4f60ec0c6f" y="315.689959"/>
      </g>
     </g>
    </g>
    <g id="xtick_50">
     <g id="line2d_118">
      <g>
       <use style="stroke:#000000;stroke-width:0.48;" x="132.607247" xlink:href="#m4f60ec0c6f" y="315.689959"/>
      </g>
     </g>
    </g>
    <g id="xtick_51">
     <g id="line2d_119">
      <g>
       <use style="stroke:#000000;stroke-width:0.48;" x="145.963539" xlink:href="#m4f60ec0c6f" y="315.689959"/>
      </g>
     </g>
    </g>
    <g id="xtick_52">
     <g id="line2d_120">
      <g>
       <use style="stroke:#000000;stroke-width:0.48;" x="152.641685" xlink:href="#m4f60ec0c6f" y="315.689959"/>
      </g>
     </g>
    </g>
    <g id="xtick_53">
     <g id="line2d_121">
      <g>
       <use style="stroke:#000000;stroke-width:0.48;" x="159.319831" xlink:href="#m4f60ec0c6f" y="315.689959"/>
      </g>
     </g>
    </g>
    <g id="xtick_54">
     <g id="line2d_122">
      <g>
       <use style="stroke:#000000;stroke-width:0.48;" x="165.997977" xlink:href="#m4f60ec0c6f" y="315.689959"/>
      </g>
     </g>
    </g>
    <g id="xtick_55">
     <g id="line2d_123">
      <g>
       <use style="stroke:#000000;stroke-width:0.48;" x="179.35427" xlink:href="#m4f60ec0c6f" y="315.689959"/>
      </g>
     </g>
    </g>
    <g id="xtick_56">
     <g id="line2d_124">
      <g>
       <use style="stroke:#000000;stroke-width:0.48;" x="186.032416" xlink:href="#m4f60ec0c6f" y="315.689959"/>
      </g>
     </g>
    </g>
    <g id="xtick_57">
     <g id="line2d_125">
      <g>
       <use style="stroke:#000000;stroke-width:0.48;" x="192.710562" xlink:href="#m4f60ec0c6f" y="315.689959"/>
      </g>
     </g>
    </g>
    <g id="xtick_58">
     <g id="line2d_126">
      <g>
       <use style="stroke:#000000;stroke-width:0.48;" x="199.388708" xlink:href="#m4f60ec0c6f" y="315.689959"/>
      </g>
     </g>
    </g>
    <g id="xtick_59">
     <g id="line2d_127">
      <g>
       <use style="stroke:#000000;stroke-width:0.48;" x="212.745" xlink:href="#m4f60ec0c6f" y="315.689959"/>
      </g>
     </g>
    </g>
    <g id="xtick_60">
     <g id="line2d_128">
      <g>
       <use style="stroke:#000000;stroke-width:0.48;" x="219.423146" xlink:href="#m4f60ec0c6f" y="315.689959"/>
      </g>
     </g>
    </g>
    <g id="xtick_61">
     <g id="line2d_129">
      <g>
       <use style="stroke:#000000;stroke-width:0.48;" x="226.101292" xlink:href="#m4f60ec0c6f" y="315.689959"/>
      </g>
     </g>
    </g>
    <g id="xtick_62">
     <g id="line2d_130">
      <g>
       <use style="stroke:#000000;stroke-width:0.48;" x="232.779438" xlink:href="#m4f60ec0c6f" y="315.689959"/>
      </g>
     </g>
    </g>
    <g id="text_25">
     <!-- xlabel -->
     <g transform="translate(160.254871 339.774803)scale(0.09 -0.09)">
      <use xlink:href="#TeXGyreHeros-Regular-120"/>
      <use x="49.999985" xlink:href="#TeXGyreHeros-Regular-108"/>
      <use x="72.199982" xlink:href="#TeXGyreHeros-Regular-97"/>
      <use x="127.799973" xlink:href="#TeXGyreHeros-Regular-98"/>
      <use x="183.399963" xlink:href="#TeXGyreHeros-Regular-101"/>
      <use x="238.999954" xlink:href="#TeXGyreHeros-Regular-108"/>
     </g>
    </g>
   </g>
   <g id="matplotlib.axis_6">
    <g id="ytick_43">
     <g id="line2d_131">
      <path clip-path="url(#pad92612d8f)" d="M 105.894662 315.301629 
L 238.121955 315.301629 
" style="fill:none;stroke:#000000;stroke-linecap:square;stroke-opacity:0.1;stroke-width:0.6;"/>
     </g>
     <g id="line2d_132">
      <g>
       <use style="stroke:#000000;stroke-width:0.6;" x="105.894662" xlink:href="#m38d6bbd263" y="315.301629"/>
      </g>
     </g>
     <g id="text_26">
      <!-- −6 -->
      <defs>
       <path d="M 51.59375 21.59375 
L 6.796875 21.59375 
L 6.796875 28.40625 
L 51.59375 28.40625 
z
" id="TeXGyreHeros-Regular-8722"/>
      </defs>
      <g transform="translate(89.634662 318.58241)scale(0.09 -0.09)">
       <use xlink:href="#TeXGyreHeros-Regular-8722"/>
       <use x="58.399994" xlink:href="#TeXGyreHeros-Regular-54"/>
      </g>
     </g>
    </g>
    <g id="ytick_44">
     <g id="line2d_133">
      <path clip-path="url(#pad92612d8f)" d="M 105.894662 295.707869 
L 238.121955 295.707869 
" style="fill:none;stroke:#000000;stroke-linecap:square;stroke-opacity:0.1;stroke-width:0.6;"/>
     </g>
     <g id="line2d_134">
      <g>
       <use style="stroke:#000000;stroke-width:0.6;" x="105.894662" xlink:href="#m38d6bbd263" y="295.707869"/>
      </g>
     </g>
     <g id="text_27">
      <!-- −4 -->
      <g transform="translate(89.634662 298.98865)scale(0.09 -0.09)">
       <use xlink:href="#TeXGyreHeros-Regular-8722"/>
       <use x="58.399994" xlink:href="#TeXGyreHeros-Regular-52"/>
      </g>
     </g>
    </g>
    <g id="ytick_45">
     <g id="line2d_135">
      <path clip-path="url(#pad92612d8f)" d="M 105.894662 276.114109 
L 238.121955 276.114109 
" style="fill:none;stroke:#000000;stroke-linecap:square;stroke-opacity:0.1;stroke-width:0.6;"/>
     </g>
     <g id="line2d_136">
      <g>
       <use style="stroke:#000000;stroke-width:0.6;" x="105.894662" xlink:href="#m38d6bbd263" y="276.114109"/>
      </g>
     </g>
     <g id="text_28">
      <!-- −2 -->
      <g transform="translate(89.634662 279.39489)scale(0.09 -0.09)">
       <use xlink:href="#TeXGyreHeros-Regular-8722"/>
       <use x="58.399994" xlink:href="#TeXGyreHeros-Regular-50"/>
      </g>
     </g>
    </g>
    <g id="ytick_46">
     <g id="line2d_137">
      <path clip-path="url(#pad92612d8f)" d="M 105.894662 256.520349 
L 238.121955 256.520349 
" style="fill:none;stroke:#000000;stroke-linecap:square;stroke-opacity:0.1;stroke-width:0.6;"/>
     </g>
     <g id="line2d_138">
      <g>
       <use style="stroke:#000000;stroke-width:0.6;" x="105.894662" xlink:href="#m38d6bbd263" y="256.520349"/>
      </g>
     </g>
     <g id="text_29">
      <!-- 0 -->
      <g transform="translate(94.891225 259.80113)scale(0.09 -0.09)">
       <use xlink:href="#TeXGyreHeros-Regular-48"/>
      </g>
     </g>
    </g>
    <g id="ytick_47">
     <g id="line2d_139">
      <path clip-path="url(#pad92612d8f)" d="M 105.894662 236.926589 
L 238.121955 236.926589 
" style="fill:none;stroke:#000000;stroke-linecap:square;stroke-opacity:0.1;stroke-width:0.6;"/>
     </g>
     <g id="line2d_140">
      <g>
       <use style="stroke:#000000;stroke-width:0.6;" x="105.894662" xlink:href="#m38d6bbd263" y="236.926589"/>
      </g>
     </g>
     <g id="text_30">
      <!-- 2 -->
      <g transform="translate(94.891225 240.20737)scale(0.09 -0.09)">
       <use xlink:href="#TeXGyreHeros-Regular-50"/>
      </g>
     </g>
    </g>
    <g id="ytick_48">
     <g id="line2d_141">
      <path clip-path="url(#pad92612d8f)" d="M 105.894662 217.332829 
L 238.121955 217.332829 
" style="fill:none;stroke:#000000;stroke-linecap:square;stroke-opacity:0.1;stroke-width:0.6;"/>
     </g>
     <g id="line2d_142">
      <g>
       <use style="stroke:#000000;stroke-width:0.6;" x="105.894662" xlink:href="#m38d6bbd263" y="217.332829"/>
      </g>
     </g>
     <g id="text_31">
      <!-- 4 -->
      <g transform="translate(94.891225 220.613611)scale(0.09 -0.09)">
       <use xlink:href="#TeXGyreHeros-Regular-52"/>
      </g>
     </g>
    </g>
    <g id="ytick_49">
     <g id="line2d_143">
      <path clip-path="url(#pad92612d8f)" d="M 105.894662 197.739069 
L 238.121955 197.739069 
" style="fill:none;stroke:#000000;stroke-linecap:square;stroke-opacity:0.1;stroke-width:0.6;"/>
     </g>
     <g id="line2d_144">
      <g>
       <use style="stroke:#000000;stroke-width:0.6;" x="105.894662" xlink:href="#m38d6bbd263" y="197.739069"/>
      </g>
     </g>
     <g id="text_32">
      <!-- 6 -->
      <g transform="translate(94.891225 201.019851)scale(0.09 -0.09)">
       <use xlink:href="#TeXGyreHeros-Regular-54"/>
      </g>
     </g>
    </g>
    <g id="ytick_50">
     <g id="line2d_145">
      <g>
       <use style="stroke:#000000;stroke-width:0.48;" x="105.894662" xlink:href="#m298eb4709f" y="310.403189"/>
      </g>
     </g>
    </g>
    <g id="ytick_51">
     <g id="line2d_146">
      <g>
       <use style="stroke:#000000;stroke-width:0.48;" x="105.894662" xlink:href="#m298eb4709f" y="305.504749"/>
      </g>
     </g>
    </g>
    <g id="ytick_52">
     <g id="line2d_147">
      <g>
       <use style="stroke:#000000;stroke-width:0.48;" x="105.894662" xlink:href="#m298eb4709f" y="300.606309"/>
      </g>
     </g>
    </g>
    <g id="ytick_53">
     <g id="line2d_148">
      <g>
       <use style="stroke:#000000;stroke-width:0.48;" x="105.894662" xlink:href="#m298eb4709f" y="290.809429"/>
      </g>
     </g>
    </g>
    <g id="ytick_54">
     <g id="line2d_149">
      <g>
       <use style="stroke:#000000;stroke-width:0.48;" x="105.894662" xlink:href="#m298eb4709f" y="285.910989"/>
      </g>
     </g>
    </g>
    <g id="ytick_55">
     <g id="line2d_150">
      <g>
       <use style="stroke:#000000;stroke-width:0.48;" x="105.894662" xlink:href="#m298eb4709f" y="281.012549"/>
      </g>
     </g>
    </g>
    <g id="ytick_56">
     <g id="line2d_151">
      <g>
       <use style="stroke:#000000;stroke-width:0.48;" x="105.894662" xlink:href="#m298eb4709f" y="271.215669"/>
      </g>
     </g>
    </g>
    <g id="ytick_57">
     <g id="line2d_152">
      <g>
       <use style="stroke:#000000;stroke-width:0.48;" x="105.894662" xlink:href="#m298eb4709f" y="266.317229"/>
      </g>
     </g>
    </g>
    <g id="ytick_58">
     <g id="line2d_153">
      <g>
       <use style="stroke:#000000;stroke-width:0.48;" x="105.894662" xlink:href="#m298eb4709f" y="261.418789"/>
      </g>
     </g>
    </g>
    <g id="ytick_59">
     <g id="line2d_154">
      <g>
       <use style="stroke:#000000;stroke-width:0.48;" x="105.894662" xlink:href="#m298eb4709f" y="251.621909"/>
      </g>
     </g>
    </g>
    <g id="ytick_60">
     <g id="line2d_155">
      <g>
       <use style="stroke:#000000;stroke-width:0.48;" x="105.894662" xlink:href="#m298eb4709f" y="246.723469"/>
      </g>
     </g>
    </g>
    <g id="ytick_61">
     <g id="line2d_156">
      <g>
       <use style="stroke:#000000;stroke-width:0.48;" x="105.894662" xlink:href="#m298eb4709f" y="241.825029"/>
      </g>
     </g>
    </g>
    <g id="ytick_62">
     <g id="line2d_157">
      <g>
       <use style="stroke:#000000;stroke-width:0.48;" x="105.894662" xlink:href="#m298eb4709f" y="232.028149"/>
      </g>
     </g>
    </g>
    <g id="ytick_63">
     <g id="line2d_158">
      <g>
       <use style="stroke:#000000;stroke-width:0.48;" x="105.894662" xlink:href="#m298eb4709f" y="227.129709"/>
      </g>
     </g>
    </g>
    <g id="ytick_64">
     <g id="line2d_159">
      <g>
       <use style="stroke:#000000;stroke-width:0.48;" x="105.894662" xlink:href="#m298eb4709f" y="222.231269"/>
      </g>
     </g>
    </g>
    <g id="ytick_65">
     <g id="line2d_160">
      <g>
       <use style="stroke:#000000;stroke-width:0.48;" x="105.894662" xlink:href="#m298eb4709f" y="212.434389"/>
      </g>
     </g>
    </g>
    <g id="ytick_66">
     <g id="line2d_161">
      <g>
       <use style="stroke:#000000;stroke-width:0.48;" x="105.894662" xlink:href="#m298eb4709f" y="207.535949"/>
      </g>
     </g>
    </g>
    <g id="ytick_67">
     <g id="line2d_162">
      <g>
       <use style="stroke:#000000;stroke-width:0.48;" x="105.894662" xlink:href="#m298eb4709f" y="202.637509"/>
      </g>
     </g>
    </g>
    <g id="ytick_68">
     <g id="line2d_163">
      <g>
       <use style="stroke:#000000;stroke-width:0.48;" x="105.894662" xlink:href="#m298eb4709f" y="192.840629"/>
      </g>
     </g>
    </g>
    <g id="ytick_69">
     <g id="line2d_164">
      <g>
       <use style="stroke:#000000;stroke-width:0.48;" x="105.894662" xlink:href="#m298eb4709f" y="187.942189"/>
      </g>
     </g>
    </g>
    <g id="text_33">
     <!-- ylabel -->
     <g transform="translate(84.672943 262.385165)rotate(-90)scale(0.09 -0.09)">
      <use xlink:href="#TeXGyreHeros-Regular-121"/>
      <use x="49.999985" xlink:href="#TeXGyreHeros-Regular-108"/>
      <use x="72.199982" xlink:href="#TeXGyreHeros-Regular-97"/>
      <use x="127.799973" xlink:href="#TeXGyreHeros-Regular-98"/>
      <use x="183.399963" xlink:href="#TeXGyreHeros-Regular-101"/>
      <use x="238.999954" xlink:href="#TeXGyreHeros-Regular-108"/>
     </g>
    </g>
   </g>
   <g id="line2d_165">
    <path clip-path="url(#pad92612d8f)" d="M 105.894662 265.97774 
L 107.230291 272.910205 
L 108.565921 266.675421 
L 109.90155 270.876726 
L 111.237179 263.439287 
L 112.572808 260.492619 
L 113.908438 251.794515 
L 115.244067 245.400937 
L 116.579696 245.069524 
L 117.915325 244.100928 
L 119.250954 240.861434 
L 120.586584 232.897324 
L 121.922213 240.174363 
L 123.257842 246.635243 
L 124.593471 246.524891 
L 125.929101 247.722721 
L 127.26473 248.783967 
L 128.600359 252.707253 
L 129.935988 252.102569 
L 131.271617 258.781488 
L 132.607247 265.081653 
L 133.942876 260.666311 
L 135.278505 268.515171 
L 136.614134 263.225053 
L 137.949764 266.60338 
L 139.285393 257.778664 
L 140.621022 262.013691 
L 141.956651 256.240499 
L 143.29228 261.92707 
L 144.62791 269.893972 
L 145.963539 264.890979 
L 147.299168 266.270443 
L 148.634797 267.282225 
L 149.970427 262.52097 
L 151.306056 260.398129 
L 152.641685 261.299504 
L 153.977314 256.938859 
L 155.312943 256.509216 
L 156.648573 263.3906 
L 157.984202 264.576919 
L 159.319831 273.265353 
L 160.65546 266.327429 
L 161.99109 271.852986 
L 163.326719 273.140655 
L 164.662348 268.078866 
L 165.997977 270.857498 
L 167.333607 278.31319 
L 168.669236 273.43673 
L 170.004865 267.653043 
L 171.340494 272.649956 
L 172.676123 276.353023 
L 174.011753 284.034261 
L 175.347382 288.560399 
L 176.683011 280.760566 
L 178.01864 282.907068 
L 179.35427 273.679115 
L 180.689899 279.064339 
L 182.025528 271.829578 
L 183.361157 267.577897 
L 184.696786 271.321733 
L 186.032416 278.952573 
L 187.368045 288.709992 
L 188.703674 295.997957 
L 190.039303 303.914065 
L 191.374933 306.93371 
L 192.710562 301.13603 
L 194.046191 294.474244 
L 195.38182 300.396332 
L 196.717449 291.445285 
L 198.053079 287.186477 
L 199.388708 278.767999 
L 200.724337 281.467911 
L 202.059966 281.221111 
L 203.395596 272.879355 
L 204.731225 280.637703 
L 206.066854 279.628689 
L 207.402483 271.181447 
L 208.738112 265.746431 
L 210.073742 270.265222 
L 211.409371 276.106505 
L 212.745 268.888165 
L 214.080629 270.964707 
L 215.416259 272.70823 
L 216.751888 271.526734 
L 218.087517 264.082364 
L 219.423146 269.375501 
L 220.758775 267.095002 
L 222.094405 276.10279 
L 223.430034 279.056802 
L 224.765663 284.987191 
L 226.101292 286.803061 
L 227.436922 290.693407 
L 228.772551 296.353175 
L 230.10818 297.455412 
L 231.443809 306.066257 
L 232.779438 300.072528 
L 234.115068 304.249224 
L 235.450697 304.475461 
L 236.786326 297.11436 
L 238.121955 303.189099 
" style="fill:none;stroke:#0072b2;stroke-linecap:square;stroke-width:2;"/>
   </g>
   <g id="line2d_166">
    <path clip-path="url(#pad92612d8f)" d="M 105.894662 263.822957 
L 107.230291 265.446413 
L 108.565921 271.623544 
L 109.90155 270.537409 
L 111.237179 268.175346 
L 112.572808 269.047341 
L 113.908438 262.158383 
L 115.244067 262.420743 
L 116.579696 271.170419 
L 117.915325 278.777797 
L 119.250954 281.329167 
L 120.586584 276.870368 
L 121.922213 278.518729 
L 123.257842 282.421304 
L 124.593471 278.602638 
L 125.929101 269.943017 
L 127.26473 273.714321 
L 128.600359 270.579008 
L 129.935988 267.724785 
L 131.271617 276.977927 
L 132.607247 282.863077 
L 133.942876 286.222851 
L 135.278505 285.832123 
L 136.614134 287.943062 
L 137.949764 287.315269 
L 139.285393 280.756422 
L 140.621022 287.006104 
L 141.956651 288.305937 
L 143.29228 280.264114 
L 144.62791 279.224883 
L 145.963539 286.470053 
L 147.299168 291.162703 
L 148.634797 286.191977 
L 149.970427 283.838481 
L 151.306056 282.373366 
L 152.641685 279.560348 
L 153.977314 288.271524 
L 155.312943 297.780506 
L 156.648573 290.973261 
L 157.984202 283.062514 
L 159.319831 285.949404 
L 160.65546 277.781763 
L 161.99109 269.498904 
L 163.326719 268.805432 
L 164.662348 262.236401 
L 165.997977 253.323051 
L 167.333607 248.539372 
L 168.669236 256.273918 
L 170.004865 249.769429 
L 171.340494 250.512677 
L 172.676123 244.593903 
L 174.011753 247.180538 
L 175.347382 237.667502 
L 176.683011 247.395578 
L 178.01864 247.03905 
L 179.35427 251.160378 
L 180.689899 260.75247 
L 182.025528 254.421902 
L 183.361157 260.500886 
L 184.696786 254.585429 
L 186.032416 262.252454 
L 187.368045 268.463068 
L 188.703674 264.570291 
L 190.039303 255.238814 
L 191.374933 261.411577 
L 192.710562 270.994453 
L 194.046191 278.915627 
L 195.38182 279.941625 
L 196.717449 279.420425 
L 198.053079 273.829389 
L 199.388708 271.472697 
L 200.724337 269.318334 
L 202.059966 261.551696 
L 203.395596 254.33986 
L 204.731225 254.229404 
L 206.066854 246.804777 
L 207.402483 251.633444 
L 208.738112 254.898234 
L 210.073742 258.714612 
L 211.409371 250.542581 
L 212.745 255.757794 
L 214.080629 248.489248 
L 215.416259 240.372904 
L 216.751888 239.17123 
L 218.087517 231.066402 
L 219.423146 229.50915 
L 220.758775 230.27092 
L 222.094405 227.976135 
L 223.430034 237.301833 
L 224.765663 242.22921 
L 226.101292 248.174857 
L 227.436922 252.022297 
L 228.772551 260.539064 
L 230.10818 260.302373 
L 231.443809 258.509969 
L 232.779438 267.116993 
L 234.115068 264.717657 
L 235.450697 270.903525 
L 236.786326 270.868053 
L 238.121955 263.815616 
" style="fill:none;stroke:#d55e00;stroke-linecap:square;stroke-width:2;"/>
   </g>
   <g id="line2d_167">
    <path clip-path="url(#pad92612d8f)" d="M 105.894662 258.411634 
L 107.230291 261.642022 
L 108.565921 270.580565 
L 109.90155 269.705925 
L 111.237179 271.555291 
L 112.572808 268.960539 
L 113.908438 266.350791 
L 115.244067 263.204404 
L 116.579696 261.15615 
L 117.915325 263.296093 
L 119.250954 265.236289 
L 120.586584 268.37367 
L 121.922213 270.144754 
L 123.257842 262.406916 
L 124.593471 254.373512 
L 125.929101 257.523383 
L 127.26473 256.50198 
L 128.600359 247.858679 
L 129.935988 251.631973 
L 131.271617 253.740117 
L 132.607247 259.151255 
L 133.942876 260.81311 
L 135.278505 263.943911 
L 136.614134 266.20952 
L 137.949764 260.91565 
L 139.285393 262.871394 
L 140.621022 264.315049 
L 141.956651 261.096056 
L 143.29228 262.74075 
L 144.62791 254.855064 
L 145.963539 252.83486 
L 147.299168 255.828161 
L 148.634797 248.113021 
L 149.970427 254.214357 
L 151.306056 263.135445 
L 152.641685 272.882494 
L 153.977314 282.241844 
L 155.312943 287.527978 
L 156.648573 285.373416 
L 157.984202 277.19142 
L 159.319831 286.196735 
L 160.65546 289.352101 
L 161.99109 296.547637 
L 163.326719 289.159291 
L 164.662348 286.33039 
L 165.997977 292.459673 
L 167.333607 294.495968 
L 168.669236 298.55272 
L 170.004865 300.171633 
L 171.340494 305.408761 
L 172.676123 307.427963 
L 174.011753 300.796437 
L 175.347382 305.67664 
L 176.683011 306.056897 
L 178.01864 299.052797 
L 179.35427 304.078247 
L 180.689899 297.282873 
L 182.025528 289.259495 
L 183.361157 294.73983 
L 184.696786 288.966201 
L 186.032416 291.52282 
L 187.368045 289.263144 
L 188.703674 283.575495 
L 190.039303 284.876249 
L 191.374933 280.771395 
L 192.710562 273.17157 
L 194.046191 267.616499 
L 195.38182 262.316214 
L 196.717449 264.32983 
L 198.053079 263.115099 
L 199.388708 255.448406 
L 200.724337 263.482744 
L 202.059966 256.567066 
L 203.395596 255.533654 
L 204.731225 251.091594 
L 206.066854 248.993101 
L 207.402483 247.44584 
L 208.738112 248.725441 
L 210.073742 255.391416 
L 211.409371 252.195036 
L 212.745 257.641387 
L 214.080629 251.806709 
L 215.416259 244.424974 
L 216.751888 237.195202 
L 218.087517 244.93024 
L 219.423146 241.000184 
L 220.758775 245.501137 
L 222.094405 254.05431 
L 223.430034 246.188616 
L 224.765663 250.403669 
L 226.101292 249.078796 
L 227.436922 251.290218 
L 228.772551 246.546006 
L 230.10818 242.579645 
L 231.443809 244.338817 
L 232.779438 235.554093 
L 234.115068 226.911653 
L 235.450697 230.411386 
L 236.786326 236.448949 
L 238.121955 245.251416 
" style="fill:none;stroke:#009e73;stroke-linecap:square;stroke-width:2;"/>
   </g>
   <g id="line2d_168">
    <path clip-path="url(#pad92612d8f)" d="M 105.894662 262.625808 
L 107.230291 270.958668 
L 108.565921 263.88858 
L 109.90155 257.609734 
L 111.237179 262.391657 
L 112.572808 256.044422 
L 113.908438 258.443373 
L 115.244067 266.156577 
L 116.579696 271.555067 
L 117.915325 277.385689 
L 119.250954 274.378035 
L 120.586584 273.068352 
L 121.922213 267.051548 
L 123.257842 260.708579 
L 124.593471 261.173824 
L 125.929101 263.059889 
L 127.26473 265.939528 
L 128.600359 267.389876 
L 129.935988 271.602378 
L 131.271617 276.647762 
L 132.607247 269.586627 
L 133.942876 268.153657 
L 135.278505 267.109567 
L 136.614134 257.954578 
L 137.949764 258.862682 
L 139.285393 260.87993 
L 140.621022 267.95731 
L 141.956651 272.357693 
L 143.29228 273.950533 
L 144.62791 276.03627 
L 145.963539 275.231379 
L 147.299168 278.820641 
L 148.634797 281.945147 
L 149.970427 274.861771 
L 151.306056 265.678724 
L 152.641685 264.912866 
L 153.977314 274.025735 
L 155.312943 267.274723 
L 156.648573 267.336587 
L 157.984202 274.085182 
L 159.319831 269.267867 
L 160.65546 260.739004 
L 161.99109 256.283144 
L 163.326719 255.168731 
L 164.662348 251.873106 
L 165.997977 246.938686 
L 167.333607 238.248298 
L 168.669236 234.219315 
L 170.004865 243.372317 
L 171.340494 242.611134 
L 172.676123 246.359772 
L 174.011753 239.107246 
L 175.347382 239.765309 
L 176.683011 236.333601 
L 178.01864 241.887536 
L 179.35427 236.543564 
L 180.689899 240.330887 
L 182.025528 243.511074 
L 183.361157 237.703307 
L 184.696786 230.082669 
L 186.032416 239.098067 
L 187.368045 242.1351 
L 188.703674 239.981324 
L 190.039303 238.370907 
L 191.374933 235.474636 
L 192.710562 243.941778 
L 194.046191 241.2421 
L 195.38182 244.844623 
L 196.717449 253.931799 
L 198.053079 259.410883 
L 199.388708 252.917925 
L 200.724337 250.93807 
L 202.059966 241.789303 
L 203.395596 240.833155 
L 204.731225 240.788006 
L 206.066854 242.345274 
L 207.402483 237.661371 
L 208.738112 229.437202 
L 210.073742 227.618759 
L 211.409371 224.867622 
L 212.745 233.134137 
L 214.080629 230.961215 
L 215.416259 227.430303 
L 216.751888 221.979474 
L 218.087517 212.513029 
L 219.423146 207.550935 
L 220.758775 207.059191 
L 222.094405 200.381575 
L 223.430034 207.757814 
L 224.765663 202.569611 
L 226.101292 195.231171 
L 227.436922 185.573495 
L 228.772551 186.85047 
L 230.10818 188.896094 
L 231.443809 188.759918 
L 232.779438 188.652337 
L 234.115068 187.477053 
L 235.450697 193.493244 
L 236.786326 199.17519 
L 238.121955 207.426319 
" style="fill:none;stroke:#cc79a7;stroke-linecap:square;stroke-width:2;"/>
   </g>
   <g id="line2d_169">
    <path clip-path="url(#pad92612d8f)" d="M 105.894662 252.633805 
L 107.230291 260.90342 
L 108.565921 260.008747 
L 109.90155 258.963382 
L 111.237179 256.915599 
L 112.572808 252.587972 
L 113.908438 251.265942 
L 115.244067 246.9487 
L 116.579696 238.960378 
L 117.915325 234.577524 
L 119.250954 240.837879 
L 120.586584 242.85721 
L 121.922213 248.517401 
L 123.257842 244.200614 
L 124.593471 246.694509 
L 125.929101 249.114639 
L 127.26473 257.340893 
L 128.600359 252.381565 
L 129.935988 248.226751 
L 131.271617 254.854518 
L 132.607247 260.798711 
L 133.942876 268.987158 
L 135.278505 265.847589 
L 136.614134 273.032424 
L 137.949764 269.497209 
L 139.285393 274.068063 
L 140.621022 277.363398 
L 141.956651 275.90338 
L 143.29228 281.395274 
L 144.62791 279.99199 
L 145.963539 279.713841 
L 147.299168 281.471644 
L 148.634797 289.856152 
L 149.970427 288.976881 
L 151.306056 281.33988 
L 152.641685 275.392218 
L 153.977314 280.585229 
L 155.312943 287.155413 
L 156.648573 296.322793 
L 157.984202 295.798674 
L 159.319831 290.036151 
L 160.65546 285.760127 
L 161.99109 280.163631 
L 163.326719 285.775403 
L 164.662348 294.383814 
L 165.997977 286.853998 
L 167.333607 294.638057 
L 168.669236 301.647964 
L 170.004865 298.718431 
L 171.340494 295.41641 
L 172.676123 287.502205 
L 174.011753 279.083327 
L 175.347382 283.583582 
L 176.683011 285.862447 
L 178.01864 285.236584 
L 179.35427 284.667584 
L 180.689899 284.664371 
L 182.025528 293.419979 
L 183.361157 294.050233 
L 184.696786 288.990979 
L 186.032416 297.878779 
L 187.368045 304.531552 
L 188.703674 305.493908 
L 190.039303 306.250738 
L 191.374933 315.689959 
L 192.710562 307.511914 
L 194.046191 304.338193 
L 195.38182 299.436404 
L 196.717449 304.068328 
L 198.053079 307.533114 
L 199.388708 305.53618 
L 200.724337 306.591469 
L 202.059966 308.993183 
L 203.395596 301.004034 
L 204.731225 291.322104 
L 206.066854 287.26538 
L 207.402483 280.604938 
L 208.738112 287.108913 
L 210.073742 278.796053 
L 211.409371 282.169614 
L 212.745 291.781959 
L 214.080629 287.515862 
L 215.416259 287.474778 
L 216.751888 284.960221 
L 218.087517 275.216879 
L 219.423146 274.037539 
L 220.758775 264.352126 
L 222.094405 269.283709 
L 223.430034 272.503702 
L 224.765663 273.44186 
L 226.101292 269.89507 
L 227.436922 276.650492 
L 228.772551 271.143626 
L 230.10818 263.442045 
L 231.443809 266.731723 
L 232.779438 264.779148 
L 234.115068 256.107282 
L 235.450697 262.597339 
L 236.786326 269.370052 
L 238.121955 275.590899 
" style="fill:none;stroke:#f0e442;stroke-linecap:square;stroke-width:2;"/>
   </g>
   <g id="patch_13">
    <path d="M 105.894662 315.689959 
L 105.894662 185.573495 
" style="fill:none;stroke:#000000;stroke-linecap:square;stroke-linejoin:miter;stroke-width:0.6;"/>
   </g>
   <g id="patch_14">
    <path d="M 238.121955 315.689959 
L 238.121955 185.573495 
" style="fill:none;stroke:#000000;stroke-linecap:square;stroke-linejoin:miter;stroke-width:0.6;"/>
   </g>
   <g id="patch_15">
    <path d="M 105.894662 315.689959 
L 238.121955 315.689959 
" style="fill:none;stroke:#000000;stroke-linecap:square;stroke-linejoin:miter;stroke-width:0.6;"/>
   </g>
   <g id="patch_16">
    <path d="M 105.894662 185.573495 
L 238.121955 185.573495 
" style="fill:none;stroke:#000000;stroke-linecap:square;stroke-linejoin:miter;stroke-width:0.6;"/>
   </g>
   <g id="text_34">
    <!-- c -->
    <defs>
     <path d="M 52.203125 18.703125 
Q 51.203125 10 44.796875 4.546875 
Q 38.40625 -0.90625 28.703125 -0.90625 
Q 16.59375 -0.90625 10 6.1875 
Q 3.40625 13.296875 3.40625 26.59375 
Q 3.40625 40.296875 10.046875 47.59375 
Q 16.703125 54.90625 28.90625 54.90625 
Q 39 54.90625 45.25 49.296875 
Q 51.5 43.703125 52.203125 33.796875 
L 38.796875 33.796875 
Q 37.59375 39.09375 35.34375 41.34375 
Q 33.09375 43.59375 28.796875 43.59375 
Q 17.40625 43.59375 17.40625 26.59375 
Q 17.40625 18.796875 20.40625 14.59375 
Q 23.40625 10.40625 28.796875 10.40625 
Q 32.796875 10.40625 35.09375 12.40625 
Q 37.40625 14.40625 38.796875 18.703125 
z
" id="TeXGyreHeros-Bold-99"/>
    </defs>
    <g transform="translate(110.394662 197.36412)scale(0.1 -0.1)">
     <use xlink:href="#TeXGyreHeros-Bold-99"/>
    </g>
   </g>
  </g>
  <g id="text_35">
   <!-- Complex subplot grid -->
   <defs>
    <path d="M 68.5 24.90625 
Q 67.796875 12.5 59.4375 5.640625 
Q 51.09375 -1.203125 37.40625 -1.203125 
Q 22.09375 -1.203125 13.25 8.84375 
Q 4.40625 18.90625 4.40625 36.40625 
Q 4.40625 54 13.34375 64.046875 
Q 22.296875 74.09375 37.796875 74.09375 
Q 50.5 74.09375 58.890625 67.296875 
Q 67.296875 60.5 68.203125 48.203125 
L 53.90625 48.203125 
Q 50.796875 61.296875 38.296875 61.296875 
Q 29.40625 61.296875 24.40625 54.75 
Q 19.40625 48.203125 19.40625 36.203125 
Q 19.40625 24.296875 24.25 17.84375 
Q 29.09375 11.40625 37.796875 11.40625 
Q 52.59375 11.40625 53.90625 24.90625 
z
" id="TeXGyreHeros-Bold-67"/>
    <path d="M 56.90625 26.59375 
Q 56.90625 13.703125 49.75 6.390625 
Q 42.59375 -0.90625 30.203125 -0.90625 
Q 17.703125 -0.90625 10.59375 6.390625 
Q 3.5 13.703125 3.5 27 
Q 3.5 40.203125 10.59375 47.546875 
Q 17.703125 54.90625 30.09375 54.90625 
Q 42.90625 54.90625 49.90625 47.546875 
Q 56.90625 40.203125 56.90625 26.59375 
z
M 42.90625 26.796875 
Q 42.90625 34.703125 39.453125 39.140625 
Q 36 43.59375 30.203125 43.59375 
Q 24.40625 43.59375 20.953125 39.140625 
Q 17.5 34.703125 17.5 27 
Q 17.5 19.296875 20.953125 14.84375 
Q 24.40625 10.40625 30.203125 10.40625 
Q 35.90625 10.40625 39.40625 14.84375 
Q 42.90625 19.296875 42.90625 26.796875 
z
" id="TeXGyreHeros-Bold-111"/>
    <path d="M 82.40625 0 
L 68.40625 0 
L 68.40625 36 
Q 68.40625 39.203125 66.34375 41.09375 
Q 64.296875 43 60.796875 43 
Q 56.296875 43 53.75 40.203125 
Q 51.203125 37.40625 51.203125 32.40625 
L 51.203125 0 
L 37.203125 0 
L 37.203125 36 
Q 37.203125 39.203125 35.140625 41.09375 
Q 33.09375 43 29.59375 43 
Q 25.09375 43 22.546875 40.203125 
Q 20 37.40625 20 32.40625 
L 20 0 
L 6 0 
L 6 54 
L 19.90625 54 
L 19.90625 47.296875 
Q 23.40625 51.40625 26.75 53.15625 
Q 30.09375 54.90625 34.703125 54.90625 
Q 45.296875 54.90625 49.40625 46.90625 
Q 55.40625 54.90625 65.203125 54.90625 
Q 73.296875 54.90625 77.84375 50.5 
Q 82.40625 46.09375 82.40625 38.203125 
z
" id="TeXGyreHeros-Bold-109"/>
    <path d="M 57.40625 27 
Q 57.40625 14.796875 51 6.9375 
Q 44.59375 -0.90625 34.796875 -0.90625 
Q 24.40625 -0.90625 19.796875 7.203125 
L 19.796875 -21.796875 
L 5.796875 -21.796875 
L 5.796875 54 
L 19.796875 54 
L 19.796875 46 
Q 24.796875 54.90625 34.796875 54.90625 
Q 45.203125 54.90625 51.296875 47.09375 
Q 57.40625 39.296875 57.40625 27 
z
M 43.40625 26.796875 
Q 43.40625 34.40625 40.203125 38.796875 
Q 37 43.203125 31.59375 43.203125 
Q 26.296875 43.203125 23.046875 38.84375 
Q 19.796875 34.5 19.796875 27 
Q 19.796875 19.5 23.046875 15.140625 
Q 26.296875 10.796875 31.59375 10.796875 
Q 36.796875 10.796875 40.09375 15.140625 
Q 43.40625 19.5 43.40625 26.796875 
z
" id="TeXGyreHeros-Bold-112"/>
    <path d="M 20.703125 0 
L 6.703125 0 
L 6.703125 72.90625 
L 20.703125 72.90625 
z
" id="TeXGyreHeros-Bold-108"/>
    <path d="M 52.5 25 
L 52.40625 23.296875 
L 16.203125 23.296875 
Q 16.5 15.796875 19.296875 12.796875 
Q 22.09375 9.796875 27.40625 9.796875 
Q 36.40625 9.796875 38.09375 15.203125 
L 51.90625 15.203125 
Q 49.59375 7.40625 42.890625 3.25 
Q 36.203125 -0.90625 26.90625 -0.90625 
Q 15.296875 -0.90625 8.75 6.25 
Q 2.203125 13.40625 2.203125 26.296875 
Q 2.203125 39.796875 8.84375 47.34375 
Q 15.5 54.90625 27.203125 54.90625 
Q 39.09375 54.90625 45.796875 46.953125 
Q 52.5 39 52.5 25 
z
M 37.90625 32.59375 
Q 37.40625 38.296875 34.5 41.25 
Q 31.59375 44.203125 27 44.203125 
Q 17.796875 44.203125 16.40625 32.59375 
z
" id="TeXGyreHeros-Bold-101"/>
    <path d="M 53.5 0 
L 36.703125 0 
L 27.59375 16.796875 
L 18.40625 0 
L 1.59375 0 
L 19.59375 27.203125 
L 2 54 
L 18.796875 54 
L 27.59375 37.703125 
L 36.296875 54 
L 53.09375 54 
L 35.5 27.203125 
z
" id="TeXGyreHeros-Bold-120"/>
    <path id="TeXGyreHeros-Bold-32"/>
    <path d="M 52 16 
Q 52 7.796875 45.890625 3.4375 
Q 39.796875 -0.90625 28.40625 -0.90625 
Q 3.5 -0.90625 2.90625 17.09375 
L 16.59375 17.09375 
Q 17.5 13 20 11.546875 
Q 22.5 10.09375 27.59375 10.09375 
Q 38 10.09375 38 14.703125 
Q 38 16.90625 33.296875 18.40625 
L 16.59375 23.59375 
Q 9.5 25.796875 7.140625 28.6875 
Q 4.796875 31.59375 4.796875 36.90625 
Q 4.796875 45.203125 10.75 50.046875 
Q 16.703125 54.90625 27 54.90625 
Q 37.90625 54.90625 44.09375 50.046875 
Q 50.296875 45.203125 50.5 36.59375 
L 37 36.59375 
Q 36.90625 43.90625 26.90625 43.90625 
Q 23.203125 43.90625 21 42.546875 
Q 18.796875 41.203125 18.796875 38.90625 
Q 18.796875 37.203125 19.796875 36.34375 
Q 20.796875 35.5 23.703125 34.703125 
L 41.40625 29.59375 
Q 52 26.5 52 16.703125 
z
" id="TeXGyreHeros-Bold-115"/>
    <path d="M 54.09375 0 
L 40.09375 0 
L 40.09375 7.09375 
Q 34.09375 -0.90625 23.90625 -0.90625 
Q 15.296875 -0.90625 10.546875 4 
Q 5.796875 8.90625 5.796875 17.796875 
L 5.796875 54 
L 19.796875 54 
L 19.796875 20.703125 
Q 19.796875 11 28.796875 11 
Q 33.90625 11 37 13.890625 
Q 40.09375 16.796875 40.09375 21.59375 
L 40.09375 54 
L 54.09375 54 
z
" id="TeXGyreHeros-Bold-117"/>
    <path d="M 30.09375 0 
Q 29.5 0 26.640625 -0.203125 
Q 23.796875 -0.40625 22 -0.40625 
Q 15 -0.40625 11.640625 2.4375 
Q 8.296875 5.296875 8.296875 11.59375 
L 8.296875 43.59375 
L 1.40625 43.59375 
L 1.40625 52.90625 
L 8.296875 52.90625 
L 8.296875 67.40625 
L 22.296875 67.40625 
L 22.296875 52.90625 
L 30.09375 52.90625 
L 30.09375 43.59375 
L 22.296875 43.59375 
L 22.296875 15.40625 
Q 22.296875 11.796875 23.1875 10.640625 
Q 24.09375 9.5 26.90625 9.5 
Q 28 9.5 30.09375 9.796875 
z
" id="TeXGyreHeros-Bold-116"/>
    <path d="M 54.09375 -1.796875 
Q 54.09375 -11.296875 47.34375 -16.546875 
Q 40.59375 -21.796875 28.40625 -21.796875 
Q 17.5 -21.796875 11.09375 -17.5 
Q 4.703125 -13.203125 4.5 -6.5 
L 19 -6.5 
Q 20.703125 -12.796875 28.90625 -12.796875 
Q 34.203125 -12.796875 37.5 -9.75 
Q 40.796875 -6.703125 40.796875 -1.796875 
L 40.796875 6.203125 
Q 36.796875 2.203125 33.5 0.640625 
Q 30.203125 -0.90625 25.5 -0.90625 
Q 15.5 -0.90625 9.453125 6.5 
Q 3.40625 13.90625 3.40625 26.40625 
Q 3.40625 38.90625 9.75 46.90625 
Q 16.09375 54.90625 25.796875 54.90625 
Q 34.796875 54.90625 40.796875 45.703125 
L 40.796875 54 
L 54.09375 54 
z
M 41 26.59375 
Q 41 34 37.546875 38.59375 
Q 34.09375 43.203125 28.796875 43.203125 
Q 23.703125 43.203125 20.546875 38.703125 
Q 17.40625 34.203125 17.40625 26.59375 
Q 17.40625 19.296875 20.5 15.046875 
Q 23.59375 10.796875 28.59375 10.796875 
Q 34.09375 10.796875 37.546875 15.046875 
Q 41 19.296875 41 26.59375 
z
" id="TeXGyreHeros-Bold-103"/>
    <path d="M 37 40.59375 
Q 34.5 41 32.59375 41 
Q 20.296875 41 20.296875 28.703125 
L 20.296875 0 
L 6.296875 0 
L 6.296875 54 
L 20.296875 54 
L 20.296875 43.40625 
Q 22.5 48.90625 26.5 51.90625 
Q 30.5 54.90625 35.296875 54.90625 
Q 36.203125 54.90625 37 54.796875 
z
" id="TeXGyreHeros-Bold-114"/>
    <path d="M 20.703125 0 
L 6.703125 0 
L 6.703125 54 
L 20.703125 54 
z
M 20.90625 60.5 
L 6.90625 60.5 
L 6.90625 74.5 
L 20.90625 74.5 
z
" id="TeXGyreHeros-Bold-105"/>
    <path d="M 54.5 0 
L 40.5 0 
L 40.5 6.203125 
Q 35.09375 -0.90625 25.59375 -0.90625 
Q 15.203125 -0.90625 9.046875 7.046875 
Q 2.90625 15 2.90625 26.90625 
Q 2.90625 39.09375 9.40625 47 
Q 15.90625 54.90625 25.59375 54.90625 
Q 35.40625 54.90625 40.5 47 
L 40.5 72.90625 
L 54.5 72.90625 
z
M 40.5 26.703125 
Q 40.5 34.40625 37.296875 38.796875 
Q 34.09375 43.203125 28.703125 43.203125 
Q 23.40625 43.203125 20.15625 38.75 
Q 16.90625 34.296875 16.90625 26.890625 
Q 16.90625 19.5 20.15625 15.140625 
Q 23.40625 10.796875 28.703125 10.796875 
Q 34 10.796875 37.25 15.09375 
Q 40.5 19.40625 40.5 26.703125 
z
" id="TeXGyreHeros-Bold-100"/>
   </defs>
   <g transform="translate(120.616903 11.95)scale(0.1 -0.1)">
    <use xlink:href="#TeXGyreHeros-Bold-67"/>
    <use x="72.199982" xlink:href="#TeXGyreHeros-Bold-111"/>
    <use x="133.299973" xlink:href="#TeXGyreHeros-Bold-109"/>
    <use x="222.199966" xlink:href="#TeXGyreHeros-Bold-112"/>
    <use x="283.299957" xlink:href="#TeXGyreHeros-Bold-108"/>
    <use x="311.099945" xlink:href="#TeXGyreHeros-Bold-101"/>
    <use x="366.699936" xlink:href="#TeXGyreHeros-Bold-120"/>
    <use x="422.299927" xlink:href="#TeXGyreHeros-Bold-32"/>
    <use x="450.099915" xlink:href="#TeXGyreHeros-Bold-115"/>
    <use x="505.699905" xlink:href="#TeXGyreHeros-Bold-117"/>
    <use x="566.799896" xlink:href="#TeXGyreHeros-Bold-98"/>
    <use x="627.899887" xlink:href="#TeXGyreHeros-Bold-112"/>
    <use x="688.999878" xlink:href="#TeXGyreHeros-Bold-108"/>
    <use x="716.799866" xlink:href="#TeXGyreHeros-Bold-111"/>
    <use x="777.899857" xlink:href="#TeXGyreHeros-Bold-116"/>
    <use x="811.199844" xlink:href="#TeXGyreHeros-Bold-32"/>
    <use x="838.999832" xlink:href="#TeXGyreHeros-Bold-103"/>
    <use x="900.099823" xlink:href="#TeXGyreHeros-Bold-114"/>
    <use x="938.999817" xlink:href="#TeXGyreHeros-Bold-105"/>
    <use x="966.799805" xlink:href="#TeXGyreHeros-Bold-100"/>
   </g>
  </g>
 </g>
 <defs>
  <clipPath id="pda136a467e">
   <rect height="130.116464" width="129.725574" x="34.531875" y="20.410469"/>
  </clipPath>
  <clipPath id="pac155cb39f">
   <rect height="130.116464" width="129.725574" x="179.759168" y="20.410469"/>
  </clipPath>
  <clipPath id="pad92612d8f">
   <rect height="130.116464" width="132.227293" x="105.894662" y="185.573495"/>
  </clipPath>
 </defs>
</svg>
