<?xml version="1.0" encoding="utf-8" standalone="no"?>
<!DOCTYPE svg PUBLIC "-//W3C//DTD SVG 1.1//EN"
  "http://www.w3.org/Graphics/SVG/1.1/DTD/svg11.dtd">
<!-- Created with matplotlib (https://matplotlib.org/) -->
<svg height="346.236522pt" version="1.1" viewBox="0 0 316.486461 346.236522" width="316.486461pt" xmlns="http://www.w3.org/2000/svg" xmlns:xlink="http://www.w3.org/1999/xlink">
 <defs>
  <style type="text/css">
*{stroke-linecap:butt;stroke-linejoin:round;}
  </style>
 </defs>
 <g id="figure_1">
  <g id="patch_1">
   <path d="M 0 346.236522 
L 316.486461 346.236522 
L 316.486461 0 
L 0 0 
z
" style="fill:none;"/>
  </g>
  <g id="axes_1">
   <g id="patch_2">
    <path d="M 34.531875 150.526933 
L 164.257449 150.526933 
L 164.257449 20.410469 
L 34.531875 20.410469 
z
" style="fill:none;"/>
   </g>
   <g id="matplotlib.axis_1">
    <g id="xtick_1">
     <g id="line2d_1">
      <path clip-path="url(#pfbcfbdd48b)" d="M 34.531875 150.526933 
L 34.531875 20.410469 
" style="fill:none;stroke:#000000;stroke-linecap:square;stroke-opacity:0.1;stroke-width:0.6;"/>
     </g>
     <g id="line2d_2">
      <defs>
       <path d="M 0 0 
L 0 4 
" id="mcd6b30cc60" style="stroke:#000000;stroke-width:0.6;"/>
      </defs>
      <g>
       <use style="stroke:#000000;stroke-width:0.6;" x="34.531875" xlink:href="#mcd6b30cc60" y="150.526933"/>
      </g>
     </g>
     <g id="text_1">
      <!-- 0 -->
      <defs>
       <path d="M 50.703125 34.09375 
Q 50.703125 16.703125 44.75 7.59375 
Q 38.796875 -1.5 27.5 -1.5 
Q 16.09375 -1.5 10.1875 7.640625 
Q 4.296875 16.796875 4.296875 34.6875 
Q 4.296875 52.59375 10.140625 61.75 
Q 16 70.90625 27.5 70.90625 
Q 50.703125 70.90625 50.703125 34.09375 
z
M 41.703125 34.90625 
Q 41.703125 63.09375 27.5 63.09375 
Q 13.296875 63.09375 13.296875 34.59375 
Q 13.296875 5.796875 27.296875 5.796875 
Q 34.703125 5.796875 38.203125 12.84375 
Q 41.703125 19.90625 41.703125 34.90625 
z
" id="TeXGyreHeros-Regular-48"/>
      </defs>
      <g transform="translate(32.030156 163.088495)scale(0.09 -0.09)">
       <use xlink:href="#TeXGyreHeros-Regular-48"/>
      </g>
     </g>
    </g>
    <g id="xtick_2">
     <g id="line2d_3">
      <path clip-path="url(#pfbcfbdd48b)" d="M 66.963269 150.526933 
L 66.963269 20.410469 
" style="fill:none;stroke:#000000;stroke-linecap:square;stroke-opacity:0.1;stroke-width:0.6;"/>
     </g>
     <g id="line2d_4">
      <g>
       <use style="stroke:#000000;stroke-width:0.6;" x="66.963269" xlink:href="#mcd6b30cc60" y="150.526933"/>
      </g>
     </g>
     <g id="text_2">
      <!-- 0.25 -->
      <defs>
       <path d="M 19.09375 0 
L 8.703125 0 
L 8.703125 10.40625 
L 19.09375 10.40625 
z
" id="TeXGyreHeros-Regular-46"/>
       <path d="M 51.09375 50.09375 
Q 51.09375 36.703125 36.09375 28.703125 
L 26.09375 23.296875 
Q 19.59375 19.5 16.796875 16.296875 
Q 14 13.09375 13.296875 8.703125 
L 50.59375 8.703125 
L 50.59375 0 
L 3.40625 0 
Q 4 11.703125 8.09375 18.046875 
Q 12.203125 24.40625 23.296875 30.703125 
L 32.5 35.90625 
Q 42.09375 41.40625 42.09375 49.90625 
Q 42.09375 55.59375 38.09375 59.390625 
Q 34.09375 63.203125 28.09375 63.203125 
Q 21.40625 63.203125 17.84375 59.140625 
Q 14.296875 55.09375 13.796875 46.296875 
L 5 46.296875 
Q 5.703125 70.90625 28.40625 70.90625 
Q 38.40625 70.90625 44.75 65 
Q 51.09375 59.09375 51.09375 50.09375 
z
" id="TeXGyreHeros-Regular-50"/>
       <path d="M 51.296875 23.5 
Q 51.296875 12.296875 44.546875 5.390625 
Q 37.796875 -1.5 27 -1.5 
Q 17.296875 -1.5 11.4375 3.203125 
Q 5.59375 7.90625 3.5 18.203125 
L 12.296875 18.203125 
Q 15.40625 6.296875 26.796875 6.296875 
Q 34.09375 6.296875 38.1875 10.5 
Q 42.296875 14.703125 42.296875 22.296875 
Q 42.296875 30.09375 38.140625 34.5 
Q 34 38.90625 26.796875 38.90625 
Q 22.703125 38.90625 19.796875 37.453125 
Q 16.90625 36 13.796875 32.296875 
L 5.703125 32.296875 
L 11 69.40625 
L 47.59375 69.40625 
L 47.59375 60.703125 
L 18.09375 60.703125 
L 15.296875 42.40625 
Q 21.203125 46.703125 28.40625 46.703125 
Q 38.59375 46.703125 44.9375 40.34375 
Q 51.296875 34 51.296875 23.5 
z
" id="TeXGyreHeros-Regular-53"/>
      </defs>
      <g transform="translate(58.207253 163.088495)scale(0.09 -0.09)">
       <use xlink:href="#TeXGyreHeros-Regular-48"/>
       <use x="55.599991" xlink:href="#TeXGyreHeros-Regular-46"/>
       <use x="83.399979" xlink:href="#TeXGyreHeros-Regular-50"/>
       <use x="138.999969" xlink:href="#TeXGyreHeros-Regular-53"/>
      </g>
     </g>
    </g>
    <g id="xtick_3">
     <g id="line2d_5">
      <path clip-path="url(#pfbcfbdd48b)" d="M 99.394662 150.526933 
L 99.394662 20.410469 
" style="fill:none;stroke:#000000;stroke-linecap:square;stroke-opacity:0.1;stroke-width:0.6;"/>
     </g>
     <g id="line2d_6">
      <g>
       <use style="stroke:#000000;stroke-width:0.6;" x="99.394662" xlink:href="#mcd6b30cc60" y="150.526933"/>
      </g>
     </g>
     <g id="text_3">
      <!-- 0.5 -->
      <g transform="translate(93.140365 163.088495)scale(0.09 -0.09)">
       <use xlink:href="#TeXGyreHeros-Regular-48"/>
       <use x="55.599991" xlink:href="#TeXGyreHeros-Regular-46"/>
       <use x="83.399979" xlink:href="#TeXGyreHeros-Regular-53"/>
      </g>
     </g>
    </g>
    <g id="xtick_4">
     <g id="line2d_7">
      <path clip-path="url(#pfbcfbdd48b)" d="M 131.826056 150.526933 
L 131.826056 20.410469 
" style="fill:none;stroke:#000000;stroke-linecap:square;stroke-opacity:0.1;stroke-width:0.6;"/>
     </g>
     <g id="line2d_8">
      <g>
       <use style="stroke:#000000;stroke-width:0.6;" x="131.826056" xlink:href="#mcd6b30cc60" y="150.526933"/>
      </g>
     </g>
     <g id="text_4">
      <!-- 0.75 -->
      <defs>
       <path d="M 52 62 
Q 29.09375 34.796875 23.203125 0 
L 13.796875 0 
Q 21.296875 33.5 42.90625 60.703125 
L 4.59375 60.703125 
L 4.59375 69.40625 
L 52 69.40625 
z
" id="TeXGyreHeros-Regular-55"/>
      </defs>
      <g transform="translate(123.07004 163.088495)scale(0.09 -0.09)">
       <use xlink:href="#TeXGyreHeros-Regular-48"/>
       <use x="55.599991" xlink:href="#TeXGyreHeros-Regular-46"/>
       <use x="83.399979" xlink:href="#TeXGyreHeros-Regular-55"/>
       <use x="138.999969" xlink:href="#TeXGyreHeros-Regular-53"/>
      </g>
     </g>
    </g>
    <g id="xtick_5">
     <g id="line2d_9">
      <path clip-path="url(#pfbcfbdd48b)" d="M 164.257449 150.526933 
L 164.257449 20.410469 
" style="fill:none;stroke:#000000;stroke-linecap:square;stroke-opacity:0.1;stroke-width:0.6;"/>
     </g>
     <g id="line2d_10">
      <g>
       <use style="stroke:#000000;stroke-width:0.6;" x="164.257449" xlink:href="#mcd6b30cc60" y="150.526933"/>
      </g>
     </g>
     <g id="text_5">
      <!-- 1 -->
      <defs>
       <path d="M 34.703125 0 
L 25.90625 0 
L 25.90625 50.5 
L 10.203125 50.5 
L 10.203125 56.796875 
Q 20.40625 58.09375 23.5 60.390625 
Q 26.59375 62.703125 28.90625 70.90625 
L 34.703125 70.90625 
z
" id="TeXGyreHeros-Regular-49"/>
      </defs>
      <g transform="translate(161.755731 163.088495)scale(0.09 -0.09)">
       <use xlink:href="#TeXGyreHeros-Regular-49"/>
      </g>
     </g>
    </g>
    <g id="xtick_6">
     <g id="line2d_11">
      <defs>
       <path d="M 0 0 
L 0 2 
" id="m6d5765d54d" style="stroke:#000000;stroke-width:0.48;"/>
      </defs>
      <g>
       <use style="stroke:#000000;stroke-width:0.48;" x="41.018154" xlink:href="#m6d5765d54d" y="150.526933"/>
      </g>
     </g>
    </g>
    <g id="xtick_7">
     <g id="line2d_12">
      <g>
       <use style="stroke:#000000;stroke-width:0.48;" x="47.504432" xlink:href="#m6d5765d54d" y="150.526933"/>
      </g>
     </g>
    </g>
    <g id="xtick_8">
     <g id="line2d_13">
      <g>
       <use style="stroke:#000000;stroke-width:0.48;" x="53.990711" xlink:href="#m6d5765d54d" y="150.526933"/>
      </g>
     </g>
    </g>
    <g id="xtick_9">
     <g id="line2d_14">
      <g>
       <use style="stroke:#000000;stroke-width:0.48;" x="60.47699" xlink:href="#m6d5765d54d" y="150.526933"/>
      </g>
     </g>
    </g>
    <g id="xtick_10">
     <g id="line2d_15">
      <g>
       <use style="stroke:#000000;stroke-width:0.48;" x="73.449547" xlink:href="#m6d5765d54d" y="150.526933"/>
      </g>
     </g>
    </g>
    <g id="xtick_11">
     <g id="line2d_16">
      <g>
       <use style="stroke:#000000;stroke-width:0.48;" x="79.935826" xlink:href="#m6d5765d54d" y="150.526933"/>
      </g>
     </g>
    </g>
    <g id="xtick_12">
     <g id="line2d_17">
      <g>
       <use style="stroke:#000000;stroke-width:0.48;" x="86.422105" xlink:href="#m6d5765d54d" y="150.526933"/>
      </g>
     </g>
    </g>
    <g id="xtick_13">
     <g id="line2d_18">
      <g>
       <use style="stroke:#000000;stroke-width:0.48;" x="92.908383" xlink:href="#m6d5765d54d" y="150.526933"/>
      </g>
     </g>
    </g>
    <g id="xtick_14">
     <g id="line2d_19">
      <g>
       <use style="stroke:#000000;stroke-width:0.48;" x="105.880941" xlink:href="#m6d5765d54d" y="150.526933"/>
      </g>
     </g>
    </g>
    <g id="xtick_15">
     <g id="line2d_20">
      <g>
       <use style="stroke:#000000;stroke-width:0.48;" x="112.36722" xlink:href="#m6d5765d54d" y="150.526933"/>
      </g>
     </g>
    </g>
    <g id="xtick_16">
     <g id="line2d_21">
      <g>
       <use style="stroke:#000000;stroke-width:0.48;" x="118.853498" xlink:href="#m6d5765d54d" y="150.526933"/>
      </g>
     </g>
    </g>
    <g id="xtick_17">
     <g id="line2d_22">
      <g>
       <use style="stroke:#000000;stroke-width:0.48;" x="125.339777" xlink:href="#m6d5765d54d" y="150.526933"/>
      </g>
     </g>
    </g>
    <g id="xtick_18">
     <g id="line2d_23">
      <g>
       <use style="stroke:#000000;stroke-width:0.48;" x="138.312335" xlink:href="#m6d5765d54d" y="150.526933"/>
      </g>
     </g>
    </g>
    <g id="xtick_19">
     <g id="line2d_24">
      <g>
       <use style="stroke:#000000;stroke-width:0.48;" x="144.798613" xlink:href="#m6d5765d54d" y="150.526933"/>
      </g>
     </g>
    </g>
    <g id="xtick_20">
     <g id="line2d_25">
      <g>
       <use style="stroke:#000000;stroke-width:0.48;" x="151.284892" xlink:href="#m6d5765d54d" y="150.526933"/>
      </g>
     </g>
    </g>
    <g id="xtick_21">
     <g id="line2d_26">
      <g>
       <use style="stroke:#000000;stroke-width:0.48;" x="157.771171" xlink:href="#m6d5765d54d" y="150.526933"/>
      </g>
     </g>
    </g>
    <g id="text_6">
     <!-- xlabel -->
     <defs>
      <path d="M 47.296875 0 
L 37.59375 0 
L 24.5 20.09375 
L 11.203125 0 
L 1.703125 0 
L 20.203125 26.703125 
L 2.703125 52.40625 
L 12.203125 52.40625 
L 24.796875 33.40625 
L 37.40625 52.40625 
L 46.796875 52.40625 
L 29.203125 27.09375 
z
" id="TeXGyreHeros-Regular-120"/>
      <path d="M 15.09375 0 
L 6.796875 0 
L 6.796875 72.90625 
L 15.09375 72.90625 
z
" id="TeXGyreHeros-Regular-108"/>
      <path d="M 53.5 0.203125 
Q 50 -0.703125 47.796875 -0.703125 
Q 44.703125 -0.703125 42.296875 1.25 
Q 39.90625 3.203125 39.203125 6.203125 
Q 32 -1.5 21.40625 -1.5 
Q 13.40625 -1.5 8.796875 2.5 
Q 4.203125 6.5 4.203125 13.59375 
Q 4.203125 23.40625 13.40625 27.203125 
Q 15.90625 28.203125 18.703125 28.75 
Q 21.5 29.296875 30.203125 30.40625 
Q 35.09375 31 37 32.296875 
Q 38.90625 33.59375 38.90625 36.203125 
L 38.90625 38.40625 
Q 38.90625 42.203125 35.84375 44.203125 
Q 32.796875 46.203125 27.203125 46.203125 
Q 21.40625 46.203125 18.40625 43.953125 
Q 15.40625 41.703125 14.90625 36.90625 
L 6.5 36.90625 
Q 7.203125 53.90625 27.5 53.90625 
Q 37.203125 53.90625 42.203125 50.25 
Q 47.203125 46.59375 47.203125 39.59375 
L 47.203125 10.40625 
Q 47.203125 6.296875 51.703125 6.296875 
Q 52.59375 6.296875 53.5 6.5 
z
M 38.90625 18.09375 
L 38.90625 25.90625 
Q 35.59375 24.40625 25.5 23 
Q 18.703125 22 15.796875 19.953125 
Q 12.90625 17.90625 12.90625 13.796875 
Q 12.90625 5.796875 23.203125 5.796875 
Q 29.5 5.796875 34.203125 9.25 
Q 38.90625 12.703125 38.90625 18.09375 
z
" id="TeXGyreHeros-Regular-97"/>
      <path d="M 52.296875 26.796875 
Q 52.296875 14 46.046875 6.25 
Q 39.796875 -1.5 29.5 -1.5 
Q 18.796875 -1.5 12.90625 7.5 
L 12.90625 0 
L 5.40625 0 
L 5.40625 72.90625 
L 13.703125 72.90625 
L 13.703125 45.296875 
Q 19.40625 53.90625 29.90625 53.90625 
Q 40.296875 53.90625 46.296875 46.703125 
Q 52.296875 39.5 52.296875 26.796875 
z
M 43.59375 26.296875 
Q 43.59375 35.09375 39.390625 40.59375 
Q 35.203125 46.09375 28.296875 46.09375 
Q 21.703125 46.40625 17.703125 40.90625 
Q 13.703125 35.40625 13.703125 26.203125 
Q 13.703125 17.296875 17.703125 11.796875 
Q 21.703125 6.296875 28.296875 6.296875 
Q 35.09375 6.296875 39.34375 11.84375 
Q 43.59375 17.40625 43.59375 26.296875 
z
" id="TeXGyreHeros-Regular-98"/>
      <path d="M 51.296875 23.796875 
L 12.703125 23.796875 
Q 12.796875 15.09375 17.046875 10.640625 
Q 21.296875 6.203125 28.09375 6.203125 
Q 38.59375 6.203125 41.796875 15.90625 
L 50.203125 15.90625 
Q 48.59375 7.90625 42.640625 3.203125 
Q 36.703125 -1.5 27.796875 -1.5 
Q 16.703125 -1.5 10.34375 5.75 
Q 4 13 4 25.890625 
Q 4 38.796875 10.5 46.34375 
Q 17 53.90625 28 53.90625 
Q 35.40625 53.90625 41.046875 50.203125 
Q 46.703125 46.5 49.203125 40.09375 
Q 51.296875 34.59375 51.296875 23.796875 
z
M 42.40625 31.203125 
Q 42.40625 37.40625 38.203125 41.796875 
Q 34 46.203125 27.90625 46.203125 
Q 21.59375 46.203125 17.5 41.890625 
Q 13.40625 37.59375 12.90625 30.59375 
L 42.296875 30.59375 
z
" id="TeXGyreHeros-Regular-101"/>
     </defs>
     <g transform="translate(160.254871 174.611776)scale(0.09 -0.09)">
      <use xlink:href="#TeXGyreHeros-Regular-120"/>
      <use x="49.999985" xlink:href="#TeXGyreHeros-Regular-108"/>
      <use x="72.199982" xlink:href="#TeXGyreHeros-Regular-97"/>
      <use x="127.799973" xlink:href="#TeXGyreHeros-Regular-98"/>
      <use x="183.399963" xlink:href="#TeXGyreHeros-Regular-101"/>
      <use x="238.999954" xlink:href="#TeXGyreHeros-Regular-108"/>
     </g>
    </g>
   </g>
   <g id="matplotlib.axis_2">
    <g id="ytick_1">
     <g id="line2d_27">
      <path clip-path="url(#pfbcfbdd48b)" d="M 34.531875 150.526933 
L 164.257449 150.526933 
" style="fill:none;stroke:#000000;stroke-linecap:square;stroke-opacity:0.1;stroke-width:0.6;"/>
     </g>
     <g id="line2d_28">
      <defs>
       <path d="M 0 0 
L -4 0 
" id="m4f05c114f9" style="stroke:#000000;stroke-width:0.6;"/>
      </defs>
      <g>
       <use style="stroke:#000000;stroke-width:0.6;" x="34.531875" xlink:href="#m4f05c114f9" y="150.526933"/>
      </g>
     </g>
     <g id="text_7">
      <!-- 0 -->
      <g transform="translate(23.528437 153.807714)scale(0.09 -0.09)">
       <use xlink:href="#TeXGyreHeros-Regular-48"/>
      </g>
     </g>
    </g>
    <g id="ytick_2">
     <g id="line2d_29">
      <path clip-path="url(#pfbcfbdd48b)" d="M 34.531875 124.50364 
L 164.257449 124.50364 
" style="fill:none;stroke:#000000;stroke-linecap:square;stroke-opacity:0.1;stroke-width:0.6;"/>
     </g>
     <g id="line2d_30">
      <g>
       <use style="stroke:#000000;stroke-width:0.6;" x="34.531875" xlink:href="#m4f05c114f9" y="124.50364"/>
      </g>
     </g>
     <g id="text_8">
      <!-- 0.2 -->
      <g transform="translate(16.023281 127.784421)scale(0.09 -0.09)">
       <use xlink:href="#TeXGyreHeros-Regular-48"/>
       <use x="55.599991" xlink:href="#TeXGyreHeros-Regular-46"/>
       <use x="83.399979" xlink:href="#TeXGyreHeros-Regular-50"/>
      </g>
     </g>
    </g>
    <g id="ytick_3">
     <g id="line2d_31">
      <path clip-path="url(#pfbcfbdd48b)" d="M 34.531875 98.480347 
L 164.257449 98.480347 
" style="fill:none;stroke:#000000;stroke-linecap:square;stroke-opacity:0.1;stroke-width:0.6;"/>
     </g>
     <g id="line2d_32">
      <g>
       <use style="stroke:#000000;stroke-width:0.6;" x="34.531875" xlink:href="#m4f05c114f9" y="98.480347"/>
      </g>
     </g>
     <g id="text_9">
      <!-- 0.4 -->
      <defs>
       <path d="M 52 17 
L 41.5 17 
L 41.5 0 
L 32.703125 0 
L 32.703125 17 
L 2.796875 17 
L 2.796875 26.296875 
L 35 70.90625 
L 41.5 70.90625 
L 41.5 24.90625 
L 52 24.90625 
z
M 32.703125 24.90625 
L 32.703125 55.90625 
L 10.5 24.90625 
z
" id="TeXGyreHeros-Regular-52"/>
      </defs>
      <g transform="translate(16.023281 101.761128)scale(0.09 -0.09)">
       <use xlink:href="#TeXGyreHeros-Regular-48"/>
       <use x="55.599991" xlink:href="#TeXGyreHeros-Regular-46"/>
       <use x="83.399979" xlink:href="#TeXGyreHeros-Regular-52"/>
      </g>
     </g>
    </g>
    <g id="ytick_4">
     <g id="line2d_33">
      <path clip-path="url(#pfbcfbdd48b)" d="M 34.531875 72.457054 
L 164.257449 72.457054 
" style="fill:none;stroke:#000000;stroke-linecap:square;stroke-opacity:0.1;stroke-width:0.6;"/>
     </g>
     <g id="line2d_34">
      <g>
       <use style="stroke:#000000;stroke-width:0.6;" x="34.531875" xlink:href="#m4f05c114f9" y="72.457054"/>
      </g>
     </g>
     <g id="text_10">
      <!-- 0.6 -->
      <defs>
       <path d="M 51.296875 22 
Q 51.296875 11.59375 44.796875 5.046875 
Q 38.296875 -1.5 28.09375 -1.5 
Q 4.296875 -1.5 4.296875 32.296875 
Q 4.296875 50.90625 10.84375 60.90625 
Q 17.40625 70.90625 29.703125 70.90625 
Q 37.796875 70.90625 43.140625 66 
Q 48.5 61.09375 49.796875 52.40625 
L 41 52.40625 
Q 39.90625 57.5 36.796875 60.296875 
Q 33.703125 63.09375 29.09375 63.09375 
Q 21.5 63.09375 17.453125 56.140625 
Q 13.40625 49.203125 13.296875 36.203125 
Q 19.09375 44.09375 29.59375 44.09375 
Q 39.203125 44.09375 45.25 38 
Q 51.296875 31.90625 51.296875 22 
z
M 42.296875 21.296875 
Q 42.296875 28.40625 38.59375 32.34375 
Q 34.90625 36.296875 28.5 36.296875 
Q 21.90625 36.296875 17.84375 32.34375 
Q 13.796875 28.40625 13.796875 21.796875 
Q 13.796875 15 17.890625 10.640625 
Q 22 6.296875 28.203125 6.296875 
Q 34.296875 6.296875 38.296875 10.5 
Q 42.296875 14.703125 42.296875 21.296875 
z
" id="TeXGyreHeros-Regular-54"/>
      </defs>
      <g transform="translate(16.023281 75.737836)scale(0.09 -0.09)">
       <use xlink:href="#TeXGyreHeros-Regular-48"/>
       <use x="55.599991" xlink:href="#TeXGyreHeros-Regular-46"/>
       <use x="83.399979" xlink:href="#TeXGyreHeros-Regular-54"/>
      </g>
     </g>
    </g>
    <g id="ytick_5">
     <g id="line2d_35">
      <path clip-path="url(#pfbcfbdd48b)" d="M 34.531875 46.433762 
L 164.257449 46.433762 
" style="fill:none;stroke:#000000;stroke-linecap:square;stroke-opacity:0.1;stroke-width:0.6;"/>
     </g>
     <g id="line2d_36">
      <g>
       <use style="stroke:#000000;stroke-width:0.6;" x="34.531875" xlink:href="#m4f05c114f9" y="46.433762"/>
      </g>
     </g>
     <g id="text_11">
      <!-- 0.8 -->
      <defs>
       <path d="M 51.296875 20 
Q 51.296875 10.40625 44.640625 4.453125 
Q 38 -1.5 27.5 -1.5 
Q 16.90625 -1.5 10.296875 4.453125 
Q 3.703125 10.40625 3.703125 20.09375 
Q 3.703125 31.5 15.796875 37.296875 
Q 10.40625 40.703125 8.296875 43.890625 
Q 6.203125 47.09375 6.203125 52 
Q 6.203125 60.296875 12.140625 65.59375 
Q 18.09375 70.90625 27.5 70.90625 
Q 36.90625 70.90625 42.84375 65.59375 
Q 48.796875 60.296875 48.796875 52 
Q 48.796875 47 46.6875 43.796875 
Q 44.59375 40.59375 39.09375 37.296875 
Q 51.296875 31.5 51.296875 20 
z
M 39.796875 51.796875 
Q 39.796875 57 36.4375 60.046875 
Q 33.09375 63.09375 27.5 63.09375 
Q 21.90625 63.09375 18.546875 60.046875 
Q 15.203125 57 15.203125 51.90625 
Q 15.203125 46.90625 18.546875 43.84375 
Q 21.90625 40.796875 27.5 40.796875 
Q 33 40.796875 36.390625 43.796875 
Q 39.796875 46.796875 39.796875 51.796875 
z
M 42.296875 19.90625 
Q 42.296875 26.09375 38.25 29.75 
Q 34.203125 33.40625 27.5 33.40625 
Q 20.796875 33.40625 16.75 29.75 
Q 12.703125 26.09375 12.703125 19.890625 
Q 12.703125 13.703125 16.75 10 
Q 20.796875 6.296875 27.296875 6.296875 
Q 34.09375 6.296875 38.1875 9.9375 
Q 42.296875 13.59375 42.296875 19.90625 
z
" id="TeXGyreHeros-Regular-56"/>
      </defs>
      <g transform="translate(16.023281 49.714543)scale(0.09 -0.09)">
       <use xlink:href="#TeXGyreHeros-Regular-48"/>
       <use x="55.599991" xlink:href="#TeXGyreHeros-Regular-46"/>
       <use x="83.399979" xlink:href="#TeXGyreHeros-Regular-56"/>
      </g>
     </g>
    </g>
    <g id="ytick_6">
     <g id="line2d_37">
      <path clip-path="url(#pfbcfbdd48b)" d="M 34.531875 20.410469 
L 164.257449 20.410469 
" style="fill:none;stroke:#000000;stroke-linecap:square;stroke-opacity:0.1;stroke-width:0.6;"/>
     </g>
     <g id="line2d_38">
      <g>
       <use style="stroke:#000000;stroke-width:0.6;" x="34.531875" xlink:href="#m4f05c114f9" y="20.410469"/>
      </g>
     </g>
     <g id="text_12">
      <!-- 1 -->
      <g transform="translate(23.528437 23.69125)scale(0.09 -0.09)">
       <use xlink:href="#TeXGyreHeros-Regular-49"/>
      </g>
     </g>
    </g>
    <g id="ytick_7">
     <g id="line2d_39">
      <defs>
       <path d="M 0 0 
L -2 0 
" id="m9a6bb50e53" style="stroke:#000000;stroke-width:0.48;"/>
      </defs>
      <g>
       <use style="stroke:#000000;stroke-width:0.48;" x="34.531875" xlink:href="#m9a6bb50e53" y="144.02111"/>
      </g>
     </g>
    </g>
    <g id="ytick_8">
     <g id="line2d_40">
      <g>
       <use style="stroke:#000000;stroke-width:0.48;" x="34.531875" xlink:href="#m9a6bb50e53" y="137.515286"/>
      </g>
     </g>
    </g>
    <g id="ytick_9">
     <g id="line2d_41">
      <g>
       <use style="stroke:#000000;stroke-width:0.48;" x="34.531875" xlink:href="#m9a6bb50e53" y="131.009463"/>
      </g>
     </g>
    </g>
    <g id="ytick_10">
     <g id="line2d_42">
      <g>
       <use style="stroke:#000000;stroke-width:0.48;" x="34.531875" xlink:href="#m9a6bb50e53" y="117.997817"/>
      </g>
     </g>
    </g>
    <g id="ytick_11">
     <g id="line2d_43">
      <g>
       <use style="stroke:#000000;stroke-width:0.48;" x="34.531875" xlink:href="#m9a6bb50e53" y="111.491994"/>
      </g>
     </g>
    </g>
    <g id="ytick_12">
     <g id="line2d_44">
      <g>
       <use style="stroke:#000000;stroke-width:0.48;" x="34.531875" xlink:href="#m9a6bb50e53" y="104.98617"/>
      </g>
     </g>
    </g>
    <g id="ytick_13">
     <g id="line2d_45">
      <g>
       <use style="stroke:#000000;stroke-width:0.48;" x="34.531875" xlink:href="#m9a6bb50e53" y="91.974524"/>
      </g>
     </g>
    </g>
    <g id="ytick_14">
     <g id="line2d_46">
      <g>
       <use style="stroke:#000000;stroke-width:0.48;" x="34.531875" xlink:href="#m9a6bb50e53" y="85.468701"/>
      </g>
     </g>
    </g>
    <g id="ytick_15">
     <g id="line2d_47">
      <g>
       <use style="stroke:#000000;stroke-width:0.48;" x="34.531875" xlink:href="#m9a6bb50e53" y="78.962878"/>
      </g>
     </g>
    </g>
    <g id="ytick_16">
     <g id="line2d_48">
      <g>
       <use style="stroke:#000000;stroke-width:0.48;" x="34.531875" xlink:href="#m9a6bb50e53" y="65.951231"/>
      </g>
     </g>
    </g>
    <g id="ytick_17">
     <g id="line2d_49">
      <g>
       <use style="stroke:#000000;stroke-width:0.48;" x="34.531875" xlink:href="#m9a6bb50e53" y="59.445408"/>
      </g>
     </g>
    </g>
    <g id="ytick_18">
     <g id="line2d_50">
      <g>
       <use style="stroke:#000000;stroke-width:0.48;" x="34.531875" xlink:href="#m9a6bb50e53" y="52.939585"/>
      </g>
     </g>
    </g>
    <g id="ytick_19">
     <g id="line2d_51">
      <g>
       <use style="stroke:#000000;stroke-width:0.48;" x="34.531875" xlink:href="#m9a6bb50e53" y="39.927938"/>
      </g>
     </g>
    </g>
    <g id="ytick_20">
     <g id="line2d_52">
      <g>
       <use style="stroke:#000000;stroke-width:0.48;" x="34.531875" xlink:href="#m9a6bb50e53" y="33.422115"/>
      </g>
     </g>
    </g>
    <g id="ytick_21">
     <g id="line2d_53">
      <g>
       <use style="stroke:#000000;stroke-width:0.48;" x="34.531875" xlink:href="#m9a6bb50e53" y="26.916292"/>
      </g>
     </g>
    </g>
    <g id="text_13">
     <!-- ylabel -->
     <defs>
      <path d="M 47.796875 52.40625 
L 24.5 -11 
Q 20.5 -21.796875 11 -21.796875 
Q 7.90625 -21.796875 5.40625 -20.5 
L 5.40625 -13 
Q 8.09375 -13.59375 9.796875 -13.59375 
Q 12.5 -13.59375 13.953125 -12.4375 
Q 15.40625 -11.296875 16.5 -8.5 
L 19.703125 -0.203125 
L 2 52.40625 
L 10.90625 52.40625 
L 24.296875 11.59375 
L 38.796875 52.40625 
z
" id="TeXGyreHeros-Regular-121"/>
     </defs>
     <g transform="translate(11.061563 97.222138)rotate(-90)scale(0.09 -0.09)">
      <use xlink:href="#TeXGyreHeros-Regular-121"/>
      <use x="49.999985" xlink:href="#TeXGyreHeros-Regular-108"/>
      <use x="72.199982" xlink:href="#TeXGyreHeros-Regular-97"/>
      <use x="127.799973" xlink:href="#TeXGyreHeros-Regular-98"/>
      <use x="183.399963" xlink:href="#TeXGyreHeros-Regular-101"/>
      <use x="238.999954" xlink:href="#TeXGyreHeros-Regular-108"/>
     </g>
    </g>
   </g>
   <g id="patch_3">
    <path d="M 34.531875 150.526933 
L 34.531875 20.410469 
" style="fill:none;stroke:#000000;stroke-linecap:square;stroke-linejoin:miter;stroke-width:0.6;"/>
   </g>
   <g id="patch_4">
    <path d="M 164.257449 150.526933 
L 164.257449 20.410469 
" style="fill:none;stroke:#000000;stroke-linecap:square;stroke-linejoin:miter;stroke-width:0.6;"/>
   </g>
   <g id="patch_5">
    <path d="M 34.531875 150.526933 
L 164.257449 150.526933 
" style="fill:none;stroke:#000000;stroke-linecap:square;stroke-linejoin:miter;stroke-width:0.6;"/>
   </g>
   <g id="patch_6">
    <path d="M 34.531875 20.410469 
L 164.257449 20.410469 
" style="fill:none;stroke:#000000;stroke-linecap:square;stroke-linejoin:miter;stroke-width:0.6;"/>
   </g>
   <g id="text_14">
    <!-- a -->
    <defs>
     <path d="M 52.40625 0 
L 37.203125 0 
Q 35.59375 2 35.59375 6.796875 
Q 28.203125 -0.90625 19.203125 -0.90625 
Q 12.09375 -0.90625 7.4375 3.09375 
Q 2.796875 7.09375 2.796875 14.59375 
Q 2.796875 21.796875 6.640625 25.59375 
Q 10.5 29.40625 18.703125 30.90625 
L 24.296875 31.90625 
Q 25.5 32.09375 27.5 32.390625 
Q 29.5 32.703125 30.34375 32.84375 
Q 31.203125 33 32.453125 33.390625 
Q 33.703125 33.796875 34.203125 34.34375 
Q 34.703125 34.90625 35.09375 35.84375 
Q 35.5 36.796875 35.5 38.203125 
Q 35.5 43.59375 27.40625 43.59375 
Q 22.203125 43.59375 20.09375 42 
Q 18 40.40625 17.5 36.203125 
L 4 36.203125 
Q 5.296875 54.90625 27.09375 54.90625 
Q 49.203125 54.90625 49.203125 38.296875 
L 49.203125 8.296875 
Q 49.203125 4.59375 52.40625 1.703125 
z
M 35.5 23.09375 
L 35.5 25.5 
Q 33.59375 24.59375 29.59375 23.796875 
L 24.796875 22.90625 
Q 20.296875 22.09375 18.546875 20.640625 
Q 16.796875 19.203125 16.796875 16.203125 
Q 16.796875 10.40625 24.40625 10.40625 
Q 29.703125 10.40625 32.59375 13.703125 
Q 35.5 17 35.5 23.09375 
z
" id="TeXGyreHeros-Bold-97"/>
    </defs>
    <g transform="translate(39.031875 32.201094)scale(0.1 -0.1)">
     <use xlink:href="#TeXGyreHeros-Bold-97"/>
    </g>
   </g>
  </g>
  <g id="axes_2">
   <g id="patch_7">
    <path d="M 179.759168 150.526933 
L 309.484743 150.526933 
L 309.484743 20.410469 
L 179.759168 20.410469 
z
" style="fill:none;"/>
   </g>
   <g id="matplotlib.axis_3">
    <g id="xtick_22">
     <g id="line2d_54">
      <path clip-path="url(#p9294a4fe1c)" d="M 179.759168 150.526933 
L 179.759168 20.410469 
" style="fill:none;stroke:#000000;stroke-linecap:square;stroke-opacity:0.1;stroke-width:0.6;"/>
     </g>
     <g id="line2d_55">
      <g>
       <use style="stroke:#000000;stroke-width:0.6;" x="179.759168" xlink:href="#mcd6b30cc60" y="150.526933"/>
      </g>
     </g>
     <g id="text_15">
      <!-- 0 -->
      <g transform="translate(177.257449 163.088495)scale(0.09 -0.09)">
       <use xlink:href="#TeXGyreHeros-Regular-48"/>
      </g>
     </g>
    </g>
    <g id="xtick_23">
     <g id="line2d_56">
      <path clip-path="url(#p9294a4fe1c)" d="M 212.190562 150.526933 
L 212.190562 20.410469 
" style="fill:none;stroke:#000000;stroke-linecap:square;stroke-opacity:0.1;stroke-width:0.6;"/>
     </g>
     <g id="line2d_57">
      <g>
       <use style="stroke:#000000;stroke-width:0.6;" x="212.190562" xlink:href="#mcd6b30cc60" y="150.526933"/>
      </g>
     </g>
     <g id="text_16">
      <!-- 0.25 -->
      <g transform="translate(203.434546 163.088495)scale(0.09 -0.09)">
       <use xlink:href="#TeXGyreHeros-Regular-48"/>
       <use x="55.599991" xlink:href="#TeXGyreHeros-Regular-46"/>
       <use x="83.399979" xlink:href="#TeXGyreHeros-Regular-50"/>
       <use x="138.999969" xlink:href="#TeXGyreHeros-Regular-53"/>
      </g>
     </g>
    </g>
    <g id="xtick_24">
     <g id="line2d_58">
      <path clip-path="url(#p9294a4fe1c)" d="M 244.621955 150.526933 
L 244.621955 20.410469 
" style="fill:none;stroke:#000000;stroke-linecap:square;stroke-opacity:0.1;stroke-width:0.6;"/>
     </g>
     <g id="line2d_59">
      <g>
       <use style="stroke:#000000;stroke-width:0.6;" x="244.621955" xlink:href="#mcd6b30cc60" y="150.526933"/>
      </g>
     </g>
     <g id="text_17">
      <!-- 0.5 -->
      <g transform="translate(238.367659 163.088495)scale(0.09 -0.09)">
       <use xlink:href="#TeXGyreHeros-Regular-48"/>
       <use x="55.599991" xlink:href="#TeXGyreHeros-Regular-46"/>
       <use x="83.399979" xlink:href="#TeXGyreHeros-Regular-53"/>
      </g>
     </g>
    </g>
    <g id="xtick_25">
     <g id="line2d_60">
      <path clip-path="url(#p9294a4fe1c)" d="M 277.053349 150.526933 
L 277.053349 20.410469 
" style="fill:none;stroke:#000000;stroke-linecap:square;stroke-opacity:0.1;stroke-width:0.6;"/>
     </g>
     <g id="line2d_61">
      <g>
       <use style="stroke:#000000;stroke-width:0.6;" x="277.053349" xlink:href="#mcd6b30cc60" y="150.526933"/>
      </g>
     </g>
     <g id="text_18">
      <!-- 0.75 -->
      <g transform="translate(268.297333 163.088495)scale(0.09 -0.09)">
       <use xlink:href="#TeXGyreHeros-Regular-48"/>
       <use x="55.599991" xlink:href="#TeXGyreHeros-Regular-46"/>
       <use x="83.399979" xlink:href="#TeXGyreHeros-Regular-55"/>
       <use x="138.999969" xlink:href="#TeXGyreHeros-Regular-53"/>
      </g>
     </g>
    </g>
    <g id="xtick_26">
     <g id="line2d_62">
      <path clip-path="url(#p9294a4fe1c)" d="M 309.484743 150.526933 
L 309.484743 20.410469 
" style="fill:none;stroke:#000000;stroke-linecap:square;stroke-opacity:0.1;stroke-width:0.6;"/>
     </g>
     <g id="line2d_63">
      <g>
       <use style="stroke:#000000;stroke-width:0.6;" x="309.484743" xlink:href="#mcd6b30cc60" y="150.526933"/>
      </g>
     </g>
     <g id="text_19">
      <!-- 1 -->
      <g transform="translate(306.983024 163.088495)scale(0.09 -0.09)">
       <use xlink:href="#TeXGyreHeros-Regular-49"/>
      </g>
     </g>
    </g>
    <g id="xtick_27">
     <g id="line2d_64">
      <g>
       <use style="stroke:#000000;stroke-width:0.48;" x="186.245447" xlink:href="#m6d5765d54d" y="150.526933"/>
      </g>
     </g>
    </g>
    <g id="xtick_28">
     <g id="line2d_65">
      <g>
       <use style="stroke:#000000;stroke-width:0.48;" x="192.731726" xlink:href="#m6d5765d54d" y="150.526933"/>
      </g>
     </g>
    </g>
    <g id="xtick_29">
     <g id="line2d_66">
      <g>
       <use style="stroke:#000000;stroke-width:0.48;" x="199.218004" xlink:href="#m6d5765d54d" y="150.526933"/>
      </g>
     </g>
    </g>
    <g id="xtick_30">
     <g id="line2d_67">
      <g>
       <use style="stroke:#000000;stroke-width:0.48;" x="205.704283" xlink:href="#m6d5765d54d" y="150.526933"/>
      </g>
     </g>
    </g>
    <g id="xtick_31">
     <g id="line2d_68">
      <g>
       <use style="stroke:#000000;stroke-width:0.48;" x="218.67684" xlink:href="#m6d5765d54d" y="150.526933"/>
      </g>
     </g>
    </g>
    <g id="xtick_32">
     <g id="line2d_69">
      <g>
       <use style="stroke:#000000;stroke-width:0.48;" x="225.163119" xlink:href="#m6d5765d54d" y="150.526933"/>
      </g>
     </g>
    </g>
    <g id="xtick_33">
     <g id="line2d_70">
      <g>
       <use style="stroke:#000000;stroke-width:0.48;" x="231.649398" xlink:href="#m6d5765d54d" y="150.526933"/>
      </g>
     </g>
    </g>
    <g id="xtick_34">
     <g id="line2d_71">
      <g>
       <use style="stroke:#000000;stroke-width:0.48;" x="238.135677" xlink:href="#m6d5765d54d" y="150.526933"/>
      </g>
     </g>
    </g>
    <g id="xtick_35">
     <g id="line2d_72">
      <g>
       <use style="stroke:#000000;stroke-width:0.48;" x="251.108234" xlink:href="#m6d5765d54d" y="150.526933"/>
      </g>
     </g>
    </g>
    <g id="xtick_36">
     <g id="line2d_73">
      <g>
       <use style="stroke:#000000;stroke-width:0.48;" x="257.594513" xlink:href="#m6d5765d54d" y="150.526933"/>
      </g>
     </g>
    </g>
    <g id="xtick_37">
     <g id="line2d_74">
      <g>
       <use style="stroke:#000000;stroke-width:0.48;" x="264.080792" xlink:href="#m6d5765d54d" y="150.526933"/>
      </g>
     </g>
    </g>
    <g id="xtick_38">
     <g id="line2d_75">
      <g>
       <use style="stroke:#000000;stroke-width:0.48;" x="270.56707" xlink:href="#m6d5765d54d" y="150.526933"/>
      </g>
     </g>
    </g>
    <g id="xtick_39">
     <g id="line2d_76">
      <g>
       <use style="stroke:#000000;stroke-width:0.48;" x="283.539628" xlink:href="#m6d5765d54d" y="150.526933"/>
      </g>
     </g>
    </g>
    <g id="xtick_40">
     <g id="line2d_77">
      <g>
       <use style="stroke:#000000;stroke-width:0.48;" x="290.025906" xlink:href="#m6d5765d54d" y="150.526933"/>
      </g>
     </g>
    </g>
    <g id="xtick_41">
     <g id="line2d_78">
      <g>
       <use style="stroke:#000000;stroke-width:0.48;" x="296.512185" xlink:href="#m6d5765d54d" y="150.526933"/>
      </g>
     </g>
    </g>
    <g id="xtick_42">
     <g id="line2d_79">
      <g>
       <use style="stroke:#000000;stroke-width:0.48;" x="302.998464" xlink:href="#m6d5765d54d" y="150.526933"/>
      </g>
     </g>
    </g>
   </g>
   <g id="matplotlib.axis_4">
    <g id="ytick_22">
     <g id="line2d_80">
      <path clip-path="url(#p9294a4fe1c)" d="M 179.759168 150.526933 
L 309.484743 150.526933 
" style="fill:none;stroke:#000000;stroke-linecap:square;stroke-opacity:0.1;stroke-width:0.6;"/>
     </g>
     <g id="line2d_81">
      <g>
       <use style="stroke:#000000;stroke-width:0.6;" x="179.759168" xlink:href="#m4f05c114f9" y="150.526933"/>
      </g>
     </g>
    </g>
    <g id="ytick_23">
     <g id="line2d_82">
      <path clip-path="url(#p9294a4fe1c)" d="M 179.759168 124.50364 
L 309.484743 124.50364 
" style="fill:none;stroke:#000000;stroke-linecap:square;stroke-opacity:0.1;stroke-width:0.6;"/>
     </g>
     <g id="line2d_83">
      <g>
       <use style="stroke:#000000;stroke-width:0.6;" x="179.759168" xlink:href="#m4f05c114f9" y="124.50364"/>
      </g>
     </g>
    </g>
    <g id="ytick_24">
     <g id="line2d_84">
      <path clip-path="url(#p9294a4fe1c)" d="M 179.759168 98.480347 
L 309.484743 98.480347 
" style="fill:none;stroke:#000000;stroke-linecap:square;stroke-opacity:0.1;stroke-width:0.6;"/>
     </g>
     <g id="line2d_85">
      <g>
       <use style="stroke:#000000;stroke-width:0.6;" x="179.759168" xlink:href="#m4f05c114f9" y="98.480347"/>
      </g>
     </g>
    </g>
    <g id="ytick_25">
     <g id="line2d_86">
      <path clip-path="url(#p9294a4fe1c)" d="M 179.759168 72.457054 
L 309.484743 72.457054 
" style="fill:none;stroke:#000000;stroke-linecap:square;stroke-opacity:0.1;stroke-width:0.6;"/>
     </g>
     <g id="line2d_87">
      <g>
       <use style="stroke:#000000;stroke-width:0.6;" x="179.759168" xlink:href="#m4f05c114f9" y="72.457054"/>
      </g>
     </g>
    </g>
    <g id="ytick_26">
     <g id="line2d_88">
      <path clip-path="url(#p9294a4fe1c)" d="M 179.759168 46.433762 
L 309.484743 46.433762 
" style="fill:none;stroke:#000000;stroke-linecap:square;stroke-opacity:0.1;stroke-width:0.6;"/>
     </g>
     <g id="line2d_89">
      <g>
       <use style="stroke:#000000;stroke-width:0.6;" x="179.759168" xlink:href="#m4f05c114f9" y="46.433762"/>
      </g>
     </g>
    </g>
    <g id="ytick_27">
     <g id="line2d_90">
      <path clip-path="url(#p9294a4fe1c)" d="M 179.759168 20.410469 
L 309.484743 20.410469 
" style="fill:none;stroke:#000000;stroke-linecap:square;stroke-opacity:0.1;stroke-width:0.6;"/>
     </g>
     <g id="line2d_91">
      <g>
       <use style="stroke:#000000;stroke-width:0.6;" x="179.759168" xlink:href="#m4f05c114f9" y="20.410469"/>
      </g>
     </g>
    </g>
    <g id="ytick_28">
     <g id="line2d_92">
      <g>
       <use style="stroke:#000000;stroke-width:0.48;" x="179.759168" xlink:href="#m9a6bb50e53" y="144.02111"/>
      </g>
     </g>
    </g>
    <g id="ytick_29">
     <g id="line2d_93">
      <g>
       <use style="stroke:#000000;stroke-width:0.48;" x="179.759168" xlink:href="#m9a6bb50e53" y="137.515286"/>
      </g>
     </g>
    </g>
    <g id="ytick_30">
     <g id="line2d_94">
      <g>
       <use style="stroke:#000000;stroke-width:0.48;" x="179.759168" xlink:href="#m9a6bb50e53" y="131.009463"/>
      </g>
     </g>
    </g>
    <g id="ytick_31">
     <g id="line2d_95">
      <g>
       <use style="stroke:#000000;stroke-width:0.48;" x="179.759168" xlink:href="#m9a6bb50e53" y="117.997817"/>
      </g>
     </g>
    </g>
    <g id="ytick_32">
     <g id="line2d_96">
      <g>
       <use style="stroke:#000000;stroke-width:0.48;" x="179.759168" xlink:href="#m9a6bb50e53" y="111.491994"/>
      </g>
     </g>
    </g>
    <g id="ytick_33">
     <g id="line2d_97">
      <g>
       <use style="stroke:#000000;stroke-width:0.48;" x="179.759168" xlink:href="#m9a6bb50e53" y="104.98617"/>
      </g>
     </g>
    </g>
    <g id="ytick_34">
     <g id="line2d_98">
      <g>
       <use style="stroke:#000000;stroke-width:0.48;" x="179.759168" xlink:href="#m9a6bb50e53" y="91.974524"/>
      </g>
     </g>
    </g>
    <g id="ytick_35">
     <g id="line2d_99">
      <g>
       <use style="stroke:#000000;stroke-width:0.48;" x="179.759168" xlink:href="#m9a6bb50e53" y="85.468701"/>
      </g>
     </g>
    </g>
    <g id="ytick_36">
     <g id="line2d_100">
      <g>
       <use style="stroke:#000000;stroke-width:0.48;" x="179.759168" xlink:href="#m9a6bb50e53" y="78.962878"/>
      </g>
     </g>
    </g>
    <g id="ytick_37">
     <g id="line2d_101">
      <g>
       <use style="stroke:#000000;stroke-width:0.48;" x="179.759168" xlink:href="#m9a6bb50e53" y="65.951231"/>
      </g>
     </g>
    </g>
    <g id="ytick_38">
     <g id="line2d_102">
      <g>
       <use style="stroke:#000000;stroke-width:0.48;" x="179.759168" xlink:href="#m9a6bb50e53" y="59.445408"/>
      </g>
     </g>
    </g>
    <g id="ytick_39">
     <g id="line2d_103">
      <g>
       <use style="stroke:#000000;stroke-width:0.48;" x="179.759168" xlink:href="#m9a6bb50e53" y="52.939585"/>
      </g>
     </g>
    </g>
    <g id="ytick_40">
     <g id="line2d_104">
      <g>
       <use style="stroke:#000000;stroke-width:0.48;" x="179.759168" xlink:href="#m9a6bb50e53" y="39.927938"/>
      </g>
     </g>
    </g>
    <g id="ytick_41">
     <g id="line2d_105">
      <g>
       <use style="stroke:#000000;stroke-width:0.48;" x="179.759168" xlink:href="#m9a6bb50e53" y="33.422115"/>
      </g>
     </g>
    </g>
    <g id="ytick_42">
     <g id="line2d_106">
      <g>
       <use style="stroke:#000000;stroke-width:0.48;" x="179.759168" xlink:href="#m9a6bb50e53" y="26.916292"/>
      </g>
     </g>
    </g>
   </g>
   <g id="patch_8">
    <path d="M 179.759168 150.526933 
L 179.759168 20.410469 
" style="fill:none;stroke:#000000;stroke-linecap:square;stroke-linejoin:miter;stroke-width:0.6;"/>
   </g>
   <g id="patch_9">
    <path d="M 309.484743 150.526933 
L 309.484743 20.410469 
" style="fill:none;stroke:#000000;stroke-linecap:square;stroke-linejoin:miter;stroke-width:0.6;"/>
   </g>
   <g id="patch_10">
    <path d="M 179.759168 150.526933 
L 309.484743 150.526933 
" style="fill:none;stroke:#000000;stroke-linecap:square;stroke-linejoin:miter;stroke-width:0.6;"/>
   </g>
   <g id="patch_11">
    <path d="M 179.759168 20.410469 
L 309.484743 20.410469 
" style="fill:none;stroke:#000000;stroke-linecap:square;stroke-linejoin:miter;stroke-width:0.6;"/>
   </g>
   <g id="text_20">
    <!-- b -->
    <defs>
     <path d="M 57.5 26.296875 
Q 57.5 14.203125 51.046875 6.640625 
Q 44.59375 -0.90625 34.796875 -0.90625 
Q 25.09375 -0.90625 19.90625 6.203125 
L 19.90625 0 
L 5.90625 0 
L 5.90625 72.90625 
L 19.90625 72.90625 
L 19.90625 47 
Q 24.90625 54.90625 34.796875 54.90625 
Q 45.09375 54.90625 51.296875 46.546875 
Q 57.5 38.203125 57.5 26.296875 
z
M 43.5 26.90625 
Q 43.5 34.296875 40.203125 38.75 
Q 36.90625 43.203125 31.703125 43.203125 
Q 26.40625 43.203125 23.15625 38.84375 
Q 19.90625 34.5 19.90625 27.203125 
Q 19.90625 19.59375 23.09375 15.1875 
Q 26.296875 10.796875 31.703125 10.796875 
Q 36.90625 10.796875 40.203125 15.1875 
Q 43.5 19.59375 43.5 26.90625 
z
" id="TeXGyreHeros-Bold-98"/>
    </defs>
    <g transform="translate(184.259168 32.201094)scale(0.1 -0.1)">
     <use xlink:href="#TeXGyreHeros-Bold-98"/>
    </g>
   </g>
  </g>
  <g id="axes_3">
   <g id="patch_12">
    <path d="M 105.894662 315.689959 
L 238.121955 315.689959 
L 238.121955 185.573495 
L 105.894662 185.573495 
z
" style="fill:none;"/>
   </g>
   <g id="matplotlib.axis_5">
    <g id="xtick_43">
     <g id="line2d_107">
      <path clip-path="url(#p4c61754192)" d="M 105.894662 315.689959 
L 105.894662 185.573495 
" style="fill:none;stroke:#000000;stroke-linecap:square;stroke-opacity:0.1;stroke-width:0.6;"/>
     </g>
     <g id="line2d_108">
      <g>
       <use style="stroke:#000000;stroke-width:0.6;" x="105.894662" xlink:href="#mcd6b30cc60" y="315.689959"/>
      </g>
     </g>
     <g id="text_21">
      <!-- 0 -->
      <g transform="translate(103.392943 328.251522)scale(0.09 -0.09)">
       <use xlink:href="#TeXGyreHeros-Regular-48"/>
      </g>
     </g>
    </g>
    <g id="xtick_44">
     <g id="line2d_109">
      <path clip-path="url(#p4c61754192)" d="M 139.285393 315.689959 
L 139.285393 185.573495 
" style="fill:none;stroke:#000000;stroke-linecap:square;stroke-opacity:0.1;stroke-width:0.6;"/>
     </g>
     <g id="line2d_110">
      <g>
       <use style="stroke:#000000;stroke-width:0.6;" x="139.285393" xlink:href="#mcd6b30cc60" y="315.689959"/>
      </g>
     </g>
     <g id="text_22">
      <!-- 25 -->
      <g transform="translate(134.281955 328.251522)scale(0.09 -0.09)">
       <use xlink:href="#TeXGyreHeros-Regular-50"/>
       <use x="55.599991" xlink:href="#TeXGyreHeros-Regular-53"/>
      </g>
     </g>
    </g>
    <g id="xtick_45">
     <g id="line2d_111">
      <path clip-path="url(#p4c61754192)" d="M 172.676123 315.689959 
L 172.676123 185.573495 
" style="fill:none;stroke:#000000;stroke-linecap:square;stroke-opacity:0.1;stroke-width:0.6;"/>
     </g>
     <g id="line2d_112">
      <g>
       <use style="stroke:#000000;stroke-width:0.6;" x="172.676123" xlink:href="#mcd6b30cc60" y="315.689959"/>
      </g>
     </g>
     <g id="text_23">
      <!-- 50 -->
      <g transform="translate(167.672686 328.251522)scale(0.09 -0.09)">
       <use xlink:href="#TeXGyreHeros-Regular-53"/>
       <use x="55.599991" xlink:href="#TeXGyreHeros-Regular-48"/>
      </g>
     </g>
    </g>
    <g id="xtick_46">
     <g id="line2d_113">
      <path clip-path="url(#p4c61754192)" d="M 206.066854 315.689959 
L 206.066854 185.573495 
" style="fill:none;stroke:#000000;stroke-linecap:square;stroke-opacity:0.1;stroke-width:0.6;"/>
     </g>
     <g id="line2d_114">
      <g>
       <use style="stroke:#000000;stroke-width:0.6;" x="206.066854" xlink:href="#mcd6b30cc60" y="315.689959"/>
      </g>
     </g>
     <g id="text_24">
      <!-- 75 -->
      <g transform="translate(201.063417 328.251522)scale(0.09 -0.09)">
       <use xlink:href="#TeXGyreHeros-Regular-55"/>
       <use x="55.599991" xlink:href="#TeXGyreHeros-Regular-53"/>
      </g>
     </g>
    </g>
    <g id="xtick_47">
     <g id="line2d_115">
      <g>
       <use style="stroke:#000000;stroke-width:0.48;" x="112.572808" xlink:href="#m6d5765d54d" y="315.689959"/>
      </g>
     </g>
    </g>
    <g id="xtick_48">
     <g id="line2d_116">
      <g>
       <use style="stroke:#000000;stroke-width:0.48;" x="119.250954" xlink:href="#m6d5765d54d" y="315.689959"/>
      </g>
     </g>
    </g>
    <g id="xtick_49">
     <g id="line2d_117">
      <g>
       <use style="stroke:#000000;stroke-width:0.48;" x="125.929101" xlink:href="#m6d5765d54d" y="315.689959"/>
      </g>
     </g>
    </g>
    <g id="xtick_50">
     <g id="line2d_118">
      <g>
       <use style="stroke:#000000;stroke-width:0.48;" x="132.607247" xlink:href="#m6d5765d54d" y="315.689959"/>
      </g>
     </g>
    </g>
    <g id="xtick_51">
     <g id="line2d_119">
      <g>
       <use style="stroke:#000000;stroke-width:0.48;" x="145.963539" xlink:href="#m6d5765d54d" y="315.689959"/>
      </g>
     </g>
    </g>
    <g id="xtick_52">
     <g id="line2d_120">
      <g>
       <use style="stroke:#000000;stroke-width:0.48;" x="152.641685" xlink:href="#m6d5765d54d" y="315.689959"/>
      </g>
     </g>
    </g>
    <g id="xtick_53">
     <g id="line2d_121">
      <g>
       <use style="stroke:#000000;stroke-width:0.48;" x="159.319831" xlink:href="#m6d5765d54d" y="315.689959"/>
      </g>
     </g>
    </g>
    <g id="xtick_54">
     <g id="line2d_122">
      <g>
       <use style="stroke:#000000;stroke-width:0.48;" x="165.997977" xlink:href="#m6d5765d54d" y="315.689959"/>
      </g>
     </g>
    </g>
    <g id="xtick_55">
     <g id="line2d_123">
      <g>
       <use style="stroke:#000000;stroke-width:0.48;" x="179.35427" xlink:href="#m6d5765d54d" y="315.689959"/>
      </g>
     </g>
    </g>
    <g id="xtick_56">
     <g id="line2d_124">
      <g>
       <use style="stroke:#000000;stroke-width:0.48;" x="186.032416" xlink:href="#m6d5765d54d" y="315.689959"/>
      </g>
     </g>
    </g>
    <g id="xtick_57">
     <g id="line2d_125">
      <g>
       <use style="stroke:#000000;stroke-width:0.48;" x="192.710562" xlink:href="#m6d5765d54d" y="315.689959"/>
      </g>
     </g>
    </g>
    <g id="xtick_58">
     <g id="line2d_126">
      <g>
       <use style="stroke:#000000;stroke-width:0.48;" x="199.388708" xlink:href="#m6d5765d54d" y="315.689959"/>
      </g>
     </g>
    </g>
    <g id="xtick_59">
     <g id="line2d_127">
      <g>
       <use style="stroke:#000000;stroke-width:0.48;" x="212.745" xlink:href="#m6d5765d54d" y="315.689959"/>
      </g>
     </g>
    </g>
    <g id="xtick_60">
     <g id="line2d_128">
      <g>
       <use style="stroke:#000000;stroke-width:0.48;" x="219.423146" xlink:href="#m6d5765d54d" y="315.689959"/>
      </g>
     </g>
    </g>
    <g id="xtick_61">
     <g id="line2d_129">
      <g>
       <use style="stroke:#000000;stroke-width:0.48;" x="226.101292" xlink:href="#m6d5765d54d" y="315.689959"/>
      </g>
     </g>
    </g>
    <g id="xtick_62">
     <g id="line2d_130">
      <g>
       <use style="stroke:#000000;stroke-width:0.48;" x="232.779438" xlink:href="#m6d5765d54d" y="315.689959"/>
      </g>
     </g>
    </g>
    <g id="text_25">
     <!-- xlabel -->
     <g transform="translate(160.254871 339.774803)scale(0.09 -0.09)">
      <use xlink:href="#TeXGyreHeros-Regular-120"/>
      <use x="49.999985" xlink:href="#TeXGyreHeros-Regular-108"/>
      <use x="72.199982" xlink:href="#TeXGyreHeros-Regular-97"/>
      <use x="127.799973" xlink:href="#TeXGyreHeros-Regular-98"/>
      <use x="183.399963" xlink:href="#TeXGyreHeros-Regular-101"/>
      <use x="238.999954" xlink:href="#TeXGyreHeros-Regular-108"/>
     </g>
    </g>
   </g>
   <g id="matplotlib.axis_6">
    <g id="ytick_43">
     <g id="line2d_131">
      <path clip-path="url(#p4c61754192)" d="M 105.894662 300.728796 
L 238.121955 300.728796 
" style="fill:none;stroke:#000000;stroke-linecap:square;stroke-opacity:0.1;stroke-width:0.6;"/>
     </g>
     <g id="line2d_132">
      <g>
       <use style="stroke:#000000;stroke-width:0.6;" x="105.894662" xlink:href="#m4f05c114f9" y="300.728796"/>
      </g>
     </g>
     <g id="text_26">
      <!-- −4 -->
      <defs>
       <path d="M 51.59375 21.59375 
L 6.796875 21.59375 
L 6.796875 28.40625 
L 51.59375 28.40625 
z
" id="TeXGyreHeros-Regular-8722"/>
      </defs>
      <g transform="translate(89.634662 304.009578)scale(0.09 -0.09)">
       <use xlink:href="#TeXGyreHeros-Regular-8722"/>
       <use x="58.399994" xlink:href="#TeXGyreHeros-Regular-52"/>
      </g>
     </g>
    </g>
    <g id="ytick_44">
     <g id="line2d_133">
      <path clip-path="url(#p4c61754192)" d="M 105.894662 280.755294 
L 238.121955 280.755294 
" style="fill:none;stroke:#000000;stroke-linecap:square;stroke-opacity:0.1;stroke-width:0.6;"/>
     </g>
     <g id="line2d_134">
      <g>
       <use style="stroke:#000000;stroke-width:0.6;" x="105.894662" xlink:href="#m4f05c114f9" y="280.755294"/>
      </g>
     </g>
     <g id="text_27">
      <!-- −2 -->
      <g transform="translate(89.634662 284.036075)scale(0.09 -0.09)">
       <use xlink:href="#TeXGyreHeros-Regular-8722"/>
       <use x="58.399994" xlink:href="#TeXGyreHeros-Regular-50"/>
      </g>
     </g>
    </g>
    <g id="ytick_45">
     <g id="line2d_135">
      <path clip-path="url(#p4c61754192)" d="M 105.894662 260.781791 
L 238.121955 260.781791 
" style="fill:none;stroke:#000000;stroke-linecap:square;stroke-opacity:0.1;stroke-width:0.6;"/>
     </g>
     <g id="line2d_136">
      <g>
       <use style="stroke:#000000;stroke-width:0.6;" x="105.894662" xlink:href="#m4f05c114f9" y="260.781791"/>
      </g>
     </g>
     <g id="text_28">
      <!-- 0 -->
      <g transform="translate(94.891225 264.062573)scale(0.09 -0.09)">
       <use xlink:href="#TeXGyreHeros-Regular-48"/>
      </g>
     </g>
    </g>
    <g id="ytick_46">
     <g id="line2d_137">
      <path clip-path="url(#p4c61754192)" d="M 105.894662 240.808289 
L 238.121955 240.808289 
" style="fill:none;stroke:#000000;stroke-linecap:square;stroke-opacity:0.1;stroke-width:0.6;"/>
     </g>
     <g id="line2d_138">
      <g>
       <use style="stroke:#000000;stroke-width:0.6;" x="105.894662" xlink:href="#m4f05c114f9" y="240.808289"/>
      </g>
     </g>
     <g id="text_29">
      <!-- 2 -->
      <g transform="translate(94.891225 244.08907)scale(0.09 -0.09)">
       <use xlink:href="#TeXGyreHeros-Regular-50"/>
      </g>
     </g>
    </g>
    <g id="ytick_47">
     <g id="line2d_139">
      <path clip-path="url(#p4c61754192)" d="M 105.894662 220.834787 
L 238.121955 220.834787 
" style="fill:none;stroke:#000000;stroke-linecap:square;stroke-opacity:0.1;stroke-width:0.6;"/>
     </g>
     <g id="line2d_140">
      <g>
       <use style="stroke:#000000;stroke-width:0.6;" x="105.894662" xlink:href="#m4f05c114f9" y="220.834787"/>
      </g>
     </g>
     <g id="text_30">
      <!-- 4 -->
      <g transform="translate(94.891225 224.115568)scale(0.09 -0.09)">
       <use xlink:href="#TeXGyreHeros-Regular-52"/>
      </g>
     </g>
    </g>
    <g id="ytick_48">
     <g id="line2d_141">
      <path clip-path="url(#p4c61754192)" d="M 105.894662 200.861284 
L 238.121955 200.861284 
" style="fill:none;stroke:#000000;stroke-linecap:square;stroke-opacity:0.1;stroke-width:0.6;"/>
     </g>
     <g id="line2d_142">
      <g>
       <use style="stroke:#000000;stroke-width:0.6;" x="105.894662" xlink:href="#m4f05c114f9" y="200.861284"/>
      </g>
     </g>
     <g id="text_31">
      <!-- 6 -->
      <g transform="translate(94.891225 204.142066)scale(0.09 -0.09)">
       <use xlink:href="#TeXGyreHeros-Regular-54"/>
      </g>
     </g>
    </g>
    <g id="ytick_49">
     <g id="line2d_143">
      <g>
       <use style="stroke:#000000;stroke-width:0.48;" x="105.894662" xlink:href="#m9a6bb50e53" y="310.715547"/>
      </g>
     </g>
    </g>
    <g id="ytick_50">
     <g id="line2d_144">
      <g>
       <use style="stroke:#000000;stroke-width:0.48;" x="105.894662" xlink:href="#m9a6bb50e53" y="305.722172"/>
      </g>
     </g>
    </g>
    <g id="ytick_51">
     <g id="line2d_145">
      <g>
       <use style="stroke:#000000;stroke-width:0.48;" x="105.894662" xlink:href="#m9a6bb50e53" y="295.735421"/>
      </g>
     </g>
    </g>
    <g id="ytick_52">
     <g id="line2d_146">
      <g>
       <use style="stroke:#000000;stroke-width:0.48;" x="105.894662" xlink:href="#m9a6bb50e53" y="290.742045"/>
      </g>
     </g>
    </g>
    <g id="ytick_53">
     <g id="line2d_147">
      <g>
       <use style="stroke:#000000;stroke-width:0.48;" x="105.894662" xlink:href="#m9a6bb50e53" y="285.748669"/>
      </g>
     </g>
    </g>
    <g id="ytick_54">
     <g id="line2d_148">
      <g>
       <use style="stroke:#000000;stroke-width:0.48;" x="105.894662" xlink:href="#m9a6bb50e53" y="275.761918"/>
      </g>
     </g>
    </g>
    <g id="ytick_55">
     <g id="line2d_149">
      <g>
       <use style="stroke:#000000;stroke-width:0.48;" x="105.894662" xlink:href="#m9a6bb50e53" y="270.768543"/>
      </g>
     </g>
    </g>
    <g id="ytick_56">
     <g id="line2d_150">
      <g>
       <use style="stroke:#000000;stroke-width:0.48;" x="105.894662" xlink:href="#m9a6bb50e53" y="265.775167"/>
      </g>
     </g>
    </g>
    <g id="ytick_57">
     <g id="line2d_151">
      <g>
       <use style="stroke:#000000;stroke-width:0.48;" x="105.894662" xlink:href="#m9a6bb50e53" y="255.788416"/>
      </g>
     </g>
    </g>
    <g id="ytick_58">
     <g id="line2d_152">
      <g>
       <use style="stroke:#000000;stroke-width:0.48;" x="105.894662" xlink:href="#m9a6bb50e53" y="250.79504"/>
      </g>
     </g>
    </g>
    <g id="ytick_59">
     <g id="line2d_153">
      <g>
       <use style="stroke:#000000;stroke-width:0.48;" x="105.894662" xlink:href="#m9a6bb50e53" y="245.801665"/>
      </g>
     </g>
    </g>
    <g id="ytick_60">
     <g id="line2d_154">
      <g>
       <use style="stroke:#000000;stroke-width:0.48;" x="105.894662" xlink:href="#m9a6bb50e53" y="235.814913"/>
      </g>
     </g>
    </g>
    <g id="ytick_61">
     <g id="line2d_155">
      <g>
       <use style="stroke:#000000;stroke-width:0.48;" x="105.894662" xlink:href="#m9a6bb50e53" y="230.821538"/>
      </g>
     </g>
    </g>
    <g id="ytick_62">
     <g id="line2d_156">
      <g>
       <use style="stroke:#000000;stroke-width:0.48;" x="105.894662" xlink:href="#m9a6bb50e53" y="225.828162"/>
      </g>
     </g>
    </g>
    <g id="ytick_63">
     <g id="line2d_157">
      <g>
       <use style="stroke:#000000;stroke-width:0.48;" x="105.894662" xlink:href="#m9a6bb50e53" y="215.841411"/>
      </g>
     </g>
    </g>
    <g id="ytick_64">
     <g id="line2d_158">
      <g>
       <use style="stroke:#000000;stroke-width:0.48;" x="105.894662" xlink:href="#m9a6bb50e53" y="210.848035"/>
      </g>
     </g>
    </g>
    <g id="ytick_65">
     <g id="line2d_159">
      <g>
       <use style="stroke:#000000;stroke-width:0.48;" x="105.894662" xlink:href="#m9a6bb50e53" y="205.85466"/>
      </g>
     </g>
    </g>
    <g id="ytick_66">
     <g id="line2d_160">
      <g>
       <use style="stroke:#000000;stroke-width:0.48;" x="105.894662" xlink:href="#m9a6bb50e53" y="195.867909"/>
      </g>
     </g>
    </g>
    <g id="ytick_67">
     <g id="line2d_161">
      <g>
       <use style="stroke:#000000;stroke-width:0.48;" x="105.894662" xlink:href="#m9a6bb50e53" y="190.874533"/>
      </g>
     </g>
    </g>
    <g id="ytick_68">
     <g id="line2d_162">
      <g>
       <use style="stroke:#000000;stroke-width:0.48;" x="105.894662" xlink:href="#m9a6bb50e53" y="185.881157"/>
      </g>
     </g>
    </g>
    <g id="text_32">
     <!-- ylabel -->
     <g transform="translate(84.672943 262.385165)rotate(-90)scale(0.09 -0.09)">
      <use xlink:href="#TeXGyreHeros-Regular-121"/>
      <use x="49.999985" xlink:href="#TeXGyreHeros-Regular-108"/>
      <use x="72.199982" xlink:href="#TeXGyreHeros-Regular-97"/>
      <use x="127.799973" xlink:href="#TeXGyreHeros-Regular-98"/>
      <use x="183.399963" xlink:href="#TeXGyreHeros-Regular-101"/>
      <use x="238.999954" xlink:href="#TeXGyreHeros-Regular-108"/>
     </g>
    </g>
   </g>
   <g id="line2d_163">
    <path clip-path="url(#p4c61754192)" d="M 105.894662 261.600493 
L 107.230291 255.260675 
L 108.565921 254.555712 
L 109.90155 249.863184 
L 111.237179 252.676268 
L 112.572808 256.22986 
L 113.908438 257.33699 
L 115.244067 260.902082 
L 116.579696 262.472781 
L 117.915325 255.40585 
L 119.250954 250.767206 
L 120.586584 250.185676 
L 121.922213 244.202698 
L 123.257842 247.982123 
L 124.593471 249.698506 
L 125.929101 240.97187 
L 127.26473 243.28387 
L 128.600359 253.234866 
L 129.935988 259.375479 
L 131.271617 256.830145 
L 132.607247 251.222079 
L 133.942876 258.548987 
L 135.278505 263.369838 
L 136.614134 269.736752 
L 137.949764 273.658982 
L 139.285393 270.070348 
L 140.621022 267.263323 
L 141.956651 259.48645 
L 143.29228 264.571063 
L 144.62791 264.92714 
L 145.963539 261.303825 
L 147.299168 270.208215 
L 148.634797 278.874994 
L 149.970427 275.980523 
L 151.306056 269.808437 
L 152.641685 277.434982 
L 153.977314 282.998965 
L 155.312943 280.846183 
L 156.648573 286.801636 
L 157.984202 277.374548 
L 159.319831 277.428394 
L 160.65546 280.884128 
L 161.99109 272.64815 
L 163.326719 268.462117 
L 164.662348 268.872766 
L 165.997977 272.990407 
L 167.333607 265.10707 
L 168.669236 267.916879 
L 170.004865 265.311921 
L 171.340494 265.039352 
L 172.676123 258.591238 
L 174.011753 265.328177 
L 175.347382 262.091369 
L 176.683011 271.7954 
L 178.01864 272.339726 
L 179.35427 263.154769 
L 180.689899 262.254702 
L 182.025528 267.677044 
L 183.361157 270.320818 
L 184.696786 268.964977 
L 186.032416 273.472812 
L 187.368045 267.744372 
L 188.703674 274.256763 
L 190.039303 265.429033 
L 191.374933 261.136715 
L 192.710562 260.006661 
L 194.046191 252.782804 
L 195.38182 256.970238 
L 196.717449 260.139648 
L 198.053079 252.03876 
L 199.388708 259.225498 
L 200.724337 267.802667 
L 202.059966 260.238422 
L 203.395596 267.292608 
L 204.731225 261.465847 
L 206.066854 268.813839 
L 207.402483 275.264358 
L 208.738112 280.737485 
L 210.073742 275.045247 
L 211.409371 269.032146 
L 212.745 267.956195 
L 214.080629 270.49503 
L 215.416259 260.945449 
L 216.751888 268.503903 
L 218.087517 272.725921 
L 219.423146 281.754381 
L 220.758775 275.765121 
L 222.094405 279.414067 
L 223.430034 279.971608 
L 224.765663 282.410983 
L 226.101292 283.377964 
L 227.436922 288.21049 
L 228.772551 297.207865 
L 230.10818 306.83631 
L 231.443809 306.73654 
L 232.779438 315.689959 
L 234.115068 313.692829 
L 235.450697 314.55856 
L 236.786326 310.282267 
L 238.121955 306.67761 
" style="fill:none;stroke:#0072b2;stroke-linecap:square;stroke-width:2;"/>
   </g>
   <g id="line2d_164">
    <path clip-path="url(#p4c61754192)" d="M 105.894662 257.790712 
L 107.230291 260.138599 
L 108.565921 260.255547 
L 109.90155 252.219903 
L 111.237179 261.123326 
L 112.572808 251.470037 
L 113.908438 246.515237 
L 115.244067 238.032066 
L 116.579696 235.736474 
L 117.915325 235.263043 
L 119.250954 230.105562 
L 120.586584 225.160657 
L 121.922213 232.535807 
L 123.257842 226.181387 
L 124.593471 223.047127 
L 125.929101 229.689734 
L 127.26473 232.830165 
L 128.600359 241.047394 
L 129.935988 241.039219 
L 131.271617 245.181847 
L 132.607247 249.401079 
L 133.942876 244.030009 
L 135.278505 246.533303 
L 136.614134 250.904764 
L 137.949764 243.319226 
L 139.285393 240.856603 
L 140.621022 240.422711 
L 141.956651 237.377918 
L 143.29228 242.516849 
L 144.62791 240.930714 
L 145.963539 231.072021 
L 147.299168 221.677765 
L 148.634797 221.219527 
L 149.970427 211.80896 
L 151.306056 202.941543 
L 152.641685 194.214041 
L 153.977314 195.244582 
L 155.312943 203.988247 
L 156.648573 210.70291 
L 157.984202 212.879628 
L 159.319831 217.922419 
L 160.65546 212.924754 
L 161.99109 209.110277 
L 163.326719 211.631925 
L 164.662348 206.230521 
L 165.997977 198.851789 
L 167.333607 192.593857 
L 168.669236 195.365604 
L 170.004865 192.504125 
L 171.340494 191.499149 
L 172.676123 196.743089 
L 174.011753 187.09229 
L 175.347382 195.662803 
L 176.683011 203.149116 
L 178.01864 193.725997 
L 179.35427 185.573495 
L 180.689899 194.169283 
L 182.025528 203.580998 
L 183.361157 194.909336 
L 184.696786 198.36041 
L 186.032416 202.11816 
L 187.368045 211.851608 
L 188.703674 205.004037 
L 190.039303 214.937881 
L 191.374933 214.58017 
L 192.710562 219.230341 
L 194.046191 219.280992 
L 195.38182 223.522305 
L 196.717449 225.782108 
L 198.053079 231.872536 
L 199.388708 239.194259 
L 200.724337 242.855972 
L 202.059966 251.77343 
L 203.395596 252.119312 
L 204.731225 246.273139 
L 206.066854 236.750374 
L 207.402483 242.11758 
L 208.738112 249.97077 
L 210.073742 258.46776 
L 211.409371 251.937043 
L 212.745 253.766061 
L 214.080629 246.972542 
L 215.416259 243.28901 
L 216.751888 248.387314 
L 218.087517 238.550498 
L 219.423146 244.984316 
L 220.758775 243.493423 
L 222.094405 233.692447 
L 223.430034 240.24861 
L 224.765663 248.371321 
L 226.101292 238.740738 
L 227.436922 245.090456 
L 228.772551 254.105038 
L 230.10818 259.058979 
L 231.443809 264.695733 
L 232.779438 270.249109 
L 234.115068 278.142615 
L 235.450697 274.574634 
L 236.786326 279.767238 
L 238.121955 288.082131 
" style="fill:none;stroke:#d55e00;stroke-linecap:square;stroke-width:2;"/>
   </g>
   <g id="line2d_165">
    <path clip-path="url(#p4c61754192)" d="M 105.894662 264.488896 
L 107.230291 270.842191 
L 108.565921 275.323132 
L 109.90155 283.270995 
L 111.237179 273.885965 
L 112.572808 273.968028 
L 113.908438 265.608189 
L 115.244067 262.24346 
L 116.579696 252.697686 
L 117.915325 255.173287 
L 119.250954 258.992695 
L 120.586584 258.064359 
L 121.922213 267.984879 
L 123.257842 277.534935 
L 124.593471 285.944192 
L 125.929101 276.427978 
L 127.26473 283.16979 
L 128.600359 282.185625 
L 129.935988 288.973167 
L 131.271617 291.448293 
L 132.607247 281.72816 
L 133.942876 285.529656 
L 135.278505 279.693307 
L 136.614134 270.535769 
L 137.949764 266.194606 
L 139.285393 259.393196 
L 140.621022 250.835771 
L 141.956651 244.174083 
L 143.29228 245.094609 
L 144.62791 249.062057 
L 145.963539 248.85082 
L 147.299168 251.658078 
L 148.634797 254.787707 
L 149.970427 253.370317 
L 151.306056 243.468144 
L 152.641685 239.40805 
L 153.977314 239.220954 
L 155.312943 233.049021 
L 156.648573 236.338391 
L 157.984202 227.319041 
L 159.319831 234.578565 
L 160.65546 225.068577 
L 161.99109 227.613701 
L 163.326719 237.052941 
L 164.662348 244.597817 
L 165.997977 251.617791 
L 167.333607 246.560988 
L 168.669236 249.812412 
L 170.004865 256.826924 
L 171.340494 259.612372 
L 172.676123 249.709527 
L 174.011753 254.445681 
L 175.347382 248.14444 
L 176.683011 240.341064 
L 178.01864 238.001828 
L 179.35427 246.891458 
L 180.689899 254.179768 
L 182.025528 247.949566 
L 183.361157 241.364586 
L 184.696786 240.345261 
L 186.032416 246.421318 
L 187.368045 252.717214 
L 188.703674 261.017284 
L 190.039303 266.750251 
L 191.374933 273.535707 
L 192.710562 266.625647 
L 194.046191 268.589046 
L 195.38182 260.362594 
L 196.717449 258.391938 
L 198.053079 263.196372 
L 199.388708 272.931525 
L 200.724337 263.536336 
L 202.059966 257.725728 
L 203.395596 257.662677 
L 204.731225 259.833195 
L 206.066854 260.806032 
L 207.402483 265.686608 
L 208.738112 260.423479 
L 210.073742 250.480048 
L 211.409371 250.873236 
L 212.745 247.697901 
L 214.080629 245.56067 
L 215.416259 243.289621 
L 216.751888 238.274261 
L 218.087517 232.019958 
L 219.423146 230.467254 
L 220.758775 231.650413 
L 222.094405 226.106423 
L 223.430034 223.924132 
L 224.765663 214.96062 
L 226.101292 220.054413 
L 227.436922 217.901785 
L 228.772551 217.266897 
L 230.10818 223.833786 
L 231.443809 227.652722 
L 232.779438 229.71217 
L 234.115068 220.202056 
L 235.450697 218.411538 
L 236.786326 221.561059 
L 238.121955 228.808622 
" style="fill:none;stroke:#009e73;stroke-linecap:square;stroke-width:2;"/>
   </g>
   <g id="line2d_166">
    <path clip-path="url(#p4c61754192)" d="M 105.894662 263.788146 
L 107.230291 268.520576 
L 108.565921 274.693693 
L 109.90155 275.304771 
L 111.237179 285.277533 
L 112.572808 278.116492 
L 113.908438 281.185251 
L 115.244067 283.271823 
L 116.579696 291.089085 
L 117.915325 300.80881 
L 119.250954 301.419948 
L 120.586584 299.617463 
L 121.922213 293.86078 
L 123.257842 291.117039 
L 124.593471 298.362322 
L 125.929101 291.179611 
L 127.26473 292.39983 
L 128.600359 299.982411 
L 129.935988 304.587811 
L 131.271617 295.279786 
L 132.607247 297.369169 
L 133.942876 291.961727 
L 135.278505 289.343781 
L 136.614134 299.046265 
L 137.949764 294.689693 
L 139.285393 300.802203 
L 140.621022 304.844529 
L 141.956651 297.213689 
L 143.29228 306.861905 
L 144.62791 297.100231 
L 145.963539 294.372387 
L 147.299168 303.821949 
L 148.634797 301.291678 
L 149.970427 305.090127 
L 151.306056 299.464884 
L 152.641685 301.20093 
L 153.977314 302.734342 
L 155.312943 306.807832 
L 156.648573 301.313103 
L 157.984202 305.941902 
L 159.319831 305.93681 
L 160.65546 304.287114 
L 161.99109 297.247929 
L 163.326719 300.682553 
L 164.662348 291.686995 
L 165.997977 299.978716 
L 167.333607 293.919302 
L 168.669236 303.904969 
L 170.004865 307.00705 
L 171.340494 299.504693 
L 172.676123 297.570373 
L 174.011753 302.021213 
L 175.347382 293.059139 
L 176.683011 295.472282 
L 178.01864 289.890372 
L 179.35427 292.305387 
L 180.689899 287.751661 
L 182.025528 296.961601 
L 183.361157 297.647831 
L 184.696786 306.173289 
L 186.032416 314.269631 
L 187.368045 306.632821 
L 188.703674 310.345841 
L 190.039303 313.089137 
L 191.374933 303.901791 
L 192.710562 312.084432 
L 194.046191 309.120719 
L 195.38182 309.190609 
L 196.717449 299.408791 
L 198.053079 295.595868 
L 199.388708 301.363328 
L 200.724337 300.803061 
L 202.059966 298.085346 
L 203.395596 291.64981 
L 204.731225 289.731981 
L 206.066854 298.253568 
L 207.402483 289.123613 
L 208.738112 298.785688 
L 210.073742 299.382322 
L 211.409371 298.44265 
L 212.745 292.035111 
L 214.080629 297.442111 
L 215.416259 301.896976 
L 216.751888 296.804254 
L 218.087517 304.423524 
L 219.423146 298.661623 
L 220.758775 296.250765 
L 222.094405 306.112716 
L 223.430034 299.840138 
L 224.765663 290.902473 
L 226.101292 294.397495 
L 227.436922 295.046552 
L 228.772551 288.77164 
L 230.10818 282.365738 
L 231.443809 283.572415 
L 232.779438 280.503618 
L 234.115068 272.098114 
L 235.450697 280.545326 
L 236.786326 274.615114 
L 238.121955 274.270479 
" style="fill:none;stroke:#cc79a7;stroke-linecap:square;stroke-width:2;"/>
   </g>
   <g id="line2d_167">
    <path clip-path="url(#p4c61754192)" d="M 105.894662 258.512283 
L 107.230291 267.101906 
L 108.565921 260.152787 
L 109.90155 251.953531 
L 111.237179 248.566533 
L 112.572808 253.358704 
L 113.908438 260.662411 
L 115.244067 268.372067 
L 116.579696 273.413931 
L 117.915325 280.079908 
L 119.250954 279.796029 
L 120.586584 271.674761 
L 121.922213 263.110214 
L 123.257842 259.380359 
L 124.593471 251.321572 
L 125.929101 260.516496 
L 127.26473 268.389697 
L 128.600359 278.082726 
L 129.935988 284.866665 
L 131.271617 283.454484 
L 132.607247 287.152957 
L 133.942876 280.647316 
L 135.278505 286.342707 
L 136.614134 293.690162 
L 137.949764 293.970985 
L 139.285393 296.143353 
L 140.621022 303.203257 
L 141.956651 308.183884 
L 143.29228 302.835979 
L 144.62791 303.960746 
L 145.963539 307.690836 
L 147.299168 309.334088 
L 148.634797 312.777254 
L 149.970427 305.370078 
L 151.306056 299.091173 
L 152.641685 302.985981 
L 153.977314 302.967574 
L 155.312943 296.033541 
L 156.648573 291.859461 
L 157.984202 288.422367 
L 159.319831 297.263815 
L 160.65546 291.732044 
L 161.99109 301.150811 
L 163.326719 304.611625 
L 164.662348 300.771798 
L 165.997977 301.164737 
L 167.333607 309.250814 
L 168.669236 306.512581 
L 170.004865 304.649475 
L 171.340494 303.503251 
L 172.676123 300.076948 
L 174.011753 293.120258 
L 175.347382 295.052295 
L 176.683011 288.35219 
L 178.01864 287.768011 
L 179.35427 288.074446 
L 180.689899 286.383429 
L 182.025528 276.999483 
L 183.361157 273.291292 
L 184.696786 282.565546 
L 186.032416 275.303153 
L 187.368045 277.568528 
L 188.703674 273.035944 
L 190.039303 273.87951 
L 191.374933 272.105531 
L 192.710562 268.678562 
L 194.046191 262.43384 
L 195.38182 262.006612 
L 196.717449 261.401663 
L 198.053079 254.479656 
L 199.388708 256.445831 
L 200.724337 248.68055 
L 202.059966 245.850139 
L 203.395596 250.819008 
L 204.731225 258.010424 
L 206.066854 251.334219 
L 207.402483 260.347663 
L 208.738112 256.051689 
L 210.073742 256.394311 
L 211.409371 249.3769 
L 212.745 248.829348 
L 214.080629 258.283568 
L 215.416259 265.852775 
L 216.751888 258.897679 
L 218.087517 259.480693 
L 219.423146 262.817305 
L 220.758775 270.976223 
L 222.094405 262.70947 
L 223.430034 270.429276 
L 224.765663 276.978238 
L 226.101292 280.426006 
L 227.436922 276.759726 
L 228.772551 272.010365 
L 230.10818 267.742155 
L 231.443809 264.846421 
L 232.779438 261.477941 
L 234.115068 258.143247 
L 235.450697 258.842412 
L 236.786326 260.430556 
L 238.121955 252.239681 
" style="fill:none;stroke:#f0e442;stroke-linecap:square;stroke-width:2;"/>
   </g>
   <g id="patch_13">
    <path d="M 105.894662 315.689959 
L 105.894662 185.573495 
" style="fill:none;stroke:#000000;stroke-linecap:square;stroke-linejoin:miter;stroke-width:0.6;"/>
   </g>
   <g id="patch_14">
    <path d="M 238.121955 315.689959 
L 238.121955 185.573495 
" style="fill:none;stroke:#000000;stroke-linecap:square;stroke-linejoin:miter;stroke-width:0.6;"/>
   </g>
   <g id="patch_15">
    <path d="M 105.894662 315.689959 
L 238.121955 315.689959 
" style="fill:none;stroke:#000000;stroke-linecap:square;stroke-linejoin:miter;stroke-width:0.6;"/>
   </g>
   <g id="patch_16">
    <path d="M 105.894662 185.573495 
L 238.121955 185.573495 
" style="fill:none;stroke:#000000;stroke-linecap:square;stroke-linejoin:miter;stroke-width:0.6;"/>
   </g>
   <g id="text_33">
    <!-- c -->
    <defs>
     <path d="M 52.203125 18.703125 
Q 51.203125 10 44.796875 4.546875 
Q 38.40625 -0.90625 28.703125 -0.90625 
Q 16.59375 -0.90625 10 6.1875 
Q 3.40625 13.296875 3.40625 26.59375 
Q 3.40625 40.296875 10.046875 47.59375 
Q 16.703125 54.90625 28.90625 54.90625 
Q 39 54.90625 45.25 49.296875 
Q 51.5 43.703125 52.203125 33.796875 
L 38.796875 33.796875 
Q 37.59375 39.09375 35.34375 41.34375 
Q 33.09375 43.59375 28.796875 43.59375 
Q 17.40625 43.59375 17.40625 26.59375 
Q 17.40625 18.796875 20.40625 14.59375 
Q 23.40625 10.40625 28.796875 10.40625 
Q 32.796875 10.40625 35.09375 12.40625 
Q 37.40625 14.40625 38.796875 18.703125 
z
" id="TeXGyreHeros-Bold-99"/>
    </defs>
    <g transform="translate(110.394662 197.36412)scale(0.1 -0.1)">
     <use xlink:href="#TeXGyreHeros-Bold-99"/>
    </g>
   </g>
  </g>
  <g id="text_34">
   <!-- Complex subplot grid -->
   <defs>
    <path d="M 68.5 24.90625 
Q 67.796875 12.5 59.4375 5.640625 
Q 51.09375 -1.203125 37.40625 -1.203125 
Q 22.09375 -1.203125 13.25 8.84375 
Q 4.40625 18.90625 4.40625 36.40625 
Q 4.40625 54 13.34375 64.046875 
Q 22.296875 74.09375 37.796875 74.09375 
Q 50.5 74.09375 58.890625 67.296875 
Q 67.296875 60.5 68.203125 48.203125 
L 53.90625 48.203125 
Q 50.796875 61.296875 38.296875 61.296875 
Q 29.40625 61.296875 24.40625 54.75 
Q 19.40625 48.203125 19.40625 36.203125 
Q 19.40625 24.296875 24.25 17.84375 
Q 29.09375 11.40625 37.796875 11.40625 
Q 52.59375 11.40625 53.90625 24.90625 
z
" id="TeXGyreHeros-Bold-67"/>
    <path d="M 56.90625 26.59375 
Q 56.90625 13.703125 49.75 6.390625 
Q 42.59375 -0.90625 30.203125 -0.90625 
Q 17.703125 -0.90625 10.59375 6.390625 
Q 3.5 13.703125 3.5 27 
Q 3.5 40.203125 10.59375 47.546875 
Q 17.703125 54.90625 30.09375 54.90625 
Q 42.90625 54.90625 49.90625 47.546875 
Q 56.90625 40.203125 56.90625 26.59375 
z
M 42.90625 26.796875 
Q 42.90625 34.703125 39.453125 39.140625 
Q 36 43.59375 30.203125 43.59375 
Q 24.40625 43.59375 20.953125 39.140625 
Q 17.5 34.703125 17.5 27 
Q 17.5 19.296875 20.953125 14.84375 
Q 24.40625 10.40625 30.203125 10.40625 
Q 35.90625 10.40625 39.40625 14.84375 
Q 42.90625 19.296875 42.90625 26.796875 
z
" id="TeXGyreHeros-Bold-111"/>
    <path d="M 82.40625 0 
L 68.40625 0 
L 68.40625 36 
Q 68.40625 39.203125 66.34375 41.09375 
Q 64.296875 43 60.796875 43 
Q 56.296875 43 53.75 40.203125 
Q 51.203125 37.40625 51.203125 32.40625 
L 51.203125 0 
L 37.203125 0 
L 37.203125 36 
Q 37.203125 39.203125 35.140625 41.09375 
Q 33.09375 43 29.59375 43 
Q 25.09375 43 22.546875 40.203125 
Q 20 37.40625 20 32.40625 
L 20 0 
L 6 0 
L 6 54 
L 19.90625 54 
L 19.90625 47.296875 
Q 23.40625 51.40625 26.75 53.15625 
Q 30.09375 54.90625 34.703125 54.90625 
Q 45.296875 54.90625 49.40625 46.90625 
Q 55.40625 54.90625 65.203125 54.90625 
Q 73.296875 54.90625 77.84375 50.5 
Q 82.40625 46.09375 82.40625 38.203125 
z
" id="TeXGyreHeros-Bold-109"/>
    <path d="M 57.40625 27 
Q 57.40625 14.796875 51 6.9375 
Q 44.59375 -0.90625 34.796875 -0.90625 
Q 24.40625 -0.90625 19.796875 7.203125 
L 19.796875 -21.796875 
L 5.796875 -21.796875 
L 5.796875 54 
L 19.796875 54 
L 19.796875 46 
Q 24.796875 54.90625 34.796875 54.90625 
Q 45.203125 54.90625 51.296875 47.09375 
Q 57.40625 39.296875 57.40625 27 
z
M 43.40625 26.796875 
Q 43.40625 34.40625 40.203125 38.796875 
Q 37 43.203125 31.59375 43.203125 
Q 26.296875 43.203125 23.046875 38.84375 
Q 19.796875 34.5 19.796875 27 
Q 19.796875 19.5 23.046875 15.140625 
Q 26.296875 10.796875 31.59375 10.796875 
Q 36.796875 10.796875 40.09375 15.140625 
Q 43.40625 19.5 43.40625 26.796875 
z
" id="TeXGyreHeros-Bold-112"/>
    <path d="M 20.703125 0 
L 6.703125 0 
L 6.703125 72.90625 
L 20.703125 72.90625 
z
" id="TeXGyreHeros-Bold-108"/>
    <path d="M 52.5 25 
L 52.40625 23.296875 
L 16.203125 23.296875 
Q 16.5 15.796875 19.296875 12.796875 
Q 22.09375 9.796875 27.40625 9.796875 
Q 36.40625 9.796875 38.09375 15.203125 
L 51.90625 15.203125 
Q 49.59375 7.40625 42.890625 3.25 
Q 36.203125 -0.90625 26.90625 -0.90625 
Q 15.296875 -0.90625 8.75 6.25 
Q 2.203125 13.40625 2.203125 26.296875 
Q 2.203125 39.796875 8.84375 47.34375 
Q 15.5 54.90625 27.203125 54.90625 
Q 39.09375 54.90625 45.796875 46.953125 
Q 52.5 39 52.5 25 
z
M 37.90625 32.59375 
Q 37.40625 38.296875 34.5 41.25 
Q 31.59375 44.203125 27 44.203125 
Q 17.796875 44.203125 16.40625 32.59375 
z
" id="TeXGyreHeros-Bold-101"/>
    <path d="M 53.5 0 
L 36.703125 0 
L 27.59375 16.796875 
L 18.40625 0 
L 1.59375 0 
L 19.59375 27.203125 
L 2 54 
L 18.796875 54 
L 27.59375 37.703125 
L 36.296875 54 
L 53.09375 54 
L 35.5 27.203125 
z
" id="TeXGyreHeros-Bold-120"/>
    <path id="TeXGyreHeros-Bold-32"/>
    <path d="M 52 16 
Q 52 7.796875 45.890625 3.4375 
Q 39.796875 -0.90625 28.40625 -0.90625 
Q 3.5 -0.90625 2.90625 17.09375 
L 16.59375 17.09375 
Q 17.5 13 20 11.546875 
Q 22.5 10.09375 27.59375 10.09375 
Q 38 10.09375 38 14.703125 
Q 38 16.90625 33.296875 18.40625 
L 16.59375 23.59375 
Q 9.5 25.796875 7.140625 28.6875 
Q 4.796875 31.59375 4.796875 36.90625 
Q 4.796875 45.203125 10.75 50.046875 
Q 16.703125 54.90625 27 54.90625 
Q 37.90625 54.90625 44.09375 50.046875 
Q 50.296875 45.203125 50.5 36.59375 
L 37 36.59375 
Q 36.90625 43.90625 26.90625 43.90625 
Q 23.203125 43.90625 21 42.546875 
Q 18.796875 41.203125 18.796875 38.90625 
Q 18.796875 37.203125 19.796875 36.34375 
Q 20.796875 35.5 23.703125 34.703125 
L 41.40625 29.59375 
Q 52 26.5 52 16.703125 
z
" id="TeXGyreHeros-Bold-115"/>
    <path d="M 54.09375 0 
L 40.09375 0 
L 40.09375 7.09375 
Q 34.09375 -0.90625 23.90625 -0.90625 
Q 15.296875 -0.90625 10.546875 4 
Q 5.796875 8.90625 5.796875 17.796875 
L 5.796875 54 
L 19.796875 54 
L 19.796875 20.703125 
Q 19.796875 11 28.796875 11 
Q 33.90625 11 37 13.890625 
Q 40.09375 16.796875 40.09375 21.59375 
L 40.09375 54 
L 54.09375 54 
z
" id="TeXGyreHeros-Bold-117"/>
    <path d="M 30.09375 0 
Q 29.5 0 26.640625 -0.203125 
Q 23.796875 -0.40625 22 -0.40625 
Q 15 -0.40625 11.640625 2.4375 
Q 8.296875 5.296875 8.296875 11.59375 
L 8.296875 43.59375 
L 1.40625 43.59375 
L 1.40625 52.90625 
L 8.296875 52.90625 
L 8.296875 67.40625 
L 22.296875 67.40625 
L 22.296875 52.90625 
L 30.09375 52.90625 
L 30.09375 43.59375 
L 22.296875 43.59375 
L 22.296875 15.40625 
Q 22.296875 11.796875 23.1875 10.640625 
Q 24.09375 9.5 26.90625 9.5 
Q 28 9.5 30.09375 9.796875 
z
" id="TeXGyreHeros-Bold-116"/>
    <path d="M 54.09375 -1.796875 
Q 54.09375 -11.296875 47.34375 -16.546875 
Q 40.59375 -21.796875 28.40625 -21.796875 
Q 17.5 -21.796875 11.09375 -17.5 
Q 4.703125 -13.203125 4.5 -6.5 
L 19 -6.5 
Q 20.703125 -12.796875 28.90625 -12.796875 
Q 34.203125 -12.796875 37.5 -9.75 
Q 40.796875 -6.703125 40.796875 -1.796875 
L 40.796875 6.203125 
Q 36.796875 2.203125 33.5 0.640625 
Q 30.203125 -0.90625 25.5 -0.90625 
Q 15.5 -0.90625 9.453125 6.5 
Q 3.40625 13.90625 3.40625 26.40625 
Q 3.40625 38.90625 9.75 46.90625 
Q 16.09375 54.90625 25.796875 54.90625 
Q 34.796875 54.90625 40.796875 45.703125 
L 40.796875 54 
L 54.09375 54 
z
M 41 26.59375 
Q 41 34 37.546875 38.59375 
Q 34.09375 43.203125 28.796875 43.203125 
Q 23.703125 43.203125 20.546875 38.703125 
Q 17.40625 34.203125 17.40625 26.59375 
Q 17.40625 19.296875 20.5 15.046875 
Q 23.59375 10.796875 28.59375 10.796875 
Q 34.09375 10.796875 37.546875 15.046875 
Q 41 19.296875 41 26.59375 
z
" id="TeXGyreHeros-Bold-103"/>
    <path d="M 37 40.59375 
Q 34.5 41 32.59375 41 
Q 20.296875 41 20.296875 28.703125 
L 20.296875 0 
L 6.296875 0 
L 6.296875 54 
L 20.296875 54 
L 20.296875 43.40625 
Q 22.5 48.90625 26.5 51.90625 
Q 30.5 54.90625 35.296875 54.90625 
Q 36.203125 54.90625 37 54.796875 
z
" id="TeXGyreHeros-Bold-114"/>
    <path d="M 20.703125 0 
L 6.703125 0 
L 6.703125 54 
L 20.703125 54 
z
M 20.90625 60.5 
L 6.90625 60.5 
L 6.90625 74.5 
L 20.90625 74.5 
z
" id="TeXGyreHeros-Bold-105"/>
    <path d="M 54.5 0 
L 40.5 0 
L 40.5 6.203125 
Q 35.09375 -0.90625 25.59375 -0.90625 
Q 15.203125 -0.90625 9.046875 7.046875 
Q 2.90625 15 2.90625 26.90625 
Q 2.90625 39.09375 9.40625 47 
Q 15.90625 54.90625 25.59375 54.90625 
Q 35.40625 54.90625 40.5 47 
L 40.5 72.90625 
L 54.5 72.90625 
z
M 40.5 26.703125 
Q 40.5 34.40625 37.296875 38.796875 
Q 34.09375 43.203125 28.703125 43.203125 
Q 23.40625 43.203125 20.15625 38.75 
Q 16.90625 34.296875 16.90625 26.890625 
Q 16.90625 19.5 20.15625 15.140625 
Q 23.40625 10.796875 28.703125 10.796875 
Q 34 10.796875 37.25 15.09375 
Q 40.5 19.40625 40.5 26.703125 
z
" id="TeXGyreHeros-Bold-100"/>
   </defs>
   <g transform="translate(120.616903 11.95)scale(0.1 -0.1)">
    <use xlink:href="#TeXGyreHeros-Bold-67"/>
    <use x="72.199982" xlink:href="#TeXGyreHeros-Bold-111"/>
    <use x="133.299973" xlink:href="#TeXGyreHeros-Bold-109"/>
    <use x="222.199966" xlink:href="#TeXGyreHeros-Bold-112"/>
    <use x="283.299957" xlink:href="#TeXGyreHeros-Bold-108"/>
    <use x="311.099945" xlink:href="#TeXGyreHeros-Bold-101"/>
    <use x="366.699936" xlink:href="#TeXGyreHeros-Bold-120"/>
    <use x="422.299927" xlink:href="#TeXGyreHeros-Bold-32"/>
    <use x="450.099915" xlink:href="#TeXGyreHeros-Bold-115"/>
    <use x="505.699905" xlink:href="#TeXGyreHeros-Bold-117"/>
    <use x="566.799896" xlink:href="#TeXGyreHeros-Bold-98"/>
    <use x="627.899887" xlink:href="#TeXGyreHeros-Bold-112"/>
    <use x="688.999878" xlink:href="#TeXGyreHeros-Bold-108"/>
    <use x="716.799866" xlink:href="#TeXGyreHeros-Bold-111"/>
    <use x="777.899857" xlink:href="#TeXGyreHeros-Bold-116"/>
    <use x="811.199844" xlink:href="#TeXGyreHeros-Bold-32"/>
    <use x="838.999832" xlink:href="#TeXGyreHeros-Bold-103"/>
    <use x="900.099823" xlink:href="#TeXGyreHeros-Bold-114"/>
    <use x="938.999817" xlink:href="#TeXGyreHeros-Bold-105"/>
    <use x="966.799805" xlink:href="#TeXGyreHeros-Bold-100"/>
   </g>
  </g>
 </g>
 <defs>
  <clipPath id="pfbcfbdd48b">
   <rect height="130.116464" width="129.725574" x="34.531875" y="20.410469"/>
  </clipPath>
  <clipPath id="p9294a4fe1c">
   <rect height="130.116464" width="129.725574" x="179.759168" y="20.410469"/>
  </clipPath>
  <clipPath id="p4c61754192">
   <rect height="130.116464" width="132.227293" x="105.894662" y="185.573495"/>
  </clipPath>
 </defs>
</svg>
